<?xml version="1.0" encoding="UTF-8" standalone="no"?>
<svg
   xmlns:dc="http://purl.org/dc/elements/1.1/"
   xmlns:cc="http://creativecommons.org/ns#"
   xmlns:rdf="http://www.w3.org/1999/02/22-rdf-syntax-ns#"
   xmlns:svg="http://www.w3.org/2000/svg"
   xmlns="http://www.w3.org/2000/svg"
   id="svg8"
   version="1.1"
   viewBox="0 0 1899.671 1668.4368"
   height="1668.4369mm"
   width="1899.6709mm">
  <defs
     id="defs2" />
  <metadata
     id="metadata5">
    <rdf:RDF>
      <cc:Work
         rdf:about="">
        <dc:format>image/svg+xml</dc:format>
        <dc:type
           rdf:resource="http://purl.org/dc/dcmitype/StillImage" />
        <dc:title></dc:title>
      </cc:Work>
    </rdf:RDF>
  </metadata>
  <g
     transform="translate(1426.2898,844.89009)"
     id="layer3">
    <text
       id="text4697"
       y="-550.12146"
       x="-53.653603"
       style="font-style:normal;font-weight:normal;font-size:7.05555534px;line-height:1.25;font-family:sans-serif;letter-spacing:0px;word-spacing:0px;fill:#000000;fill-opacity:1;stroke:none;stroke-width:0.26458332"
       xml:space="preserve"><tspan
         style="font-size:50.79999924px;stroke-width:0.26458332"
         y="-543.68445"
         x="-53.653603"
         id="tspan4695" /></text>
    <flowRoot
       transform="matrix(0.26458333,0,0,0.26458333,-1220.8441,-833.03808)"
       style="font-style:normal;font-weight:normal;font-size:40px;line-height:1.25;font-family:sans-serif;letter-spacing:0px;word-spacing:0px;fill:#000000;fill-opacity:1;stroke:none"
       id="flowRoot4699"
       xml:space="preserve"><flowRegion
         id="flowRegion4701"><rect
           y="768.43805"
           x="4390.6279"
           height="247.48738"
           width="16.667517"
           id="rect4703" /></flowRegion><flowPara
         id="flowPara4705" /></flowRoot>    <flowRoot
       transform="matrix(0.26458333,0,0,0.26458333,-1220.8441,-833.03808)"
       style="font-style:normal;font-weight:normal;font-size:40px;line-height:1.25;font-family:sans-serif;letter-spacing:0px;word-spacing:0px;fill:#000000;fill-opacity:1;stroke:none"
       id="flowRoot4711"
       xml:space="preserve"><flowRegion
         id="flowRegion4713"><rect
           y="1017.8627"
           x="4382.8569"
           height="165.71428"
           width="0"
           id="rect4715" /></flowRegion><flowPara
         id="flowPara4717" /></flowRoot>    <rect
       y="-844.80963"
       x="-1426.2094"
       height="1668.276"
       width="1899.51"
       id="rect5043"
       style="opacity:1;fill:#000080;stroke:#000080;stroke-width:0.16091938;stroke-miterlimit:10;stroke-dasharray:none;paint-order:stroke fill markers" />
    <rect
       style="opacity:1;fill:#000080;stroke:#000080;stroke-width:0.11378719;stroke-miterlimit:10;stroke-dasharray:none;paint-order:stroke fill markers"
       id="rect872"
       width="949.755"
       height="1668.276"
       x="-1426.2094"
       y="-844.80963" />
  </g>
  <g
     transform="translate(1426.2898,844.89009)"
     id="layer2" />
  <g
     transform="translate(1426.2898,844.89009)"
     id="layer1">
    <g
       id="layer1-9"
       transform="translate(-54.386365,-88.403637)" />
    <path
       style="opacity:1;fill:#ffffff;stroke:none;stroke-width:0.35273367"
       id="Unnamed"
       d="m -316.53499,84.94483 c -3.65486,-123.840952 34.5679,-169.488573 57.1429,-210.93478 12.0176,-20.36332 137.5661,-180.59964 83.5979,-365.78482 -27.5133,-126.98412 -84.4233,-217.48147 -190.8289,-291.71075 -95.83778,-66.85713 -206.34218,-72.70546 -347.08997,-47.61904 -385.87684,62.7619 -436.50824,296.82538 -414.81514,514.63842 -3.5273,112.87478 -94.5714,137.55908 -104.4091,207.40741 -5.4745,38.867727 71.0758,59.788357 71.0758,59.788357 0,0 24.8677,94.708993 46.0317,177.954093 2.8219,11.2875 -17.4003,70.7831 20.6949,111.7002 32.7654,20.5256 51.8307,22.8642 92.6494,19.2804 51.73541,-4.4656 129.29096,-21.3298 158.96645,-5.4074 91.00528,60.3175 99.35007,235.53659 99.35007,235.53659 l 571.72569,0.26591 c 0,0 -140.74799,-309.79957 -144.0917,-405.11459 z" />
  </g>
  <g
     transform="translate(1426.2898,844.89009)"
     id="layer4">
    <path
       style="fill:#ffff00;stroke-width:0.35277781"
       d="m -624.95097,-111.78103 c -4.62987,-1.67441 -8.02013,-3.52144 -12.01225,-6.5443 l -3.69973,-2.80149 0.25618,-1.58717 c 0.63804,-3.95316 3.32673,-10.22048 6.43953,-15.01045 l 1.09319,-1.6822 -1.36236,-2.85442 c -0.7493,-1.56993 -1.58101,-2.93874 -1.84825,-3.04182 -0.26725,-0.10307 -2.02143,-0.41456 -3.89819,-0.69217 -3.78373,-0.55971 -8.12392,-1.92466 -11.85427,-3.72806 -1.35035,-0.65281 -2.48962,-1.20913 -2.5317,-1.2363 -0.0421,-0.0272 -0.0607,-1.24575 -0.0413,-2.70797 0.0757,-5.71451 1.32635,-11.85902 3.37891,-16.60085 l 0.97471,-2.25183 3.47402,-0.14596 c 4.04899,-0.17011 9.74671,0.46081 13.48383,1.49308 l 2.62897,0.72619 1.05596,-1.18317 c 0.58078,-0.65074 1.64921,-1.6201 2.37428,-2.15411 l 1.31832,-0.97092 -0.60702,-3.12444 c -0.71269,-3.66831 -0.83585,-8.95123 -0.31194,-13.37982 0.43108,-3.64377 0.20509,-3.45535 5.90851,-4.92629 5.28054,-1.3619 15.18878,-1.65972 16.13611,-0.48502 0.20076,0.24896 0.89196,1.82762 1.53598,3.50815 0.98602,2.57293 1.29205,4.0298 1.93764,9.2244 l 0.76665,6.1689 1.40467,0.59507 c 0.77257,0.32729 2.01609,1.01239 2.76336,1.52245 l 1.35868,0.92736 3.59203,-1.86503 c 3.8282,-1.98765 7.68754,-3.32986 12.18702,-4.23841 l 2.77474,-0.56029 1.5279,2.06281 c 3.15071,4.25376 5.63207,9.51067 7.11027,15.06352 0.80067,3.00773 0.8799,2.85357 -2.97694,5.79099 -3.01348,2.29508 -6.22551,4.11733 -10.08657,5.7223 l -3.14562,1.30757 -0.65606,3.20598 -0.65605,3.20596 1.97902,1.86262 c 1.08846,1.02443 2.56512,2.52515 3.28146,3.33491 1.53737,1.73787 5.22482,7.28775 6.09579,9.1746 l 0.61098,1.32362 -2.89817,3.58775 c -3.16862,3.92254 -6.03613,6.5373 -10.19315,9.29473 -2.49236,1.6532 -2.77796,1.7638 -3.68684,1.42775 -1.92697,-0.71247 -8.88159,-6.47803 -11.45957,-9.50028 l -2.55543,-2.99579 -3.33311,0.33917 c -2.59245,0.26385 -3.36173,0.45419 -3.46198,0.85661 -0.39136,1.57126 -3.14385,6.32584 -5.40358,9.33405 -2.17273,2.8924 -5.21578,6.23425 -5.70268,6.26264 -0.0711,0.004 -1.45073,-0.47043 -3.06599,-1.0546 z m 20.00381,-34.65265 c 5.09671,-4.0649 4.23013,-12.06472 -1.60735,-14.83831 -4.48853,-2.13266 -9.73512,-0.17023 -11.84585,4.43078 -0.75008,1.63505 -0.81193,2.16527 -0.52575,4.50679 0.27739,2.2696 0.49409,2.87565 1.49697,4.18657 2.1992,2.87471 5.18993,4.01333 8.77117,3.33932 1.63996,-0.30865 2.57184,-0.71676 3.71081,-1.62515 z"
       id="path75" />
    <path
       id="path96"
       d="m -759.22975,-98.17937 c -1.65763,-0.5982 -2.87405,-1.22307 -2.97319,-1.52732 -0.51072,-1.56726 -1.45742,-10.60087 -1.5655,-14.9382 -0.0807,-3.24009 -0.28662,-5.06637 -0.57927,-5.13847 -0.24971,-0.0615 -1.94249,-1.05429 -3.76173,-2.20613 l -3.30772,-2.09428 -3.99307,1.84249 c -4.81468,2.2216 -6.49647,2.87324 -11.2574,4.36184 l -3.65523,1.14289 -2.91283,-2.98853 c -3.0946,-3.17506 -7.71247,-8.7271 -9.90409,-11.90768 l -1.32445,-1.92213 1.67156,-3.36681 c 1.65965,-3.34283 5.71889,-9.92233 7.782,-12.61359 l 1.07624,-1.40393 -0.62369,-1.37287 c -0.34301,-0.75509 -1.08644,-2.5446 -1.65208,-3.97669 l -1.02841,-2.60381 -8.51653,-2.15796 c -4.68411,-1.18684 -9.1284,-2.43636 -9.87619,-2.77664 l -1.35964,-0.61871 -0.65041,-4.75137 c -0.73888,-5.39764 -1.00835,-9.66657 -0.89084,-14.11237 l 0.081,-3.06599 2.95428,-1.51055 c 4.04315,-2.0673 8.15563,-3.80439 12.15916,-5.13594 l 3.36522,-1.11925 1.1832,-4.34492 1.18322,-4.34491 -2.95106,-3.10991 c -2.96196,-3.12139 -8.05701,-9.56928 -9.19254,-11.63335 l -0.60754,-1.10432 1.27674,-2.62135 c 1.64168,-3.37058 5.46292,-9.53031 8.09821,-13.05406 2.00265,-2.67784 2.10557,-2.75793 3.47883,-2.70751 0.77831,0.0286 5.31242,0.98013 10.07578,2.11456 l 8.66065,2.06257 0.79183,-0.71067 c 0.43551,-0.39086 1.8947,-1.61827 3.24264,-2.72761 l 2.45083,-2.01693 -0.55599,-4.60111 c -0.3058,-2.53061 -0.58047,-7.05961 -0.61038,-10.06443 l -0.0544,-5.46333 1.97013,-1.07411 c 4.54302,-2.47684 17.38621,-7.41824 18.54121,-7.13367 1.01943,0.25117 8.78303,8.90819 11.70611,13.05325 l 1.50002,2.12708 3.68555,-0.31683 c 2.02705,-0.17427 3.96018,-0.25597 4.29584,-0.18161 0.72024,0.15954 0.9499,-0.15082 3.58768,-4.84974 1.77748,-3.16637 6.95259,-10.82131 8.01767,-11.85964 0.62034,-0.60475 7.37435,0.55346 13.63643,2.33846 8.34232,2.37797 7.83632,2.03452 8.38275,5.68986 0.69983,4.68148 1.06572,8.68057 1.14449,12.50915 0.0392,1.90807 0.0837,3.75835 0.0988,4.11178 0.015,0.35343 0.28517,0.7129 0.60023,0.79884 0.31508,0.0859 1.98525,1.05961 3.71153,2.16369 l 3.13868,2.00739 2.05155,-0.95342 c 4.80705,-2.23398 9.10299,-3.9388 12.88728,-5.11423 l 4.04246,-1.25561 2.60181,2.65511 c 3.4937,3.56528 6.59406,7.21804 9.30174,10.95909 2.18947,3.02507 2.23005,3.12565 1.72999,4.28807 -1.01907,2.36884 -5.59093,10.19412 -7.7237,13.21998 l -2.18197,3.09569 0.48754,1.16119 c 0.26816,0.63864 0.99854,2.42311 1.62307,3.96549 l 1.13552,2.8043 9.04097,2.3435 c 4.97253,1.2889 9.32871,2.50279 9.68041,2.69749 0.35169,0.19469 0.73153,0.38919 0.84409,0.4322 0.3905,0.14926 1.53926,9.69575 1.7156,14.25699 0.0975,2.52191 0.0204,5.35366 -0.17144,6.29278 l -0.3487,1.7075 -4.13506,2.0366 c -2.27427,1.12012 -6.2876,2.81013 -8.9185,3.75556 l -4.78346,1.71896 -1.2526,4.34664 -1.2526,4.34664 2.03533,2.06172 c 2.62075,2.65475 5.65811,6.31328 8.49336,10.23033 l 2.25361,3.1135 -0.61544,1.60092 c -0.98939,2.57359 -4.83173,9.03063 -7.9527,13.36444 l -2.88886,4.0115 -2.11136,-0.25142 c -2.6852,-0.31973 -15.28365,-3.33983 -16.56431,-3.9708 -0.83895,-0.41333 -1.10701,-0.35235 -2.03255,0.46223 -0.58637,0.51614 -2.1574,1.83772 -3.49117,2.93688 l -2.42504,1.99847 0.30896,1.8401 c 0.52874,3.14882 1.00683,10.21461 0.9723,14.36946 l -0.0331,3.97568 -2.00721,1.06498 c -3.33096,1.76732 -10.02876,4.54794 -14.34008,5.95333 l -4.06414,1.32482 -1.19153,-1.12388 c -2.63388,-2.48428 -6.8065,-7.16853 -9.46722,-10.628 -2.6528,-3.44918 -2.87258,-3.64876 -3.85973,-3.50478 -0.57572,0.084 -2.52565,0.23223 -4.33319,0.32946 l -3.28643,0.17677 -1.74095,3.16456 c -2.09176,3.80224 -5.10291,8.50094 -6.91545,10.79116 -0.72789,0.91973 -1.52954,1.96793 -1.78144,2.32934 -0.25454,0.3652 -0.91131,0.64663 -1.47839,0.63349 -1.77289,-0.0411 -14.67519,-3.05336 -17.60166,-4.10946 z m 26.64549,-30.46469 c 10.64716,0.29035 20.72816,-2.32315 29.56052,-7.66358 8.87922,-5.36878 15.75955,-12.97151 20.61479,-22.77924 2.26756,-4.58053 4.81859,-14.93441 4.93852,-20.04408 0.25682,-10.94071 -2.30403,-20.86959 -7.67278,-29.74884 -5.36874,-8.87927 -12.97147,-15.75962 -22.7792,-20.61486 -4.58052,-2.26755 -14.9344,-4.81856 -20.04407,-4.93851 -10.9407,-0.25681 -20.86959,2.30405 -29.74883,7.67286 -8.87921,5.3688 -15.75957,12.97153 -20.6148,22.77926 -2.26756,4.58053 -4.81858,14.93442 -4.93851,20.04408 -0.25698,10.94695 2.30723,20.8829 7.67767,29.75001 5.03708,8.31672 11.97369,14.8744 20.58007,19.45584 4.64538,2.47288 7.15437,3.36061 13.3955,4.73961 3.97171,0.87753 6.69387,1.28371 9.03112,1.34745 z"
       style="fill:#ffff00;stroke-width:0.35277781" />
    <path
       id="path109"
       d="m -402.24104,-255.03295 c -4.51729,-0.53909 -10.53816,-1.56536 -14.30016,-2.43743 l -1.87748,-0.4352 -1.33835,-4.53341 c -1.13725,-3.85222 -1.88013,-6.87301 -3.48553,-14.17337 -0.17323,-0.7877 -0.51991,-1.23525 -1.09985,-1.41987 -0.46579,-0.14831 -2.4811,-0.91227 -4.47847,-1.69778 l -3.63159,-1.42814 -2.98071,2.23682 c -3.65576,2.74334 -6.03956,4.35212 -10.53805,7.11188 l -3.46914,2.12831 -5.05832,-2.99658 c -2.78207,-1.64807 -6.87929,-4.30263 -9.10493,-5.89897 -3.49059,-2.50368 -4.05753,-3.04738 -4.12608,-3.9571 -0.12829,-1.70235 1.95601,-14.72447 2.85149,-17.81546 l 0.41413,-1.42944 -3.17924,-3.18773 c -1.74859,-1.75323 -3.28903,-3.30203 -3.42321,-3.44178 -0.13418,-0.13975 -2.2786,0.16559 -4.76538,0.67853 -6.27993,1.2953 -7.11218,1.44009 -10.7667,1.87264 -1.77172,0.20969 -3.56812,0.4724 -3.992,0.5838 -0.63686,0.1674 -1.0935,-0.22503 -2.62975,-2.25984 -3.53772,-4.68586 -10.09039,-15.12621 -10.14791,-16.16867 -0.0127,-0.23064 1.24253,-2.45442 2.78946,-4.94179 2.87645,-4.62507 3.5398,-5.60065 6.58071,-9.67787 l 1.7449,-2.33953 -1.71796,-4.52051 -1.71795,-4.52052 -1.48166,-0.29431 c -4.20609,-0.83548 -8.33788,-1.83154 -12.04847,-2.90457 -2.27095,-0.65671 -4.65258,-1.31812 -5.2925,-1.46981 -0.63992,-0.1517 -1.17473,-0.46645 -1.18849,-0.69945 -0.0139,-0.23301 -0.44685,-2.49196 -0.96245,-5.01986 -0.51559,-2.52791 -1.26956,-7.22498 -1.67546,-10.43793 -0.70215,-5.55794 -0.70741,-5.8678 -0.10816,-6.37868 1.48066,-1.26232 7.45192,-5.16332 11.89024,-7.76784 l 4.79126,-2.81162 0.2723,-4.81878 0.27231,-4.81877 -2.21259,-1.53086 c -2.79738,-1.93546 -10.20889,-7.79994 -12.29596,-9.72937 l -1.58562,-1.46587 0.98784,-4.58124 c 1.00522,-4.66179 2.30897,-9.44541 3.83777,-14.08126 l 0.84989,-2.57716 2.6453,-0.52148 c 4.53904,-0.8948 13.01541,-2.12183 16.01756,-2.31868 1.64062,-0.10755 1.83805,-0.21111 2.16192,-1.13378 0.19602,-0.55846 1.12271,-2.46643 2.05931,-4.23994 l 1.7029,-3.22454 -3.0292,-5.39746 c -3.80845,-6.78594 -6.49493,-12.49451 -6.17341,-13.11802 0.76583,-1.48507 6.30384,-8.65646 9.64141,-12.48506 l 3.88027,-4.45114 2.68327,0.60549 c 3.33667,0.75292 11.07029,2.96056 14.47613,4.13232 2.09801,0.72182 2.66019,0.79658 3.12212,0.41515 0.30985,-0.25586 2.03351,-1.63533 3.83035,-3.06551 2.52404,-2.00897 3.21383,-2.7405 3.03325,-3.21671 -0.34823,-0.91833 -1.35033,-15.70906 -1.21497,-17.93285 l 0.11708,-1.92355 3.93796,-2.26831 c 4.04272,-2.32864 9.50905,-5.0744 13.31795,-6.68963 l 2.15396,-0.91343 2.10618,1.4313 c 1.1584,0.78722 4.71567,3.7107 7.90504,6.49663 l 5.79884,5.06533 4.64053,-1.24766 c 3.7164,-0.9992 4.68793,-1.38647 4.87852,-1.9447 0.1309,-0.38337 0.90603,-2.7213 1.72253,-5.19538 0.81649,-2.47409 2.28626,-6.46719 3.26613,-8.87356 l 1.78159,-4.37521 3.39018,-0.4131 c 4.35764,-0.53098 10.55101,-0.87049 14.98969,-0.82212 l 3.49795,0.0385 2.46426,4.48879 c 2.19767,4.00318 3.82657,7.36823 5.93071,12.25189 l 0.67112,1.55768 4.70379,0.69721 4.7038,0.6972 4.00118,-4.32372 c 6.00796,-6.49229 10.17563,-10.2735 11.08097,-10.05346 2.47007,0.6003 10.42317,3.49162 14.89913,5.41651 l 5.23713,2.25225 0.43968,10.29829 0.43969,10.29831 3.24554,2.04875 c 1.78504,1.1268 3.55229,2.24747 3.92728,2.49036 0.59706,0.3868 1.3146,0.1649 5.77843,-1.7869 5.65411,-2.47225 11.01501,-4.5555 12.91954,-5.02053 1.22839,-0.29992 1.31078,-0.24503 5.46591,3.64203 2.3203,2.1706 5.79287,5.671 7.71684,7.77866 l 3.4981,3.83212 -0.46552,1.30026 c -0.25601,0.71514 -0.94955,2.6784 -1.54117,4.36279 -0.59159,1.68438 -2.05034,5.31014 -3.2416,8.05723 -1.19129,2.74709 -2.15781,5.14274 -2.14782,5.32368 0.01,0.18093 0.70141,1.31837 1.53648,2.52762 0.83508,1.20925 1.96876,2.9779 2.51936,3.93032 l 1.00105,1.73168 2.7241,-0.14731 c 2.55884,-0.13819 9.03209,-0.0171 12.01398,0.22512 5.82772,0.47331 5.61177,0.39969 6.49912,2.21558 1.51038,3.09085 3.72451,8.5463 5.14628,12.67988 2.39535,6.96436 2.65112,5.70369 -2.16206,10.65616 -2.30315,2.3698 -5.55576,5.53227 -7.22806,7.0277 -1.67229,1.49543 -3.02787,2.97221 -3.01241,3.28173 0.0171,0.30944 0.32152,2.46142 0.68007,4.78198 l 0.65195,4.21919 5.16159,2.30472 c 2.83887,1.26758 6.93656,3.28741 9.10597,4.48849 l 3.94438,2.18377 0.10624,3.644 c 0.11328,3.88629 -0.23334,11.51432 -0.72009,15.84619 l -0.29587,2.63343 -3.09931,1.36318 c -3.09697,1.36201 -14.73795,5.5161 -15.58988,5.56311 -0.59325,0.0327 -3.01992,9.35859 -2.57797,9.90722 0.17782,0.22073 1.60775,1.81508 3.17762,3.54299 2.89496,3.18642 9.42589,11.31068 9.45047,11.75613 0.0489,0.88635 -5.60184,12.44429 -8.31496,17.00733 -1.31161,2.20585 -1.73483,2.65675 -2.53284,2.69824 -1.11264,0.0574 -8.6441,-0.17619 -9.97372,-0.30997 -0.49613,-0.0499 -1.77992,-0.15296 -2.85289,-0.22897 -1.07297,-0.076 -2.99103,-0.29472 -4.26235,-0.48603 -1.27133,-0.19129 -2.40126,-0.22968 -2.51098,-0.0853 -0.10972,0.14442 -1.50168,1.89285 -3.09327,3.8854 -2.72235,3.40824 -2.86806,3.67791 -2.45933,4.55213 1.02167,2.18534 4.49202,14.42258 4.95007,17.45519 0.17696,1.17148 0.0395,1.34946 -3.51816,4.55648 -2.03626,1.83558 -5.85388,4.95408 -8.4836,6.93002 l -4.78128,3.59262 -2.86579,-1.31176 c -3.85319,-1.76371 -8.38189,-4.13698 -12.20358,-6.3953 l -3.15381,-1.86364 -2.3545,1.28497 c -1.29498,0.70672 -3.22456,1.69994 -4.28798,2.20715 l -1.93349,0.92221 -0.24905,3.05981 c -0.47452,5.82975 -2.25307,16.52616 -2.85689,17.18157 -0.9427,1.02323 -20.71243,6.13961 -21.34828,5.52491 -1.09906,-1.06253 -6.88419,-8.23075 -9.37031,-11.61054 l -2.9875,-4.06139 -4.81815,0.25204 -4.81813,0.25204 -2.51208,4.29007 c -3.82575,6.53348 -8.21791,12.91178 -8.89536,12.9179 -0.32492,0.003 -2.67136,-0.24297 -5.21431,-0.54644 z m 34.48831,-36.33768 c 16.28553,-3.402 30.56166,-10.3304 43.40141,-21.06334 5.14288,-4.29899 14.04575,-14.24177 17.75281,-19.82641 9.43311,-14.21085 14.72826,-29.36231 16.29461,-46.62478 0.28678,-3.16062 0.26363,-6.48987 -0.0896,-12.89103 -0.64448,-11.67977 -2.17894,-19.08779 -6.06106,-29.26085 -5.65273,-14.81305 -13.84891,-26.63665 -26.01807,-37.53307 -12.16916,-10.89643 -24.82274,-17.74196 -40.16781,-21.73058 -10.53842,-2.73925 -18.0703,-3.44936 -29.75007,-2.80488 -11.67978,0.64449 -19.08778,2.17898 -29.26083,6.06108 -14.81307,5.65273 -26.63667,13.8489 -37.53309,26.01807 -10.89642,12.16917 -17.74194,24.82276 -21.73057,40.16782 -2.73924,10.53842 -3.44935,18.07029 -2.80487,29.75008 0.35321,6.40115 0.69652,9.71273 1.3293,12.82261 3.4561,16.98534 10.38617,31.46221 21.32552,44.54892 4.29899,5.14287 14.24177,14.04575 19.8264,17.75281 15.74002,10.44814 32.73598,15.85983 52.11769,16.5948 4.00594,0.15195 16.86352,-1.04026 21.36823,-1.98125 z"
       style="fill:#ffff00;stroke-width:0.35277781" />
    <path
       id="path142"
       d="m -851.32512,-248.05599 -1.95162,-0.37421 -1.54452,-4.17984 c -0.84949,-2.29888 -2.29016,-6.67166 -3.20148,-9.71727 l -1.65695,-5.5375 -4.76786,-1.41641 -4.76785,-1.4164 -2.97364,2.56261 c -1.6355,1.40942 -5.23372,4.34678 -7.99603,6.52741 l -5.02241,3.96487 -5.00282,-2.164 c -7.04572,-3.04764 -14.53967,-6.91402 -14.82361,-7.64797 -0.1312,-0.33915 -0.29549,-2.60024 -0.36509,-5.02464 -0.12233,-4.26078 -0.12148,-6.12806 0.005,-10.25879 0.0327,-1.07155 0.0606,-2.62247 0.062,-3.4465 l 0.003,-1.49827 -4.07247,-2.80219 -4.07248,-2.80214 -4.59667,1.91801 c -6.85853,2.86177 -14.52753,5.55068 -14.93508,5.23657 -3.02418,-2.33089 -14.16054,-12.87076 -15.22361,-14.40823 -0.53667,-0.77618 -0.50189,-0.96038 1.27064,-6.72825 1.00234,-3.26161 2.4008,-7.57626 3.10771,-9.58809 l 1.28529,-3.6579 -3.04895,-3.96413 c -2.59118,-3.36892 -3.1838,-3.9533 -3.94707,-3.89212 -8.43754,0.67631 -11.6358,0.87858 -15.1427,0.95766 -3.54004,0.0798 -4.26681,0.01 -4.70006,-0.4535 -0.72061,-0.7704 -6.71317,-11.38715 -8.69418,-15.4031 l -1.65001,-3.34496 2.54928,-3.83087 c 1.40209,-2.10698 3.71554,-5.36328 5.14099,-7.23624 1.42545,-1.87296 2.97634,-3.92727 3.44641,-4.56511 l 0.85468,-1.15973 -1.65603,-4.63139 c -0.9108,-2.54728 -1.67118,-4.65806 -1.68973,-4.69064 -0.0186,-0.0326 -1.12311,-0.30183 -2.4546,-0.59828 -4.34874,-0.96826 -10.54485,-2.60925 -15.08672,-3.99559 l -2.34516,-0.71582 -0.92298,-3.85074 c -1.00511,-4.19337 -3.17335,-16.58038 -3.05952,-17.47875 0.0718,-0.56637 8.01372,-6.74577 13.52533,-10.52366 2.73819,-1.87688 3.02295,-2.17619 2.94025,-3.0909 -0.0504,-0.55702 -0.13537,-2.80212 -0.18891,-4.98915 l -0.0973,-3.97637 -2.81042,-1.60804 c -1.54573,-0.88444 -5.40746,-3.3332 -8.5816,-5.44167 l -5.77117,-3.83359 0.1143,-2.73878 c 0.14617,-3.50244 1.32583,-12.80401 2.09787,-16.54016 l 0.59565,-2.8832 5.24819,-1.8589 c 2.88651,-1.02238 7.24083,-2.44216 9.67627,-3.15505 l 4.4281,-1.29615 1.41358,-4.7492 1.41358,-4.74918 -3.17605,-3.76592 c -1.74684,-2.07126 -4.68664,-5.67045 -6.53291,-7.9982 l -3.35684,-4.23226 2.39155,-5.48313 c 1.31536,-3.01572 3.45462,-7.53893 4.75392,-10.05158 l 2.36236,-4.56846 3.87885,-0.102 c 4.72689,-0.1243 10.67005,-0.13457 14.11598,-0.0244 l 2.56312,0.0819 2.83391,-4.11862 2.83392,-4.11861 -1.8696,-4.34683 c -1.02829,-2.39076 -2.71424,-6.71398 -3.74657,-9.60717 l -1.87697,-5.26034 3.3647,-3.79671 c 3.8206,-4.31114 10.14693,-10.81351 11.31258,-11.62739 0.75327,-0.52594 0.98739,-0.48131 7.04401,1.34262 3.44566,1.03764 7.76833,2.43178 9.60593,3.09809 l 3.34108,1.21145 3.95775,-3.06755 3.95776,-3.06755 -0.40199,-5.35728 c -0.65815,-8.77089 -0.73504,-14.82275 -0.19474,-15.32815 1.50903,-1.41148 18.02519,-10.29934 18.92684,-10.18509 0.74417,0.0943 12.16685,8.16361 16.11201,11.382 0.41782,0.34084 1.54702,0.0747 5.15086,-1.21383 2.53866,-0.90771 4.6449,-1.66578 4.68055,-1.68461 0.0356,-0.0188 0.60593,-2.28539 1.26728,-5.03682 0.66135,-2.75143 1.84492,-7.21914 2.63015,-9.92826 l 1.42769,-4.92565 3.84024,-0.9206 c 4.17901,-1.00181 16.57027,-3.17093 17.46588,-3.05745 0.57004,0.0722 8.10902,9.76414 10.98196,14.1181 1.44228,2.18579 1.71659,2.43082 2.62902,2.34832 0.5603,-0.0506 2.80922,-0.13592 4.9976,-0.1895 l 3.97889,-0.0974 1.32541,-2.31246 c 0.72898,-1.27185 3.18162,-5.13334 5.45031,-8.58108 l 4.1249,-6.2686 2.7276,0.11384 c 3.46848,0.14476 12.78889,1.32453 16.46614,2.08446 l 2.82034,0.5827 2.46988,7.28638 c 1.35845,4.00751 2.64352,7.94846 2.85572,8.75767 0.82991,3.1649 0.98881,3.50349 1.68632,3.59376 0.38601,0.0499 2.55114,0.65019 4.81146,1.33387 l 4.10967,1.24305 0.73805,-0.71958 c 2.10277,-2.05005 10.76596,-9.19353 12.90466,-10.64086 l 2.45712,-1.66281 4.95011,2.13898 c 4.93329,2.1317 14.08975,6.64644 14.54256,7.17044 0.46554,0.53868 0.75041,15.68217 0.35576,18.9109 l -0.19261,1.57579 4.23175,2.88113 4.23171,2.88111 4.06635,-1.75627 c 2.2365,-0.96593 6.55559,-2.64734 9.59801,-3.73643 l 5.53169,-1.98017 2.77287,2.39059 c 3.38517,2.91846 9.49863,8.72957 11.66702,11.09002 l 1.59735,1.73884 -1.19701,4.20436 c -1.13624,3.99086 -4.38669,13.84272 -4.85541,14.71633 -0.1206,0.22471 1.19461,2.21131 2.92263,4.41466 l 3.14188,4.00611 5.92456,-0.45129 c 6.49918,-0.49504 6.74119,-0.50815 11.0308,-0.5974 2.10476,-0.0438 3.11973,0.0675 3.50728,0.38445 0.76492,0.62566 5.20666,8.28613 8.1281,14.01817 l 2.45442,4.81565 -2.02846,3.06149 c -2.36173,3.5645 -4.96807,7.17327 -7.92653,10.97513 l -2.10471,2.7047 1.70918,4.71274 c 0.94005,2.59201 1.72239,4.73361 1.73854,4.7591 0.0159,0.0255 1.32415,0.31346 2.90666,0.63988 5.74205,1.18441 16.53111,4.21199 16.90069,4.74258 0.40231,0.57764 2.48208,10.50638 3.3252,15.87461 l 0.83515,5.31717 -0.88981,0.96511 c -0.86892,0.94249 -10.79117,8.27694 -14.07581,10.40476 l -1.65143,1.06982 0.17519,4.25134 c 0.0963,2.33823 0.13387,4.58397 0.0834,4.99051 -0.0749,0.59094 0.42287,1.03343 2.47793,2.20855 1.41333,0.80817 5.32011,3.26912 8.68171,5.46879 l 6.11202,3.99937 -0.13855,2.86393 c -0.17854,3.69061 -1.34713,12.90894 -2.0949,16.53261 l -0.58246,2.8192 -5.62329,1.9728 c -5.59419,1.96261 -8.90344,3.02012 -12.11121,3.8703 l -1.68119,0.44561 -1.11834,3.96998 c -0.61506,2.18349 -1.25362,4.36436 -1.419,4.8464 -0.26195,0.76349 0.0344,1.24486 2.29995,3.73622 1.43037,1.57292 4.37738,5.16626 6.54895,7.98523 l 3.94829,5.12543 -2.15704,4.9917 c -2.27155,5.25674 -6.67644,14.1456 -7.25135,14.63292 -0.39604,0.33568 -9.2351,0.63132 -14.60385,0.48845 -6.51667,-0.17344 -5.62542,-0.58409 -8.82551,4.06668 l -2.81611,4.09273 1.66788,3.83855 c 0.91734,2.11122 2.61732,6.40852 3.77779,9.54956 l 2.1099,5.71096 -2.39699,2.78703 c -2.91049,3.38408 -11.30958,12.09852 -12.32246,12.78511 -0.68186,0.46221 -1.1306,0.37609 -6.72721,-1.29121 -3.29814,-0.98254 -7.60163,-2.37982 -9.56331,-3.1051 l -3.56669,-1.31866 -4.09626,3.15187 -4.09627,3.1519 0.29013,2.4048 c 0.41142,3.4103 0.74028,8.67042 0.84578,13.52768 0.0776,3.57354 0.0101,4.24879 -0.47015,4.69795 -0.7805,0.73011 -11.36682,6.70886 -15.4137,8.70513 l -3.34272,1.64889 -2.84994,-1.88816 c -2.94258,-1.94949 -10.72395,-7.61534 -12.7001,-9.24731 l -1.12074,-0.92555 -4.7351,1.71626 -4.73508,1.71631 -0.95126,4.15838 c -1.59273,6.96282 -3.96551,15.35071 -4.43084,15.66331 -0.96523,0.6485 -19.79486,4.21482 -21.26796,4.02816 -0.51605,-0.0654 -4.98485,-5.80461 -9.9018,-12.71676 l -2.70593,-3.80396 -4.11246,0.18206 c -2.26185,0.10014 -4.44981,0.14024 -4.86215,0.0891 -0.53816,-0.0682 -0.94515,0.25823 -1.443,1.1527 -1.42163,2.55421 -4.23718,6.98782 -7.26189,11.43518 l -3.11831,4.58495 -2.08094,-0.0356 c -2.15686,-0.0369 -14.59872,-1.58315 -18.02457,-2.2401 z m 29.40362,-32.45816 c 10.38124,0.0533 20.32861,-0.91422 30.24302,-2.9415 16.17697,-3.30786 31.19963,-9.25734 45.7468,-18.11733 6.57723,-4.00584 18.14751,-12.97368 23.66727,-18.3439 19.62715,-19.09536 32.59262,-41.67076 39.44356,-68.67896 0.95441,-3.76263 1.59007,-7.54382 2.57542,-15.32001 1.73145,-13.66433 1.77494,-22.62836 0.17161,-35.36032 -2.50592,-19.89894 -9.1961,-38.87076 -19.91144,-56.46431 -4.00586,-6.57723 -12.97369,-18.14751 -18.3439,-23.66727 -19.09537,-19.62715 -41.67078,-32.59259 -68.67898,-39.44355 -7.02441,-1.78181 -23.55135,-3.87599 -30.79817,-3.90253 -10.81053,-0.0396 -20.59224,0.90333 -30.59965,2.94963 -16.17695,3.30785 -31.19962,9.25734 -45.7468,18.1173 -6.57725,4.00586 -18.14751,12.97369 -23.66727,18.3439 -19.62716,19.09539 -32.59261,41.67079 -39.44355,68.67898 -0.95443,3.76262 -1.59009,7.54383 -2.57544,15.32 -1.73145,13.66435 -1.77494,22.62835 -0.17159,35.36033 2.50591,19.89893 9.19608,38.87077 19.91142,56.46429 4.00587,6.57725 12.97368,18.14752 18.34391,23.66727 20.62969,21.20421 45.35949,34.66464 75.07747,40.86473 3.99581,0.83365 20.17207,2.44974 24.75631,2.47325 z"
       style="fill:#ffff00;stroke-width:0.35277781" />
    <path
       id="path96-2"
       d="m -523.28409,-120.50787 c -1.68167,-0.52684 -2.92367,-1.09918 -3.03572,-1.39891 -0.57721,-1.54402 -1.90895,-10.52894 -2.20222,-14.85769 -0.21904,-3.23369 -0.50279,-5.0495 -0.79825,-5.10903 -0.25211,-0.0508 -1.98575,-0.97035 -3.85254,-2.04342 l -3.39417,-1.95107 -3.91071,2.01139 c -4.71538,2.42525 -6.3678,3.14814 -11.06079,4.83876 l -3.60307,1.298 -3.03784,-2.86137 c -3.22741,-3.03996 -8.07824,-8.38967 -10.40373,-11.47372 l -1.40535,-1.86379 1.5262,-3.43515 c 1.51534,-3.41068 5.2898,-10.15758 7.23606,-12.93451 l 1.01528,-1.44863 -0.68177,-1.34497 c -0.37495,-0.73975 -1.19415,-2.49587 -1.82045,-3.90249 l -1.1387,-2.5575 -8.60094,-1.79217 c -4.73054,-0.98565 -9.22415,-2.04418 -9.98579,-2.3522 l -1.38483,-0.56006 -0.85279,-4.71925 c -0.96879,-5.36115 -1.42038,-9.61467 -1.4929,-14.06143 l -0.05,-3.06666 2.88706,-1.63537 c 3.95114,-2.23813 7.98566,-4.14932 11.92866,-5.65068 l 3.31433,-1.26199 0.99651,-4.3915 0.99653,-4.39148 -3.08122,-2.98101 c -3.0926,-2.99201 -8.45844,-9.21636 -9.68111,-11.23003 l -0.65416,-1.07736 1.16359,-2.6735 c 1.49619,-3.43763 5.05081,-9.75498 7.53316,-13.38809 1.88643,-2.76095 1.98583,-2.84536 3.35999,-2.85365 0.77882,-0.005 5.34944,0.75229 10.15692,1.6822 l 8.74085,1.69071 0.76075,-0.74384 c 0.41841,-0.40911 1.82384,-1.69774 3.12316,-2.86365 l 2.36243,-2.11978 -0.75204,-4.57316 c -0.41362,-2.51524 -0.88152,-7.02837 -1.03976,-10.02917 l -0.28774,-5.45602 1.92244,-1.15729 c 4.43307,-2.66865 17.05344,-8.15419 18.21955,-7.91922 1.02922,0.20739 9.15556,8.52486 12.25304,12.54126 l 1.58952,2.06106 3.66865,-0.47398 c 2.01775,-0.26071 3.94563,-0.42491 4.28416,-0.36496 0.7264,0.12862 0.94259,-0.19126 3.37723,-4.99858 1.64059,-3.23941 6.48397,-11.10844 7.50372,-12.19132 0.59394,-0.6307 7.39126,0.23793 13.72388,1.75379 8.43628,2.01943 7.91607,1.69791 8.61816,5.32657 0.89918,4.64731 1.43557,8.62712 1.67782,12.44884 0.12068,1.90465 0.24418,3.75134 0.27436,4.1038 0.0301,0.35247 0.31537,0.70007 0.63381,0.77247 0.31846,0.0724 2.0287,0.97384 3.80057,2.00316 l 3.22157,1.87148 2.00895,-1.04019 c 4.70723,-2.43729 8.92642,-4.32408 12.65704,-5.66009 l 3.98513,-1.42716 2.71286,2.54154 c 3.64282,3.41278 6.89639,6.92976 9.76141,10.55173 2.3167,2.92877 2.36154,3.02753 1.91159,4.21025 -0.91694,2.41021 -5.15034,10.42365 -7.1519,13.53786 l -2.04773,3.18607 0.5367,1.13931 c 0.29519,0.6266 1.10114,2.37824 1.79099,3.89253 l 1.25428,2.75323 9.13283,1.95514 c 5.02305,1.0753 9.42711,2.10199 9.7868,2.28149 0.35969,0.17949 0.74749,0.35759 0.86178,0.39575 0.39652,0.13244 1.95205,9.62114 2.32308,14.17068 0.20515,2.51545 0.24909,5.34791 0.0975,6.29436 l -0.27544,1.72084 -4.04428,2.21139 c -2.22434,1.21625 -6.16182,3.07616 -8.74993,4.13312 l -4.70566,1.92173 -1.06577,4.39619 -1.06577,4.39618 2.12155,1.97289 c 2.73176,2.54037 5.92264,6.06581 8.92263,9.85816 l 2.38456,3.01439 -0.54649,1.62575 c -0.87854,2.6135 -4.44154,9.22879 -7.37452,13.69197 l -2.71486,4.13125 -2.12017,-0.161 c -2.69641,-0.20473 -15.41237,-2.68388 -16.71882,-3.25956 -0.85584,-0.37712 -1.12105,-0.30474 -2.01095,0.54863 -0.56378,0.54072 -2.07692,1.92821 -3.36252,3.08334 l -2.33745,2.10024 0.38728,1.82522 c 0.66277,3.12336 1.44227,10.16228 1.58526,14.31481 l 0.13677,3.97347 -1.95988,1.14975 c -3.25242,1.908 -9.82532,4.97221 -14.07267,6.56049 l -4.00384,1.49723 -1.23845,-1.07196 c -2.7376,-2.36949 -7.10652,-6.87122 -9.91259,-10.21386 -2.79773,-3.33271 -3.02583,-3.52272 -4.00593,-3.3367 -0.57161,0.10852 -2.51343,0.33991 -4.31516,0.51427 l -3.27588,0.317 -1.60417,3.23604 c -1.92743,3.88813 -4.7351,8.71117 -6.44815,11.07673 -0.68794,0.94999 -1.44408,2.03148 -1.68031,2.40332 -0.23871,0.37574 -0.88285,0.68497 -1.44998,0.69606 -1.77303,0.0347 -14.79223,-2.42366 -17.76114,-3.35378 z m 25.31974,-31.57515 c 10.64985,-0.16475 20.61,-3.20652 29.20616,-8.91938 8.64176,-5.74319 15.19103,-13.6329 19.62286,-23.63909 2.06982,-4.67322 4.17621,-15.12662 4.07775,-20.23675 -0.21079,-10.94169 -3.19345,-20.75211 -8.93662,-29.39391 -5.74315,-8.64182 -13.63286,-15.1911 -23.63905,-19.62294 -4.6732,-2.0698 -15.12661,-4.17617 -20.23674,-4.07773 -10.94168,0.2108 -20.75211,3.19347 -29.39389,8.93669 -8.64176,5.74321 -15.19106,13.63292 -19.62288,23.63911 -2.06981,4.67322 -4.1762,15.12663 -4.07774,20.23675 0.2109,10.94794 3.19722,20.76528 8.94156,29.39487 5.38776,8.09395 12.59818,14.34932 21.39241,18.55892 4.74678,2.27218 7.2914,3.05191 13.58575,4.16304 4.00557,0.70706 6.74259,0.99658 9.08043,0.96042 z"
       style="fill:#ffff00;stroke-width:0.35277781" />
    <path
       id="path142-6"
       d="m -200.94781,-395.13236 -1.86859,-0.67621 -0.86858,-4.3706 c -0.47773,-2.4038 -1.21345,-6.94863 -1.63491,-10.0996 l -0.7663,-5.72906 -4.48609,-2.14796 -4.48608,-2.14795 -3.33935,2.06356 c -1.83664,1.13494 -5.85169,3.47045 -8.92232,5.18997 l -5.583,3.12649 -4.60066,-2.92318 c -6.47935,-4.11683 -13.27272,-9.11266 -13.43782,-9.88211 -0.0763,-0.35555 0.11674,-2.61437 0.42894,-5.01959 0.54865,-4.22708 0.84288,-6.07103 1.61682,-10.13058 0.20066,-1.0531 0.4719,-2.58038 0.60276,-3.39395 l 0.23837,-1.47919 -3.58159,-3.40726 -3.58162,-3.40722 -4.84094,1.17195 c -7.22299,1.74859 -15.21922,3.19912 -15.57235,2.82488 -2.62038,-2.77711 -11.96236,-14.93584 -12.77066,-16.62125 -0.40805,-0.85086 -0.34476,-1.02731 2.31202,-6.44503 1.50237,-3.0636 3.56139,-7.10493 4.57562,-8.9807 l 1.84407,-3.41052 -2.38823,-4.39395 c -2.02966,-3.73421 -2.5231,-4.40444 -3.2865,-4.46395 -8.439,-0.65783 -11.62932,-0.96058 -15.10508,-1.43351 -3.5086,-0.47744 -4.21534,-0.66083 -4.57043,-1.18635 -0.59061,-0.87406 -4.8406,-12.3005 -6.16601,-16.57783 l -1.10394,-3.56267 3.11953,-3.38274 c 1.71573,-1.8605 4.51209,-4.71286 6.21411,-6.33859 1.70203,-1.62572 3.55644,-3.41084 4.12089,-3.9669 l 1.02629,-1.01103 -0.90777,-4.83406 c -0.49925,-2.65875 -0.91853,-4.86278 -0.93173,-4.89788 -0.0133,-0.0351 -1.06174,-0.47454 -2.33011,-0.97652 -4.14259,-1.63952 -10.0039,-4.23368 -14.27153,-6.31644 l -2.20356,-1.0754 -0.30647,-3.94793 c -0.33375,-4.29922 -0.52878,-16.87305 -0.27521,-17.74237 0.1599,-0.54805 8.9741,-5.40284 15.01084,-8.2678 2.99908,-1.42333 3.32734,-1.67419 3.38938,-2.59053 0.0378,-0.55802 0.30659,-2.78859 0.59735,-4.95686 l 0.52869,-3.94227 -2.52285,-2.02965 c -1.38757,-1.11633 -4.81658,-4.14143 -7.62,-6.72245 l -5.09714,-4.69276 0.5432,-2.6868 c 0.69467,-3.43596 3.32117,-12.43665 4.67066,-16.00509 l 1.04126,-2.7538 5.47508,-1.01119 c 3.0113,-0.55615 7.53461,-1.27413 10.05181,-1.59549 l 4.57676,-0.58431 2.14223,-4.46809 2.14223,-4.46809 -2.54489,-4.21818 c -1.3997,-2.32 -3.73747,-6.33639 -5.19507,-8.92532 l -2.65015,-4.70713 3.22337,-5.03926 c 1.77286,-2.77159 4.59625,-6.90249 6.2742,-9.17978 l 3.05083,-4.14053 3.8467,0.50872 c 4.6877,0.61995 10.55866,1.54361 13.94448,2.19385 l 2.51841,0.48361 3.44584,-3.62219 3.44585,-3.62218 -1.16339,-4.5866 c -0.63987,-2.52263 -1.62561,-7.05705 -2.19053,-10.07651 l -1.02713,-5.48992 3.91945,-3.22087 c 4.45053,-3.65729 11.71995,-9.08488 12.999,-9.7055 0.82655,-0.40106 1.05075,-0.32019 6.74556,2.43271 3.23983,1.56615 7.28975,3.62216 8.99984,4.56893 l 3.10923,1.72136 4.39057,-2.4076 4.39059,-2.40759 0.44475,-5.3539 c 0.72814,-8.76536 1.60309,-14.75413 2.21609,-15.16836 1.71206,-1.15684 19.41956,-7.33924 20.29206,-7.08474 0.72011,0.21006 10.73303,9.97391 14.12351,13.7722 0.35907,0.40225 1.51606,0.31684 5.2776,-0.38944 2.64975,-0.49755 4.84894,-0.91527 4.8871,-0.92826 0.0381,-0.013 0.95749,-2.1618 2.04294,-4.77514 1.08545,-2.61334 2.9563,-6.83959 4.15744,-9.39169 l 2.18389,-4.64014 3.93719,-0.30578 c 4.28451,-0.33274 16.86268,-0.52797 17.72933,-0.27518 0.55162,0.16087 6.47413,10.91698 8.62728,15.66826 1.08093,2.38526 1.31333,2.67034 2.22739,2.73223 0.56129,0.0381 2.79568,0.30716 4.9653,0.59809 l 3.94477,0.52899 1.67229,-2.07549 c 0.91976,-1.14151 3.94866,-4.56967 6.73089,-7.61812 l 5.05861,-5.54262 2.67583,0.54099 c 3.402657,0.68794 12.421929,3.31751 15.934102,4.64578 l 2.693753,1.0186 1.294344,7.58395 c 0.711905,4.17118 1.361799,8.26509 1.444218,9.09759 0.322323,3.25599 0.426049,3.61534 1.100712,3.81408 0.373375,0.10994 2.417292,1.04296 4.542115,2.0733 l 3.863312,1.87333 0.841946,-0.59468 c 2.398761,-1.69419 12.076751,-7.38775 14.416295,-8.48107 l 2.687866,-1.25608 4.552542,2.89018 c 4.537075,2.88036 12.870433,8.77771 13.235287,9.36635 0.375118,0.60514 -1.722941,15.60529 -2.619997,18.73191 l -0.43781,1.52595 3.726496,3.51025 3.726459,3.51022 4.291793,-1.09554 c 2.36049,-0.60252 6.890121,-1.58442 10.065872,-2.18195 l 5.774112,-1.08642 2.3628113,2.79658 c 2.8845658,3.4141 8.00903178,10.1136 9.7796073,12.78543 l 1.3042977,1.96822 -1.8427437,3.96406 c -1.74918265,3.76276 -6.5072127,12.98153 -7.107375,13.77065 -0.1544091,0.20297 0.8323242,2.37154 2.1926836,4.81903 l 2.4734028,4.45002 5.9218793,0.4852 c 6.4962357,0.53228 6.7372997,0.55735 10.9876527,1.14321 2.085498,0.28745 3.070374,0.55684 3.40331,0.93075 0.657113,0.73807 3.840047,9.00129 5.824565,15.12115 l 1.667284,5.14149 -2.484295,2.70475 c -2.89246,3.14914 -6.033447,6.30357 -9.55252,9.59336 l -2.503539,2.34041 0.94747,4.92276 c 0.521111,2.70751 0.957238,4.94544 0.969182,4.97315 0.0117,0.0277 1.258452,0.51762 2.770017,1.08863 5.484631,2.07191 15.663978,6.75709 15.945598,7.33917 0.306553,0.63367 0.800457,10.76587 0.789633,16.19989 l -0.01067,5.38235 -1.030398,0.81331 c -1.006214,0.79425 -11.957632,6.47859 -15.535802,8.06389 l -1.79901,0.79705 -0.494971,4.22607 c -0.272286,2.32431 -0.588039,4.54806 -0.701759,4.94162 -0.166821,0.57184 0.255241,1.08704 2.100137,2.57046 1.268793,1.0202 4.740376,4.06442 7.714603,6.76495 l 5.407709,4.91004 -0.586818,2.80659 c -0.756203,3.61672 -3.358688,12.53693 -4.666532,15.9981 l -1.018186,2.69266 -5.863416,1.06475 c -5.833077,1.05926 -9.2673816,1.58368 -12.5688912,1.91928 l -1.7303229,0.17592 -1.728224,3.74495 c -0.95049733,2.05973 -1.92379047,4.11318 -2.1628565,4.56325 -0.3786577,0.71285 -0.1616225,1.2348 1.68433619,4.05119 1.16546221,1.77812 3.51127161,5.78987 5.21294271,8.91504 l 3.0939255,5.68213 -2.9145585,4.59078 c -3.0692896,4.83453 -8.8161098,12.92087 -9.4604489,13.31181 -0.4438633,0.26928 -9.2195864,-0.82757 -14.4992024,-1.81223 -6.408476,-1.19519 -5.463774,-1.46071 -9.354858,2.62949 l -3.424193,3.59941 1.044038,4.05294 c 0.574225,2.22913 1.577885,6.74016 2.230412,10.02452 l 1.186369,5.97154 -2.805123,2.37579 c -3.406056,2.88474 -13.07006,10.17125 -14.178238,10.69017 -0.746015,0.34933 -1.17565,0.19377 -6.440773,-2.33218 -3.102795,-1.48854 -7.133286,-3.54465 -8.956642,-4.56914 l -3.315197,-1.86269 -4.540611,2.4691 -4.540627,2.46913 -0.09132,2.42052 c -0.129527,3.43258 -0.631237,8.67904 -1.290235,13.49254 -0.484849,3.54135 -0.657608,4.19761 -1.202466,4.56573 -0.885523,0.59841 -12.27975,4.83954 -16.590023,6.17516 l -3.560279,1.10319 -2.517868,-2.3125 c -2.59972,-2.38762 -9.394201,-9.20573 -11.089381,-11.12793 l -0.9614,-1.09015 -4.94595,0.95095 -4.94593,0.95101 -1.59283,3.95726 c -2.66696,6.62608 -6.3282,14.53697 -6.83687,14.77257 -1.05513,0.48878 -20.21123,1.05224 -21.6367,0.63644 -0.49937,-0.14567 -4.0109,-6.51575 -7.78072,-14.11461 l -2.07463,-4.18187 -4.08999,-0.46636 c -2.24948,-0.2565 -4.41657,-0.56067 -4.81575,-0.67597 -0.52076,-0.15191 -0.97399,0.10652 -1.60619,0.91166 -1.8053,2.29911 -5.2825,6.23526 -8.96842,10.15213 l -3.79998,4.03804 -2.0495,-0.36212 c -2.12427,-0.37533 -14.16864,-3.85728 -17.44872,-5.04435 z m 34.13832,-27.43502 c 10.24392,1.68377 20.21975,2.29123 30.32955,1.84691 16.49578,-0.725 32.26664,-4.24017 48.025228,-10.70442 7.124945,-2.92265 19.960563,-9.96114 26.255548,-14.39738 22.383682,-15.7743 38.735223,-36.03212 49.744678,-61.62841 1.533751,-3.56593 2.7556268,-7.20028 4.9505561,-14.72506 3.8569239,-13.22255 5.3083291,-22.06841 5.7253977,-34.89415 0.6517865,-20.04551 -2.9743849,-39.83287 -10.7922788,-58.89151 -2.922669,-7.12495 -9.961154,-19.96057 -14.397379,-26.25555 -15.774311,-22.38368 -36.032144,-38.7352 -61.628433,-49.74467 -6.657197,-2.86338 -22.649817,-7.52831 -29.802447,-8.69316 -10.67003,-1.73769 -20.4784,-2.3434 -30.68303,-1.89491 -16.49576,0.72499 -32.26663,4.24017 -48.02523,10.70439 -7.12496,2.92266 -19.96056,9.96115 -26.25554,14.39738 -22.3837,15.77432 -38.73522,36.03215 -49.74468,61.62843 -1.53376,3.56592 -2.75564,7.20029 -4.95057,14.72505 -3.85693,13.22257 -5.30833,22.0684 -5.72538,34.89416 -0.65179,20.0455 2.97436,39.83287 10.79226,58.89149 2.92268,7.12496 9.96114,19.96058 14.39739,26.25555 17.04178,24.18223 39.34947,41.36109 67.72415,52.15355 3.81519,1.45113 19.5366,5.58881 24.06021,6.33231 z"
       style="fill:#ffff00;stroke:none;stroke-width:0.35277781" />
    <path
       id="path96-2-6"
       d="m -481.01624,-512.61765 c -1.57791,-0.78472 -2.71447,-1.54523 -2.77799,-1.85886 -0.32724,-1.61556 -0.22962,-10.69812 0.16142,-15.01914 0.29215,-3.2279 0.29746,-5.06574 0.015,-5.17099 -0.24099,-0.0898 -1.80847,-1.27052 -3.48331,-2.62378 l -3.04515,-2.4605 -4.17834,1.37144 c -5.03807,1.65363 -6.7836,2.1077 -11.68405,3.03936 l -3.76235,0.7153 -2.55012,-3.30345 c -2.70925,-3.50963 -6.65855,-9.55553 -8.47017,-12.96688 l -1.09481,-2.06159 2.04737,-3.15243 c 2.03278,-3.12998 6.82119,-9.19945 9.17988,-11.63581 l 1.23044,-1.27096 -0.4618,-1.43544 c -0.25397,-0.7895 -0.78685,-2.65259 -1.18418,-4.14019 l -0.72239,-2.70474 -8.21215,-3.1223 c -4.5167,-1.71723 -8.78797,-3.46916 -9.4917,-3.89312 l -1.27954,-0.77085 -0.10012,-4.79463 c -0.11374,-5.44679 0.10912,-9.71841 0.73672,-14.12126 l 0.43277,-3.03637 3.10829,-1.16107 c 4.25392,-1.589 8.53877,-2.84202 12.66879,-3.7047 l 3.47154,-0.72514 1.67464,-4.18018 1.67465,-4.18016 -2.57415,-3.42842 c -2.58366,-3.44107 -6.90403,-10.43172 -7.79485,-12.61261 l -0.47662,-1.16681 1.5695,-2.45728 c 2.01812,-3.15961 6.52186,-8.83943 9.54461,-12.03702 2.2971,-2.42998 2.40854,-2.49771 3.76691,-2.28982 0.76986,0.11784 5.1646,1.58409 9.76605,3.25836 l 8.36627,3.0441 0.86825,-0.61497 c 0.47754,-0.33823 2.0681,-1.38983 3.53459,-2.33693 l 2.66636,-1.72194 -0.0236,-4.63453 c -0.013,-2.54898 0.23459,-7.07954 0.55016,-10.0679 l 0.57376,-5.43339 2.0805,-0.84061 c 4.79754,-1.93839 18.12347,-5.37124 19.23812,-4.95584 0.98382,0.36665 7.70121,9.85844 10.12862,14.31194 l 1.24566,2.28535 3.69755,0.10878 c 2.03364,0.0598 3.96336,0.20079 4.28825,0.31323 0.69713,0.24124 0.96094,-0.0407 4.1212,-4.40536 2.12955,-2.94114 8.15001,-9.9507 9.32735,-10.85976 0.68572,-0.52947 7.2619,1.39718 13.27739,3.88993 8.0138,3.32083 7.55062,2.92151 7.6734,6.61543 0.15724,4.73089 0.0612,8.74553 -0.30052,12.5578 -0.18032,1.89994 -0.34873,3.74308 -0.37434,4.0959 -0.0257,0.35281 0.20136,0.74095 0.50446,0.86252 0.30312,0.12154 1.85034,1.28072 3.43831,2.57585 l 2.88722,2.35476 2.14752,-0.71136 c 5.03191,-1.6668 9.4953,-2.86668 13.38959,-3.59948 l 4.15996,-0.78277 2.27948,2.9365 c 3.06087,3.94312 5.72095,7.92795 7.98081,11.95536 1.82736,3.25662 1.85611,3.3612 1.22579,4.45846 -1.28452,2.23604 -6.7253,9.48414 -9.19165,12.24487 l -2.52324,2.82446 0.35088,1.20952 c 0.193,0.66522 0.71349,2.5218 1.15664,4.12573 l 0.80576,2.91621 8.71179,3.36687 c 4.79148,1.85176 8.97932,3.55818 9.30632,3.792 0.32699,0.23381 0.68196,0.47067 0.78883,0.52633 0.37076,0.19315 0.41492,9.8084 0.066,14.35969 -0.19293,2.51641 -0.59492,5.32054 -0.8934,6.2314 l -0.5426,1.65612 -4.3417,1.54795 c -2.38792,0.85136 -6.56886,2.069 -9.29097,2.70585 l -4.9493,1.15791 -1.74378,4.17391 -1.74377,4.17391 1.78493,2.28194 c 2.29833,2.93832 4.89517,6.92164 7.26153,11.13854 l 1.88091,3.35184 -0.79532,1.51959 c -1.27857,2.44285 -5.83744,8.4156 -9.43573,12.36207 l -3.33069,3.65297 -2.06848,-0.49237 c -2.63068,-0.62617 -14.79863,-5.07396 -15.9983,-5.84791 -0.7859,-0.50699 -1.05919,-0.47722 -2.07221,0.22561 -0.64179,0.44534 -2.35428,1.57764 -3.80552,2.51626 l -2.63862,1.70657 0.0955,1.86341 c 0.16341,3.18872 -0.1736,10.26264 -0.68534,14.386 l -0.48972,3.94554 -2.1163,0.82728 c -3.51197,1.37285 -10.48493,3.36541 -14.92918,4.26607 l -4.18946,0.84904 -1.05449,-1.25336 c -2.33096,-2.77048 -5.93768,-7.90318 -8.18324,-11.64548 -2.23888,-3.73116 -2.43427,-3.95467 -3.43143,-3.92508 -0.58156,0.0173 -2.53561,-0.0595 -4.34234,-0.17065 l -3.28498,-0.20205 -2.09306,2.94355 c -2.51482,3.53669 -6.04595,7.85825 -8.10965,9.92502 -0.82876,0.83 -1.74554,1.77914 -2.0373,2.10921 -0.29482,0.33353 -0.97958,0.53762 -1.5414,0.45941 -1.75642,-0.24455 -14.22711,-4.71946 -17.01284,-6.10485 z m 29.96969,-27.20106 c 10.54327,1.5119 20.85781,0.0741 30.24533,-4.21601 9.43733,-4.3129 17.14571,-11.07465 23.0958,-20.2595 2.77889,-4.28962 6.50279,-14.28178 7.20908,-19.34382 1.51231,-10.83872 0.10935,-20.9961 -4.20352,-30.43346 -4.31286,-9.43737 -11.0746,-17.14578 -20.25945,-23.09586 -4.28961,-2.77888 -14.28177,-6.50276 -19.34381,-7.20907 -10.83872,-1.5123 -20.99611,-0.10934 -30.43346,4.2036 -9.43732,4.31292 -17.14574,11.07467 -23.09581,20.25951 -2.77889,4.28963 -6.50278,14.28179 -7.20907,19.34382 -1.51319,10.84491 -0.10771,21.0097 4.20824,30.43519 4.04804,8.84044 10.18515,16.15177 18.20807,21.69182 4.33045,2.9903 6.72081,4.16046 12.76214,6.24749 3.84456,1.32811 6.50202,2.0444 8.81646,2.37629 z"
       style="fill:#ffff00;stroke-width:0.35277781" />
    <path
       d="m 1.2974968,-491.77477 h -6.8791667 l -1.3758333,6.87917 H -13.83667 l -1.375833,6.87917 h -6.879167 l -1.375833,6.87916 H -71.62167 l 1.375833,-6.87916 h -6.879167 l 1.375834,-6.87917 h -6.879167 l 1.375833,-6.87917 h -6.879167 l 9.630834,-48.15417 h 6.879167 l 1.375833,-6.87916 h 6.879167 l 1.375833,-6.87917 h -6.879167 l 1.375834,-6.87917 h -6.879167 l 8.255,-41.275 h 6.879167 l 1.375833,-6.87916 h 6.879167 l 1.375833,-6.87917 h 6.879167 l 1.375833,-6.87917 H 6.8008302 l -1.3758333,6.87917 h 6.8791671 l -1.375834,6.87917 h 6.879167 l -1.375833,6.87916 h 6.879166 l -8.255,41.275 H 8.1766635 l -1.3758333,6.87917 h -6.87916672 l -1.37583338,6.87917 h 6.8791668 l -1.3758334,6.87916 H 10.92833 Z m -5.5033333,-75.67083 5.5033333,-27.51667 h -6.8791667 l 1.3758334,-6.87917 H -38.60167 l -1.375833,6.87917 h -6.879167 l -5.503334,27.51667 h 6.879167 l -1.375833,6.87916 h 34.395833 l 1.375834,-6.87916 z m -13.7583335,68.79167 6.879167,-34.39584 h -6.879167 l 1.375833,-6.87917 H -50.98417 l -1.375834,6.87917 h -6.879166 l -6.879167,34.39584 h 6.879167 l -1.375834,6.87916 h 34.395834 l 1.375833,-6.87916 z"
       style="font-style:italic;font-variant:normal;font-weight:bold;font-stretch:normal;font-size:medium;line-height:44.25;font-family:Ticketing;-inkscape-font-specification:'Ticketing Bold Italic';letter-spacing:5.29166651px;word-spacing:0px;fill:#ffff00;fill-opacity:1;stroke:#000080;stroke-width:50;stroke-miterlimit:4;stroke-dasharray:none;paint-order:stroke fill markers"
       id="path1438" />
    <path
       d="M 105.47002,-471.13727 H 16.040848 l 4.1275,-20.6375 h 34.395833 l 22.013334,-110.06667 h -20.6375 l 4.1275,-20.6375 h 41.275005 l -26.140838,130.70417 h 34.395838 z"
       style="font-style:italic;font-variant:normal;font-weight:bold;font-stretch:normal;font-size:medium;line-height:44.25;font-family:Ticketing;-inkscape-font-specification:'Ticketing Bold Italic';letter-spacing:5.29166651px;word-spacing:0px;fill:#ffff00;fill-opacity:1;stroke:none;stroke-width:50;stroke-miterlimit:4;stroke-dasharray:none;paint-order:stroke fill markers"
       id="path1440" />
    <path
       d="m 217.89753,-491.77477 h -6.87916 l -1.37584,6.87917 h -6.87916 l -1.37584,6.87917 h -6.87916 l -1.37584,6.87916 h -48.15416 l 1.37583,-6.87916 h -6.87917 l 1.37584,-6.87917 h -6.87917 l 1.37583,-6.87917 h -6.87916 l 4.1275,-20.6375 h 20.6375 l -2.75167,13.75834 h 6.87917 l -1.37584,6.87916 h 34.39584 l 1.37583,-6.87916 h 6.87917 l 5.50333,-27.51667 h -6.87917 l 1.37584,-6.87917 h -6.87917 l 1.37583,-6.87917 h -6.87916 l 1.37583,-6.87916 h -6.87917 l 1.37584,-6.87917 h -6.87917 l 1.37583,-6.87917 h -6.87916 l 1.37583,-6.87916 h 6.87917 l 1.37583,-6.87917 h 6.87917 l 1.37583,-6.87917 h 6.87917 l 1.37583,-6.87916 h 6.87917 l 1.37583,-6.87917 h 6.87917 l 1.37583,-6.87917 h -61.9125 l 4.1275,-20.6375 h 89.42917 l -5.50334,27.51667 h -6.87916 l -1.37584,6.87917 h -6.87916 l -1.37584,6.87916 h -6.87916 l -1.37584,6.87917 h -6.87916 l -1.37584,6.87917 h -6.87916 l -1.37584,6.87916 h 6.87917 l -1.37583,6.87917 h 6.87916 l -1.37583,6.87917 h 6.87917 l -1.37584,6.87916 h 6.87917 l -1.37583,6.87917 h 6.87916 z"
       style="font-style:italic;font-variant:normal;font-weight:bold;font-stretch:normal;font-size:medium;line-height:44.25;font-family:Ticketing;-inkscape-font-specification:'Ticketing Bold Italic';letter-spacing:5.29166651px;word-spacing:0px;fill:#ffff00;fill-opacity:1;stroke:none;stroke-width:50;stroke-miterlimit:4;stroke-dasharray:none;paint-order:stroke fill markers"
       id="path1442" />
    <path
       d="m -111.13002,-471.13727 h -89.42917 l 11.00667,-55.03333 h 6.87916 l 1.37584,-6.87917 h 6.87916 l 1.37584,-6.87917 h 6.87916 l 1.37584,-6.87916 h 6.87916 l 1.37584,-6.87917 h 27.51667 l 1.37583,-6.87917 h 6.87917 l 1.37583,-6.87916 h 6.87917 l 5.50333,-27.51667 h -6.87917 l 1.37584,-6.87917 h -34.39584 l -1.37583,6.87917 h -6.87917 l -2.75167,13.75833 h -20.6375 l 4.1275,-20.6375 h 6.87917 l 1.37583,-6.87916 h 6.87917 l 1.37583,-6.87917 h 6.87917 l 1.37583,-6.87917 h 48.15417 l -1.37583,6.87917 h 6.879165 l -1.375833,6.87917 h 6.879167 l -1.375834,6.87916 h 6.879167 l -8.255,41.275 h -6.879162 l -1.37584,6.87917 h -6.87916 l -1.37584,6.87917 h -6.87916 l -1.37584,6.87916 h -6.87916 l -1.37584,6.87917 h -27.51667 l -1.37583,6.87917 h -6.87917 l -1.37583,6.87916 h -6.87917 l -5.50333,27.51667 h 68.79167 z"
       style="font-style:italic;font-variant:normal;font-weight:bold;font-stretch:normal;font-size:medium;line-height:44.25;font-family:sans-serif;-inkscape-font-specification:'sans-serif Bold Italic';letter-spacing:0px;word-spacing:0px;fill:#ffff00;fill-opacity:1;stroke:none;stroke-width:50;stroke-miterlimit:4;stroke-dasharray:none;paint-order:stroke fill markers"
       id="path1436" />
    <g
       transform="translate(-853.47201,1123.7086)"
       aria-label="Prospect"
       style="font-style:italic;font-variant:normal;font-weight:bold;font-stretch:normal;font-size:229.30555725px;line-height:1.25;font-family:Ticketing;-inkscape-font-specification:'Ticketing Bold Italic';letter-spacing:0px;word-spacing:0px;fill:#000000;fill-opacity:1;stroke:none;stroke-width:13.22916603;stroke-miterlimit:4;stroke-dasharray:none;paint-order:stroke fill markers"
       id="text866">
      <path
         d="m -143.35902,-581.22773 h -6.87917 l -1.37583,6.87916 h -6.87917 l -1.37583,6.87917 h -6.87917 l -1.37583,6.87917 h -48.15417 l -12.3825,61.9125 h -20.6375 l 30.26834,-151.34167 h 68.79166 l -1.37583,6.87916 h 6.87917 l -1.37584,6.87917 h 6.87917 l -1.37583,6.87917 h 6.87916 z m -19.26167,-6.87917 6.87917,-34.39584 h -6.87917 l 1.37584,-6.87916 h -41.275 l -9.63084,48.15417 h 41.275 l 1.37584,-6.87917 z"
         style="font-style:italic;font-variant:normal;font-weight:bold;font-stretch:normal;font-family:Ticketing;-inkscape-font-specification:'Ticketing Bold Italic';fill:#ffff00;stroke-width:13.22916603"
         id="path876" />
      <path
         d="m -40.350666,-581.22773 h -13.758333 l 1.375833,-6.87917 h -48.154164 l -1.37584,6.87917 h -6.87916 l -16.51,82.55 h -20.6375 l 17.88583,-89.42917 h 6.87917 l 1.37583,-6.87917 h 6.87917 l 1.37583,-6.87917 h 6.87917 l 1.37583,-6.87916 h 61.912501 l -1.375833,6.87916 h 6.879166 z"
         style="font-style:italic;font-variant:normal;font-weight:bold;font-stretch:normal;font-family:Ticketing;-inkscape-font-specification:'Ticketing Bold Italic';fill:#ffff00;stroke-width:13.22916603"
         id="path878" />
      <path
         d="m 51.651022,-526.1944 h -6.879167 l -1.375833,6.87917 h -6.879167 l -1.375833,6.87916 h -6.879167 l -1.375833,6.87917 h -6.879167 l -1.375833,6.87917 h -34.395834 l 1.375833,-6.87917 h -6.879166 l 1.375833,-6.87917 h -6.879167 l 1.375834,-6.87916 h -6.879167 l 1.375833,-6.87917 h -6.879167 l 11.006667,-55.03333 h 6.879167 l 1.375833,-6.87917 h 6.879167 l 1.375833,-6.87917 h 6.8791671 l 1.3758333,-6.87917 h 6.8791667 l 1.3758334,-6.87916 H 40.644355 l -1.375833,6.87916 h 6.879166 l -1.375833,6.87917 h 6.879167 l -1.375834,6.87917 h 6.879167 l -1.375833,6.87917 h 6.879167 z m -19.261667,-6.87917 8.255,-41.275 h -6.879167 l 1.375834,-6.87916 h -6.879167 l 1.375833,-6.87917 H 9.0001882 l -1.3758334,6.87917 H 0.74518811 l -1.37583334,6.87916 H -7.509812 l -8.255,41.275 h 6.8791667 l -1.3758337,6.87917 h 6.8791671 l -1.3758334,6.87917 H 15.879355 l 1.375833,-6.87917 h 6.879167 l 1.375833,-6.87917 z"
         style="font-style:italic;font-variant:normal;font-weight:bold;font-stretch:normal;font-family:Ticketing;-inkscape-font-specification:'Ticketing Bold Italic';fill:#ffff00;stroke-width:13.22916603"
         id="path880" />
      <path
         d="m 153.28354,-519.31523 h -6.87917 l -1.37584,6.87916 h -6.87916 l -1.37584,6.87917 h -6.87916 l -1.37584,6.87917 H 80.364368 l 1.375833,-6.87917 h -6.879167 l 1.375834,-6.87917 h -6.879167 l 1.375833,-6.87916 h -6.879166 l 2.751666,-13.75834 h 20.637501 l -1.375834,6.87917 h 6.879167 l -1.375833,6.87917 h 34.395835 l 1.37583,-6.87917 h 6.87917 l 2.75166,-13.75833 h -6.87916 l 1.37583,-6.87917 H 89.995201 l 1.375834,-6.87917 h -6.879167 l 1.375833,-6.87916 h -6.879167 l 1.375834,-6.87917 h -6.879167 l 4.1275,-20.6375 h 6.879167 l 1.375833,-6.87917 h 6.879167 l 1.375833,-6.87917 h 6.879169 l 1.37583,-6.87916 h 55.03334 l -1.37584,6.87916 h 6.87917 l -1.37583,6.87917 h 6.87916 l -2.75166,13.75834 h -20.63751 l 1.37584,-6.87917 h -41.275 l -1.37584,6.87917 h -6.879162 l -1.375833,6.87916 h 6.879165 l -1.37583,6.87917 h 41.275 l -1.37584,6.87917 h 6.87917 l -1.37583,6.87916 h 6.87917 l -1.37584,6.87917 h 6.87917 z"
         style="font-style:italic;font-variant:normal;font-weight:bold;font-stretch:normal;font-family:Ticketing;-inkscape-font-specification:'Ticketing Bold Italic';fill:#ffff00;stroke-width:13.22916603"
         id="path882" />
      <path
         d="m 261.79523,-546.8319 h -6.87917 l -1.37583,6.87917 h -6.87917 l -1.37583,6.87916 h -6.87917 l -1.37583,6.87917 H 202.6344 l 1.37583,-6.87917 h -6.87917 l 1.37584,-6.87916 h -6.87917 l -8.255,41.275 h -20.6375 l 22.01333,-110.06667 h 20.6375 l -2.75166,13.75833 h 6.87916 l 1.37584,-6.87917 h 6.87916 l 1.37584,-6.87916 h 34.39583 l -1.37583,6.87916 h 6.87916 l -1.37583,6.87917 h 6.87917 l -1.37584,6.87917 h 6.87917 z m -19.26167,-6.87917 5.50334,-27.51666 h -6.87917 l 1.37583,-6.87917 H 215.0169 l -1.37584,6.87917 h -6.87916 l -1.37584,6.87916 h -6.87916 l -2.75167,13.75834 h 6.87917 l -1.37584,6.87916 h 6.87917 l -1.37583,6.87917 h 27.51666 l 1.37584,-6.87917 z"
         style="font-style:italic;font-variant:normal;font-weight:bold;font-stretch:normal;font-family:Ticketing;-inkscape-font-specification:'Ticketing Bold Italic';fill:#ffff00;stroke-width:13.22916603"
         id="path884" />
      <path
         d="m 366.17939,-553.71107 h -6.87916 l -1.37584,6.87917 h -6.87916 l -1.37584,6.87917 h -55.03333 l -2.75167,13.75833 h 6.87917 l -1.37583,6.87917 h 55.03333 l -4.1275,20.6375 h -61.9125 l 1.37583,-6.87917 h -6.87916 l 1.37583,-6.87917 h -6.87917 l 1.37584,-6.87916 h -6.87917 l 13.75833,-68.79167 h 6.87917 l 1.37583,-6.87917 h 6.87917 l 1.37583,-6.87917 h 6.87917 l 1.37583,-6.87916 h 48.15417 l -1.37583,6.87916 h 6.87916 l -1.37583,6.87917 h 6.87917 l -1.37584,6.87917 h 6.87917 z m -19.26166,-6.87916 4.1275,-20.6375 h -6.87917 l 1.37583,-6.87917 h -34.39583 l -1.37583,6.87917 h -6.87917 l -4.1275,20.6375 z"
         style="font-style:italic;font-variant:normal;font-weight:bold;font-stretch:normal;font-family:Ticketing;-inkscape-font-specification:'Ticketing Bold Italic';fill:#ffff00;stroke-width:13.22916603"
         id="path886" />
      <path
         d="m 462.30859,-519.31523 h -6.87917 l -1.37583,6.87916 h -6.87917 l -1.37583,6.87917 h -6.87917 l -1.37583,6.87917 h -41.275 l 1.37583,-6.87917 h -6.87916 l 1.37583,-6.87917 h -6.87917 l 1.37584,-6.87916 h -6.87917 l 1.37583,-6.87917 h -6.87916 l 11.00666,-55.03333 h 6.87917 l 1.37583,-6.87917 h 6.87917 l 1.37583,-6.87917 h 6.87917 l 1.37583,-6.87917 h 6.87917 l 1.37583,-6.87916 h 41.275 l -1.37583,6.87916 h 6.87917 l -1.37584,6.87917 h 6.87917 l -1.37583,6.87917 h 6.87916 l -2.75166,13.75833 h -20.6375 l 1.37583,-6.87916 h -6.87917 l 1.37584,-6.87917 h -27.51667 l -1.37583,6.87917 h -6.87917 l -1.37583,6.87916 h -6.87917 l -8.255,41.275 h 6.87917 l -1.37584,6.87917 h 6.87917 l -1.37583,6.87917 h 27.51666 l 1.37584,-6.87917 h 6.87916 l 1.37584,-6.87917 h 20.6375 z"
         style="font-style:italic;font-variant:normal;font-weight:bold;font-stretch:normal;font-family:Ticketing;-inkscape-font-specification:'Ticketing Bold Italic';fill:#ffff00;stroke-width:13.22916603"
         id="path888" />
      <path
         d="m 565.31695,-519.31523 h -6.87916 l -1.37584,6.87916 h -6.87916 l -1.37584,6.87917 h -6.87917 l -1.37583,6.87917 h -41.275 l 1.37583,-6.87917 h -6.87916 l 1.37583,-6.87917 h -6.87917 l 1.37584,-6.87916 h -6.87917 l 1.37583,-6.87917 h -6.87916 l 19.26166,-96.30834 h 20.6375 l -5.50333,27.51667 h 61.9125 l -4.1275,20.6375 h -61.9125 l -8.255,41.275 h 6.87917 l -1.37584,6.87917 h 6.87917 l -1.37583,6.87917 h 27.51666 l 1.37584,-6.87917 h 6.87916 l 1.37584,-6.87917 h 20.6375 z"
         style="font-style:italic;font-variant:normal;font-weight:bold;font-stretch:normal;font-family:Ticketing;-inkscape-font-specification:'Ticketing Bold Italic';fill:#ffff00;stroke-width:13.22916603"
         id="path890" />
    </g>
    <g
       transform="translate(-1264.0934,1149.4332)"
       aria-label="Robotics"
       style="font-style:italic;font-variant:normal;font-weight:bold;font-stretch:normal;font-size:229.30555725px;line-height:1.25;font-family:Ticketing;-inkscape-font-specification:'Ticketing Bold Italic';letter-spacing:0px;word-spacing:0px;fill:#000000;fill-opacity:1;stroke:none;stroke-width:13.22916603;stroke-miterlimit:4;stroke-dasharray:none;paint-order:stroke fill markers"
       id="text870">
      <path
         d="m 716.81027,-347.33606 h -20.6375 l 5.50333,-27.51667 h -6.87916 l 2.75166,-13.75833 h -6.87916 l 2.75166,-13.75833 h -6.87916 l 2.75166,-13.75834 h -27.51666 l -13.75834,68.79167 h -20.6375 l 30.26834,-151.34167 h 68.79166 l -1.37583,6.87917 h 6.87917 l -1.37584,6.87917 h 6.87917 l -1.37583,6.87916 h 6.87916 l -8.255,41.275 h -6.87916 l -1.37584,6.87917 h -6.87916 l -1.37584,6.87917 h -6.87916 l -2.75167,13.75833 h 6.87917 l -2.75167,13.75833 h 6.87917 l -2.75167,13.75834 h 6.87917 z m -1.37583,-96.30833 5.50333,-27.51667 h -6.87917 l 1.37584,-6.87917 h -41.275 l -8.255,41.275 h 41.275 l 1.37583,-6.87916 z"
         style="font-style:italic;font-variant:normal;font-weight:bold;font-stretch:normal;font-family:Ticketing;-inkscape-font-specification:'Ticketing Bold Italic';fill:#ffff00;stroke-width:13.22916603"
         id="path893" />
      <path
         d="m 825.32196,-374.85273 h -6.87917 l -1.37583,6.87917 h -6.87917 l -1.37583,6.87917 h -6.87917 l -1.37583,6.87916 h -6.87917 l -1.37583,6.87917 h -34.39584 l 1.37584,-6.87917 h -6.87917 l 1.37583,-6.87916 h -6.87916 l 1.37583,-6.87917 h -6.87917 l 1.37584,-6.87917 h -6.87917 l 11.00667,-55.03333 h 6.87916 l 1.37584,-6.87917 h 6.87916 l 1.37584,-6.87916 h 6.87916 l 1.37584,-6.87917 h 6.87916 l 1.37584,-6.87917 h 34.39583 l -1.37583,6.87917 h 6.87917 l -1.37584,6.87917 h 6.87917 l -1.37583,6.87916 h 6.87916 l -1.37583,6.87917 h 6.87917 z m -19.26167,-6.87916 8.255,-41.275 h -6.87917 l 1.37584,-6.87917 h -6.87917 l 1.37583,-6.87917 h -20.6375 l -1.37583,6.87917 h -6.87917 l -1.37583,6.87917 h -6.87917 l -8.255,41.275 h 6.87917 l -1.37583,6.87916 h 6.87916 l -1.37583,6.87917 h 20.6375 l 1.37583,-6.87917 h 6.87917 l 1.37583,-6.87916 z"
         style="font-style:italic;font-variant:normal;font-weight:bold;font-stretch:normal;font-family:Ticketing;-inkscape-font-specification:'Ticketing Bold Italic';fill:#ffff00;stroke-width:13.22916603"
         id="path895" />
      <path
         d="m 926.95448,-367.97356 h -6.87917 l -1.37583,6.87917 h -6.87917 l -1.37583,6.87916 h -6.87917 l -1.37583,6.87917 h -34.39583 l 1.37583,-6.87917 h -6.87917 l 1.37584,-6.87916 h -6.87917 l -2.75167,13.75833 h -20.6375 l 30.26834,-151.34167 h 20.6375 l -11.00667,55.03334 h 6.87917 l 1.37583,-6.87917 h 6.87917 l 1.37583,-6.87917 h 34.39583 l -1.37583,6.87917 h 6.87917 l -1.37584,6.87917 h 6.87917 l -1.37583,6.87916 h 6.87916 z m -19.26167,-6.87917 11.00667,-55.03333 h -6.87917 l 1.37584,-6.87917 h -27.51667 l -1.37583,6.87917 h -6.87917 l -1.37583,6.87917 h -6.87917 l -8.255,41.275 h 6.87917 l -1.37584,6.87916 h 6.87917 l -1.37583,6.87917 h 27.51666 l 1.37584,-6.87917 z"
         style="font-style:italic;font-variant:normal;font-weight:bold;font-stretch:normal;font-family:Ticketing;-inkscape-font-specification:'Ticketing Bold Italic';fill:#ffff00;stroke-width:13.22916603"
         id="path897" />
      <path
         d="m 1031.3387,-374.85273 h -6.8792 l -1.3758,6.87917 h -6.8792 l -1.3758,6.87917 h -6.8792 l -1.3758,6.87916 h -6.87921 l -1.37583,6.87917 h -34.39583 l 1.37583,-6.87917 h -6.87917 l 1.37584,-6.87916 h -6.87917 l 1.37583,-6.87917 h -6.87916 l 1.37583,-6.87917 h -6.87917 l 11.00667,-55.03333 h 6.87917 l 1.37583,-6.87917 h 6.87917 l 1.37583,-6.87916 h 6.87917 l 1.37583,-6.87917 h 6.87917 l 1.37583,-6.87917 h 34.39584 l -1.3758,6.87917 h 6.8791 l -1.3758,6.87917 h 6.8792 l -1.3759,6.87916 h 6.8792 l -1.3758,6.87917 h 6.8791 z m -19.2617,-6.87916 8.255,-41.275 h -6.8792 l 1.3759,-6.87917 h -6.8792 l 1.3758,-6.87917 h -20.63747 l -1.37584,6.87917 h -6.87916 l -1.37584,6.87917 h -6.87916 l -8.255,41.275 h 6.87916 l -1.37583,6.87916 h 6.87917 l -1.37584,6.87917 h 20.6375 l 1.37584,-6.87917 h 6.87917 l 1.3758,-6.87916 z"
         style="font-style:italic;font-variant:normal;font-weight:bold;font-stretch:normal;font-family:Ticketing;-inkscape-font-specification:'Ticketing Bold Italic';fill:#ffff00;stroke-width:13.22916603"
         id="path899" />
      <path
         d="m 1132.9712,-367.97356 h -6.8792 l -1.3758,6.87917 h -6.8792 l -1.3758,6.87916 h -6.8792 l -1.3758,6.87917 h -41.275 l 1.3758,-6.87917 h -6.8791 l 1.3758,-6.87916 h -6.8792 l 1.3759,-6.87917 h -6.8792 l 1.3758,-6.87917 h -6.8791 l 19.2616,-96.30833 h 20.6375 l -5.5033,27.51667 h 61.9125 l -4.1275,20.6375 h -61.9125 l -8.255,41.275 h 6.8792 l -1.3759,6.87916 h 6.8792 l -1.3758,6.87917 h 27.5166 l 1.3759,-6.87917 h 6.8791 l 1.3759,-6.87916 h 20.6375 z"
         style="font-style:italic;font-variant:normal;font-weight:bold;font-stretch:normal;font-family:Ticketing;-inkscape-font-specification:'Ticketing Bold Italic';fill:#ffff00;stroke-width:13.22916603"
         id="path901" />
      <path
         d="m 1223.597,-478.04023 h -20.6375 l 4.1275,-20.6375 h 20.6375 z m 8.255,130.70417 h -89.4291 l 4.1275,-20.6375 h 34.3958 l 13.7583,-68.79167 h -13.7583 l 4.1275,-20.6375 h 34.3958 l -17.8858,89.42917 h 34.3958 z"
         style="font-style:italic;font-variant:normal;font-weight:bold;font-stretch:normal;font-family:Ticketing;-inkscape-font-specification:'Ticketing Bold Italic';fill:#ffff00;stroke-width:13.22916603"
         id="path903" />
      <path
         d="m 1338.9879,-367.97356 h -6.8792 l -1.3758,6.87917 h -6.8792 l -1.3758,6.87916 h -6.8792 l -1.3758,6.87917 h -41.275 l 1.3758,-6.87917 h -6.8792 l 1.3759,-6.87916 h -6.8792 l 1.3758,-6.87917 h -6.8791 l 1.3758,-6.87917 h -6.8792 l 11.0067,-55.03333 h 6.8792 l 1.3758,-6.87917 h 6.8792 l 1.3758,-6.87916 h 6.8792 l 1.3758,-6.87917 h 6.8792 l 1.3758,-6.87917 h 41.275 l -1.3758,6.87917 h 6.8791 l -1.3758,6.87917 h 6.8792 l -1.3759,6.87916 h 6.8792 l -2.7517,13.75834 h -20.6375 l 1.3759,-6.87917 h -6.8792 l 1.3758,-6.87917 h -27.5166 l -1.3759,6.87917 h -6.8791 l -1.3759,6.87917 h -6.8791 l -8.255,41.275 h 6.8791 l -1.3758,6.87916 h 6.8792 l -1.3759,6.87917 h 27.5167 l 1.3758,-6.87917 h 6.8792 l 1.3758,-6.87916 h 20.6375 z"
         style="font-style:italic;font-variant:normal;font-weight:bold;font-stretch:normal;font-family:Ticketing;-inkscape-font-specification:'Ticketing Bold Italic';fill:#ffff00;stroke-width:13.22916603"
         id="path905" />
      <path
         d="m 1441.9962,-367.97356 h -6.8791 l -1.3759,6.87917 h -6.8791 l -1.3759,6.87916 h -6.8791 l -1.3759,6.87917 h -48.1541 l 1.3758,-6.87917 h -6.8792 l 1.3759,-6.87916 h -6.8792 l 1.3758,-6.87917 h -6.8791 l 2.7516,-13.75833 h 20.6375 l -1.3758,6.87916 h 6.8792 l -1.3759,6.87917 h 34.3959 l 1.3758,-6.87917 h 6.8792 l 2.7516,-13.75833 h -6.8791 l 1.3758,-6.87917 h -41.275 l 1.3758,-6.87916 h -6.8791 l 1.3758,-6.87917 h -6.8792 l 1.3759,-6.87917 h -6.8792 l 4.1275,-20.6375 h 6.8792 l 1.3758,-6.87916 h 6.8792 l 1.3758,-6.87917 h 6.8792 l 1.3758,-6.87917 h 55.0333 l -1.3758,6.87917 h 6.8792 l -1.3759,6.87917 h 6.8792 l -2.7517,13.75833 h -20.6375 l 1.3759,-6.87917 h -41.275 l -1.3759,6.87917 h -6.8791 l -1.3759,6.87917 h 6.8792 l -1.3758,6.87916 h 41.275 l -1.3759,6.87917 h 6.8792 l -1.3758,6.87917 h 6.8791 l -1.3758,6.87916 h 6.8792 z"
         style="font-style:italic;font-variant:normal;font-weight:bold;font-stretch:normal;font-family:Ticketing;-inkscape-font-specification:'Ticketing Bold Italic';fill:#ffff00;stroke-width:13.22916603"
         id="path907" />
    </g>
  </g>
</svg>
