<?xml version="1.0" encoding="UTF-8" standalone="no"?>
<svg
   xmlns:dc="http://purl.org/dc/elements/1.1/"
   xmlns:cc="http://creativecommons.org/ns#"
   xmlns:rdf="http://www.w3.org/1999/02/22-rdf-syntax-ns#"
   xmlns:svg="http://www.w3.org/2000/svg"
   xmlns="http://www.w3.org/2000/svg"
   xmlns:sodipodi="http://sodipodi.sourceforge.net/DTD/sodipodi-0.dtd"
   xmlns:inkscape="http://www.inkscape.org/namespaces/inkscape"
   inkscape:version="0.92.4 (5da689c313, 2019-01-14)"
   sodipodi:docname="logo.svg"
   id="svg8"
   version="1.1"
   viewBox="0 0 298.3934 266.97208"
   height="266.97208mm"
   width="298.3934mm">
  <defs
     id="defs2" />
  <sodipodi:namedview
     inkscape:object-nodes="true"
     inkscape:snap-to-guides="false"
     inkscape:snap-grids="false"
     inkscape:snap-others="false"
     inkscape:snap-nodes="true"
     inkscape:snap-object-midpoints="true"
     inkscape:snap-bbox-midpoints="true"
     inkscape:snap-bbox="false"
     inkscape:snap-global="true"
     inkscape:window-maximized="1"
     inkscape:window-y="-8"
     inkscape:window-x="-8"
     inkscape:window-height="1017"
     inkscape:window-width="1920"
     inkscape:pagecheckerboard="true"
     fit-margin-bottom="0"
     fit-margin-right="0"
     fit-margin-left="0"
     fit-margin-top="0"
     showgrid="false"
     inkscape:document-rotation="0"
     inkscape:current-layer="layer1"
     inkscape:document-units="mm"
     inkscape:cy="465.62808"
     inkscape:cx="125.08004"
     inkscape:zoom="0.47996212"
     inkscape:pageshadow="2"
     inkscape:pageopacity="0.0"
     borderopacity="1.0"
     bordercolor="#666666"
     pagecolor="#ffffff"
     id="base" />
  <metadata
     id="metadata5">
    <rdf:RDF>
      <cc:Work
         rdf:about="">
        <dc:format>image/svg+xml</dc:format>
        <dc:type
           rdf:resource="http://purl.org/dc/dcmitype/StillImage" />
        <dc:title />
      </cc:Work>
    </rdf:RDF>
  </metadata>
  <g
     transform="translate(-224.65028,23.755923)"
     id="layer1"
     inkscape:groupmode="layer"
     inkscape:label="Layer 1">
    <path
       id="Unnamed"
       transform="matrix(0.26458333,0,0,0.26458333,224.65052,-104.87733)"
       d="m 494.78516,306.60156 c -31.64768,0.0689 -65.51774,3.82518 -102.08985,10.34375 C 101.01005,364.38779 62.736907,541.31929 79.134766,705.9668 76.468498,791.29019 7.6472714,809.94888 0.2109375,862.74805 -3.9272672,892.12866 53.9375,907.94336 53.9375,907.94336 c 0,0 18.798966,71.59158 34.796875,134.51754 2.13309,8.5324 -13.15368,53.5059 15.642575,84.4356 24.76744,15.5155 39.17824,17.2832 70.03321,14.5742 39.10692,-3.3756 97.7323,-16.1238 120.16406,-4.0879 68.79114,45.5947 75.09961,178.0449 75.09961,178.0449 l 432.16797,0.2012 c 0,0 -106.39244,-234.1807 -108.91992,-306.2305 -2.76273,-93.61281 26.13082,-128.11951 43.19531,-159.44918 7.61151,-12.89756 75.45553,-100.03014 73.25976,-210.28516 -1.63498,-0.18937 -3.1832,-0.40609 -3.47461,-0.49023 -0.3936,-0.11483 -0.73696,0.0808 -1.21484,0.68945 -1.3646,1.73792 -3.9931,4.71302 -6.7793,7.67383 l -2.87304,3.05273 -1.54883,-0.27343 c -1.60577,-0.28373 -10.71001,-2.91714 -13.18945,-3.81446 h -0.002 l -1.41211,-0.51172 -0.65625,-3.30273 c -0.36132,-1.81706 -0.91771,-5.2529 -1.23633,-7.63477 l -0.57812,-4.33007 -3.39258,-1.625 -3.39062,-1.62305 -2.52344,1.56055 c -1.3883,0.85791 -4.4231,2.62206 -6.74414,3.92187 l -4.22071,2.36328 -3.47851,-2.20898 c -4.89774,-3.11197 -10.03153,-6.88907 -10.15625,-7.47071 -0.0578,-0.26875 0.088,-1.97482 0.32422,-3.79296 0.41473,-3.1953 0.63571,-4.58955 1.2207,-7.65821 0.15164,-0.79605 0.35839,-1.95141 0.45703,-2.5664 l 0.17969,-1.11719 -2.70703,-2.57617 -2.70703,-2.57617 -3.66016,0.88671 c -5.45987,1.32178 -11.50465,2.41767 -11.77148,2.13477 -1.98078,-2.09925 -9.04139,-11.29042 -9.65235,-12.56445 -0.30841,-0.64317 -0.26197,-0.77577 1.7461,-4.8711 1.13563,-2.3158 2.6923,-5.37115 3.45898,-6.78906 l 1.39453,-2.57812 -1.80468,-3.32032 c -1.53423,-2.82273 -1.90728,-3.32998 -2.48438,-3.375 -6.37905,-0.49726 -8.79059,-0.72651 -11.41797,-1.08398 -2.65209,-0.36091 -3.18673,-0.49923 -3.45508,-0.89649 -0.44643,-0.66071 -3.65824,-9.29796 -4.66015,-12.53125 l -0.83594,-2.69335 2.35937,-2.55665 c 1.29695,-1.40637 3.41072,-3.5621 4.69727,-4.79101 1.28655,-1.22891 2.68661,-2.57967 3.11328,-3 l 0.77734,-0.76367 -0.6875,-3.6543 c -0.37768,-2.00979 -0.69178,-3.67472 -0.70312,-3.70117 -0.0113,-0.0265 -0.80293,-0.35883 -1.76172,-0.73828 -3.13134,-1.23934 -7.56121,-3.20102 -10.78711,-4.77539 l -1.66601,-0.8125 -0.23243,-2.98438 c -0.25247,-3.24983 -0.39903,-12.75498 -0.20703,-13.41211 0.12095,-0.41427 6.78246,-4.08434 11.34571,-6.25 2.26688,-1.07591 2.51563,-1.26436 2.5625,-1.95703 0.0302,-0.42182 0.2312,-2.10903 0.45117,-3.74805 l 0.40039,-2.98046 -1.9082,-1.53321 c -1.04886,-0.84385 -3.64063,-3.13101 -5.75977,-5.08203 l -3.85156,-3.54687 0.41015,-2.03125 c 0.52509,-2.59728 2.50921,-9.40024 3.5293,-12.09766 L 699,475.17383 l 4.13867,-0.76367 c 2.27626,-0.4204 5.69685,-0.96412 7.59961,-1.20704 l 3.45899,-0.4414 1.61914,-3.37695 1.61914,-3.37891 -1.92383,-3.1875 c -1.05804,-1.75372 -2.82397,-4.79104 -3.92578,-6.74805 l -2.00391,-3.55664 2.43555,-3.81055 c 1.34014,-2.09507 3.47577,-5.21606 4.74414,-6.9375 l 2.30469,-3.13085 2.9082,0.38476 c 3.54346,0.46863 7.98167,1.16668 10.54101,1.6582 l 1.9043,0.36524 2.60352,-2.73828 2.60547,-2.73828 -0.66211,-2.60938 C 717.05672,403.23404 689.48929,376.95944 655.06055,352.94141 607.51916,319.77577 555.20344,306.47005 494.78516,306.60156 Z M 738.9668,432.95703 c 3.15803,4.28416 6.20067,8.63914 9.12695,13.07031 4.60595,-4.69158 9.6791,-9.00013 15.25781,-12.93164 4.75843,-3.3534 14.46191,-8.67354 19.84766,-10.88281 11.91197,-4.88638 23.83159,-7.54377 36.30078,-8.0918 7.71368,-0.33901 15.12781,0.12006 23.19336,1.4336 5.40669,0.88053 17.49708,4.40584 22.5293,6.57031 18.7748,8.07552 33.73801,19.96827 45.5039,36.125 1.17302,-0.13262 2.34183,-0.20898 3.50782,-0.20898 h 14.3125 c 1.20771,-2.20879 3.6235,-6.93035 4.67187,-9.18555 l 1.39258,-2.99609 -0.98633,-1.48633 c -1.33844,-2.01966 -5.21213,-7.08526 -7.39258,-9.66602 l -1.78515,-2.11328 -4.36524,0.82031 c -2.40053,0.45168 -5.82314,1.19494 -7.60742,1.65039 l -3.24414,0.82813 -2.81836,-2.6543 -2.81641,-2.65234 0.33203,-1.1543 c 0.67809,-2.36345 2.26394,-13.70273 1.98047,-14.16016 -0.2759,-0.44496 -6.57631,-4.90277 -10.00586,-7.08007 l -3.4414,-2.1836 -2.03125,0.94922 c -1.76848,0.82645 -9.0833,5.12951 -10.89649,6.41016 l -0.63672,0.44922 -2.91992,-1.41602 c -1.60611,-0.77885 -3.15126,-1.4833 -3.43359,-1.56641 -0.51001,-0.15023 -0.58822,-0.42157 -0.83203,-2.88281 -0.0624,-0.6293 -0.55363,-3.7239 -1.0918,-6.87695 l -0.97852,-5.73242 -2.0371,-0.77149 c -2.65486,-1.00405 -9.47284,-2.99169 -12.04493,-3.51172 l -2.02148,-0.4082 -3.82422,4.18945 c -2.10308,2.30436 -4.39268,4.89689 -5.08789,5.75977 l -1.26367,1.56836 -2.98242,-0.40039 c -1.64002,-0.21992 -3.32962,-0.42237 -3.75391,-0.45117 -0.69094,-0.0468 -0.86654,-0.26336 -1.68359,-2.06641 -1.62762,-3.59155 -6.10453,-11.72215 -6.52149,-11.84375 -0.16365,-0.0478 -0.88002,-0.0749 -1.91406,-0.084 -3.10231,-0.0273 -9.05738,0.10432 -11.48633,0.29296 l -2.97656,0.23047 -1.65039,3.50782 c -0.90792,1.92916 -2.32204,5.12415 -3.14258,7.0996 -0.8205,1.97546 -1.51469,3.59955 -1.54492,3.60938 -0.0302,0.01 -1.6904,0.32507 -3.69336,0.70117 -2.84338,0.53389 -3.71887,0.59899 -3.99024,0.29492 -2.56286,-2.87117 -10.13145,-10.25137 -10.67578,-10.41015 -0.65952,-0.19238 -14.04374,4.481 -15.33789,5.35547 -0.46337,0.31312 -1.12537,4.839 -1.67578,11.46484 l -0.33594,4.04687 -3.32031,1.82032 -3.31836,1.82031 -2.34961,-1.30078 c -1.29267,-0.71568 -4.35375,-2.27121 -6.80273,-3.45508 -4.30469,-2.08095 -4.47482,-2.14106 -5.09961,-1.83789 -0.96684,0.46913 -6.46198,4.57135 -9.82617,7.33594 l -2.96289,2.43554 0.77734,4.14844 c 0.42705,2.28245 1.17224,5.71031 1.65625,7.61719 z m 9.12695,13.07031 c -9.3636,9.53768 -16.76561,20.68523 -22.34375,33.6543 -1.15937,2.69552 -2.08305,5.4428 -3.74219,11.13086 -2.91541,9.9951 -4.01291,16.6818 -4.32812,26.37695 -0.4927,15.15264 2.24864,30.11094 8.1582,44.51758 2.20925,5.38584 7.52943,15.08726 10.88281,19.8457 12.88192,18.27964 29.74488,31.26568 51.19336,39.42383 2.88393,1.09692 14.76617,4.22509 18.18555,4.78711 0.89021,0.14633 1.77676,0.27944 2.66211,0.4043 -1.23627,-17.14235 -4.22344,-34.77352 -9.45313,-52.71875 -0.3066,-1.4151 -0.63486,-2.80387 -0.95117,-4.20703 H 769.5 v -34.44727 c 0,-1.7665 0.19228,-3.62846 0.57422,-5.58594 0.42971,-2.00521 1.07423,-3.98783 1.93359,-5.94531 0.85937,-1.95747 1.95618,-3.81943 3.29297,-5.58594 1.38454,-1.7665 3.03171,-3.31748 4.94141,-4.65429 0.4127,-0.29192 0.84503,-0.56363 1.2832,-0.83008 -8.97131,-23.87126 -19.99413,-45.81802 -33.43164,-66.16602 z m 33.43164,66.16602 c 2.50305,6.66023 4.84538,13.4723 7.03516,20.44141 0.0452,-0.18739 0.0835,-0.37512 0.13281,-0.5625 0.23871,-0.90713 0.59679,-1.71745 1.07422,-2.4336 0.52518,-0.71615 1.24135,-1.28906 2.14844,-1.71875 0.90711,-0.42969 2.12455,-0.64453 3.65234,-0.64453 h 42.10937 c 2.62584,0 5.44142,-0.4542 8.44922,-1.36133 3.05555,-0.95486 5.8976,-2.45875 8.52344,-4.51172 2.62584,-2.1007 4.79687,-4.79751 6.51563,-8.09179 1.76645,-3.34203 2.65039,-7.42402 2.65039,-12.2461 v -8.3789 c 0,-1.71876 -0.21485,-3.55815 -0.64453,-5.51563 -0.38191,-2.00522 -1.02646,-3.96136 -1.9336,-5.87109 -0.85936,-1.95748 -1.98069,-3.81944 -3.36523,-5.58594 -1.38452,-1.7665 -3.05621,-3.31944 -5.01367,-4.65625 -1.9097,-1.38455 -4.12979,-2.48133 -6.66016,-3.29297 -2.53037,-0.81163 -5.37047,-1.21875 -8.52149,-1.21875 h -59.79882 v 18.6211 h 59.79882 c 2.38713,0 4.20009,0.64452 5.44141,1.93359 1.2413,1.28907 1.86328,3.19812 1.86328,5.72851 v 8.23633 c 0,2.43491 -0.62198,4.29687 -1.86328,5.58594 -1.19357,1.24133 -3.05559,1.86133 -5.58594,1.86133 h -41.96484 c -3.19877,0 -6.06338,0.40516 -8.59375,1.2168 -1.99685,0.64051 -3.80914,1.46752 -5.44922,2.46484 z m 7.03516,20.44141 c -0.17371,0.71973 -0.32574,1.44042 -0.43946,2.16015 v 15.82617 h 5.65625 c -1.63446,-6.11003 -3.36915,-12.10609 -5.21679,-17.98632 z m 5.21679,17.98632 c 1.62866,6.08832 3.15415,12.29562 4.58008,18.6211 h 65.45899 v -18.6211 z m 14.98438,75.54688 c 0.32705,4.53495 0.52636,9.03353 0.61523,13.49609 0.0593,0.007 0.10451,0.0147 0.16407,0.0215 l 3.09179,0.35156 1.56836,3.16211 c 2.84958,5.74407 5.50524,10.55788 5.88281,10.66797 1.07755,0.3143 15.55593,-0.11098 16.35352,-0.48047 0.38449,-0.17809 3.15201,-6.15728 5.16797,-11.16602 l 1.20508,-2.99218 3.73828,-0.71875 3.73828,-0.71875 0.72656,0.82421 c 1.28138,1.45303 6.41765,6.60728 8.38281,8.41211 l 1.9043,1.74805 2.69141,-0.83398 c 3.25814,-1.00962 11.86971,-4.21563 12.53906,-4.66797 0.41186,-0.27825 0.54354,-0.77422 0.91016,-3.45117 0.49814,-3.63858 0.87672,-7.60449 0.97461,-10.19922 l 0.0684,-1.83008 3.43359,-1.86719 3.43164,-1.86523 2.50586,1.4082 c 1.37828,0.77442 4.42614,2.32793 6.77148,3.45313 3.97988,1.90937 4.30329,2.02775 4.86719,1.76367 0.83773,-0.39225 8.14414,-5.90142 10.71875,-8.08203 l 2.11914,-1.79493 -0.89648,-4.51562 c -0.49327,-2.48269 -1.25155,-5.89115 -1.68555,-7.57617 l -0.78906,-3.06446 2.58789,-2.7207 c 2.9413,-3.09183 2.22808,-2.89174 7.07226,-1.98828 3.99084,0.74431 10.62337,1.57466 10.95899,1.37109 0.48707,-0.29552 4.83025,-6.40802 7.15039,-10.0625 l 2.20312,-3.4707 -2.33789,-4.29492 c -1.28632,-2.36236 -3.0604,-5.39614 -3.9414,-6.74024 h -18.36133 c -7.57217,11.97158 -17.21149,22.04913 -29.11719,30.43946 -4.75842,3.35341 -14.4619,8.67354 -19.84766,10.88281 -11.91197,4.8864 -23.83159,7.54377 -36.30078,8.0918 -6.76346,0.29723 -13.44985,-0.031 -20.26562,-0.99219 z M 587.64844,431.68359 c 0.12094,-0.002 0.20906,0.008 0.26172,0.0274 0.74366,0.27716 5.82136,7.4519 7.65625,10.81836 l 0.9414,1.72656 2.79492,0.082 c 1.53725,0.0452 2.9966,0.15328 3.24219,0.23828 0.52694,0.18236 0.72639,-0.0306 3.11524,-3.33008 1.60973,-2.22324 6.16081,-7.52181 7.05078,-8.20898 0.51832,-0.40023 5.48804,1.05515 10.03515,2.93945 6.05768,2.51026 5.70796,2.20773 5.80079,5 0.11905,3.57614 0.0467,6.6124 -0.22657,9.49414 -0.13644,1.43619 -0.26355,2.82901 -0.2832,3.09571 -0.0189,0.26668 0.15186,0.56044 0.38086,0.65234 0.22904,0.0919 1.39923,0.96826 2.59961,1.94727 l 2.18164,1.77929 1.62305,-0.53711 c 3.80364,-1.25995 7.17737,-2.16872 10.12109,-2.72265 l 3.14453,-0.58985 1.72461,2.21875 c 2.31371,2.98066 4.32302,5.99274 6.03125,9.03711 1.3813,2.46172 1.40422,2.54166 0.92773,3.3711 -0.97096,1.69025 -5.08489,7.16899 -6.94921,9.25586 l -1.90625,2.13476 0.26562,0.91406 c 0.14589,0.50285 0.53807,1.90671 0.87305,3.11914 l 0.60937,2.20313 6.58594,2.54492 c 3.62188,1.39977 6.78602,2.69044 7.0332,2.86719 0.24718,0.17673 0.51689,0.35638 0.59766,0.39844 0.28006,0.146 0.31264,7.41314 0.0488,10.85351 -0.14589,1.90219 -0.44819,4.02241 -0.67383,4.71094 l -0.41016,1.25195 -3.2832,1.16992 c -1.80506,0.64356 -4.96579,1.56352 -7.02344,2.04493 l -3.74023,0.87695 -1.31836,3.1543 -1.31836,3.15429 1.34961,1.72657 c 1.73733,2.22111 3.69954,5.23036 5.48828,8.41796 l 1.42188,2.53516 -0.60157,1.14844 c -0.96646,1.84658 -4.41088,6.36056 -7.13086,9.34375 l -2.51757,2.76172 -1.56446,-0.3711 c -1.98852,-0.47333 -11.18689,-3.83684 -12.09375,-4.42187 -0.59406,-0.38324 -0.80063,-0.35942 -1.5664,0.17187 -0.48511,0.33665 -1.778,1.19088 -2.875,1.90039 l -1.9961,1.29102 0.0723,1.4082 c 0.12359,2.4104 -0.13067,7.7581 -0.51758,10.875 l -0.36914,2.98242 -1.59961,0.625 c -2.6547,1.03776 -7.92576,2.5438 -11.28516,3.22461 l -3.16797,0.64258 -0.79687,-0.94726 c -1.76198,-2.09424 -4.48812,-5.97389 -6.18555,-8.80274 -1.69236,-2.82043 -1.84,-2.99112 -2.59375,-2.96875 -0.43963,0.0132 -1.91747,-0.0449 -3.2832,-0.1289 l -2.48242,-0.15235 -1.58203,2.22461 c -1.90095,2.67343 -4.5709,5.94161 -6.13086,7.50391 -0.62646,0.62741 -1.31853,1.34424 -1.53907,1.59375 -0.22299,0.25213 -0.74134,0.40678 -1.16601,0.34765 -1.32747,-0.18482 -10.74935,-3.56733 -12.85742,-4.61523 h -0.002 c -1.19188,-0.59289 -2.05163,-1.16733 -2.09961,-1.4043 -0.24718,-1.22122 -0.17251,-8.0872 0.12305,-11.35351 0.22073,-2.44001 0.22526,-3.82865 0.0117,-3.90821 -0.18217,-0.0679 -1.36682,-0.96143 -2.63281,-1.98437 l -2.30274,-1.85938 -3.1582,1.03711 c -3.80829,1.25 -5.12775,1.59262 -8.83203,2.29688 l -2.84375,0.54101 -1.92774,-2.49804 c -2.04789,-2.65297 -5.03294,-7.2221 -6.40234,-9.80078 l -0.82812,-1.5586 1.54687,-2.38281 c 1.53657,-2.36599 5.1565,-6.9552 6.93945,-8.79688 l 0.92969,-0.96093 -0.34766,-1.08399 c -0.192,-0.59679 -0.59616,-2.00636 -0.89648,-3.13086 l -0.54492,-2.04297 -6.20899,-2.36132 c -3.41419,-1.29808 -6.64189,-2.62093 -7.17382,-2.94141 l -0.9668,-0.58398 -0.0762,-3.62305 c -0.0858,-4.1173 0.0821,-7.34761 0.55664,-10.67578 l 0.32812,-2.29492 2.34961,-0.87696 c 3.21555,-1.20114 6.45425,-2.14867 9.57617,-2.80078 l 2.62305,-0.54883 1.26563,-3.16015 1.26562,-3.15821 -1.94531,-2.59179 c -1.953,-2.60115 -5.21918,-7.8866 -5.89258,-9.53516 l -0.35937,-0.88086 1.18554,-1.85742 c 1.5255,-2.38839 4.92997,-6.68251 7.21485,-9.09961 1.73639,-1.83685 1.82087,-1.88761 2.84765,-1.73047 0.58194,0.0891 3.90459,1.19729 7.38282,2.46289 l 6.32421,2.30078 0.65625,-0.46484 c 0.36095,-0.25569 1.56334,-1.0497 2.67188,-1.76563 l 2.01562,-1.30273 -0.0195,-3.50391 c -0.0113,-1.9268 0.17742,-5.35043 0.41602,-7.60937 l 0.43359,-4.10742 1.57227,-0.63477 c 3.3998,-1.37367 12.46704,-3.74172 14.28125,-3.77344 z m 10.20508,25.9668 c -5.95025,-0.0312 -11.60676,1.17789 -16.95704,3.62305 -7.1337,3.26019 -12.9613,8.37152 -17.45898,15.31445 -2.10055,3.24259 -4.91532,10.79464 -5.44922,14.62109 -1.1438,8.1978 -0.0807,15.88298 3.18164,23.00782 3.05991,6.68259 7.69912,12.20869 13.76367,16.39648 3.27338,2.2604 5.0798,3.14504 9.64649,4.72266 2.90608,1.00393 4.91456,1.54599 6.66406,1.79687 7.9697,1.14286 15.76726,0.0555 22.86328,-3.1875 7.13371,-3.26017 12.96131,-8.37151 17.45899,-15.31445 2.10058,-3.24257 4.91536,-10.79659 5.44921,-14.62305 1.1432,-8.19311 0.0825,-15.87009 -3.17773,-23.0039 -3.26007,-7.13383 -8.37161,-12.96125 -15.31445,-17.45899 -3.24253,-2.10059 -10.79466,-4.91531 -14.6211,-5.44922 -2.04825,-0.28579 -4.06541,-0.43491 -6.04882,-0.44531 z m 316.3789,8.89453 c -2.57813,0 -5.39561,0.47873 -8.45117,1.4336 -3.05552,0.90712 -5.89566,2.38648 -8.52148,4.43945 -2.57813,2.05296 -4.74915,4.74977 -6.51563,8.0918 -1.71874,3.34203 -2.57812,7.40145 -2.57812,12.17578 v 8.3789 c 0,1.81425 0.21483,3.74782 0.64453,5.80078 0.42969,2.05297 1.07424,4.08072 1.93359,6.08594 -1.95745,1.28907 -3.62915,2.81748 -5.01367,4.58399 -1.38456,1.7665 -2.53038,3.62846 -3.4375,5.58593 -0.85939,1.95748 -1.50394,3.93814 -1.93359,5.94336 -0.38204,2.00522 -0.57227,3.91623 -0.57227,5.73047 v 8.30664 c 0,4.82208 0.85938,8.90407 2.57812,12.2461 1.76652,3.29429 3.93754,5.99304 6.51563,8.09375 2.62586,2.05296 5.46788,3.53233 8.52344,4.43945 3.05552,0.90712 5.87112,1.36133 8.44922,1.36133 h 42.10937 c 3.15103,0 5.99113,-0.40712 8.52149,-1.21875 2.53035,-0.81164 4.75043,-1.88585 6.66015,-3.22266 1.95742,-1.38455 3.62912,-2.96006 5.01367,-4.72656 1.38452,-1.7665 2.50589,-3.60394 3.36524,-5.51367 0.90712,-1.95748 1.55163,-3.91558 1.93359,-5.87305 0.42985,-1.95747 0.64453,-3.81944 0.64453,-5.58594 v -8.30664 c 0,-2.67362 -0.28643,-5.10849 -0.85937,-7.30469 -0.5729,-2.24393 -1.36069,-4.24912 -2.36328,-6.01562 -1.0026,-1.7665 -2.17104,-3.31944 -3.50782,-4.65625 -1.33682,-1.38455 -2.76915,-2.57747 -4.29687,-3.58008 1.67097,-3.43752 2.50586,-7.49498 2.50586,-12.17383 v -8.3789 c 0,-1.71876 -0.21484,-3.55815 -0.64453,-5.51563 -0.38196,-2.00522 -1.00202,-3.96136 -1.86133,-5.87109 -0.85939,-1.95748 -1.98263,-3.81944 -3.36719,-5.58594 -1.33678,-1.7665 -2.98395,-3.31943 -4.94141,-4.65625 -1.90971,-1.38455 -4.15233,-2.48133 -6.73046,-3.29297 -2.53036,-0.81164 -5.39503,-1.21875 -8.59375,-1.21875 z m 71.04102,0 v 18.6211 h 16.83006 v 84.07617 h 18.6914 V 466.54492 Z m 56.64646,0 v 18.6211 h 59.7266 c 4.9652,0 7.4473,2.55357 7.4473,7.6621 v 15.6836 h -67.1739 v 18.76367 h 67.1739 v 15.82617 c -1e-4,2.43491 -0.6201,4.29687 -1.8614,5.58594 -1.1935,1.28907 -3.0555,1.93359 -5.5859,1.93359 h -59.7266 v 18.6211 h 59.7266 c 2.6258,0 5.4659,-0.45421 8.5215,-1.36133 3.0555,-0.90712 5.873,-2.38649 8.4511,-4.43945 2.6259,-2.10071 4.7989,-4.79946 6.5176,-8.09375 1.7665,-3.34203 2.6485,-7.42402 2.6485,-12.2461 v -50.41601 c 0,-1.71876 -0.2149,-3.55815 -0.6446,-5.51563 -0.3819,-2.00522 -1.0019,-3.96136 -1.8613,-5.87109 -0.8594,-1.95748 -1.9807,-3.81944 -3.3652,-5.58594 -1.3846,-1.7665 -3.0563,-3.31944 -5.0137,-4.65625 -1.9097,-1.38455 -4.1298,-2.48133 -6.6602,-3.29297 -2.5303,-0.81163 -5.395,-1.21875 -8.5937,-1.21875 z m -127.5449,18.6211 h 25.06641 c 2.43484,0 4.29689,0.64452 5.58593,1.93359 1.28905,1.28907 1.9336,3.19812 1.9336,5.72851 v 8.23633 c 0,2.43491 -0.62201,4.29687 -1.86328,5.58594 -1.24131,1.24133 -3.12594,1.86133 -5.65625,1.86133 h -25.20899 c -2.33941,0 -4.15427,-0.62 -5.44336,-1.86133 -1.24131,-1.24132 -1.86133,-3.10329 -1.86133,-5.58594 v -8.3789 c 0,-2.43491 0.59745,-4.29687 1.79102,-5.58594 1.24131,-1.28907 3.12586,-1.93359 5.65625,-1.93359 z m -593.57031,8.33007 2.0625,0.0879 c 2.62186,0.10942 9.66761,0.99978 12.44726,1.57422 l 2.13086,0.44141 1.86719,5.50781 c 1.02686,3.02933 1.99975,6.00745 2.16016,6.61914 0.62732,2.39239 0.74619,2.64856 1.27343,2.7168 0.29178,0.0378 1.92815,0.49101 3.63672,1.00781 l 3.10742,0.93945 0.5586,-0.54296 c 1.58948,-1.54966 8.13725,-6.94892 9.7539,-8.04297 l 1.85743,-1.25781 3.74218,1.61718 c 3.72911,1.61138 10.64992,5.02383 10.99219,5.41992 0.35188,0.4072 0.56804,11.85429 0.26953,14.29493 l -0.14648,1.1914 3.19922,2.17774 3.19922,2.17773 3.07226,-1.32812 c 1.69058,-0.73016 4.95609,-2.00097 7.25586,-2.82422 l 4.18164,-1.4961 2.0957,1.80664 c 2.5589,2.2061 7.17926,6.59852 8.81836,8.38282 l 1.20899,1.31445 -0.90625,3.17969 c -0.8589,3.01674 -3.31563,10.46267 -3.66992,11.12304 -0.0911,0.16986 0.90278,1.67236 2.20898,3.3379 l 2.375,3.02734 4.47852,-0.33984 c 4.91274,-0.37422 5.09535,-0.38567 8.33789,-0.45313 1.59099,-0.0333 2.35939,0.0514 2.65234,0.29102 0.57819,0.47294 3.93619,6.26473 6.14453,10.59765 l 1.85352,3.63867 -1.53321,2.31446 c -1.78522,2.69444 -3.75392,5.423 -5.99023,8.29687 l -1.5918,2.04492 1.29297,3.5625 c 0.71059,1.95933 1.30029,3.57839 1.3125,3.59766 0.0113,0.0193 1.00105,0.23567 2.19727,0.48242 4.34044,0.89531 12.49601,3.18486 12.77539,3.58594 0.30425,0.43664 1.87637,7.94209 2.51367,12 l 0.63086,4.01758 -0.67188,0.73047 c -0.6568,0.71244 -8.15774,6.25679 -10.64062,7.86523 l -1.24805,0.80859 0.13281,3.21289 c 0.0729,1.7675 0.10068,3.46614 0.0625,3.77344 -0.0567,0.4467 0.31974,0.78164 1.87305,1.66992 1.06832,0.61091 4.02149,2.47006 6.5625,4.13282 l 4.6211,3.02343 -0.10547,2.16407 c -0.13493,2.78977 -1.01681,9.75887 -1.58203,12.49804 l -0.44141,2.13086 -4.25,1.49219 c -4.22865,1.48356 -6.73149,2.28312 -9.15625,2.92578 l -1.26953,0.33594 -0.8457,3 c -0.46492,1.65053 -0.94728,3.29969 -1.07227,3.66406 -0.19805,0.57714 0.0262,0.94097 1.73828,2.82422 1.08125,1.18899 3.30773,3.90622 4.94922,6.03711 l 2.98633,3.87305 -1.63086,3.77343 c -1.71708,3.97364 -5.04785,10.69413 -5.48242,11.0625 -0.29934,0.25376 -6.9808,0.47714 -11.03907,0.36914 -4.92593,-0.13111 -4.25098,-0.44135 -6.66992,3.07422 l -2.1289,3.09375 1.25976,2.90039 c 0.69343,1.5959 1.97828,4.84441 2.85547,7.21875 l 1.5957,4.31641 -1.8125,2.10742 c -2.20002,2.55807 -8.54883,9.14506 -9.31445,9.66406 -0.51541,0.34938 -0.85348,0.28573 -5.08398,-0.9746 -2.49306,-0.74272 -5.74765,-1.79941 -7.23047,-2.34766 l -2.69532,-0.99805 -3.0957,2.38281 -3.09766,2.38282 0.22071,1.81836 c 0.31105,2.57788 0.55892,6.55295 0.63867,10.22461 0.0586,2.70128 0.007,3.2132 -0.35547,3.55273 -0.58998,0.5519 -8.59331,5.07108 -11.65234,6.58008 l -2.52539,1.24609 -2.1543,-1.42773 c -2.22429,-1.47364 -8.10583,-5.75661 -9.59961,-6.99024 l -0.84766,-0.69922 -3.58007,1.29688 -3.57813,1.29883 -0.7207,3.14258 c -1.20393,5.26328 -2.99594,11.60354 -3.34766,11.83984 -0.72964,0.49021 -14.9646,3.18602 -16.07812,3.04492 -0.39009,-0.0494 -3.76763,-4.3883 -7.48438,-9.61328 l -2.04492,-2.875 -3.10937,0.13867 c -1.70975,0.0757 -3.36214,0.10507 -3.67383,0.0664 -0.40679,-0.0516 -0.71547,0.19497 -1.0918,0.87109 -1.0746,1.93076 -3.20189,5.28272 -5.48828,8.64453 l -2.35742,3.46485 -1.57422,-0.0254 c -1.63038,-0.028 -11.03347,-1.19676 -13.62305,-1.69336 h -0.002 l -1.47656,-0.28321 -1.16602,-3.16015 c -0.64214,-1.73775 -1.73107,-5.04349 -2.41992,-7.34571 l -1.25391,-4.18554 -3.60351,-1.07031 -3.60352,-1.07032 -2.24805,1.93555 c -1.23628,1.0654 -3.95688,3.28718 -6.04492,4.93555 l -3.79492,2.99609 -3.7832,-1.63476 c -5.32589,-2.30375 -10.99044,-5.22645 -11.20508,-5.78126 -0.099,-0.25636 -0.22286,-1.96619 -0.27539,-3.79882 -0.0926,-3.22078 -0.0917,-4.63144 0.004,-7.75391 0.0265,-0.81 0.0457,-1.98258 0.0469,-2.60547 l 0.002,-1.13281 -3.07812,-2.11914 -3.07813,-2.11719 -3.47461,1.44922 c -5.18437,2.16325 -10.98099,4.19643 -11.28906,3.95898 -2.28601,-1.76194 -10.70425,-9.72843 -11.50781,-10.89062 -0.4057,-0.58672 -0.37891,-0.72594 0.96094,-5.08594 0.75768,-2.46549 1.8133,-5.72728 2.34765,-7.24804 l 0.97266,-2.76563 -2.30469,-2.99609 c -1.95866,-2.54661 -2.40739,-2.98961 -2.98437,-2.94336 -6.37796,0.51123 -8.79443,0.66483 -11.44532,0.72461 -2.6759,0.0603 -3.22524,0.007 -3.55273,-0.34375 -0.54474,-0.58236 -5.07482,-8.60688 -6.57227,-11.64258 l -1.24804,-2.5293 1.92773,-2.89453 c 1.05986,-1.59269 2.80726,-4.05491 3.88477,-5.4707 1.0775,-1.4158 2.25015,-2.96902 2.60546,-3.45117 l 0.64649,-0.875 -1.25195,-3.50196 c -0.68848,-1.92552 -1.26333,-3.52029 -1.27735,-3.54492 -0.0151,-0.0246 -0.84898,-0.22905 -1.85547,-0.45312 -3.2872,-0.73192 -7.97108,-1.97158 -11.40429,-3.01954 l -1.77149,-0.54101 -0.69922,-2.91211 c -0.75976,-3.16982 -2.39852,-12.53185 -2.3125,-13.21094 0.0544,-0.42812 6.05836,-5.09933 10.22461,-7.95508 2.06979,-1.41875 2.28517,-1.64645 2.22266,-2.33789 -0.0382,-0.42106 -0.10214,-2.11828 -0.14258,-3.77148 l -0.0742,-3.00586 -2.125,-1.21485 c -1.1684,-0.66856 -4.08701,-2.51946 -6.48633,-4.11328 l -4.36328,-2.89843 0.0879,-2.07032 c 0.11037,-2.64753 1.00234,-9.67775 1.58594,-12.50195 l 0.44922,-2.17969 3.9668,-1.40429 c 2.18192,-0.77283 5.47348,-1.84784 7.31445,-2.38672 l 3.34766,-0.97852 1.06836,-3.58984 1.06836,-3.58985 -2.4004,-2.84765 c -1.32045,-1.56569 -3.54187,-4.28535 -4.9375,-6.04492 l -2.53906,-3.19922 1.8086,-4.14453 c 0.99428,-2.27962 2.6116,-5.70027 3.59375,-7.59961 l 1.78515,-3.45313 2.93164,-0.0762 c 3.57309,-0.094 8.06706,-0.10272 10.67188,-0.0195 l 1.9375,0.0625 2.14062,-3.11328 2.14258,-3.11328 -1.41211,-3.28516 c -0.7773,-1.8072 -2.05167,-5.07667 -2.83203,-7.26367 l -1.41992,-3.97656 2.54297,-2.86914 c 2.88797,-3.25885 7.67161,-8.17384 8.55273,-8.78907 0.56942,-0.39756 0.746,-0.3631 5.32422,1.01563 2.60459,0.78436 5.87267,1.83812 7.26172,2.34179 l 2.52539,0.91407 2.99023,-2.31836 2.99219,-2.31836 -0.30469,-4.04883 c -0.4975,-6.63002 -0.55509,-11.20585 -0.14648,-11.58789 1.1407,-1.06695 13.62508,-7.78558 14.30664,-7.69922 0.56254,0.0713 9.19753,6.17069 12.17969,8.60352 0.31597,0.25765 1.1704,0.058 3.89453,-0.91602 1.91898,-0.68615 3.51016,-1.2592 3.53711,-1.27344 0.0265,-0.0144 0.45711,-1.72875 0.95703,-3.80859 0.49992,-2.07984 1.39471,-5.45605 1.98828,-7.50391 l 1.08008,-3.72461 2.90234,-0.69531 c 3.15893,-0.75728 12.52614,-2.39633 13.20313,-2.31055 0.4309,0.0546 6.1291,7.38067 8.30078,10.67188 1.0902,1.65226 1.29855,1.83775 1.98828,1.77539 0.42353,-0.0383 2.12316,-0.10401 3.77734,-0.14453 l 3.00782,-0.0723 1.00195,-1.74804 c 0.55105,-0.96141 2.40422,-3.88014 4.11914,-6.48633 z m -6.79492,26.29883 c -8.17172,-0.0299 -15.5643,0.68365 -23.12891,2.23047 -12.22821,2.50045 -23.58381,6.99601 -34.58008,13.69336 -4.97174,3.02808 -13.71821,9.80778 -17.89062,13.86719 -14.83624,14.43444 -24.63778,31.5002 -29.81641,51.91601 -0.72147,2.84421 -1.20243,5.70198 -1.94727,11.58008 -1.30877,10.32905 -1.34092,17.10426 -0.1289,26.72852 1.89422,15.04184 6.95103,29.38444 15.05078,42.68359 3.02804,4.97183 9.80782,13.71623 13.86719,17.88867 15.59403,16.02852 34.28607,26.2039 56.75,30.89063 3.02041,0.63016 15.24958,1.85137 18.71484,1.86914 7.84721,0.0403 15.36503,-0.69021 22.85938,-2.22266 12.2282,-2.50045 23.58384,-6.99793 34.58007,-13.69531 4.97175,-3.02806 13.71822,-9.80777 17.89063,-13.86719 14.83619,-14.43441 24.63773,-31.49824 29.81641,-51.91406 0.72143,-2.84422 1.20048,-5.70196 1.94531,-11.58008 1.30881,-10.32903 1.34288,-17.10623 0.13086,-26.73047 -1.89423,-15.04185 -6.95103,-29.38246 -15.05078,-42.68164 -3.02805,-4.9718 -9.80783,-13.71817 -13.86719,-17.89062 -14.43424,-14.8364 -31.49849,-24.63769 -51.91406,-29.81641 -5.30975,-1.34689 -17.80336,-2.92916 -23.28125,-2.94922 z m 591.84375,7.48047 h 42.10937 c 2.24394,0 4.00978,0.6671 5.29883,2.00391 1.33682,1.28907 2.00586,3.12846 2.00586,5.51562 v 8.30664 c 0,2.14845 -0.62002,3.9388 -1.86133,5.3711 -1.24131,1.43229 -3.05621,2.14843 -5.44336,2.14843 h -42.10937 c -2.1484,0 -3.93881,-0.66709 -5.3711,-2.0039 -1.38455,-1.38456 -2.07617,-3.22395 -2.07617,-5.51563 v -8.30664 c 0,-2.14844 0.66904,-3.93879 2.00586,-5.37109 1.33678,-1.4323 3.14976,-2.14844 5.44141,-2.14844 z m -266.04102,25.80859 2.64453,0.0293 1.86133,3.39258 c 1.66122,3.02605 2.89384,5.5701 4.48437,9.26172 l 0.50586,1.17773 3.55664,0.52735 3.55469,0.52734 3.02539,-3.26953 c 4.54141,-4.9076 7.69064,-7.76594 8.375,-7.59961 1.86713,0.45377 7.88028,2.64066 11.26367,4.0957 l 3.95899,1.70117 0.33203,7.78516 0.33203,7.78516 2.45313,1.54883 c 1.34929,0.85176 2.68528,1.6992 2.96875,1.88281 0.45131,0.29238 0.99297,0.12382 4.36718,-1.35157 4.27397,-1.8688 8.32597,-3.44339 9.76563,-3.79492 0.92855,-0.22669 0.99191,-0.18438 4.13281,2.75391 1.75389,1.64078 4.37771,4.2857 5.83203,5.87891 l 2.64453,2.89648 -0.35156,0.98242 c -0.19351,0.54058 -0.71687,2.02558 -1.16406,3.29883 -0.44719,1.27324 -1.5507,4.01329 -2.45117,6.08984 -0.90051,2.07656 -1.63061,3.88862 -1.62305,4.02539 0.008,0.13679 0.52894,0.99607 1.16016,1.91016 0.63125,0.91409 1.48809,2.25076 1.90429,2.9707 l 0.75782,1.3086 2.05859,-0.11133 c 1.93425,-0.10447 6.828,-0.0131 9.08203,0.16992 4.40519,0.35777 4.24136,0.30313 4.91211,1.67578 1.14168,2.33641 2.81588,6.45936 3.89063,9.58399 1.81065,5.26444 2.00352,4.313 -1.63477,8.05664 -1.74096,1.79136 -4.19879,4.18208 -5.46289,5.3125 -1.2641,1.13041 -2.28902,2.2465 -2.27734,2.48047 0.0113,0.23391 0.2426,1.85914 0.51367,3.61328 l 0.49218,3.18945 3.90235,1.74219 c 2.1459,0.95818 5.24291,2.48662 6.88281,3.39453 l 2.98242,1.65039 0.0801,2.75391 c 0.0854,2.93769 -0.1771,8.704 -0.54492,11.97851 l -0.22266,1.99024 -2.34375,1.03125 c -2.34104,1.02955 -11.13921,4.16954 -11.7832,4.20507 -0.44844,0.0246 -2.28329,7.07357 -1.94922,7.48829 0.13455,0.16686 1.21569,1.37158 2.40234,2.67773 2.18831,2.40865 7.12399,8.55 7.14258,8.88672 0.0378,0.67 -4.23431,9.40816 -6.28515,12.85742 -0.99145,1.66743 -1.31085,2.0077 -1.91407,2.03906 -0.84105,0.0434 -6.53401,-0.13327 -7.53906,-0.23437 -0.37493,-0.0378 -1.34516,-0.11638 -2.15625,-0.17383 -0.81105,-0.0575 -2.26167,-0.22254 -3.22265,-0.36719 -0.96103,-0.1446 -1.81548,-0.1736 -1.89844,-0.0644 -0.0828,0.10919 -1.13479,1.43131 -2.33789,2.9375 -2.05784,2.57633 -2.16835,2.78057 -1.85938,3.44141 0.77227,1.65192 3.39595,10.90097 3.74219,13.19336 0.13379,0.88553 0.0295,1.02108 -2.66016,3.44531 -1.53921,1.38754 -4.4243,3.74464 -6.41211,5.23828 l -3.61328,2.71484 -2.16601,-0.99023 c -2.91266,-1.33321 -6.33577,-3.12689 -9.22461,-4.83399 l -2.38477,-1.41015 -1.7793,0.97265 c -0.97885,0.53422 -2.43835,1.28457 -3.24218,1.66797 l -1.46094,0.69727 -0.18945,2.3125 c -0.35868,4.40678 -1.70179,12.49285 -2.15821,12.98828 -0.71259,0.77347 -15.65607,4.64044 -16.13672,4.17578 -0.83077,-0.80318 -5.20472,-6.22252 -7.08398,-8.77734 l -2.25781,-3.06836 -3.64258,0.18945 -3.64258,0.19141 -1.89844,3.24218 c -2.8919,4.93874 -6.21252,9.761 -6.72461,9.76563 -0.24566,0.002 -2.01917,-0.18465 -3.9414,-0.41406 -3.41462,-0.40751 -7.96488,-1.18259 -10.8086,-1.8418 l -1.41992,-0.32812 -1.01172,-3.42774 c -0.85965,-2.91194 -1.42123,-5.19642 -2.63476,-10.71484 -0.13077,-0.59544 -0.39169,-0.93271 -0.83008,-1.07227 -0.35225,-0.1121 -1.87691,-0.68942 -3.38672,-1.2832 l -2.74414,-1.08008 -2.2539,1.69141 c -2.76341,2.07372 -4.56441,3.28886 -7.96485,5.375 l -2.62305,1.60937 -3.82421,-2.26562 c -2.10301,-1.2458 -5.19852,-3.25229 -6.88086,-4.45899 -2.63857,-1.89256 -3.06733,-2.30256 -3.11914,-2.99023 -0.0971,-1.28683 1.47738,-11.13028 2.15429,-13.4668 l 0.31446,-1.08203 -2.4043,-2.4082 c -1.32178,-1.32529 -2.48645,-2.49592 -2.58789,-2.60157 -0.10129,-0.10563 -1.72182,0.12399 -3.60156,0.51172 -4.74702,0.97913 -5.37622,1.08905 -8.13868,1.41602 -1.33927,0.15851 -2.69715,0.35719 -3.01757,0.4414 -0.4814,0.12654 -0.82703,-0.17086 -1.98829,-1.70898 -2.67416,-3.5421 -7.62645,-11.43269 -7.66992,-12.2207 -0.0113,-0.17435 0.93808,-1.8561 2.10742,-3.73633 2.17433,-3.49615 2.67598,-4.23439 4.97461,-7.31641 l 1.31836,-1.76758 -1.29687,-3.41796 -1.29883,-3.41602 -1.12109,-0.22266 c -3.17938,-0.63154 -6.3026,-1.38419 -9.10743,-2.19531 -1.71662,-0.49641 -3.51625,-0.99666 -4,-1.11133 -0.4837,-0.11467 -0.88804,-0.35316 -0.89843,-0.52929 -0.0113,-0.17613 -0.33889,-1.88405 -0.72852,-3.79493 -0.38974,-1.91087 -0.9588,-5.45996 -1.26562,-7.88867 -0.53076,-4.20131 -0.53512,-4.43608 -0.082,-4.82226 1.11926,-0.95421 5.63334,-3.90231 8.98828,-5.8711 l 3.62109,-2.12695 0.20703,-3.64258 0.20508,-3.64258 -1.67188,-1.15625 c -2.11457,-1.46303 -7.71727,-5.89698 -9.29492,-7.35546 l -1.19726,-1.10743 0.74609,-3.46289 c 0.75984,-3.5239 1.74476,-7.14023 2.90039,-10.64453 l 0.64258,-1.94726 2,-0.39454 c 3.43105,-0.67639 9.83812,-1.60315 12.10742,-1.75195 1.24018,-0.0813 1.38993,-0.15995 1.63477,-0.85742 0.14815,-0.42215 0.84866,-1.86446 1.55664,-3.20508 l 1.28711,-2.4375 -2.29102,-4.08008 c -2.87883,-5.12957 -4.90904,-9.44469 -4.66601,-9.91601 0.57891,-1.12259 4.76615,-6.54342 7.28906,-9.4375 l 2.93164,-3.36524 2.0293,0.45703 c 2.52219,0.56915 8.36694,2.23926 10.9414,3.125 1.58589,0.54564 2.01218,0.60083 2.36133,0.3125 0.23433,-0.19339 1.53628,-1.23531 2.89453,-2.3164 1.90794,-1.51861 2.42945,-2.07167 2.29297,-2.43164 -0.26306,-0.69418 -1.02032,-11.87565 -0.91797,-13.55664 l 0.0879,-1.45313 2.97656,-1.71484 c 3.0559,-1.76025 7.1892,-3.83567 10.06836,-5.05664 l 1.62696,-0.68946 1.59179,1.08008 c 0.87564,0.59507 3.56568,2.8062 5.97657,4.91211 l 4.38281,3.82813 3.50781,-0.94336 c 2.80925,-0.75531 3.54343,-1.04678 3.6875,-1.46875 0.099,-0.28982 0.68554,-2.05755 1.30274,-3.92774 0.61715,-1.87019 1.72807,-4.88802 2.46875,-6.70703 l 1.3457,-3.30859 2.5625,-0.3125 c 3.29393,-0.40138 7.97679,-0.65766 11.33203,-0.6211 z m 1.88867,26.75196 c -1.89977,-0.0142 -3.90999,0.0442 -6.11719,0.16601 -8.82875,0.48718 -14.42931,1.64751 -22.11914,4.58203 -11.19722,4.27297 -20.13444,10.46915 -28.37109,19.66797 -8.23661,9.19883 -13.41074,18.76377 -16.42578,30.36328 -2.07058,7.96612 -2.60824,13.65939 -2.12109,22.48829 0.26683,4.8387 0.52756,7.34061 1.00585,9.6914 2.61249,12.83943 7.85007,23.78338 16.11915,33.67578 3.24959,3.88756 10.76489,10.61771 14.98632,13.41992 11.89792,7.89788 24.74579,11.9874 39.39649,12.54297 3.02808,0.11486 12.74721,-0.78478 16.15234,-1.49609 12.31026,-2.57161 23.10104,-7.80871 32.80664,-15.92188 3.88751,-3.24965 10.61774,-10.76678 13.41992,-14.98828 7.13054,-10.74215 11.1324,-22.19523 12.31641,-35.24414 0.21694,-2.38915 0.20043,-4.90542 -0.0664,-9.74414 -0.48714,-8.82888 -1.64753,-14.4292 -4.58203,-22.11914 -4.27294,-11.19736 -10.46928,-20.13436 -19.66797,-28.37109 -9.19869,-8.23675 -18.76195,-13.41074 -30.36132,-16.42578 -5.9745,-1.55298 -10.67179,-2.24461 -16.3711,-2.28711 z m -79.95312,144.05859 c 1.85887,0.0373 5.64619,0.62109 9.23633,1.48047 6.377,1.52651 5.9849,1.2844 6.51562,4.02734 0.67967,3.51296 1.08446,6.52127 1.26758,9.41016 0.0911,1.43975 0.18397,2.83513 0.20703,3.10156 0.0227,0.26642 0.23986,0.52926 0.48047,0.58399 0.24075,0.0547 1.53369,0.73559 2.87304,1.51367 l 2.4336,1.41601 1.51953,-0.78711 c 3.5582,-1.84237 6.74643,-3.26939 9.56641,-4.27929 l 3.01367,-1.07813 2.05078,1.92188 c 2.75361,2.57976 5.21324,5.23867 7.37891,7.97656 1.75116,2.21389 1.78347,2.28761 1.44336,3.18164 -0.69309,1.82191 -3.89132,7.88031 -5.4043,10.23438 l -1.54883,2.4082 0.40625,0.86133 c 0.22299,0.47365 0.83205,1.79673 1.35352,2.9414 l 0.94726,2.08203 6.9043,1.47657 c 3.79695,0.81283 7.12654,1.58892 7.39844,1.72461 0.27174,0.13568 0.56399,0.27194 0.65039,0.30078 0.29971,0.10016 1.47538,7.27191 1.75586,10.71094 0.15496,1.90148 0.18873,4.04238 0.0742,4.75781 l -0.20898,1.30078 -3.05664,1.67187 c -1.6814,0.91937 -4.65692,2.32609 -6.61328,3.125 l -3.5586,1.45118 -0.80468,3.32422 -0.80469,3.32226 1.60351,1.49219 c 2.06495,1.9203 4.47643,4.58444 6.74415,7.45117 l 1.80273,2.2793 -0.41406,1.22851 c -0.6641,1.97556 -3.35715,6.97585 -5.57422,10.34961 l -2.05274,3.12305 -1.60156,-0.12109 c -2.03822,-0.15459 -11.65112,-2.02967 -12.63867,-2.46485 -0.64694,-0.28498 -0.84685,-0.22926 -1.51953,0.41602 -0.42614,0.40871 -1.56922,1.45693 -2.54102,2.33007 l -1.76758,1.5879 0.29297,1.3789 c 0.50098,2.361 1.09113,7.68138 1.19922,10.82031 l 0.10157,3.00391 -1.48047,0.86914 c -2.45851,1.44231 -7.42812,3.75838 -10.63868,4.95899 l -3.02539,1.13281 -0.93554,-0.81055 c -2.06937,-1.79115 -5.37304,-5.19397 -7.49414,-7.7207 -2.1148,-2.51921 -2.28648,-2.66404 -3.02735,-2.52344 -0.43207,0.082 -1.89976,0.25696 -3.26172,0.38867 l -2.47656,0.24024 -1.21289,2.44726 c -1.45693,2.93908 -3.5801,6.58488 -4.875,8.37305 -0.52002,0.71807 -1.09095,1.53532 -1.26953,1.81641 -0.18028,0.28384 -0.66699,0.517 -1.0957,0.52539 -1.34022,0.0264 -11.18158,-1.83209 -13.42579,-2.53516 -1.27116,-0.39825 -2.21022,-0.83006 -2.29492,-1.05664 -0.43631,-1.16712 -1.44239,-7.96026 -1.66406,-11.23242 -0.16554,-2.44441 -0.38018,-3.81632 -0.60352,-3.86133 -0.19048,-0.0385 -1.50098,-0.7338 -2.9121,-1.54492 l -2.56641,-1.47461 -2.95508,1.52148 c -3.56436,1.83326 -4.81386,2.37828 -8.36133,3.65625 l -2.72461,0.98242 -2.29492,-2.16406 c -2.43961,-2.29791 -6.10737,-6.34062 -7.86523,-8.67187 l -1.0625,-1.41016 1.15429,-2.5957 c 1.14547,-2.57817 3.99757,-7.67823 5.46875,-9.77735 l 0.76758,-1.0957 -0.51367,-1.01562 c -0.28346,-0.55919 -0.90353,-1.88792 -1.37695,-2.95118 l -0.86133,-1.93359 -6.5,-1.35352 c -3.57585,-0.74509 -6.97309,-1.54644 -7.54883,-1.77929 l -1.04687,-0.42188 -0.64453,-3.56836 c -0.73233,-4.05256 -1.07411,-7.26754 -1.12891,-10.6289 l -0.0371,-2.31836 2.18164,-1.23633 c 2.98666,-1.69183 6.03704,-3.13657 9.01758,-4.27149 l 2.5039,-0.95312 0.75391,-3.32031 0.75391,-3.31836 -2.33008,-2.25391 c -2.33771,-2.26169 -6.39411,-6.96808 -7.31836,-8.49023 l -0.49414,-0.8125 0.88086,-2.02149 c 1.13098,-2.59854 3.81697,-7.37478 5.69336,-10.12109 1.42598,-2.08704 1.50033,-2.14998 2.53906,-2.15625 0.5887,-0.004 4.04372,0.56855 7.67773,1.27148 l 6.60743,1.27735 0.57617,-0.5625 c 0.31634,-0.30924 1.37914,-1.28274 2.36133,-2.16407 l 1.78515,-1.60156 -0.56836,-3.45703 c -0.31256,-1.9013 -0.66748,-5.31369 -0.78711,-7.58203 l -0.21679,-4.125 1.45312,-0.87305 c 3.35097,-2.01726 12.89002,-6.16394 13.77149,-5.98633 0.77797,0.15678 6.92225,6.44248 9.26367,9.47852 l 1.20117,1.55859 2.77344,-0.35742 c 1.52519,-0.19706 2.9824,-0.32266 3.23828,-0.27734 0.54909,0.0972 0.71237,-0.14342 2.55273,-3.77735 1.2401,-2.4487 4.90104,-8.39823 5.67188,-9.21679 0.11223,-0.11919 0.51709,-0.16672 1.13672,-0.1543 z m -173.57227,18.06641 c 1.35606,-0.12022 5.78197,0.69631 9.92383,1.87695 6.30595,1.79754 5.92483,1.53767 6.33789,4.30078 0.52898,3.53879 0.80567,6.56297 0.86523,9.45703 0.0302,1.44234 0.0625,2.84027 0.0742,3.10742 0.0113,0.26718 0.21487,0.53856 0.45313,0.60352 0.23811,0.0649 1.50176,0.80214 2.80664,1.63672 l 2.37109,1.51758 1.55078,-0.72071 c 3.63364,-1.68869 6.88166,-2.97866 9.74219,-3.86718 l 3.05664,-0.94922 1.9668,2.00781 c 2.64091,2.69504 4.98257,5.4553 7.0293,8.2832 1.65501,2.28669 1.68658,2.3635 1.30859,3.24219 -0.77034,1.79064 -4.2257,7.70689 -5.83789,9.99414 l -1.65039,2.33985 0.36914,0.87695 c 0.20258,0.48276 0.7545,1.83214 1.22656,2.99805 l 0.85938,2.11914 6.83398,1.77148 c 3.75874,0.97429 7.05055,1.89189 7.31641,2.03906 0.2657,0.14703 0.55359,0.29367 0.63867,0.32618 0.29518,0.113 1.16357,7.32943 1.29687,10.77734 0.0737,1.90632 0.0139,4.04794 -0.13086,4.75781 l -0.26171,1.29102 -3.12696,1.53906 c -1.71915,0.84673 -4.75152,2.12322 -6.74023,2.83789 l -3.61719,1.30078 -0.94531,3.28516 -0.94727,3.28515 1.53711,1.5586 c 1.98104,2.00678 4.2787,4.77146 6.42188,7.73242 l 1.70312,2.35351 -0.46484,1.21094 c -0.74789,1.9454 -3.65258,6.82558 -6.01172,10.10156 l -2.18359,3.03321 -1.59571,-0.18945 c -2.02975,-0.24152 -11.55343,-2.52502 -12.52148,-3.00196 -0.63417,-0.31257 -0.83748,-0.26607 -1.53711,0.34961 -0.44326,0.39016 -1.63048,1.3879 -2.63867,2.21875 l -1.83399,1.51172 0.23438,1.39062 c 0.39968,2.38024 0.76049,7.72062 0.73437,10.86133 l -0.0254,3.00586 -1.51758,0.80469 c -2.51788,1.33595 -7.5809,3.43765 -10.83984,4.5 l -3.07227,1.00195 -0.90039,-0.84961 c -1.99098,-1.87789 -5.14501,-5.41814 -7.15625,-8.0332 -2.00526,-2.60727 -2.17177,-2.75924 -2.91796,-2.65039 -0.43522,0.0635 -1.90906,0.1763 -3.2754,0.25 l -2.48437,0.13281 -1.31641,2.39258 c -1.58116,2.87418 -3.85648,6.42699 -5.22656,8.1582 -0.55022,0.69525 -1.15724,1.48659 -1.34766,1.75977 -0.19237,0.2759 -0.68851,0.48846 -1.11718,0.47851 -1.33985,-0.0302 -11.08814,-2.3067 -13.30274,-3.10546 h -0.002 c -1.25209,-0.45202 -2.17118,-0.92443 -2.24609,-1.1543 -0.38605,-1.18473 -1.10188,-8.0143 -1.1836,-11.29297 -0.0609,-2.44921 -0.21621,-3.82831 -0.4375,-3.88281 -0.1886,-0.0465 -1.4686,-0.79728 -2.84375,-1.66797 l -2.5,-1.58399 -3.01758,1.39258 c -3.63942,1.67936 -4.91093,2.1716 -8.50976,3.29688 l -2.76367,0.86523 -2.20118,-2.25976 c -2.33922,-2.40008 -5.82968,-6.59577 -7.48632,-9 l -1.00196,-1.45313 1.26368,-2.54492 c 1.25453,-2.52688 4.3233,-7.50079 5.88281,-9.53516 l 0.8125,-1.0625 -0.47071,-1.03711 c -0.25927,-0.57078 -0.82246,-1.92332 -1.25,-3.00585 l -0.77734,-1.96876 -6.4375,-1.63085 c -3.54074,-0.89715 -6.89961,-1.84242 -7.46484,-2.09961 l -1.02735,-0.4668 -0.49218,-3.5918 c -0.55854,-4.08015 -0.76265,-7.30732 -0.67383,-10.66797 l 0.0625,-2.3164 2.23242,-1.14258 c 3.05624,-1.56272 6.1651,-2.87629 9.19141,-3.88281 l 2.54296,-0.84571 0.89454,-3.28515 0.89453,-3.28321 -2.23047,-2.35156 c -2.23896,-2.35948 -6.09089,-7.2327 -6.94922,-8.79297 l -0.45899,-0.83593 0.96485,-1.98047 c 1.24093,-2.54786 4.13105,-7.20355 6.12305,-9.86719 1.51381,-2.02421 1.59085,-2.08499 2.6289,-2.04688 0.58832,0.0216 4.01655,0.74013 7.61719,1.59766 l 6.54492,1.55859 0.59961,-0.5371 c 0.3292,-0.29545 1.43225,-1.22199 2.45117,-2.06055 l 1.85157,-1.52539 -0.41993,-3.47852 c -0.2313,-1.91292 -0.43833,-5.33604 -0.46093,-7.60742 l -0.041,-4.12891 1.48828,-0.8125 c 3.43408,-1.87227 13.14256,-5.60769 14.01563,-5.39257 0.7706,0.18984 6.64002,6.73388 8.84961,9.86718 l 1.13281,1.60742 2.78711,-0.23828 c 1.53226,-0.13171 2.99237,-0.19487 3.24609,-0.13867 0.54444,0.12061 0.719,-0.11403 2.71289,-3.66601 1.34362,-2.3935 5.25547,-8.17996 6.06055,-8.96485 0.0586,-0.0571 0.18909,-0.0922 0.38281,-0.10937 z m 167.67578,8.2207 c -8.27085,0.15935 -15.68644,2.41449 -22.21875,6.75586 -6.53234,4.34136 -11.48396,10.30535 -14.83398,17.86914 -1.56458,3.53257 -3.15645,11.43409 -3.08203,15.29688 0.15949,8.27569 2.41758,15.6975 6.75976,22.2207 4.07259,6.11834 9.52234,10.8472 16.16992,14.0293 3.5881,1.71756 5.5116,2.30656 10.26954,3.14648 3.02781,0.53446 5.09608,0.75389 6.86328,0.72656 8.05024,-0.12434 15.58024,-2.42377 22.07812,-6.74218 6.53231,-4.34136 11.48201,-10.30533 14.83203,-17.86915 1.56461,-3.53253 3.15645,-11.43408 3.08203,-15.29687 -0.15949,-8.27097 -2.41262,-15.68825 -6.7539,-22.2207 -4.34124,-6.53246 -10.30544,-11.48195 -17.86914,-14.83204 -3.53246,-1.56458 -11.43412,-3.15839 -15.29688,-3.08398 z m -175.47265,17.7832 c -7.66349,0.0676 -14.65293,2.0078 -20.94532,5.8125 -6.71179,4.05834 -11.91391,9.80495 -15.58398,17.21875 -1.71405,3.46247 -3.64175,11.28794 -3.73242,15.15039 -0.19427,8.2749 1.74517,15.78552 5.80469,22.48829 3.80753,6.28671 9.05105,11.24388 15.55664,14.70703 3.51144,1.86928 5.40731,2.54159 10.125,3.58398 3.00223,0.66335 5.05947,0.96943 6.82617,1.01758 8.04824,0.21959 15.66932,-1.75606 22.3457,-5.79297 6.71184,-4.0583 11.91192,-9.80498 15.58203,-17.21875 1.71406,-3.4625 3.64175,-11.28989 3.73242,-15.15234 0.19427,-8.27021 -1.74059,-15.77442 -5.79882,-22.48633 -4.05827,-6.71195 -9.80506,-11.91383 -17.21875,-15.58399 -3.46243,-1.71406 -11.28994,-3.64175 -15.15235,-3.73242 -0.51688,-0.0121 -1.03011,-0.0162 -1.54101,-0.0117 z m 91.67773,28.01172 c 1.63193,0.0362 2.85257,0.21192 3.12109,0.54492 0.15156,0.18822 0.67332,1.38201 1.16016,2.65235 0.74532,1.94491 0.97687,3.04599 1.46484,6.97265 l 0.58008,4.66407 1.0625,0.44922 c 0.58398,0.24755 1.52304,0.76484 2.08789,1.15039 l 1.02735,0.70117 2.71484,-1.41016 c 2.89376,-1.50247 5.81169,-2.51635 9.21289,-3.20312 l 2.09766,-0.42383 1.15429,1.55859 c 2.38164,3.21547 4.25762,7.18925 5.375,11.38672 0.60522,2.27358 0.66542,2.15851 -2.25,4.37891 -2.27788,1.73488 -4.70641,3.11103 -7.625,4.32422 l -2.37695,0.98828 -0.49609,2.42383 -0.4961,2.42382 1.4961,1.40821 c 0.82276,0.77435 1.93897,1.90743 2.48047,2.51953 1.16209,1.31369 3.94906,5.50926 4.60742,6.93555 l 0.46094,1.00195 -2.18946,2.71094 c -2.39516,2.96511 -4.56278,4.94098 -7.70508,7.02539 -1.88398,1.24966 -2.1001,1.3341 -2.7871,1.08007 -1.4566,-0.53858 -6.71339,-4.8971 -8.66211,-7.18164 l -1.93165,-2.26367 -2.51953,0.25586 c -1.95964,0.19956 -2.5414,0.34216 -2.61718,0.64649 -0.29594,1.18771 -2.37583,4.78268 -4.08399,7.05664 -1.64235,2.18638 -3.94249,4.7129 -4.31054,4.73437 -0.0537,0.003 -1.09739,-0.35531 -2.31836,-0.79687 -3.49973,-1.26573 -6.06243,-2.66224 -9.08008,-4.94727 l -2.79688,-2.11719 0.19336,-1.20117 c 0.48231,-2.98824 2.51421,-7.72491 4.86719,-11.3457 l 0.82617,-1.27149 -1.0293,-2.1582 c -0.5664,-1.18673 -1.1945,-2.22089 -1.39648,-2.29883 -0.20183,-0.0779 -1.52862,-0.31356 -2.94727,-0.52344 -2.86012,-0.42311 -6.14118,-1.45515 -8.96093,-2.81835 -1.02074,-0.4935 -1.88224,-0.91308 -1.91407,-0.9336 -0.0302,-0.0189 -0.0448,-0.94159 -0.0293,-2.04687 0.0571,-4.3197 1.0012,-8.96444 2.55273,-12.54883 l 0.73828,-1.70313 2.625,-0.10937 c 3.06066,-0.12851 7.36847,0.34682 10.19336,1.12695 l 1.98633,0.54883 0.79883,-0.89258 c 0.43903,-0.4919 1.24685,-1.22525 1.79492,-1.6289 l 0.99609,-0.73438 -0.45898,-2.36133 c -0.5387,-2.77292 -0.63231,-6.76763 -0.23633,-10.11523 0.3258,-2.75441 0.15553,-2.61076 4.4668,-3.72266 2.49475,-0.64342 6.35629,-0.97246 9.07617,-0.91211 z m -0.9668,26.65821 c -2.62157,-0.0998 -5.15101,1.38578 -6.34765,3.99414 -0.56697,1.23594 -0.61474,1.63626 -0.39844,3.40625 0.20976,1.7156 0.37464,2.1751 1.13281,3.16601 1.66235,2.17304 3.92186,3.03296 6.62891,2.52344 1.23965,-0.2332 1.94375,-0.54185 2.80469,-1.22852 3.85262,-3.07271 3.19771,-9.12021 -1.21485,-11.21679 -0.84822,-0.40302 -1.73161,-0.61126 -2.60547,-0.64453 z"
       style="opacity:1;fill:#ffff00;stroke:none;stroke-width:0.26663399;fill-opacity:1"
       inkscape:connector-curvature="0" />
  </g>
</svg>
