<?xml version="1.0" encoding="UTF-8" standalone="no"?>
<svg
   xmlns:dc="http://purl.org/dc/elements/1.1/"
   xmlns:cc="http://creativecommons.org/ns#"
   xmlns:rdf="http://www.w3.org/1999/02/22-rdf-syntax-ns#"
   xmlns:svg="http://www.w3.org/2000/svg"
   xmlns="http://www.w3.org/2000/svg"
   id="svg11005"
   version="1.1"
   viewBox="0 0 563.18994 352.76285"
   height="352.76285mm"
   width="563.18994mm">
  <defs
     id="defs10999" />
  <metadata
     id="metadata11002">
    <rdf:RDF>
      <cc:Work
         rdf:about="">
        <dc:format>image/svg+xml</dc:format>
        <dc:type
           rdf:resource="http://purl.org/dc/dcmitype/StillImage" />
        <dc:title></dc:title>
      </cc:Work>
    </rdf:RDF>
  </metadata>
  <g
     transform="translate(38.178318,163.61951)"
     id="layer1">
    <path
       id="path142-6"
       transform="matrix(0.26458333,0,0,0.26458333,-38.178318,-163.61951)"
       d="M 669.01172,0.01367188 C 652.86118,0.10711959 630.49394,0.68860937 620.37305,1.4746094 l -14.87891,1.15625 -8.25586,17.5371096 c -4.53974,9.645732 -11.6104,25.618903 -15.71289,35.496093 -4.10249,9.877191 -7.5767,17.999695 -7.7207,18.048829 -0.14423,0.0491 -8.4559,1.627308 -18.47071,3.507812 -14.21684,2.669405 -18.59015,2.992971 -19.94726,1.472656 -12.81441,-14.355741 -50.65919,-51.258806 -53.38086,-52.052734 -3.29764,-0.96189 -70.22258,22.405035 -76.69336,26.777344 -2.31685,1.565593 -5.62297,24.199205 -8.375,57.328121 l -1.68164,20.23633 -16.59375,9.09961 -16.5957,9.09961 -11.75,-6.50586 c -6.46334,-3.57834 -21.7706,-11.35022 -34.01563,-17.26953 -21.52369,-10.40466 -22.37212,-10.70918 -25.49609,-9.19336 -4.8342,2.34565 -32.30801,22.85881 -49.12891,36.68164 l -14.81445,12.17383 3.88281,20.74805 c 2.13513,11.41213 5.86089,28.55158 8.2793,38.08593 l 4.39648,17.33399 -13.02344,13.6914 -13.02343,13.68946 -9.51953,-1.82813 c -12.7968,-2.4576 -34.98584,-5.9479 -52.70313,-8.29101 l -14.53906,-1.92383 -11.5293,15.65039 c -6.34186,8.60708 -17.01427,24.22001 -23.71484,34.69531 l -12.181643,19.04492 10.015623,17.79102 c 5.50904,9.78493 14.34457,24.96587 19.63477,33.73437 l 9.61914,15.94141 -8.09766,16.88867 -8.0957,16.88672 -17.298829,2.20899 c -9.513827,1.21458 -26.608943,3.92731 -37.990235,6.02929 l -20.693359,3.82227 -3.935547,10.4082 c -5.100435,13.48702 -15.026819,47.50588 -17.652344,60.49219 l -2.054687,10.1543 19.265625,17.73632 c 10.595607,9.75504 23.556422,21.18901 28.800781,25.40821 l 9.535156,7.66992 -1.998047,14.90039 c -1.098935,8.19504 -2.114946,16.62532 -2.257812,18.73437 -0.234482,3.46334 -1.475445,4.41151 -12.810547,9.79102 -22.816029,10.8282 -56.1300285,29.17668 -56.734375,31.24805 -0.9583748,3.28562 -0.2204017,50.80957 1.0410156,67.05859 l 1.1582032,14.92188 8.3281252,4.06445 c 16.129625,7.87185 38.282416,17.67643 53.939453,23.87305 4.793839,1.89724 8.756373,3.55679 8.806641,3.68945 0.04989,0.13266 1.634555,8.4629 3.521484,18.51172 l 3.43164,18.27148 -3.878906,3.82031 c -2.133354,2.10165 -9.143302,8.84969 -15.576172,14.99414 -6.432835,6.1445 -17.001679,16.92523 -23.486328,23.95704 l -11.791015,12.78515 4.173828,13.46485 c 5.009423,16.16628 21.07246,59.35271 23.304687,62.65625 1.342073,1.98621 4.012584,2.67796 17.273438,4.48242 13.13673,1.78749 25.194412,2.93363 57.089846,5.41992 2.88529,0.22492 4.75071,2.75751 12.42187,16.87109 l 9.02539,16.60743 -6.96875,12.88867 c -3.83331,7.08948 -11.61472,22.36436 -17.29297,33.94336 -10.04137,20.4764 -10.28052,21.1436 -8.73828,24.3594 3.055,6.3701 38.36183,52.3241 48.26563,62.8203 1.33466,1.4145 31.55793,-4.067 58.85742,-10.6758 l 18.29492,-4.4297 13.53711,12.877 13.53711,12.8789 -0.90039,5.5898 c -0.49459,3.0749 -1.5209,8.8478 -2.2793,12.8281 -2.92513,15.3431 -4.03573,22.3127 -6.10937,38.2891 -1.17997,9.0906 -1.90947,17.6269 -1.6211,18.9707 0.624,2.9082 26.29824,21.79 50.78711,37.3496 l 17.38868,11.0488 21.10156,-11.8164 c 11.60553,-6.4989 26.78102,-15.3276 33.72265,-19.6171 l 12.6211,-7.7989 16.95508,8.1192 16.95507,8.1172 2.89649,21.6542 c 1.59292,11.9092 4.37409,29.0867 6.17969,38.1719 l 3.28125,16.5176 7.0625,2.5566 h 0.008 c 12.39715,4.4866 57.91853,17.6458 65.94726,19.0645 l 7.7461,1.3691 14.36328,-15.2617 c 13.93104,-14.8039 27.0733,-29.6816 33.89648,-38.3711 2.38942,-3.0431 4.10209,-4.0194 6.07032,-3.4453 1.50871,0.4358 9.6992,1.5852 18.20117,2.5547 l 15.45898,1.7636 7.83985,15.8047 c 14.24813,28.7201 27.52082,52.7971 29.4082,53.3477 5.3876,1.5715 77.7875,-0.5589 81.77539,-2.4063 1.92253,-0.8904 15.76195,-30.7906 25.8418,-55.834 l 6.01953,-14.955 18.69336,-3.5957 18.69336,-3.5938 3.63281,4.1211 c 6.40698,7.2651 32.0864,33.0326 41.91211,42.0566 l 9.51758,8.7403 13.45508,-4.168 c 16.29078,-5.048 59.35627,-21.0782 62.70312,-23.3398 2.05931,-1.3914 2.71242,-3.8713 4.54492,-17.2559 2.49067,-18.1928 4.38743,-38.0226 4.87696,-50.9961 l 0.34374,-9.1484 17.16211,-9.3321 17.16211,-9.332 12.5293,7.041 c 6.8914,3.872 22.12447,11.6417 33.85157,17.2676 19.8997,9.5469 21.5241,10.1348 24.3438,8.8145 4.1883,-1.9614 40.7126,-29.4995 53.5859,-40.4024 l 10.6035,-8.9805 -4.4844,-22.5683 c -2.4661,-12.4133 -6.2593,-29.4637 -8.4297,-37.8887 l -0.9902,-3.8457 H 972.81641 c -0.5555,0.3943 -1.10073,0.7966 -1.65821,1.1895 -23.79209,16.7669 -72.30347,43.3678 -99.23242,54.414 -59.56002,24.4318 -119.16742,37.7188 -181.51367,40.459 -38.21027,1.6793 -75.91368,-0.6166 -114.63086,-6.9805 -17.09711,-2.8101 -76.51593,-18.449 -90.93555,-23.9336 C 377.60282,1127.4869 293.28878,1062.5595 228.87891,971.16211 212.11197,947.3701 185.51119,898.85672 174.46484,871.92773 144.91688,799.89515 131.21038,725.10822 133.67383,649.3457 c 1.57626,-48.47531 7.06324,-81.90774 21.64062,-131.88281 8.29579,-28.44004 12.91405,-42.1768 18.71094,-55.6543 41.61056,-96.74184 103.41191,-173.3063 188.01172,-232.92578 23.79205,-16.76685 72.30344,-43.36974 99.23242,-54.41601 59.56006,-24.4317 119.16749,-37.71691 181.51367,-40.45703 38.56868,-1.69508 75.63913,0.59446 115.9668,7.16211 27.03356,4.40258 87.4776,22.03324 112.63867,32.85546 88.98862,38.27577 160.89303,93.65149 218.25193,168.125 h 104.4707 c 6.1293,-11.76642 13.5085,-26.39278 17.2637,-34.4707 l 6.9648,-14.98242 -4.9296,-7.4375 c -6.692,-10.09826 -26.0606,-35.42054 -36.9629,-48.32422 l -8.9297,-10.56836 -21.8242,4.10547 c -12.003,2.25838 -29.1214,5.96885 -38.043,8.24609 l -16.2207,4.14063 -14.084,-13.26563 -14.0859,-13.26758 1.6562,-5.76757 c 3.3905,-11.81715 11.3201,-68.50973 9.9024,-70.79688 -1.379,-2.22478 -32.8755,-24.51399 -50.0235,-35.40039 l -17.207,-10.923827 -10.15821,4.746094 c -8.8424,4.132233 -45.4221,25.651453 -54.48828,32.054683 l -3.18164,2.24805 -14.60157,-7.08008 c -8.03085,-3.8942 -15.75481,-7.42041 -17.16601,-7.83593 -2.5499,-0.75115 -2.94194,-2.10992 -4.16016,-14.41602 -0.31151,-3.14646 -2.7683,-18.619676 -5.45898,-34.384766 l -4.89258,-28.664062 -10.18164,-3.84961 C 870.02448,31.237579 835.93662,21.299307 823.07617,18.699219 l -10.11328,-2.044922 -19.11914,20.949219 c -10.51551,11.5217 -21.96319,24.4786 -25.43945,28.792968 l -6.32032,7.84375 -14.91015,-2 c -8.20014,-1.099578 -16.64422,-2.115765 -18.76563,-2.259765 -3.45471,-0.233915 -4.33256,-1.311016 -8.41797,-10.326172 -8.13789,-17.957594 -30.52255,-58.6107375 -32.60742,-59.21875012 -1.22832,-0.35828504 -8.68077,-0.47794363 -18.37109,-0.421875 z"
       style="fill:#ffff00;stroke:none;stroke-width:1.33333349" />
    <path
       d="m 282.27078,82.612126 h -6.87917 l -1.37583,6.87917 h -6.87917 l -1.37583,6.87917 h -6.87917 l -1.37583,6.879174 h -48.15417 l 1.37583,-6.879174 h -6.87916 l 1.37583,-6.87917 h -6.87917 l 1.37584,-6.87917 h -6.87917 l 9.63083,-48.15417 h 6.87917 l 1.37583,-6.87916 h 6.87917 l 1.37584,-6.87917 h -6.87917 l 1.37583,-6.87917 h -6.87917 l 8.25501,-41.275 h 6.87916 l 1.37584,-6.87916 h 6.87916 l 1.37584,-6.87917 h 6.87916 l 1.37584,-6.87917 h 48.15416 l -1.37583,6.87917 h 6.87917 l -1.37584,6.87917 h 6.87917 l -1.37583,6.87916 h 6.87916 l -8.255,41.275 h -6.87916 l -1.37584,6.87917 h -6.87916 l -1.37584,6.87917 h 6.87917 l -1.37583,6.87916 h 6.87916 z m -5.50333,-75.6708297 5.50333,-27.5166703 h -6.87917 l 1.37584,-6.87917 h -34.39584 l -1.37583,6.87917 h -6.87917 l -5.50333,27.5166703 h 6.87917 l -1.37584,6.8791597 h 34.39584 l 1.37583,-6.8791597 z m -13.75834,68.7916697 6.87917,-34.39584 h -6.87917 l 1.37584,-6.87917 h -34.39584 l -1.37583,6.87917 h -6.87917 l -6.87916,34.39584 h 6.87916 l -1.37583,6.87916 h 34.39583 l 1.37584,-6.87916 z"
       style="font-style:italic;font-variant:normal;font-weight:bold;font-stretch:normal;font-size:medium;line-height:44.25;font-family:Ticketing;-inkscape-font-specification:'Ticketing Bold Italic';letter-spacing:5.29166651px;word-spacing:0px;fill:#ffff00;fill-opacity:1;stroke:none;stroke-width:50;stroke-miterlimit:4;stroke-dasharray:none;paint-order:stroke fill markers"
       id="path1438" />
    <path
       d="m 386.4433,103.24964 h -89.42917 l 4.1275,-20.637514 h 34.39583 l 22.01334,-110.06667 h -20.6375 l 4.1275,-20.6375 h 41.275 l -26.14084,130.70417 h 34.39584 z"
       style="font-style:italic;font-variant:normal;font-weight:bold;font-stretch:normal;font-size:medium;line-height:44.25;font-family:Ticketing;-inkscape-font-specification:'Ticketing Bold Italic';letter-spacing:5.29166651px;word-spacing:0px;fill:#ffff00;fill-opacity:1;stroke:none;stroke-width:50;stroke-miterlimit:4;stroke-dasharray:none;paint-order:stroke fill markers"
       id="path1440" />
    <path
       d="m 498.87081,82.612126 h -6.87916 l -1.37584,6.87917 h -6.87916 l -1.37584,6.87917 h -6.87916 l -1.37584,6.879174 h -48.15416 l 1.37583,-6.879174 h -6.87917 l 1.37584,-6.87917 h -6.87917 l 1.37583,-6.87917 h -6.87916 l 4.1275,-20.6375 h 20.6375 l -2.75167,13.75834 h 6.87917 l -1.37584,6.87916 h 34.39584 l 1.37583,-6.87916 h 6.87917 l 5.50333,-27.51667 h -6.87917 l 1.37584,-6.87917 h -6.87917 l 1.37583,-6.87917 h -6.87916 l 1.37583,-6.87916 h -6.87917 l 1.37584,-6.87917 h -6.87917 l 1.37583,-6.87917 h -6.87916 l 1.37583,-6.8791597 h 6.87917 l 1.37583,-6.87917 h 6.87917 l 1.37583,-6.87917 h 6.87917 l 1.37583,-6.8791603 h 6.87917 l 1.37583,-6.87917 h 6.87917 l 1.37583,-6.87917 h -61.9125 l 4.1275,-20.6375 h 89.42917 l -5.50334,27.51667 h -6.87916 l -1.37584,6.87917 h -6.87916 l -1.37584,6.8791603 h -6.87916 l -1.37584,6.87917 h -6.87916 l -1.37584,6.87917 h -6.87916 l -1.37584,6.8791597 h 6.87917 l -1.37583,6.87917 h 6.87916 l -1.37583,6.87917 h 6.87917 l -1.37584,6.87916 h 6.87917 l -1.37583,6.87917 h 6.87916 z"
       style="font-style:italic;font-variant:normal;font-weight:bold;font-stretch:normal;font-size:medium;line-height:44.25;font-family:Ticketing;-inkscape-font-specification:'Ticketing Bold Italic';letter-spacing:5.29166651px;word-spacing:0px;fill:#ffff00;fill-opacity:1;stroke:none;stroke-width:50;stroke-miterlimit:4;stroke-dasharray:none;paint-order:stroke fill markers"
       id="path1442" />
    <path
       d="M 169.84326,103.24964 H 80.414092 l 11.00667,-55.033344 h 6.87916 l 1.37584,-6.87917 h 6.879158 l 1.37584,-6.87917 h 6.87916 l 1.37584,-6.87916 h 6.87916 l 1.37584,-6.87917 h 27.51667 l 1.37583,-6.87917 h 6.87917 l 1.37583,-6.8791597 h 6.87917 l 5.50333,-27.5166703 h -6.87917 l 1.37584,-6.87917 h -34.39584 l -1.37583,6.87917 h -6.87917 l -2.75167,13.7583303 h -20.6375 l 4.1275,-20.6375003 h 6.87917 l 1.37583,-6.87916 h 6.87917 l 1.37583,-6.87917 h 6.87917 l 1.37583,-6.87917 h 48.15417 l -1.37583,6.87917 h 6.87917 l -1.37584,6.87917 h 6.87917 l -1.37583,6.87916 h 6.87916 l -8.255,41.275 h -6.87916 l -1.37584,6.87917 h -6.87916 l -1.37584,6.87917 h -6.87916 l -1.37584,6.87916 h -6.87916 l -1.37584,6.87917 h -27.51667 l -1.37583,6.87917 h -6.87917 l -1.37583,6.87916 h -6.87917 l -5.50333,27.51667 h 68.79167 z"
       style="font-style:italic;font-variant:normal;font-weight:bold;font-stretch:normal;font-size:medium;line-height:44.25;font-family:sans-serif;-inkscape-font-specification:'sans-serif Bold Italic';letter-spacing:0px;word-spacing:0px;fill:#ffff00;fill-opacity:1;stroke:none;stroke-width:50;stroke-miterlimit:4;stroke-dasharray:none;paint-order:stroke fill markers"
       id="path1436" />
  </g>
</svg>
