<?xml version="1.0" encoding="UTF-8" standalone="no"?>
<!-- Created with Inkscape (http://www.inkscape.org/) -->

<svg
   xmlns:dc="http://purl.org/dc/elements/1.1/"
   xmlns:cc="http://creativecommons.org/ns#"
   xmlns:rdf="http://www.w3.org/1999/02/22-rdf-syntax-ns#"
   xmlns:svg="http://www.w3.org/2000/svg"
   xmlns="http://www.w3.org/2000/svg"
   xmlns:sodipodi="http://sodipodi.sourceforge.net/DTD/sodipodi-0.dtd"
   xmlns:inkscape="http://www.inkscape.org/namespaces/inkscape"
   width="135.62515mm"
   height="77.470299mm"
   viewBox="0 0 135.62515 77.470299"
   version="1.1"
   id="svg1194"
   sodipodi:docname="acosta.svg"
   inkscape:version="0.92.4 (5da689c313, 2019-01-14)">
  <defs
     id="defs1188" />
  <sodipodi:namedview
     id="base"
     pagecolor="#ffffff"
     bordercolor="#666666"
     borderopacity="1.0"
     inkscape:pageopacity="0.0"
     inkscape:pageshadow="2"
     inkscape:zoom="0.35"
     inkscape:cx="235.90008"
     inkscape:cy="517.15166"
     inkscape:document-units="mm"
     inkscape:current-layer="layer1"
     showgrid="false"
     inkscape:window-width="1216"
     inkscape:window-height="640"
     inkscape:window-x="3179"
     inkscape:window-y="279"
     inkscape:window-maximized="0"
     fit-margin-top="0"
     fit-margin-left="0"
     fit-margin-right="0"
     fit-margin-bottom="0" />
  <metadata
     id="metadata1191">
    <rdf:RDF>
      <cc:Work
         rdf:about="">
        <dc:format>image/svg+xml</dc:format>
        <dc:type
           rdf:resource="http://purl.org/dc/dcmitype/StillImage" />
        <dc:title></dc:title>
      </cc:Work>
    </rdf:RDF>
  </metadata>
  <g
     inkscape:label="Layer 1"
     inkscape:groupmode="layer"
     id="layer1"
     transform="translate(-38.020759,-110.09818)">
    <g
       style="display:inline;opacity:1;fill:#ffffff"
       transform="matrix(0.03527778,0,0,-0.03527778,38.020835,187.65599)"
       id="g1711">
      <path
         inkscape:connector-curvature="0"
         id="path1713"
         style="fill:#ffffff;fill-opacity:1;fill-rule:nonzero;stroke:none"
         d="m 1.78516,1731.37 -1.542972,17.26 c -0.546876,5.87 -0.1757817,10.87 1.113282,15.01 1.30078,4.16 4.13281,9.02 8.51562,14.68 4.38671,5.65 11.30861,13.87 20.83981,24.65 22.793,26 41.8868,40.9 57.2383,44.68 4.6172,1.15 8.1524,1.01 10.5664,-0.4 2.3904,-1.44 4.1874,-4.5 5.3514,-9.24 0.821,-3.3 0.672,-8.17 -0.41,-14.55 -1.074,-6.4 -3.418,-16.67 -7.0117,-30.82 -3.5937,-14.14 -6.7305,-26.8 -9.3867,-38.01 -2.168,-9.18 -4.7734,-18.99 -7.832,-29.42 -3.0664,-10.47 -5.0469,-17.61 -6.0157,-21.45 -0.957,-3.87 -1.2304,-6.63 -0.8086,-8.35 0.4571,-1.89 1.4922,-3.36 3.0547,-4.43 1.5625,-1.09 3.2539,-1.38 5.0508,-0.94 2.461,0.6 4.9024,2.6 7.3242,6.01 2.4414,3.42 7.0508,10.63 13.875,21.66 3.293,5.43 6.691,11.74 10.176,18.93 3.515,7.19 7.812,16.39 12.883,27.57 5.066,11.18 9.754,21.59 14.011,31.18 2.649,5.99 5.051,11.34 7.18,16.08 2.148,4.75 4.07,8.46 5.77,11.15 1.691,2.66 3.222,4.18 4.531,4.51 1.144,0.26 3.34,-0.7 6.601,-2.92 l 4.512,-3.53 c 3.43,-2.99 5.344,-5.29 5.742,-6.88 0.481,-1.91 -1.347,-9.7 -5.449,-23.41 -4.109,-13.74 -7.547,-25.58 -10.312,-35.53 -2.754,-9.98 -6.024,-24.21 -9.754,-42.65 -3.75,-18.46 -6.739,-38.65 -8.965,-60.57 15.664,19.21 26.433,32.12 32.324,38.75 5.906,6.65 10.457,10.35 13.691,11.16 2.176,0.53 3.485,-0.12 3.934,-1.91 0.488,-2 0.09,-4.84 -1.219,-8.52 -1.3,-3.7 -3.234,-7.89 -5.773,-12.57 -2.578,-4.71 -6.485,-11.54 -11.758,-20.54 -5.262,-8.96 -11.035,-18.71 -17.305,-29.18 -3.816,-6.46 -7.285,-13.75 -10.418,-21.86 -3.144,-8.09 -5.558,-14.36 -7.277,-18.81 -1.719,-4.43 -3.594,-7.21 -5.633,-8.31 -2.98,-1.74 -6.094,-1.76 -9.336,-0.05 -3.222,1.73 -5.488,5.13 -6.738,10.25 -0.891,3.61 -0.898,11.46 -0.031,23.63 0.871,12.19 2.949,27.54 6.203,46.14 1.883,11.11 3.984,21.7 6.328,31.77 2.344,10.05 5.156,21.2 8.418,33.38 3.281,12.24 6.562,23.86 9.871,34.92 3.301,11.06 6.094,20.5 8.391,28.29 -6.418,-14.74 -12.844,-29.1 -19.278,-43.08 -6.464,-14.02 -13.847,-28.89 -22.168,-44.65 -8.312,-15.76 -16.9645,-30.72 -25.9293,-44.87 -3.9141,-6.11 -6.7969,-10.28 -8.5742,-12.6 -1.7969,-2.28 -4.4922,-3.88 -8.0938,-4.77 -2.2773,-0.57 -4.6601,-0.32 -7.1875,0.7 -2.5117,1.05 -4.7851,2.64 -6.8086,4.81 -2.039,2.16 -3.3593,4.43 -3.9531,6.79 -0.957,3.96 -1.2422,7.63 -0.8125,10.96 0.4492,3.3 1.3789,8.36 2.8242,15.14 6.4649,29.23 11.4336,49.37 14.9297,60.48 12.7266,38.89 18.5859,60.38 17.5899,64.43 -0.3321,1.34 -1.0665,2.28 -2.2071,2.86 -1.164,0.56 -2.4414,0.69 -3.8594,0.35 -2.664,-0.66 -5.5273,-2.62 -8.6601,-5.84 -3.1172,-3.24 -6.9258,-7.8 -11.3789,-13.73 -4.4727,-5.91 -9.9102,-13.04 -16.375,-21.36 -6.4453,-8.3 -13.3399,-16.45 -20.7227,-24.39 -2.9414,-3.14 -6.2422,-6.81 -9.8633,-11.03 -3.64449,-4.17 -5.79292,-6.37 -6.45699,-6.54 -1.29687,-0.33 -2.13672,0.17 -2.46093,1.5 -0.3125,1.21 -0.67188,3.9 -1.07422,8.03" />
      <path
         inkscape:connector-curvature="0"
         id="path1715"
         style="fill:#ffffff;fill-opacity:1;fill-rule:nonzero;stroke:none"
         d="m 212.059,1730.21 c 7.695,5.43 13.945,11.37 18.781,17.81 4.832,6.41 8.144,12.23 9.902,17.46 1.766,5.2 2.391,8.86 1.883,10.95 -0.555,2.17 -1.805,3.01 -3.789,2.5 -1.707,-0.41 -4.219,-2.21 -7.488,-5.32 -3.301,-3.13 -6.485,-6.95 -9.532,-11.41 -3.046,-4.48 -5.558,-9.48 -7.511,-14.99 -1.942,-5.5 -2.696,-11.17 -2.246,-17 m 0.859,-9.57 0.898,-3.55 c 1.387,-5.58 3.84,-9.6 7.364,-12.05 3.515,-2.42 7.5,-3.1 11.945,-2 4.668,1.17 9.18,3.44 13.602,6.87 4.433,3.41 8.664,7.52 12.695,12.34 4.016,4.83 8.828,11.14 14.414,18.96 l 2.16,-8.65 c -7.492,-15.54 -15.078,-27.89 -22.734,-37.09 -7.668,-9.2 -16.321,-14.97 -25.977,-17.39 -8.418,-2.1 -15.89,-0.49 -22.461,4.81 -6.535,5.31 -11.222,13.64 -14.043,25 -2.472,9.94 -2.402,19.54 0.223,28.78 2.629,9.24 8.078,19.66 16.328,31.28 5.664,7.94 11.652,14.35 17.988,19.24 6.328,4.89 12.278,8.02 17.864,9.42 4.433,1.11 8.222,0.95 11.328,-0.43 3.113,-1.38 5.176,-4.12 6.179,-8.18 1.504,-5.95 0.735,-12.45 -2.234,-19.48 -2.98,-7.01 -8.312,-14.59 -15.996,-22.68 -7.688,-8.08 -17.539,-16.47 -29.543,-25.2" />
      <path
         inkscape:connector-curvature="0"
         id="path1717"
         style="fill:#ffffff;fill-opacity:1;fill-rule:nonzero;stroke:none"
         d="m 328.867,1773.91 -7.773,20.09 c -4.199,-8.13 -13.528,-24 -27.981,-47.64 5.989,0.19 10.274,-0.51 12.883,-2.06 2.606,-1.54 6.551,-4.81 11.824,-9.83 5.774,4.26 9.805,9.13 12.11,14.6 2.285,5.44 2.433,12.15 0.422,20.09 -0.227,0.96 -0.461,1.78 -0.696,2.52 -0.242,0.76 -0.508,1.49 -0.789,2.23 m -47.433,-35.02 -0.868,3.4 c 17.918,31.87 30.157,54.1 36.727,66.73 -0.848,12.15 2.715,19.24 10.645,21.23 1.984,0.52 4.269,0.47 6.816,-0.11 l 1.516,-2.46 c -0.079,-1.25 0.144,-2.89 0.652,-4.96 0.449,-1.81 1.984,-4.96 4.601,-9.48 2.586,-4.53 4.676,-8.36 6.278,-11.47 1.582,-3.14 2.91,-6.76 3.957,-10.93 1.57,-6.24 1.66,-12.58 0.262,-19 -1.387,-6.45 -4.129,-12.96 -8.204,-19.58 -4.07,-6.62 -9.648,-13.74 -16.785,-21.36 3.535,0.28 6.317,0.69 8.301,1.2 3.867,0.99 7.813,2.98 11.805,6.06 4.023,3.08 7.949,6.82 11.797,11.27 3.867,4.45 8.254,10.06 13.195,16.83 l 2.402,-9.5 c -9.121,-14.88 -17.707,-26.56 -25.715,-35.08 -8.027,-8.51 -15.468,-13.62 -22.39,-15.37 -8.879,-2.24 -18.059,-0.54 -27.539,5.14 -5.578,3.42 -9.446,7.07 -11.582,10.98 -2.141,3.86 -4.102,9.35 -5.871,16.46" />
      <path
         inkscape:connector-curvature="0"
         id="path1719"
         style="fill:#ffffff;fill-opacity:1;fill-rule:nonzero;stroke:none"
         d="m 482.293,1770.92 c -0.574,2.17 -0.918,5.34 -1.016,9.5 -0.086,4.16 0.391,7.55 1.407,10.13 2.519,6.83 4.843,13.09 6.972,18.79 2.121,5.71 4.035,10.66 5.742,14.86 1.719,4.18 3.547,8 5.45,11.42 11.515,21.73 19.582,37.81 24.289,48.29 4.676,10.47 6.57,17.42 5.672,20.8 -0.594,2.27 -2.09,3.76 -4.5,4.47 -2.414,0.74 -5.332,0.65 -8.723,-0.25 -6.961,-1.86 -15.086,-6.64 -24.336,-14.41 -9.238,-7.74 -19.863,-17.46 -31.855,-29.1 -11.993,-11.66 -18.79,-17.7 -20.399,-18.12 -2.519,-0.66 -4.297,0.83 -5.266,4.51 -0.828,3.11 -1.023,7.8 -0.554,14.08 -0.149,6.62 -0.196,11.78 -0.188,15.47 0.039,3.69 0.813,7.19 2.285,10.52 1.504,3.32 4.387,7.26 8.684,11.82 4.277,4.57 11.016,11.05 20.184,19.44 l 2.812,-4.87 c 7.91,5.94 15.559,10.9 22.922,14.86 7.371,3.97 13.848,6.71 19.395,8.18 10.945,2.9 19.187,3.09 24.753,0.58 5.559,-2.51 9.993,-10 13.282,-22.44 1.797,-6.8 2.316,-12.7 1.543,-17.74 -0.789,-5.07 -2.977,-12.41 -6.582,-22.04 -8.067,-22.51 -14.403,-38.32 -19.051,-47.42 -13.352,-26.95 -19.531,-42.27 -18.547,-45.93 0.547,-2.09 2.187,-2.73 4.914,-2.02 2.266,0.58 5.047,3.05 8.348,7.33 3.293,4.32 7.07,10.26 11.328,17.85 4.23,7.6 10.039,18.37 17.433,32.32 7.899,14.81 14.422,27.77 19.598,38.88 5.176,11.11 9.356,20.53 12.551,28.28 3.191,7.77 4.863,11.92 5.019,12.47 3.438,7.57 7.344,14.08 11.7,19.53 4.355,5.43 7.293,8.36 8.789,8.76 1.152,0.3 2.742,-0.38 4.785,-2.06 2.07,-1.68 4.023,-3.77 5.859,-6.31 1.836,-2.55 2.938,-4.58 3.34,-6.09 0.137,-0.47 -0.402,-3.05 -1.574,-7.76 -1.172,-4.71 -2.5,-9.58 -3.973,-14.68 -1.484,-5.09 -3.957,-12.9 -7.383,-23.53 -7.558,-23.29 -12.922,-42.6 -16.132,-57.91 -3.196,-15.34 -4.239,-25.11 -3.118,-29.36 0.422,-1.51 1.321,-2.75 2.746,-3.75 1.434,-0.97 2.696,-1.31 3.829,-1.01 1.511,0.39 3.914,2.31 7.246,5.77 3.32,3.45 6.777,8.09 10.379,13.89 4.718,7.68 8.808,15.5 12.277,23.38 3.457,7.87 6.668,16.5 9.637,25.87 2.961,9.35 5.5,18.13 7.539,26.36 2.062,8.19 4.074,16.81 6.027,25.81 l -4.328,6.58 c -0.664,1.01 -1.238,2.43 -1.727,4.22 -0.371,1.43 1.2,6.75 4.696,16 3.496,9.26 6.144,14.12 7.941,14.59 1.981,0.52 4.031,-0.47 6.152,-2.97 2.137,-2.53 3.582,-5.24 4.364,-8.16 0.851,-3.21 1.113,-9.99 0.761,-20.3 -0.351,-10.34 -1.746,-23.11 -4.218,-38.28 -2.481,-15.19 -6.348,-31 -11.582,-47.42 -4.481,-14.3 -9.961,-26.99 -16.473,-38.05 -6.504,-11.05 -12.727,-19.63 -18.664,-25.75 -5.945,-6.12 -10.625,-9.62 -14.012,-10.51 -3.867,-1.04 -8.371,-0.43 -13.508,1.85 -4.285,2.11 -7.5,4.14 -9.589,6.17 -2.09,2.02 -3.758,4.37 -4.981,7.07 -1.219,2.71 -2.332,5.96 -3.32,9.71 -2.129,8.02 -2.403,17.99 -0.809,29.9 1.563,11.92 4.617,27.06 9.141,45.4 -18.586,-40.63 -33.379,-70.52 -44.395,-89.71 -11.008,-19.14 -20.011,-29.66 -26.984,-31.5 -4.629,-1.24 -9.258,0.49 -13.934,5.16 -4.66,4.67 -8.027,10.86 -10.07,18.58" />
      <path
         inkscape:connector-curvature="0"
         id="path1721"
         style="fill:#ffffff;fill-opacity:1;fill-rule:nonzero;stroke:none"
         d="m 701.238,1857.23 c 7.551,5.66 13.633,11.73 18.301,18.29 4.66,6.54 7.805,12.47 9.426,17.74 1.621,5.24 2.148,8.91 1.582,10.98 -0.617,2.15 -1.875,2.97 -3.867,2.42 -1.68,-0.48 -4.141,-2.32 -7.344,-5.52 -3.195,-3.24 -6.27,-7.11 -9.199,-11.67 -2.949,-4.58 -5.305,-9.62 -7.11,-15.19 -1.789,-5.56 -2.394,-11.25 -1.789,-17.05 m 1.133,-9.56 0.977,-3.51 c 1.543,-5.55 4.101,-9.49 7.687,-11.83 3.574,-2.36 7.586,-2.92 12.012,-1.69 4.598,1.29 9.07,3.68 13.398,7.21 4.325,3.54 8.457,7.75 12.352,12.7 3.879,4.92 8.547,11.38 13.898,19.34 l 2.383,-8.6 c -7.062,-15.72 -14.297,-28.27 -21.711,-37.69 -7.422,-9.38 -15.918,-15.43 -25.508,-18.08 -8.367,-2.31 -15.886,-0.92 -22.566,4.23 -6.691,5.12 -11.594,13.31 -14.738,24.59 -2.723,9.86 -2.91,19.46 -0.528,28.78 2.364,9.3 7.539,19.88 15.5,31.71 5.43,8.07 11.25,14.65 17.422,19.71 6.199,5.05 12.071,8.34 17.617,9.91 4.403,1.21 8.192,1.17 11.336,-0.13 3.145,-1.31 5.286,-3.98 6.407,-8.02 1.632,-5.93 1.066,-12.43 -1.719,-19.54 -2.793,-7.08 -7.91,-14.79 -15.371,-23.08 -7.469,-8.28 -17.09,-16.96 -28.848,-26.01" />
      <path
         inkscape:connector-curvature="0"
         id="path1723"
         style="fill:#ffffff;fill-opacity:1;fill-rule:nonzero;stroke:none"
         d="m 1011.43,1953.8 2.51,-8.25 c -9.47,-20.19 -18.6,-37.25 -27.397,-51.16 -8.801,-13.95 -18.047,-25.38 -27.734,-34.39 -9.7,-8.99 -19.836,-15.09 -30.442,-18.32 -9.168,-2.77 -17.597,-3.33 -25.281,-1.65 -7.676,1.65 -14.258,5.47 -19.719,11.44 -5.476,6.01 -9.648,13.79 -12.558,23.38 -2.286,7.56 -3.516,15.92 -3.621,25.1 -0.149,9.18 0.769,18.75 2.742,28.74 1.972,10.02 4.902,20.6 8.8,31.77 3.895,11.2 8.79,23.18 14.727,36.01 6.191,13.27 12.664,25.08 19.441,35.41 6.797,10.34 13.204,18.8 19.297,25.38 6.055,6.54 11.946,11.83 17.618,15.88 5.675,4.05 10.597,6.69 14.765,7.95 4.231,1.26 8.156,1.34 11.719,0.2 3.605,-1.15 6.789,-3.41 9.59,-6.82 2.793,-3.42 4.953,-7.67 6.496,-12.77 2.898,-9.57 2.871,-21.24 -0.098,-34.98 -2.988,-13.71 -7.707,-27.54 -14.14,-41.43 -6.446,-13.9 -13.067,-25.65 -19.836,-35.25 -6.778,-9.61 -12.118,-15 -16.016,-16.18 -2.645,-0.79 -5.391,-0.49 -8.262,0.91 -2.89,1.39 -4.707,3.42 -5.515,6.03 -1.457,4.84 -0.664,11.47 2.382,19.89 3.067,8.44 6.758,16.44 11.082,24 4.336,7.54 7.083,11.51 8.274,11.91 0.613,0.16 0.976,0 1.121,-0.52 0.246,-0.76 0.195,-2.22 -0.117,-4.35 -0.32,-2.13 -0.438,-3.41 -0.313,-3.84 0.207,-0.67 0.567,-0.93 1.075,-0.79 1.445,0.44 4.433,5.56 8.976,15.36 4.531,9.8 8.262,20.23 11.18,31.25 2.91,11.02 3.469,19.5 1.679,25.43 -0.75,2.47 -1.855,4.21 -3.308,5.2 -1.465,0.98 -3.262,1.17 -5.371,0.52 -5.949,-1.81 -13.516,-9.34 -22.688,-22.63 -9.16,-13.29 -17.851,-29.3 -26.043,-48.03 -8.175,-18.74 -14.093,-37.31 -17.773,-55.76 -3.684,-18.43 -3.711,-33.69 -0.07,-45.72 2.121,-6.96 4.914,-12.46 8.41,-16.5 3.484,-4.04 7.636,-6.72 12.429,-8.06 4.817,-1.32 10.051,-1.11 15.735,0.6 12.312,3.73 24.812,12.75 37.527,27.06 12.707,14.32 25.625,33.65 38.727,57.98" />
      <path
         inkscape:connector-curvature="0"
         id="path1725"
         style="fill:#ffffff;fill-opacity:1;fill-rule:nonzero;stroke:none"
         d="m 1087.38,2012.8 c -20.5,-18.91 -34.62,-33.88 -42.33,-44.91 -7.75,-11.05 -10.28,-20.64 -7.61,-28.82 0.96,-2.95 2.27,-5.21 3.92,-6.8 1.63,-1.55 3.33,-2.05 5.08,-1.47 1.02,0.33 2.63,1.58 4.8,3.71 7.85,8.93 14.31,19.33 19.36,31.17 5.05,11.87 10.65,27.55 16.78,47.12 m -61.61,-37.05 c 9.91,17.41 20.47,31.35 31.72,41.9 11.22,10.54 20.45,16.99 27.69,19.35 1.94,0.64 4.01,0.43 6.22,-0.65 2.19,-1.09 4.13,-2.52 5.8,-4.34 1.68,-1.83 2.67,-3.22 2.99,-4.24 0.55,-1.66 0.3,-3.12 -0.74,-4.34 -1.02,-1.22 -2.99,-2.91 -5.88,-5.07 1.14,-1.27 2.59,-2.9 4.36,-4.89 1.79,-1.98 3.17,-3.6 4.2,-4.85 1.03,-1.25 1.73,-2.44 2.09,-3.54 0.73,-2.23 -0.16,-7.12 -2.68,-14.69 -2.52,-7.5 -4.21,-13.04 -5.08,-16.48 -0.86,-3.46 -0.61,-7.28 0.76,-11.45 2.22,-6.87 6.51,-9.27 12.81,-7.21 6.48,2.13 14.65,11.51 24.49,28.16 l 2.78,-8.48 c -14.95,-33.71 -27.48,-52.21 -37.58,-55.51 -3.61,-1.18 -6.59,-0.84 -8.88,1.03 -2.31,1.85 -4.21,5.12 -5.72,9.74 -2.39,7.32 -3.2,18.79 -2.48,34.45 -8.62,-19.46 -15.18,-33.43 -19.7,-41.92 -4.51,-8.5 -8.9,-13.46 -13.17,-14.84 -2.04,-0.67 -5.15,0.25 -9.36,2.79 -4.2,2.53 -8.42,6.19 -12.61,11.04 -4.21,4.84 -7.28,10.26 -9.25,16.29 -1.41,4.35 -2.18,8.13 -2.31,11.33 -0.12,3.2 0.52,6.69 1.93,10.56 1.42,3.83 3.95,9.13 7.6,15.86" />
      <path
         inkscape:connector-curvature="0"
         id="path1727"
         style="fill:#ffffff;fill-opacity:1;fill-rule:nonzero;stroke:none"
         d="m 1224.29,2043.54 c -9.81,-23.74 -13.46,-39.16 -10.97,-46.25 1.4,-3.94 3.7,-5.34 6.93,-4.21 2.66,0.93 5.64,3.58 8.92,7.88 3.3,4.32 8.21,11.68 14.77,22.07 l 3.36,-9.51 c -8.49,-17.48 -15.23,-30.33 -20.2,-38.48 -4.97,-8.19 -9.67,-13.04 -14.08,-14.61 -7.53,-2.67 -13.06,0.96 -16.58,10.88 -1.03,2.96 -1.6,6.02 -1.68,9.17 -0.1,3.19 0.12,6.59 0.64,10.26 0.52,3.65 1.41,8.93 2.7,15.84 1.27,6.93 2.79,14.77 4.55,23.57 -4.31,-4.51 -9.01,-12.14 -14.12,-22.85 -3.4,-6.75 -6.09,-13.03 -8.1,-18.76 -2.02,-5.74 -4.1,-12.04 -6.26,-18.97 -2.15,-6.9 -3.85,-11.64 -5.07,-14.19 -1.21,-2.56 -2.78,-4.17 -4.72,-4.86 -2.93,-1.04 -6.73,1.08 -11.38,6.37 -4.68,5.28 -8.45,12.02 -11.34,20.2 -1.81,5.05 -2.63,9.21 -2.48,12.46 0.14,3.25 1,8.12 2.55,14.55 2.87,11.99 5.83,21.08 8.81,27.26 2.99,6.18 6.6,10.03 10.83,11.52 2.96,1.01 5.49,1.36 7.63,0.99 2.17,-0.39 3.62,-1.64 4.35,-3.75 0.34,-0.9 0.4,-1.98 0.2,-3.19 -0.18,-1.21 -0.48,-2.34 -0.88,-3.39 -0.4,-1.09 -1.27,-3.22 -2.63,-6.38 -8.85,-21.25 -12.41,-34.25 -10.73,-39 0.95,-2.69 2.29,-3.71 4.03,-3.1 1.1,0.39 2.62,2.93 4.53,7.58 1.94,4.66 4.39,10.75 7.35,18.28 2.99,7.52 6.8,15.6 11.43,24.29 4.65,8.67 10.31,17.43 17,26.33 3.66,5.12 7.11,8.25 10.33,9.39 1.47,0.52 3.63,-0.99 6.49,-4.53 2.86,-3.54 5.01,-7.38 6.47,-11.52 0.73,-2.01 -0.16,-5.8 -2.65,-11.34" />
      <path
         inkscape:connector-curvature="0"
         id="path1729"
         style="fill:#ffffff;fill-opacity:1;fill-rule:nonzero;stroke:none"
         d="m 1296.62,1994.6 c -2.72,-1.06 -5.87,-0.89 -9.44,0.48 -3.6,1.38 -6.21,4.26 -7.9,8.63 -2.24,5.73 -3.27,12.74 -3.1,21.08 0.16,8.32 1.83,13.11 5.01,14.35 1.99,0.78 4.3,0.86 6.9,0.25 2.58,-0.62 5.1,-1.92 7.54,-3.9 2.44,-1.97 4.28,-4.51 5.47,-7.6 1.94,-5 2.52,-11.48 1.74,-19.41 -0.78,-7.93 -2.85,-12.56 -6.22,-13.88 m -0.19,199.9 c 1.68,1.27 3.27,2.2 4.73,2.77 3,1.17 6.65,1.5 11.01,0.98 4.32,-0.51 8.38,-2.01 12.19,-4.53 -1.85,-7.92 -4.78,-20.88 -8.82,-38.87 -4.04,-18.01 -7.03,-31.48 -9.02,-40.42 -1.96,-8.9 -3.96,-18.17 -5.99,-27.74 -2.04,-9.56 -3.52,-16.96 -4.43,-22.14 1.87,0.32 3.14,-0.41 3.81,-2.12 0.41,-1.1 0.08,-3.38 -1.02,-6.84 -1.13,-3.45 -2.55,-5.54 -4.27,-6.2 -1.98,-0.79 -5.26,0.04 -9.75,2.49 -4.51,2.42 -7.27,4.95 -8.3,7.61 -0.48,1.25 -0.63,3.72 -0.43,7.37 0.21,3.6 0.87,9.24 2,16.85 1.12,7.62 2.43,16.03 3.9,25.29 1.47,9.25 3.25,20.62 5.33,34.1 4.16,26.2 7.17,43.33 9.06,51.4" />
      <path
         inkscape:connector-curvature="0"
         id="path1731"
         style="fill:#ffffff;fill-opacity:1;fill-rule:nonzero;stroke:none"
         d="m 1012.52,585.262 c -0.8,6.027 -2.07,10.527 -3.81,13.476 -0.96,1.731 -2.27,2.492 -3.92,2.301 -2.43,-0.269 -4.43,-3.059 -6.032,-8.398 -2.832,-9.321 -4.297,-21.813 -4.363,-37.59 0,-1.789 0,-3.563 -0.02,-5.34 6.455,0.59 12.895,1.187 19.335,1.789 0,16.512 -0.39,27.738 -1.19,33.762" />
      <path
         inkscape:connector-curvature="0"
         id="path1733"
         style="fill:#ffffff;fill-opacity:1;fill-rule:nonzero;stroke:none"
         d="m 2953.13,373.07 c -3.78,2.25 -13.82,4.75 -30.07,7.532 -7.04,1.207 -11.64,0.769 -13.86,-1.301 -3.8,-3.789 -5.61,-9.531 -5.41,-17.18 0.18,-7.34 2.4,-14.371 6.64,-21.09 4.23,-6.703 11.99,-11.07 23.28,-13.101 9.66,-1.739 17.14,-0.418 22.49,3.968 5.34,4.391 7.84,11.493 7.54,21.274 -0.14,3.648 -0.76,6.797 -1.86,9.469 -2.03,4.699 -4.94,8.179 -8.75,10.429" />
      <path
         inkscape:connector-curvature="0"
         id="path1735"
         style="fill:#ffffff;fill-opacity:1;fill-rule:nonzero;stroke:none"
         d="m 2915.6,497.301 c 2.95,-8.43 6.25,-12.973 9.93,-13.52 4.08,-0.601 7.36,2.879 9.81,10.469 2.47,7.602 3.33,23.02 2.55,46.25 -0.88,26.148 -2.99,44.23 -6.33,54.109 -2.39,7.289 -5.52,11.2 -9.4,11.7 -3.9,0.511 -7.04,-3.34 -9.48,-11.508 -2.39,-8.18 -3.21,-25.641 -2.4,-52.36 0.65,-21.652 2.42,-36.671 5.32,-45.14" />
      <path
         inkscape:connector-curvature="0"
         id="path1737"
         style="fill:#ffffff;fill-opacity:1;fill-rule:nonzero;stroke:none"
         d="m 1450.77,526 c -0.03,-4.891 0.78,-9.16 2.42,-12.828 1.24,-2.82 2.99,-4.203 5.24,-4.133 2.51,0.102 5.39,3.199 8.7,9.32 0.03,16.711 0.07,33.411 0.12,50.063 -6.01,-7.871 -10.5,-16.184 -13.49,-24.922 -1.95,-5.84 -2.95,-11.66 -2.99,-17.5" />
      <path
         inkscape:connector-curvature="0"
         id="path1739"
         style="fill:#ffffff;fill-opacity:1;fill-rule:nonzero;stroke:none"
         d="m 2222.13,550.172 c -1.95,-6.684 -2.85,-13.492 -2.72,-20.402 0.14,-5.739 1.13,-10.86 2.99,-15.309 1.41,-3.449 3.34,-5.211 5.76,-5.313 2.69,-0.109 5.73,3.293 9.09,10.192 -0.45,19.699 -0.9,39.398 -1.34,59.09 -6.23,-8.782 -10.82,-18.192 -13.78,-28.258" />
      <path
         inkscape:connector-curvature="0"
         id="path1741"
         style="fill:#ffffff;fill-opacity:1;fill-rule:nonzero;stroke:none"
         d="m 1349.93,602.27 c -0.82,6.07 -2.13,10.628 -3.92,13.66 -1.02,1.73 -2.37,2.55 -4.11,2.398 -2.54,-0.199 -4.65,-2.988 -6.31,-8.297 -2.98,-9.301 -4.57,-21.832 -4.69,-37.633 -0.01,-1.777 -0.05,-3.57 -0.07,-5.347 6.74,0.429 13.47,0.879 20.19,1.32 0.07,16.539 -0.29,27.828 -1.09,33.899" />
      <path
         inkscape:connector-curvature="0"
         id="path1743"
         style="fill:#ffffff;fill-opacity:1;fill-rule:nonzero;stroke:none"
         d="m 2093.45,943.57 c 28.96,-17.41 56.23,-12.058 74.85,16.168 29.59,44.772 57.89,90.472 85.57,136.412 15.89,26.22 11.45,51.69 -8.87,74.78 -50.36,57.37 -109.29,103.84 -179.39,136.41 -25.76,11.94 -39.27,9.09 -55.14,-14.04 -29.19,-42.4 -58.04,-85 -85.91,-128.26 -7.44,-11.54 -10.83,-25.57 -16.75,-40 6.05,-13.5 9.13,-28.2 17.72,-38.52 47.62,-56.78 103.88,-104.391 167.92,-142.95" />
      <path
         inkscape:connector-curvature="0"
         id="path1745"
         style="fill:#ffffff;fill-opacity:1;fill-rule:nonzero;stroke:none"
         d="m 531.563,1011.11 c 36.523,-48.731 84.941,-80.79 144.824,-95.61 6.941,-1.762 16.687,1.18 23.347,5.012 34.563,19.789 60.02,48.5 79.161,82.568 2.851,5.07 3.527,11.24 5.773,18.75 H 526.973 c 2.332,-5.54 2.929,-8.44 4.59,-10.72" />
      <path
         inkscape:connector-curvature="0"
         id="path1747"
         style="fill:#ffffff;fill-opacity:1;fill-rule:nonzero;stroke:none"
         d="m 3264.59,1023.82 c -21.68,37.31 -43.36,74.56 -65.23,111.73 -4.2,7.07 -8.38,14.66 -19.61,8.9 -70.01,-36.15 -134.8,-79.68 -194.84,-129.93 -10.23,-8.57 -12.98,-19.918 -5.41,-31.7 8.96,-13.89 18.22,-27.66 28.09,-40.961 10.6,-14.3 25.13,-20.918 43.66,-20.371 25.84,0.703 51.78,0.153 77.68,0.153 v 0.589 c 27.1,0 54.22,-0.351 81.29,0.11 29.91,0.512 56.4,10.601 79.73,28.801 8.29,6.449 10.64,12.179 3.94,22.14 -10.82,16.18 -19.54,33.749 -29.3,50.539" />
      <path
         inkscape:connector-curvature="0"
         id="path1749"
         style="fill:#ffffff;fill-opacity:1;fill-rule:nonzero;stroke:none"
         d="m 992.285,1391.59 c -10.793,27.08 -21.914,54.11 -32.902,81.21 -1.61,-0.07 -3.184,-0.07 -4.774,-0.16 -1.984,-4.96 -4.699,-9.88 -5.859,-15.03 -9.141,-40.09 -18.02,-80.19 -26.895,-120.27 -14.777,-66.62 -29.375,-133.27 -44.367,-199.83 -2.644,-11.79 -0.476,-17.8 13.457,-17.87 63.848,-0.16 127.685,-0.81 191.505,-1.5 14.64,-0.15 17.33,3.91 11.68,17.89 -34.47,84.91 -67.95,170.3 -101.845,255.56" />
      <path
         inkscape:connector-curvature="0"
         id="path1751"
         style="fill:#ffffff;fill-opacity:1;fill-rule:nonzero;stroke:none"
         d="m 3498.81,274.289 c -3.58,-6.418 -7.79,-8.758 -12.67,-7.07 -4.83,1.711 -8.95,6.941 -12.25,15.703 -3.31,8.758 -4.91,18.519 -4.74,29.316 0.11,10.813 1.94,19.473 5.42,26.012 3.49,6.512 7.65,8.988 12.5,7.328 4.87,-1.648 8.98,-6.906 12.32,-15.789 3.34,-8.867 4.99,-18.769 4.87,-29.629 -0.11,-10.851 -1.95,-19.48 -5.45,-25.871 z m -73.98,27 c -6.87,-7.32 -14.24,-9.75 -22.02,-7.32 -13.16,4.082 -23.63,18.25 -31.43,42.429 -7.84,24.231 -11.67,51.59 -11.66,82.352 0,29.621 3.48,54.75 10.45,75.441 8.35,24.981 19.85,35.547 34.65,31.438 9.98,-2.731 17.95,-10.699 23.94,-23.879 6.01,-13.199 9.12,-26.941 9.25,-41.141 0.09,-9 -1.04,-15.839 -3.39,-20.5 -2.35,-4.66 -5.45,-6.41 -9.33,-5.277 -4.09,1.168 -7.49,5.207 -10.2,12.098 -2.71,6.922 -4.45,18.281 -5.16,34.172 -0.5,10.046 -1.55,17.257 -3.17,21.617 -1.6,4.371 -3.45,6.859 -5.59,7.453 -3.3,0.91 -6.09,-2.301 -8.39,-9.652 -3.47,-11.09 -5.18,-29.059 -5.1,-53.899 0.1,-20.633 1.62,-40.75 4.58,-60.41 2.95,-19.672 7,-34.832 12.13,-45.59 3.87,-7.871 8.45,-12.601 13.7,-14.223 3.42,-1.039 6.68,-0.238 9.75,2.422 3.05,2.66 6.64,8.36 10.8,17.129 1.09,-2.23 2.2,-4.437 3.29,-6.64 -4.5,-18.071 -10.19,-30.727 -17.1,-38.02 z m -72.29,573.02 c -5.81,9.601 -12.28,18.82 -17.78,28.582 -5.05,8.839 -10.11,10.23 -18.3,3.148 -38.09,-32.93 -82.93,-45.09 -133.36,-43.277 -49.95,1.738 -100.06,-0.551 -149.98,1.738 -59.78,2.781 -102.23,34.031 -131.07,83.969 -2.84,4.871 -8.75,11.601 -8.19,20.011 0.5,8.411 14.6,25.059 25.1,33.94 73.35,62.32 152.51,116.86 236.41,164.75 14.22,8.13 16.28,15.32 8.01,29.38 -17.06,29 -31.9,59.25 -48.2,88.58 -10.06,18.21 -20.29,19.28 -35.27,4.76 -15.35,-14.84 -30.68,-29.88 -45.5,-45.3 -8.58,-8.96 -19.23,-13.74 -28.37,-5.23 -9.33,8.69 -4.02,18.94 4.6,27.53 32.8,32.8 64.64,66.68 97.95,98.94 26.23,25.47 47.59,20.78 66.08,-10.46 74.44,-125.75 149.41,-251.16 224.13,-376.768 8.44,-14.18 16.63,-28.59 24.94,-42.973 5.91,-10.149 4.55,-18.981 -4.93,-26.559 -15.87,-12.621 -31.69,-25.379 -47.35,-38.269 -8.03,-6.571 -13.83,-4.852 -18.92,3.508 z m -68.4,-539.86 c -0.03,2.77 -0.08,5.551 -0.12,8.289 3.66,0.121 6.28,2.801 7.81,8.09 1.02,3.531 1.44,12.942 1.22,28.192 -0.52,32.019 -1.08,64.128 -1.66,96.289 -0.35,17.8 -0.88,29.113 -1.57,33.902 -0.71,4.777 -1.8,8.621 -3.34,11.527 -1.53,2.903 -3.17,4.571 -4.95,4.973 -5.87,1.41 -11.14,-6.852 -15.92,-24.621 0.63,-38.602 1.2,-77.11 1.69,-115.512 0.25,-16.09 1.05,-26.437 2.47,-31.09 1.39,-4.648 3.95,-7.976 7.67,-10 0.03,-2.769 0.05,-5.527 0.1,-8.289 -16.5,4.34 -32.98,8.633 -49.44,12.903 0,2.726 -0.02,5.468 -0.05,8.179 4.09,-0.133 7,2.02 8.69,6.43 1.14,3.039 1.64,12.789 1.47,29.269 -0.41,40.258 -0.89,80.641 -1.42,121.122 -0.24,16.25 -1.03,26.527 -2.44,30.847 -1.37,4.289 -4.19,7.539 -8.41,9.723 -0.05,2.816 -0.08,5.66 -0.12,8.488 12.95,-2.922 25.91,-5.871 38.9,-8.84 0.15,-9.34 0.3,-18.672 0.47,-28 4.72,10.879 9.26,18.559 13.66,23.02 4.39,4.461 9.18,6.14 14.35,4.93 6.21,-1.43 11.43,-6.551 15.71,-15.348 4.26,-8.82 7.23,-19.25 8.85,-31.262 1.3,-9.14 2.22,-26.308 2.77,-51.469 0.59,-28.3 1.16,-56.519 1.69,-84.711 0.33,-16.73 1.18,-27.289 2.63,-31.769 1.44,-4.449 4.31,-7.781 8.68,-10.012 0.06,-2.801 0.11,-5.578 0.15,-8.359 -16.53,4.398 -33.05,8.769 -49.54,13.109 z m -153.92,37.02 c -0.05,2.781 -0.1,5.543 -0.14,8.32 1.55,-0.359 3.1,-0.687 4.66,-1.051 4.1,-0.918 7.36,-0.058 9.77,2.551 1.76,1.691 3.06,4.981 3.94,9.902 0.68,3.45 0.87,12.84 0.57,28.219 -1.39,67.25 -2.93,134.75 -4.64,202.512 -0.43,15.808 -1.04,25.769 -1.88,29.867 -0.85,4.082 -2.4,7.813 -4.73,11.191 -2.32,3.36 -5.4,5.36 -9.23,6.02 -1.51,0.281 -3,0.531 -4.5,0.789 -0.07,2.82 -0.13,5.633 -0.22,8.43 23.72,-4.11 47.48,-8.297 71.29,-12.528 0.07,-2.839 0.15,-5.679 0.24,-8.531 -1.49,0.262 -3.02,0.531 -4.51,0.809 -3.97,0.711 -7.12,-0.328 -9.43,-3.137 -1.69,-1.82 -2.93,-5.242 -3.8,-10.281 -0.65,-3.539 -0.74,-13.11 -0.27,-28.699 1.96,-68.211 3.75,-136.141 5.38,-203.801 0.39,-15.781 1.01,-25.723 1.92,-29.832 0.88,-4.117 2.52,-7.918 4.91,-11.399 2.38,-3.488 5.57,-5.679 9.53,-6.59 1.56,-0.332 3.13,-0.71 4.69,-1.058 0.08,-2.82 0.15,-5.613 0.22,-8.434 -24.64,5.66 -49.23,11.211 -73.77,16.731 z m -96.71,-23.731 c -5.54,-15.207 -14.15,-25.429 -25.77,-30.687 -0.07,3.23 -0.15,6.449 -0.21,9.679 7.85,5.75 13.45,14.11 16.77,25.098 3.32,11.031 4.79,22.672 4.46,34.934 -0.07,2.519 -0.39,4.476 -0.9,5.898 -0.5,1.262 -1,1.949 -1.47,2.051 -0.44,0.07 -1.04,-0.34 -1.83,-1.211 -1.96,-2.129 -4.38,-2.91 -7.35,-2.379 -4.06,0.777 -7.68,4.828 -10.85,12.141 -3.17,7.308 -4.87,15.527 -5.08,24.66 -0.27,9.699 1.22,17.93 4.41,24.699 3.25,6.77 7.28,9.738 12.13,8.879 5.88,-1.031 11.05,-6.84 15.51,-17.441 4.48,-10.59 6.98,-24.5 7.52,-41.7 0.62,-21.168 -1.82,-39.398 -7.34,-54.621 z m -57.86,-9.437 c -3.26,-9.5 -7.76,-16.121 -13.52,-19.852 -8.7,-5.5 -18.91,-7.168 -30.59,-5.019 -8.74,1.558 -16.77,4.8 -24.07,9.629 -7.3,4.832 -12.56,10.64 -15.84,17.453 -3.26,6.797 -4.97,13.629 -5.13,20.527 -0.16,6.621 0.89,12.332 3.14,17.172 2.24,4.859 6.55,8.539 12.93,11.059 -9.19,10.73 -13.96,24.261 -14.37,40.691 -0.26,9.93 1.3,19.309 4.66,28.109 3.4,8.809 8.89,16.11 16.53,21.871 -9.34,8.489 -16.17,18.797 -20.55,30.969 -4.39,12.129 -6.76,25.762 -7.16,40.93 -0.54,19.808 2.76,36.461 9.84,50.058 7.09,13.614 16.5,19.743 28.28,18.223 6.22,-0.781 12.75,-4.441 19.57,-11.019 10.57,-1.372 21.13,-2.743 31.71,-4.133 0.31,-8.11 0.62,-16.207 0.91,-24.309 -6.01,0.82 -12.04,1.629 -18.06,2.442 3.56,-7.653 6.09,-14.512 7.57,-20.532 1.93,-8.191 3.03,-16.59 3.34,-25.261 0.55,-14.688 -0.89,-27.149 -4.27,-37.368 -3.41,-10.203 -8.26,-17.82 -14.57,-22.89 -6.29,-5.071 -11.99,-7.18 -17.01,-6.403 -0.42,0.051 -4.53,1.071 -12.32,2.981 -3.04,0.473 -5.57,-1.258 -7.52,-5.219 -1.95,-3.949 -2.86,-8.91 -2.69,-14.82 0.15,-5.231 1.2,-9.629 3.17,-13.25 1.98,-3.649 5.11,-5.809 9.31,-6.469 5.92,-0.812 11.84,-1.633 17.77,-2.441 14.38,-2.34 24.39,-7.301 30.04,-14.93 8.08,-10.621 12.48,-25.75 13.16,-45.25 0.43,-12.422 -0.98,-23.43 -4.26,-32.949 z m -130.03,545.41 c -10.44,-5.742 -20.94,-11.492 -31.39,-17.281 -12.18,-6.77 -17.65,-3.309 -18.21,10.261 -2.1,48.821 -4.08,97.547 -7.03,146.309 -4.69,78.66 -10.13,157.21 -15.17,235.83 -0.76,11.64 -6.51,15.94 -18.68,16.02 -33.06,0.06 -66.17,0.97 -99.19,2.27 -19.89,0.76 -22.43,6.19 -10.35,22.4 9.16,12.36 18.4,25.2 30.07,35.1 7.83,6.58 19.61,10.53 30.15,11.87 14.78,1.78 30.01,0.31 45.09,-0.33 13.83,-0.61 17.79,5.63 16.45,18.41 -2.95,28.61 -4.75,57.44 -7.64,86.06 -1.55,15.37 3.4,27.5 15.3,37.49 16.23,13.74 32.04,27.79 51.79,44.95 1.61,-11.22 3.15,-17.7 3.32,-24.11 1.14,-45.92 2.57,-91.69 2.6,-137.62 0,-16.58 5.79,-22.13 22.43,-19.82 49.31,6.92 98.71,13.16 148.06,19.5 2.79,0.38 5.74,-0.33 12.76,-0.8 -13.3,-31.35 -28.13,-59.63 -55.8,-74.51 -17.11,-9.19 -40.78,-6.96 -61.54,-9.39 -13.15,-1.55 -26.38,-2.39 -39.58,-3.36 -12.23,-0.87 -17.92,-5.46 -16.8,-19.05 8.05,-100.85 15.31,-201.81 23.08,-302.64 0.73,-9.282 3.15,-18.508 4.97,-27.79 4.38,-22.558 -4.54,-38.781 -24.69,-49.769 z M 2810.2,427.602 c -0.07,2.558 -0.16,5.109 -0.26,7.668 3.59,0.5 6.09,3.25 7.51,8.3 0.96,3.41 1.22,12.168 0.76,26.301 -0.99,29.629 -2,59.289 -3.01,88.969 -0.56,16.41 -1.25,26.82 -2,31.172 -0.74,4.328 -1.85,7.777 -3.39,10.289 -1.53,2.5 -3.13,3.847 -4.88,4.027 -5.77,0.613 -10.8,-7.598 -15.2,-24.527 1.11,-35.59 2.21,-71.141 3.28,-106.672 0.45,-14.867 1.39,-24.379 2.84,-28.527 1.45,-4.133 3.98,-6.954 7.67,-8.461 0.05,-2.539 0.13,-5.11 0.2,-7.653 -16.13,2.25 -32.3,4.481 -48.45,6.692 -0.07,2.531 -0.1,5.05 -0.17,7.601 4,0.289 6.8,2.551 8.37,6.84 1.07,2.938 1.42,12.02 0.99,27.231 -0.99,37.199 -2.01,74.437 -3.06,111.738 -0.42,14.969 -1.36,24.379 -2.74,28.199 -1.41,3.781 -4.21,6.473 -8.39,8.012 -0.06,2.597 -0.12,5.219 -0.19,7.84 12.67,-1.25 25.37,-2.52 38.05,-3.77 0.29,-8.621 0.56,-17.223 0.85,-25.832 4.47,10.582 8.79,18.199 13.01,22.832 4.25,4.617 8.88,6.668 13.96,6.168 6.06,-0.617 11.23,-4.738 15.48,-12.391 4.3,-7.679 7.32,-16.988 9.07,-27.886 1.38,-8.313 2.53,-24.102 3.4,-47.371 0.97,-26.121 1.95,-52.231 2.89,-78.321 0.55,-15.468 1.55,-25.191 3.04,-29.179 1.46,-3.969 4.34,-6.75 8.61,-8.36 0.09,-2.59 0.18,-5.16 0.28,-7.761 -16.17,2.289 -32.35,4.562 -48.52,6.832 z m -126.31,272.589 c -0.28,8.911 0.93,16.457 3.69,22.629 2.75,6.16 6.24,9.149 10.43,8.891 4.26,-0.27 8,-3.68 11.19,-10.27 3.16,-6.57 4.93,-14.351 5.25,-23.351 0.32,-8.988 -0.89,-16.531 -3.69,-22.621 -2.78,-6.098 -6.3,-8.957 -10.55,-8.649 -4.23,0.321 -7.93,3.731 -11.13,10.219 -3.18,6.5 -4.9,14.223 -5.19,23.152 z M 2681.81,444 c -0.09,2.5 -0.16,5 -0.23,7.488 4.21,-0.207 7.27,1.91 9.16,6.391 1.27,3.031 1.71,11.43 1.29,25.191 -1.13,37.93 -2.29,75.899 -3.49,113.93 -0.41,13.77 -1.46,22.648 -3.09,26.621 -1.67,3.969 -4.69,6.391 -9.1,7.309 -0.1,2.57 -0.18,5.152 -0.25,7.699 13.02,-1.027 26.05,-2.09 39.08,-3.141 1.82,-51.957 3.59,-103.808 5.31,-155.617 0.47,-13.851 1.54,-22.769 3.23,-26.801 1.68,-4.031 4.83,-6.609 9.4,-7.711 0.11,-2.519 0.19,-5.019 0.27,-7.558 -17.2,2.09 -34.41,4.148 -51.58,6.199 z m -28.36,153.332 c -1.97,-4.961 -4.52,-7.312 -7.59,-7.062 -3.52,0.25 -6.68,2.839 -9.46,7.71 -2.76,4.879 -4.38,7.61 -4.86,8.211 -0.68,0.84 -1.48,1.329 -2.35,1.411 -1.93,0.128 -3.69,-1.262 -5.35,-4.153 -2.56,-4.488 -4.43,-11 -5.56,-19.527 -1.7,-13.141 -2.3,-27.703 -1.81,-43.762 0.46,-14.711 0.92,-29.441 1.39,-44.148 0.15,-3.821 0.28,-7.672 0.43,-11.512 0.24,-7.789 0.64,-12.809 1.2,-15.059 0.92,-3.781 2.2,-6.609 3.83,-8.472 1.65,-1.887 4.39,-3.219 8.21,-4.028 0.08,-2.48 0.16,-4.953 0.25,-7.402 -17.18,1.813 -34.33,3.582 -51.51,5.359 -0.06,2.442 -0.1,4.891 -0.17,7.332 4.13,0.25 6.87,2.25 8.23,5.95 1.35,3.742 1.81,13.91 1.33,30.511 -0.97,35.18 -1.93,70.379 -2.92,105.629 -0.33,10.891 -0.78,17.871 -1.41,20.891 -0.76,3.879 -1.81,6.738 -3.11,8.57 -1.31,1.867 -3.57,3.231 -6.76,4.141 -0.07,2.508 -0.14,5.008 -0.22,7.539 12.66,-0.801 25.31,-1.609 37.96,-2.422 0.47,-14.551 0.93,-29.109 1.4,-43.641 5.57,19.422 10.57,32.321 14.96,38.563 4.41,6.219 8.79,9.211 13.09,8.93 3.72,-0.231 6.76,-2.821 9.17,-7.719 2.4,-4.953 3.77,-11.774 4.1,-20.481 0.33,-9.293 -0.48,-16.421 -2.47,-21.359 z M 2514.83,460.898 c -0.25,8.372 -0.52,16.743 -0.78,25.102 -4.19,-10.359 -8.48,-17.77 -12.9,-22.23 -4.39,-4.489 -9.42,-6.489 -15.06,-5.989 -5.35,0.449 -10.18,4.098 -14.53,10.86 -4.31,6.808 -7.26,14.531 -8.9,23.25 -1.63,8.718 -2.71,23.789 -3.2,45.23 -0.58,24.57 -1.18,49.129 -1.78,73.719 -0.34,14.039 -1.22,22.832 -2.56,26.32 -1.38,3.512 -4.12,5.879 -8.27,7.129 -0.06,2.461 -0.11,4.91 -0.16,7.34 12.58,-0.547 25.16,-1.109 37.74,-1.66 1.22,-42.629 2.41,-85.231 3.58,-127.789 0.36,-13.309 0.91,-21.95 1.67,-25.84 0.73,-3.93 1.82,-6.949 3.26,-9.059 1.44,-2.109 3.08,-3.242 4.9,-3.371 2.43,-0.211 4.59,0.879 6.48,3.289 2.59,3.242 5.64,10 9.1,20.281 -1.02,33.5 -2.06,66.989 -3.11,100.532 -0.45,14.218 -1.37,23.09 -2.78,26.648 -1.4,3.559 -4.15,5.969 -8.27,7.219 -0.1,2.461 -0.18,4.949 -0.26,7.422 12.6,-0.563 25.19,-1.141 37.81,-1.711 1.73,-49.43 3.45,-98.789 5.12,-148.129 0.49,-14.41 1.45,-23.473 2.95,-27.16 1.47,-3.68 4.28,-6.18 8.46,-7.492 0.08,-2.418 0.17,-4.848 0.24,-7.278 -12.91,1.129 -25.84,2.239 -38.75,3.367 z m -107.32,5.954 c -4.81,0.339 -8.96,3.859 -12.45,10.546 -3.52,6.692 -5.81,14.032 -6.93,22.032 -0.63,4.48 -1.22,16.48 -1.69,36.019 -0.83,32.903 -1.67,65.801 -2.49,98.723 -3.23,0.098 -6.44,0.207 -9.67,0.308 -0.06,2.282 -0.12,4.551 -0.17,6.829 6.38,11.363 11.71,23.41 16.03,36.101 4.3,12.699 7.97,26.93 10.97,42.75 0.88,-0.012 1.72,-0.031 2.6,-0.039 0.65,-22.43 1.28,-44.851 1.91,-67.262 5.85,-0.168 11.72,-0.339 17.58,-0.507 0.2,-6.524 0.4,-13.043 0.6,-19.563 -5.87,0.223 -11.74,0.41 -17.61,0.621 1.07,-37.82 2.13,-75.609 3.18,-113.39 0.28,-10.59 0.66,-17.45 1.17,-20.559 0.48,-3.102 1.28,-5.633 2.35,-7.602 1.07,-1.98 2.05,-2.968 2.93,-3.039 3.5,-0.238 6.62,6.039 9.36,18.852 0.85,-1.492 1.71,-3 2.55,-4.492 -3.59,-24.969 -10.35,-37.059 -20.22,-36.328 z M 2333.5,1002.1 c -0.33,3.16 1.38,7.28 3.62,9.73 15.65,17.07 31.64,33.77 47.76,50.46 1.37,1.33 4.33,1.23 9.63,2.65 1.53,-14.76 3.69,-27.41 4.03,-40.1 0.88,-30.031 12.68,-53.871 39.94,-68.629 18.91,-10.16 38.25,-19.852 58.37,-27.109 8.54,-3.141 20.46,-1.481 29.42,1.699 24.29,8.89 48.69,56.258 40.68,80.009 -3.1,9.14 -11.16,18.52 -19.6,23.9 -48.84,31.17 -99.28,59.92 -147.58,91.71 -47.64,31.53 -57.06,55.77 -37.8,104.21 2.62,6.57 5.03,13.24 7.97,19.66 24.87,54.09 64.51,95.88 113.73,129.73 10.91,7.46 22.14,6.53 31.82,-1.28 35.73,-28.81 71.1,-58.11 106.4,-87.45 10.59,-8.88 11.36,-19.32 1.42,-29.17 -12.3,-12.04 -24.09,-25.16 -38.35,-34.54 -6.36,-4.24 -20.63,-4.1 -27.07,0.21 -20.8,13.87 -39.36,30.85 -59.34,45.96 -11.89,8.95 -24.94,16.4 -37.26,24.81 -11.93,8.1 -21.01,3.86 -26.68,-6.92 -9.06,-17.26 -17.54,-34.84 -24.62,-52.88 -5.58,-14.19 2.71,-23.29 15.53,-29.46 45.24,-21.93 90.77,-43.24 135.35,-66.34 18.35,-9.59 35.1,-22.46 51.47,-35.17 17.54,-13.56 22.48,-32.54 19.4,-53.87 -10.62,-72.951 -45.79,-133.119 -100.68,-182.6 -19.4,-17.531 -43.77,-22.23 -67.38,-11.91 -31.16,13.52 -62.19,28.442 -90.45,46.879 -34.05,22.191 -36.4,59.941 -39.73,95.811 z m 10.53,-522.159 c -5.09,-7.492 -10.67,-11.043 -16.66,-10.66 -10.12,0.598 -18.43,10.149 -24.87,28.481 -6.41,18.347 -9.84,40.07 -10.36,65.328 -0.52,24.359 1.74,45.691 6.74,64.082 6.01,22.187 14.65,33.289 26.01,33.098 7.66,-0.11 13.86,-4.938 18.62,-14.469 4.79,-9.52 7.37,-20.141 7.7,-31.77 0.22,-7.383 -0.52,-13.242 -2.23,-17.562 -1.72,-4.34 -4.06,-6.457 -7.04,-6.367 -3.14,0.109 -5.82,2.718 -7.98,7.796 -2.17,5.09 -3.69,14.082 -4.5,26.973 -0.52,8.117 -1.42,13.789 -2.73,17.039 -1.32,3.231 -2.77,4.879 -4.39,4.91 -2.54,0.039 -4.62,-3.172 -6.28,-9.679 -2.5,-9.821 -3.51,-24.911 -3,-45.301 0.38,-16.91 1.89,-33.149 4.51,-48.68 2.62,-15.57 5.99,-27.23 10.1,-35.031 3.09,-5.668 6.68,-8.629 10.72,-8.848 2.64,-0.152 5.11,1.199 7.39,4.039 2.29,2.821 4.92,8.309 7.93,16.418 0.88,-1.59 1.74,-3.179 2.63,-4.769 -3.1,-15.867 -7.21,-27.547 -12.31,-35.028 z m -81.54,2.297 c -2.76,-4.117 -6,-6.09 -9.68,-5.886 -4.3,0.199 -7.73,2.718 -10.29,7.57 -2.54,4.828 -4.18,12.058 -4.94,21.648 -8.74,-18.64 -16.87,-27.672 -24.2,-27.32 -4.34,0.219 -8,3.648 -10.95,10.332 -3,6.699 -4.54,14.93 -4.73,24.809 -0.23,13.339 2.04,25.23 6.74,35.769 4.73,10.52 15.16,24.41 31.17,41.922 -0.12,5.918 -0.26,11.828 -0.41,17.746 -0.29,13.344 -0.8,21.75 -1.47,25.223 -0.68,3.469 -1.9,6.508 -3.66,9.09 -1.74,2.578 -3.67,3.89 -5.78,3.918 -3.42,0.019 -6.19,-1.778 -8.31,-5.368 -1.36,-2.261 -1.99,-4.882 -1.92,-7.902 0.05,-2.629 0.84,-5.898 2.4,-9.801 2.12,-5.398 3.24,-10.617 3.34,-15.636 0.12,-6.153 -0.72,-11.352 -2.57,-15.653 -1.87,-4.277 -4.34,-6.371 -7.5,-6.308 -3.33,0.07 -6.21,2.519 -8.52,7.289 -2.35,4.808 -3.57,10.379 -3.7,16.75 -0.14,8.941 1.21,17.5 4.09,25.652 2.84,8.156 6.91,14.406 12.21,18.77 5.27,4.347 10.8,6.519 16.59,6.476 6.98,-0.027 12.6,-3.598 16.85,-10.769 4.26,-7.161 7.11,-14.95 8.55,-23.309 0.89,-5.328 1.56,-17.551 2.06,-36.641 0.59,-22.961 1.19,-45.929 1.79,-68.91 0.22,-8.109 0.48,-13.179 0.8,-15.289 0.31,-2.101 0.76,-3.691 1.32,-4.699 0.57,-1.063 1.2,-1.59 1.91,-1.602 1.4,-0.07 2.76,2.2 4.09,6.84 0.83,-1.558 1.7,-3.097 2.54,-4.668 -2.44,-9.269 -5.07,-15.941 -7.82,-20.043 z m -81.67,216.172 c -1.84,-4.148 -4.37,-6.23 -7.54,-6.269 -2.73,-0.039 -4.91,1.597 -6.58,4.929 -1.68,3.301 -2.55,7.032 -2.63,11.102 -0.04,1.117 0.07,3.398 0.31,6.867 0.17,2.102 0.23,4.102 0.18,5.949 -0.06,2.594 -0.41,4.492 -1.06,5.731 -0.87,1.832 -1.91,2.73 -3.09,2.711 -1.51,-0.051 -2.74,-1.559 -3.72,-4.551 -0.92,-2.969 -1.34,-7.731 -1.21,-14.289 0.27,-10.789 0.54,-21.59 0.81,-32.391 0.15,-7.34 0.29,-14.699 0.43,-22.039 3.65,0.02 7.28,0.039 10.93,0.051 0.12,-6.063 0.26,-12.141 0.4,-18.211 -3.64,0.012 -7.28,0.012 -10.93,0.012 0.85,-40.071 1.68,-80.153 2.53,-120.262 0.22,-11.621 0.93,-18.922 2.07,-21.949 1.8,-4.621 5.05,-6.84 9.68,-6.621 0.05,-2.239 0.09,-4.461 0.15,-6.692 -14.87,0.563 -29.73,1.102 -44.6,1.672 -0.04,2.199 -0.07,4.399 -0.09,6.61 3.38,-0.008 5.78,0.8 7.16,2.421 1.42,1.598 2.37,3.879 2.85,6.809 0.48,2.922 0.65,9.059 0.46,18.391 -0.71,39.89 -1.42,79.757 -2.12,119.621 -3.59,0 -7.16,-0.012 -10.74,-0.012 -0.11,6 -0.19,12.012 -0.29,18.012 3.57,0.008 7.16,0.027 10.72,0.058 -0.08,4.219 -0.14,8.461 -0.21,12.692 -0.09,2.879 -0.18,5.769 -0.25,8.668 -0.28,17.679 2.2,32.449 7.47,44.379 5.29,11.91 12.58,18.043 21.93,18.281 6.37,0.16 11.2,-2.578 14.42,-8.199 3.23,-5.621 4.94,-11.95 5.1,-18.911 0.15,-5.589 -0.68,-10.46 -2.54,-14.57 z M 2071.64,485.859 c -0.16,7.571 -0.3,15.121 -0.43,22.672 -3.42,-9.582 -6.9,-16.543 -10.42,-20.851 -3.55,-4.301 -7.59,-6.379 -12.07,-6.25 -4.24,0.121 -8.07,3.148 -11.46,9.058 -3.4,5.903 -5.68,12.75 -6.92,20.551 -1.22,7.832 -1.94,21.402 -2.17,40.762 -0.25,22.199 -0.51,44.39 -0.75,66.551 -0.14,12.66 -0.74,20.539 -1.81,23.636 -1.05,3.121 -3.23,5.102 -6.49,6.012 -0.03,2.211 -0.05,4.41 -0.07,6.621 10.01,0.149 20.01,0.289 30.02,0.469 0.56,-38.399 1.12,-76.82 1.7,-115.258 0.17,-12.031 0.55,-19.781 1.11,-23.293 0.57,-3.5 1.41,-6.16 2.53,-8 1.15,-1.828 2.44,-2.75 3.89,-2.809 1.94,-0.031 3.65,1.079 5.19,3.329 2.07,3.113 4.55,9.402 7.39,18.902 -0.55,30.23 -1.09,60.437 -1.61,90.629 -0.23,12.82 -0.88,20.769 -1.97,23.922 -1.07,3.109 -3.23,5.148 -6.51,6.047 -0.05,2.23 -0.08,4.472 -0.12,6.703 10,0.136 20.01,0.297 30.04,0.449 0.9,-44.461 1.83,-88.922 2.78,-133.43 0.27,-13 0.99,-21.14 2.12,-24.39 1.15,-3.25 3.38,-5.36 6.7,-6.27 0.03,-2.199 0.09,-4.391 0.14,-6.582 -10.28,0.262 -20.54,0.531 -30.81,0.82 z m -112.69,2.493 c -0.02,2.097 -0.04,4.218 -0.08,6.359 2.85,0.758 4.87,3.328 6.02,7.66 0.83,2.949 1.16,10.25 1,21.91 -0.36,24.489 -0.71,48.957 -1.05,73.438 -0.17,13.519 -0.54,22.043 -1.08,25.551 -0.51,3.55 -1.34,6.23 -2.5,8.171 -1.14,1.899 -2.41,2.848 -3.78,2.821 -4.54,-0.114 -8.65,-7.41 -12.44,-21.883 0.32,-29.301 0.63,-58.641 0.98,-87.988 0.13,-12.289 0.75,-20.082 1.84,-23.403 1.09,-3.289 3.08,-5.386 5.95,-6.25 0.02,-2.097 0.04,-4.218 0.07,-6.316 -12.76,0.187 -25.5,0.387 -38.24,0.59 -0.03,2.078 -0.03,4.179 -0.04,6.289 3.15,0.648 5.41,2.828 6.74,6.519 0.87,2.571 1.27,10.141 1.17,22.719 -0.25,30.77 -0.48,61.5 -0.71,92.199 -0.08,12.332 -0.65,20 -1.7,22.981 -1.03,3 -3.21,4.922 -6.46,5.761 -0.01,2.149 -0.01,4.29 -0.04,6.442 10.03,0.269 20.02,0.539 30.03,0.808 0.07,-7.058 0.14,-14.16 0.21,-21.218 3.71,9.199 7.27,15.949 10.7,20.207 3.41,4.242 7.11,6.441 11.08,6.57 4.78,0.121 8.79,-2.738 12.05,-8.598 3.22,-5.882 5.46,-13.242 6.66,-22.082 0.97,-6.75 1.61,-19.668 1.94,-38.839 0.36,-21.54 0.73,-43.071 1.11,-64.629 0.23,-12.801 0.89,-20.77 2.01,-23.922 1.09,-3.16 3.33,-5.18 6.7,-6.059 0.03,-2.14 0.08,-4.289 0.1,-6.422 -12.75,0.203 -25.5,0.403 -38.24,0.614 z m -73.89,4.488 c -2.83,-3.871 -6.08,-5.77 -9.74,-5.75 -4.31,0.019 -7.7,2.199 -10.19,6.5 -2.45,4.332 -4.02,10.832 -4.63,19.551 -9.02,-17.332 -17.23,-25.879 -24.56,-25.84 -4.32,0.031 -7.91,3.051 -10.8,9.027 -2.88,5.973 -4.33,13.422 -4.39,22.391 -0.06,12.121 2.38,23.062 7.24,32.801 4.86,9.781 15.5,22.839 31.73,39.441 -0.05,5.367 -0.08,10.758 -0.15,16.117 -0.12,12.133 -0.48,19.742 -1.11,22.883 -0.62,3.098 -1.81,5.82 -3.51,8.09 -1.7,2.289 -3.58,3.39 -5.69,3.32 -3.42,-0.121 -6.24,-1.883 -8.44,-5.25 -1.36,-2.09 -2.03,-4.492 -2.01,-7.23 0.02,-2.379 0.78,-5.321 2.25,-8.801 2.05,-4.84 3.09,-9.539 3.11,-14.102 0.06,-5.558 -0.89,-10.347 -2.79,-14.308 -1.92,-4 -4.44,-6 -7.56,-6.078 -3.34,-0.051 -6.16,2.058 -8.44,6.308 -2.27,4.27 -3.41,9.27 -3.42,15.039 -0.02,8.141 1.45,15.981 4.44,23.492 2.96,7.52 7.13,13.368 12.48,17.528 5.32,4.203 10.89,6.41 16.65,6.64 6.99,0.27 12.56,-2.757 16.68,-9.07 4.16,-6.328 6.87,-13.289 8.19,-20.828 0.79,-4.801 1.29,-15.891 1.52,-33.281 0.26,-20.871 0.54,-41.782 0.8,-62.711 0.13,-7.36 0.33,-12 0.63,-13.918 0.29,-1.891 0.7,-3.313 1.26,-4.231 0.55,-0.922 1.17,-1.39 1.86,-1.371 1.4,0 2.8,2.121 4.19,6.391 0.82,-1.36 1.64,-2.758 2.47,-4.141 -2.55,-8.558 -5.24,-14.769 -8.07,-18.609 z m -203.74,394.961 c -31.87,-33.321 -87.44,-37.762 -120.77,-7.102 -68.68,63.242 -121.73,137.611 -157.21,223.461 -9.94,24.05 -6,46.48 6.06,67.73 41.87,73.9 96.16,137.95 162.31,192.16 25.41,20.87 53.57,18.72 77.51,-4.16 35.72,-34.19 71.01,-68.79 107.35,-102.29 6.84,-6.34 17.68,-8.55 30.33,-14.31 0.98,-16.49 -49.63,-71.83 -69.55,-69.53 -8.94,1.01 -18.46,7.42 -25.35,13.83 -37.42,34.87 -73.68,71.01 -111.19,105.77 -18.61,17.27 -33.93,16.95 -49.2,-2.51 -20.03,-25.53 -38.74,-52.25 -55.7,-79.8 -14.21,-23.09 -12.61,-48.62 -2.5,-73.27 29.47,-71.9 72.73,-135.1 127.82,-190.6 29.33,-29.551 58.98,-30.66 90.15,-2.348 36.06,32.828 70.65,67.218 106.58,100.178 4.97,4.62 16.6,9.06 20.45,6.62 9.85,-6.36 2.47,-14.23 -3.31,-20.43 -44.51,-47.802 -88.61,-96.161 -133.78,-143.399 z m 63.75,-398.379 c -0.02,2.137 -0.03,4.277 -0.04,6.43 1.09,0.007 2.2,0.019 3.3,0.027 3,0.043 5.39,1.262 7.15,3.73 1.22,1.621 2.2,4.43 2.91,8.379 0.52,2.774 0.73,10.09 0.59,21.953 -0.56,58.297 -1.03,116.418 -1.39,174.368 -12.1,-72.161 -24.5,-143.848 -37.19,-215.071 -0.59,0 -1.19,0 -1.79,0 -13.49,70.473 -26.38,139.934 -38.66,208.364 -0.36,-53.872 -0.64,-107.911 -0.82,-162.09 -0.02,-11.352 0.07,-18.332 0.31,-20.961 0.63,-5.66 2.03,-10.281 4.18,-13.84 2.17,-3.57 5.59,-5.34 10.23,-5.301 0,-2.121 0,-4.23 0,-6.34 -11.6,-0.058 -23.2,-0.14 -34.81,-0.199 0.01,2.078 0.03,4.168 0.04,6.27 0.35,0 0.7,0.007 1.05,0.007 2.25,-0.097 4.35,0.731 6.3,2.512 1.96,1.762 3.43,4.129 4.47,7.078 1,2.961 1.78,7.114 2.35,12.473 0.1,1.25 0.18,7.019 0.22,17.32 0.2,48.617 0.48,97.098 0.85,145.449 0.07,11.622 -0.14,18.848 -0.65,21.692 -0.5,2.816 -1.58,5.277 -3.18,7.348 -1.62,2.082 -3.82,3.039 -6.55,2.832 -1.04,-0.063 -2.08,-0.141 -3.11,-0.204 0.02,2.071 0.04,4.153 0.06,6.211 13.34,0.969 26.68,1.922 40.01,2.891 8.96,-50.031 18.26,-100.59 27.87,-151.68 8.87,51.621 17.6,103.508 26.17,155.621 13.28,0.969 26.56,1.957 39.85,2.93 0.01,-2.141 0.04,-4.301 0.06,-6.449 -1.06,-0.082 -2.12,-0.16 -3.18,-0.242 -2.88,-0.211 -5.2,-1.602 -6.9,-4.16 -1.18,-1.711 -2.11,-4.508 -2.79,-8.372 -0.51,-2.828 -0.7,-10.097 -0.57,-21.847 0.52,-51.903 1.16,-103.973 1.87,-156.172 0.16,-12.16 0.55,-19.75 1.13,-22.758 0.6,-3.051 1.74,-5.691 3.48,-7.941 1.74,-2.282 4.02,-3.41 6.88,-3.391 1.1,0.02 2.18,0.039 3.29,0.051 0.03,-2.168 0.06,-4.36 0.11,-6.52 -17.71,-0.129 -35.39,-0.269 -53.1,-0.398 z m -242.21,-3.891 c 0.01,1.938 0.01,3.891 0.01,5.84 3.13,0.277 5.42,2.289 6.91,6.02 1.02,2.507 1.53,9.14 1.57,19.859 0.13,52.391 0.42,104.551 0.83,156.48 0.1,10.508 -0.4,17.18 -1.5,20.04 -1.07,2.851 -3.21,4.332 -6.39,4.5 0.03,1.96 0.04,3.96 0.07,5.921 9.44,0.868 18.89,1.707 28.35,2.579 -0.34,-62.59 -0.49,-125.52 -0.44,-188.801 0.02,-10.778 0.6,-17.66 1.76,-20.629 1.15,-2.969 3.4,-4.629 6.75,-4.981 0.02,-1.949 0.02,-3.937 0.03,-5.898 -12.65,-0.332 -25.29,-0.652 -37.95,-0.93 z m -13.08,2.957 c -2.69,-3.679 -5.73,-5.566 -9.15,-5.679 -4.01,-0.11 -7.13,1.832 -9.4,5.75 -2.25,3.961 -3.62,9.98 -4.12,18.101 -8.56,-16.461 -16.3,-24.711 -23.12,-24.91 -4.02,-0.121 -7.33,2.57 -9.96,8.07 -2.63,5.481 -3.92,12.399 -3.84,20.739 0.08,11.3 2.47,21.55 7.11,30.832 4.63,9.238 14.68,21.738 29.98,37.738 0.02,4.992 0.05,10 0.07,14.992 0.04,11.277 -0.19,18.328 -0.74,21.211 -0.56,2.887 -1.62,5.359 -3.15,7.43 -1.56,2.047 -3.3,3.019 -5.28,2.847 -3.17,-0.211 -5.8,-1.937 -7.89,-5.129 -1.29,-1.992 -1.94,-4.261 -1.97,-6.789 -0.03,-2.23 0.64,-4.929 2.01,-8.113 1.82,-4.418 2.73,-8.75 2.69,-12.988 -0.03,-5.18 -0.97,-9.668 -2.8,-13.43 -1.81,-3.75 -4.18,-5.699 -7.11,-5.859 -3.11,-0.18 -5.69,1.679 -7.75,5.578 -2.04,3.871 -3.06,8.5 -3,13.851 0.09,7.571 1.56,14.899 4.45,21.989 2.85,7.07 6.8,12.633 11.83,16.691 5.02,4.07 10.22,6.32 15.58,6.731 6.48,0.488 11.61,-2.121 15.37,-7.852 3.77,-5.719 6.22,-12.078 7.34,-19.059 0.68,-4.441 0.99,-14.742 1.01,-30.921 -0.02,-19.411 0.01,-38.879 0.05,-58.379 0.02,-6.879 0.13,-11.192 0.4,-12.969 0.26,-1.762 0.63,-3.07 1.14,-3.902 0.5,-0.848 1.08,-1.258 1.72,-1.231 1.29,0.043 2.61,2.094 3.94,6.113 0.75,-1.261 1.51,-2.531 2.27,-3.8 -2.47,-8.071 -5.04,-13.95 -7.68,-17.653 z m -67.12,126.524 c -5.43,-0.403 -10.88,-0.813 -16.33,-1.223 -0.19,-30.039 -0.32,-60.199 -0.4,-90.43 -0.02,-8.5 0.14,-13.988 0.51,-16.418 0.38,-2.453 1.04,-4.429 2.01,-5.921 0.93,-1.481 1.8,-2.192 2.6,-2.168 3.25,0.117 6.32,5.468 9.22,16.027 0.76,-1.117 1.52,-2.25 2.27,-3.379 -4.03,-20.43 -10.64,-30.789 -19.78,-31.09 -4.47,-0.16 -8.23,2.309 -11.3,7.391 -3.07,5.058 -5.02,10.758 -5.84,17.078 -0.48,3.543 -0.66,13.152 -0.55,28.75 0.16,26.269 0.39,52.5 0.64,78.621 -2.99,-0.211 -5.97,-0.43 -8.96,-0.668 0.02,1.828 0.05,3.617 0.07,5.43 6.29,9.648 11.63,19.738 16.04,30.25 4.42,10.508 8.31,22.179 11.63,35.019 0.79,0.078 1.58,0.16 2.39,0.239 -0.17,-17.719 -0.32,-35.461 -0.45,-53.25 5.43,0.421 10.85,0.851 16.29,1.3 -0.02,-5.179 -0.03,-10.359 -0.06,-15.558 z m -72.62,451.008 c -15.04,-32.18 -42.75,-37.79 -74.39,-37.03 -8.26,0.19 -16.53,0 -29.64,0 12.02,-31.939 22.29,-59.31 32.64,-86.701 2.06,-5.469 4.16,-11.019 6.23,-16.57 13.17,-35.059 13.17,-35.059 -18.9,-53.539 -12.46,-7.149 -25.24,-13.77 -37.24,-21.602 -13.21,-8.629 -21.6,-7.34 -27.34,8.133 -17.52,47.539 -36.35,94.59 -53.14,142.299 -5.92,16.83 -13.36,24.19 -33.08,23.79 -83.16,-1.87 -166.364,-2.04 -249.516,-2.16 -12.336,0 -19.797,-3.56 -25.918,-14.25 -36.125,-63.288 -82.394,-118.589 -138.644,-166.011 -18.778,-15.77 -39.422,-19.848 -61.434,-10.059 -85.352,37.918 -150.402,96.219 -191.281,179.44 -6.59,13.46 -6.532,22.91 5.937,33.97 21.387,18.9 39.668,41.2 61.27,59.84 9.015,7.72 23.117,13.51 35.011,13.66 76.563,1.02 153.133,0.32 229.688,0.08 29.793,-0.16 30.926,1.75 37.02,30.63 14.765,70.15 30.644,140.15 46.105,210.15 16.113,72.88 32.656,145.75 48.035,218.8 2.805,13.28 9.172,20.66 21.242,25.67 17.684,7.4 35.575,14.71 52.364,23.92 16.401,8.99 23.071,1.19 28.311,-12.17 12.68,-32.34 25.34,-64.76 38.07,-97.16 49.84,-126.74 99.92,-253.4 149.26,-380.35 5.46,-14.09 13.1,-18.7 28.1,-18.01 43.34,2.12 86.72,3.22 130.09,3.92 6.5,0.14 15.93,-2.15 18.79,-6.57 2.39,-3.71 -1.51,-12.81 -4.79,-18.29 -6.99,-11.59 -17.19,-21.66 -22.85,-33.83 z m 6.63,-579.532 c -4.6,-6.867 -9.97,-10.429 -16.06,-10.636 -10.45,-0.403 -18.36,7.539 -23.6,23.66 -4.22,12.988 -6.21,29.168 -5.99,48.566 0.28,23.774 3.65,42.844 10.04,57.383 6.38,14.527 13.72,22.199 22.05,22.91 6.94,0.59 12.91,-4.84 18,-16.383 5.08,-11.547 7.78,-29.117 8.16,-52.758 -12.73,-0.82 -25.42,-1.621 -38.15,-2.421 0.31,-18.989 2.67,-33.887 7.14,-44.778 3.4,-8.371 7.54,-12.453 12.41,-12.242 3.01,0.141 5.73,2 8.19,5.59 2.46,3.562 5.07,9.93 7.87,19.09 0.84,-1.078 1.7,-2.18 2.56,-3.278 -3.79,-16.281 -8,-27.832 -12.62,-34.703 z M 1249.54,476.34 c 0,1.84 0,3.699 0,5.558 1.09,0.063 2.21,0.114 3.31,0.161 3.02,0.14 5.43,1.32 7.23,3.511 1.26,1.489 2.27,3.961 3.01,7.41 0.54,2.43 0.8,8.801 0.79,19.04 -0.06,50.421 0.09,100.48 0.47,150.171 -13.11,-62.543 -26.35,-124.882 -39.68,-187.031 -0.62,-0.019 -1.21,-0.039 -1.81,-0.082 -13.07,60.442 -25.36,119.594 -36.89,177.461 -1.04,-46.039 -1.89,-92.43 -2.53,-139.141 -0.17,-9.777 -0.1,-15.808 0.1,-18.066 0.6,-4.844 1.98,-8.781 4.15,-11.762 2.13,-3 5.58,-4.371 10.26,-4.172 -0.02,-1.808 -0.04,-3.628 -0.07,-5.468 -11.69,-0.532 -23.4,-1.051 -35.11,-1.571 0.03,1.813 0.06,3.602 0.07,5.403 0.37,0.019 0.72,0.047 1.08,0.058 2.26,-0.011 4.4,0.809 6.37,2.418 2,1.602 3.52,3.692 4.56,6.293 1.04,2.598 1.87,6.219 2.49,10.828 0.12,1.102 0.24,6.09 0.36,14.973 0.63,41.906 1.42,83.547 2.36,124.898 0.24,9.942 0.11,16.098 -0.34,18.481 -0.48,2.41 -1.54,4.449 -3.13,6.148 -1.63,1.7 -3.82,2.391 -6.6,2.082 -1.04,-0.101 -2.08,-0.211 -3.14,-0.339 0.07,1.789 0.12,3.558 0.16,5.328 13.48,1.48 26.93,2.949 40.39,4.461 8.4,-42.301 17.2,-85.27 26.41,-128.903 9.43,44.922 18.81,89.922 28.13,135.043 13.39,1.52 26.78,3.059 40.16,4.61 -0.01,-1.832 -0.01,-3.68 -0.01,-5.539 -1.07,-0.122 -2.12,-0.243 -3.2,-0.352 -2.91,-0.359 -5.25,-1.66 -7,-3.941 -1.23,-1.539 -2.21,-3.989 -2.95,-7.36 -0.53,-2.449 -0.83,-8.711 -0.83,-18.789 -0.1,-44.601 -0.02,-89.488 0.24,-134.691 0.07,-10.508 0.37,-17.078 0.94,-19.68 0.57,-2.609 1.73,-4.859 3.44,-6.75 1.72,-1.891 4.02,-2.75 6.89,-2.609 1.1,0.05 2.21,0.101 3.33,0.16 0.01,-1.879 0.03,-3.75 0.04,-5.649 -17.8,-0.871 -35.62,-1.75 -53.45,-2.601 z m -182.43,14.898 c 0.36,-2.437 0.99,-4.418 1.91,-5.898 0.93,-1.442 1.76,-2.16 2.53,-2.121 3.11,0.211 6.06,5.652 8.77,16.312 0.73,-1.121 1.45,-2.25 2.17,-3.351 -3.76,-20.602 -10.03,-31.149 -18.8,-31.668 -4.28,-0.242 -7.91,2.16 -10.87,7.179 -2.97,5.028 -4.84,10.7 -5.65,17.039 -0.48,3.508 -0.7,13.149 -0.65,28.809 0.11,26.32 0.31,52.5 0.6,78.543 -2.88,-0.273 -5.74,-0.57 -8.6,-0.891 0.01,1.829 0.04,3.629 0.05,5.418 6.04,9.762 11.17,19.95 15.41,30.493 4.25,10.558 7.97,22.269 11.2,35.097 0.75,0.09 1.53,0.211 2.29,0.289 -0.21,-17.59 -0.39,-35.238 -0.55,-52.968 5.2,0.582 10.38,1.152 15.57,1.718 -0.01,-5.148 -0.04,-10.308 -0.06,-15.488 -5.2,-0.531 -10.41,-1.078 -15.6,-1.621 -0.21,-29.969 -0.3,-60.098 -0.28,-90.449 0.01,-8.5 0.2,-13.989 0.56,-16.442 z m -47.43,-21.617 c -4.37,-6.992 -9.48,-10.66 -15.31,-11.019 -10.046,-0.614 -17.69,7.207 -22.847,23.238 -4.132,12.941 -6.144,29.101 -6.046,48.492 0.136,23.738 3.312,42.797 9.394,57.418 6.086,14.582 13.086,22.391 21.039,23.301 6.66,0.769 12.38,-4.492 17.26,-15.84 4.9,-11.359 7.57,-28.82 8.08,-52.441 -12.18,-1.122 -24.36,-2.211 -36.543,-3.282 0.379,-18.937 2.762,-33.84 7.093,-44.629 3.34,-8.32 7.35,-12.328 12.01,-12 2.89,0.2 5.5,2.11 7.82,5.762 2.31,3.641 4.79,10.078 7.39,19.328 0.82,-1.09 1.64,-2.16 2.45,-3.23 -3.5,-16.391 -7.42,-28.098 -11.79,-35.098 z m -64.641,-4.25 c -4.355,-6.891 -9.453,-10.519 -15.305,-10.922 -10.066,-0.648 -17.773,6.961 -23.015,22.621 -4.211,12.629 -6.309,28.41 -6.281,47.371 0.011,23.219 3.117,41.829 9.132,56.137 6.055,14.301 13.035,21.953 21.035,22.91 6.661,0.774 12.43,-4.289 17.391,-15.347 4.934,-11.09 7.688,-28.11 8.293,-51.192 -12.207,-1.16 -24.406,-2.308 -36.621,-3.449 0.469,-18.512 2.91,-33.059 7.324,-43.59 3.379,-8.09 7.422,-11.988 12.078,-11.66 2.91,0.219 5.508,2.109 7.805,5.68 2.313,3.601 4.754,9.922 7.332,18.961 0.832,-1.063 1.66,-2.11 2.492,-3.153 -3.437,-16.039 -7.316,-27.508 -11.66,-34.367 z m -87.578,-11.723 c -0.051,1.793 -0.07,3.563 -0.098,5.321 2.403,0.883 4.18,3.011 5.321,6.363 0.82,2.617 1.113,8.938 0.949,18.898 -0.363,20.508 -0.645,40.942 -0.879,61.231 -0.109,11.289 -0.383,18.32 -0.832,21.129 -0.449,2.808 -1.18,4.949 -2.195,6.441 -1.036,1.469 -2.2,2.129 -3.489,1.981 -1.883,-0.231 -3.711,-1.762 -5.508,-4.614 -1.777,-2.859 -3.691,-7.738 -5.75,-14.617 0.137,-24.172 0.391,-48.531 0.731,-73.062 0.156,-9.778 0.605,-15.899 1.367,-18.289 0.969,-3.282 2.902,-5.2 5.774,-5.77 0.027,-1.781 0.058,-3.551 0.097,-5.34 -11.476,-0.832 -22.969,-1.66 -34.465,-2.449 -0.027,1.758 -0.058,3.5 -0.066,5.258 2.859,0.801 4.852,2.781 6.023,6.019 0.793,2.18 1.133,8.524 1.028,18.922 -0.481,46.192 -0.567,91.762 -0.293,136.692 0.047,10.039 -0.363,16.207 -1.25,18.527 -0.899,2.32 -2.774,3.652 -5.664,4.012 0.008,1.73 0.047,3.469 0.058,5.187 8.875,1.262 17.754,2.543 26.629,3.801 -0.136,-25.617 -0.144,-51.449 -0.047,-77.469 3.602,8.219 6.922,14.11 9.93,17.7 3.008,3.589 6.125,5.589 9.375,6 4.152,0.5 7.695,-1.469 10.684,-5.95 2.98,-4.48 4.992,-9.961 6.054,-16.422 1.047,-6.476 1.66,-17.507 1.907,-33.218 0.273,-17.91 0.613,-35.91 1.003,-53.989 0.227,-10.621 0.852,-17.211 1.887,-19.793 1.024,-2.546 3.028,-4.058 5.985,-4.539 0.058,-1.8 0.097,-3.589 0.156,-5.39 -11.473,-0.879 -22.949,-1.719 -34.422,-2.571 z m -59.102,8.782 c -6.015,-12.36 -13.984,-18.91 -23.918,-19.668 -3.113,-0.25 -6.082,0.148 -8.886,1.187 -2.801,1.039 -6.356,3.102 -10.645,6.211 -2.39,1.719 -4.324,2.512 -5.828,2.399 -1.262,-0.098 -2.578,-1.161 -3.926,-3.168 -1.379,-2.012 -2.453,-5.012 -3.215,-8.961 -0.898,-0.071 -1.816,-0.141 -2.714,-0.211 -0.625,24.312 -1.133,48.41 -1.504,72.34 0.879,0.082 1.777,0.16 2.668,0.261 2.449,-19.98 6.882,-35.16 13.242,-45.41 6.336,-10.262 13.086,-15.172 20.125,-14.609 5.441,0.437 9.68,3.73 12.707,9.879 3.027,6.121 4.422,13.09 4.18,20.832 -0.129,4.617 -0.879,9 -2.239,13.168 -1.347,4.172 -3.32,8.058 -5.918,11.672 -2.597,3.597 -7.129,8.136 -13.582,13.597 -9.054,7.66 -15.527,14.199 -19.472,19.742 -3.957,5.528 -7.004,11.829 -9.153,18.879 -2.156,7.059 -3.242,14.961 -3.308,23.68 -0.09,14.859 2.683,27.828 8.25,39.039 5.558,11.18 12.539,17.43 20.996,18.699 3.097,0.473 6.074,0.203 8.984,-0.84 2.207,-0.769 4.902,-2.418 8.086,-4.957 3.184,-2.531 5.402,-3.722 6.672,-3.543 1.211,0.204 2.187,1.071 2.859,2.672 0.676,1.578 1.282,5.25 1.817,11 0.715,0.102 1.406,0.211 2.121,0.321 0.488,-20.911 1.074,-41.961 1.765,-63.172 l -2.898,-0.367 c -1.691,15.789 -5.246,28.07 -10.695,36.918 -5.43,8.859 -11.2,12.742 -17.383,11.839 -4.766,-0.687 -8.543,-3.75 -11.317,-9.148 -2.753,-5.391 -4.132,-11.32 -4.074,-17.859 0.032,-4.141 0.559,-7.75 1.563,-10.852 1.406,-4.16 3.652,-8.16 6.73,-12.039 2.274,-2.789 7.461,-7.551 15.664,-14.43 11.485,-9.562 19.364,-19.121 23.582,-28.57 4.16,-9.422 6.446,-20.57 6.848,-33.43 0.516,-16.312 -2.168,-30.73 -8.184,-43.101 z m 1067.631,698.63 c 40.78,67.37 83.09,133.58 134.52,193.87 26.76,31.44 64.01,37.45 100.5,17.2 70.93,-39.37 132.37,-89.75 185.14,-150.37 28.12,-32.38 32.52,-75.49 13.01,-113.51 -36.37,-70.72 -80.05,-136.629 -131.8,-197.531 -27.5,-32.34 -54.67,-47.231 -96.25,-47.77 -37.89,-3.738 -67.33,21.481 -96.82,44.223 -40.42,31.09 -72.99,69.598 -102.48,110.918 -33.49,46.89 -36.09,92.89 -5.82,142.97 z M 3556.73,575.75 c 93.06,115.059 144.76,241.91 144.76,375.25 0,522.72 -792.62,946.48 -1770.37,946.48 C 953.359,1897.48 160.73,1473.72 160.73,951 160.73,737.25 293.367,540.09 516.914,381.648 443.457,346.391 372.215,307.922 303.719,265.762 410.438,285.461 514.5,302.48 616.434,317.219 940.449,125.238 1409.37,4.53125 1931.12,4.53125 c 325.05,0 629.58,46.87895 891.39,128.60975 C 2264.37,317.969 1617.19,392.281 653.418,317.02 l -28.691,1.429 C 1693.87,471.781 2511.98,353.961 3322.46,2.48047 3363.31,43.3398 3744.62,406.469 3844.49,515.43 c -90.79,20.98 -187.05,41.281 -287.76,60.32" />
      <path
         inkscape:connector-curvature="0"
         id="path1753"
         style="fill:#ffffff;fill-opacity:1;fill-rule:nonzero;stroke:none"
         d="m 1845.68,553.172 c -2.03,-6.184 -3.02,-12.402 -2.99,-18.66 0.04,-5.242 0.95,-9.864 2.77,-13.864 1.36,-3.058 3.23,-4.609 5.65,-4.609 2.69,0.012 5.77,3.231 9.26,9.641 -0.19,17.929 -0.37,35.859 -0.54,53.769 -6.36,-8.238 -11.08,-17 -14.15,-26.277" />
      <path
         inkscape:connector-curvature="0"
         id="path1755"
         style="fill:#ffffff;fill-opacity:1;fill-rule:nonzero;stroke:none"
         d="m 947.324,578.352 c -0.832,5.886 -2.121,10.25 -3.859,13.128 -0.985,1.668 -2.285,2.399 -3.953,2.231 -2.434,-0.281 -4.434,-3.039 -6.016,-8.25 -2.793,-9.133 -4.219,-21.34 -4.211,-36.77 0,-1.742 0,-3.492 0,-5.211 6.465,0.622 12.922,1.258 19.375,1.891 -0.058,16.117 -0.496,27.09 -1.336,32.981" />
    </g>
  </g>
</svg>
