<?xml version="1.0" encoding="UTF-8"?>
<!-- Created with Inkscape (http://www.inkscape.org/) -->
<svg width="453.78" height="557.28" version="1.1" viewBox="0 0 120.06 147.45" xmlns="http://www.w3.org/2000/svg" xmlns:cc="http://creativecommons.org/ns#" xmlns:dc="http://purl.org/dc/elements/1.1/" xmlns:rdf="http://www.w3.org/1999/02/22-rdf-syntax-ns#">
 <metadata>
  <rdf:RDF>
   <cc:Work rdf:about="">
    <dc:format>image/svg+xml</dc:format>
    <dc:type rdf:resource="http://purl.org/dc/dcmitype/StillImage"/>
    <dc:title/>
   </cc:Work>
  </rdf:RDF>
 </metadata>
 <g transform="translate(-456.07 -189.18)" fill="#060000">
  <g transform="matrix(.43479 0 0 -.43479 -348.65 285.58)" fill="#060000">
   <g transform="matrix(10.118 0 0 -10.118 -1100.6 3163.8)" fill="#060000">
    <g transform="matrix(.011408 0 0 -.011408 291.71 324.3)" fill="#060000">
     <path d="m1777.4 2228.3c-241.9 17.9-447.11-135.11-561.62-135.11-116.16 0-295.26 131.25-485.16 127.67-249.36-3.66-479.18-145.1-607.76-368.36-259-449.55-66.113-1115.7 186.16-1480.5 123.41-178.25 270.58-379.12 463.9-371.81 186.07 7.3281 256.48 120.35 481.4 120.35 224.79 0 288.2-120.35 484.97-116.75 200.28 3.7305 327.18 181.95 449.68 361.19 141.75 206.89 200 407.22 203.46 417.81-4.44 1.68-390.41 149.76-394.27 594.46-3.49 371.79 303.47 550.5 317.42 559.1-174.24 256.62-443.37 284.92-538.17 291.94"/>
     <path d="m1628.2 2469.1c102.73 124.16 171.85 297.07 152.82 469.06-147.86-5.87-326.69-98.49-432.74-222.57-94.97-109.92-178.38-285.96-155.74-454.44 164.81-12.73 333.01 83.71 435.66 207.95"/>
    </g>
   </g>
  </g>
 </g>
</svg>
