<?xml version="1.0" encoding="UTF-8"?>
<!-- Created with Inkscape (http://www.inkscape.org/) -->
<svg width="1714.9" height="421.29" version="1.1" viewBox="0 0 453.73 111.47" xmlns="http://www.w3.org/2000/svg" xmlns:cc="http://creativecommons.org/ns#" xmlns:dc="http://purl.org/dc/elements/1.1/" xmlns:rdf="http://www.w3.org/1999/02/22-rdf-syntax-ns#">
 <metadata>
  <rdf:RDF>
   <cc:Work rdf:about="">
    <dc:format>image/svg+xml</dc:format>
    <dc:type rdf:resource="http://purl.org/dc/dcmitype/StillImage"/>
    <dc:title/>
   </cc:Work>
  </rdf:RDF>
 </metadata>
 <g transform="translate(475.51 -171.9)">
  <g transform="matrix(.43479 0 0 -.43479 -348.65 285.58)">
   <path d="m181.16 5.2872c-0.40709-0.13639-10.3 11.379-21.984 25.592l-21.244 25.841-0.20539-5.0192c-0.11316-2.7605-0.11316-13.037 0-22.836l0.20539-17.817 1.5969-1.2921 1.5969-1.2922h5.938v-2.0293h-22.999v2.0293h2.7502c1.5127 0 3.3071 0.2977 3.9874 0.66207 0.68086 0.36454 1.5738 1.6272 1.9849 2.8067l0.74734 2.1446v48.2l-1.9269 2.1097c-1.0599 1.1604-2.8102 2.5572-3.8895 3.1039-1.0795 0.54672-3.5488 1.367-5.4876 1.8227l-3.5249 0.82831-4.8112-1.5878-1.0028-1.9395-1.0028-1.9394-0.0161-17.452c0-9.5985-0.31698-19.55-0.68766-22.114-0.37052-2.5642-1.2391-5.9397-1.9297-7.5012-0.69084-1.5615-2.4099-3.9931-3.8202-5.4035-1.4104-1.4102-4.2648-3.3596-6.3432-4.3316l-3.779-1.7675h-16.234l-3.1109 0.90476c-1.7108 0.49785-4.5973 2.0284-6.4141 3.4015l-3.3032 2.4967-2.0414 3.9894-2.0413 3.9894-0.37301 22.034-0.37282 22.034-0.90412 1.8265-0.90409 1.8265-2.0371 0.71028c-1.1204 0.39078-2.7525 0.71011-3.6272 0.71011-0.87452 0-1.5901 0.3047-1.5901 0.67688v0.67602h27.734v-0.67602c0-0.37218-0.77061-0.67688-1.7128-0.67688-0.94199 0-2.7504-0.43334-4.0188-0.96343l-2.3059-0.96345-0.78242-2.9053-0.78226-2.9054 0.62336-39.275 0.83578-2.7056c0.45978-1.4882 1.6104-3.7319 2.5572-4.9859l1.7214-2.2803 7.392-3.3842 10.528 0.60939 7.6027 3.7196 1.7425 2.2846c0.95846 1.2565 2.1734 3.7165 2.7002 5.4665l0.9576 3.182v20.016c0 11.009-0.18744 20.681-0.40541 21.493l-0.39628 1.4766-2.2336 1.06c-1.2284 0.58295-3.0246 1.0598-3.9916 1.0598-0.96692 0-1.758 0.3047-1.758 0.67688v0.67602l9.9775-0.0897c5.4876-0.0465 14.584-0.27758 20.214-0.50714l10.237-0.4179 18.749-22.999c10.312-12.649 19.022-23.288 19.357-23.642l0.60871-0.64263v42.134l-1.5231 1.7705-1.5229 1.7708-2.8739 0.38531c-1.5805 0.21159-2.8737 0.6496-2.8737 0.9729v0.58762h22.322v-0.67603c0-0.37218-0.7156-0.67605-1.5901-0.67605-0.87451 0-2.5552-0.3366-3.7347-0.74751s-2.5185-1.4004-2.9758-2.1983l-0.83129-1.4508v-59.409zm273.37-0.16974-4.7618 0.0382-3.8573 1.2332c-2.1217 0.67854-5.1698 2.0025-6.7738 2.9427-1.6043 0.94001-4.4796 3.3617-6.3898 5.3814-1.9101 2.0198-4.2671 5.2394-5.2377 7.1547-0.97061 1.9154-2.2147 5.3908-2.7646 7.7232-0.54969 2.3323-1.0044 6.5358-1.0099 9.341 0 2.8051 0.45604 6.8895 1.0257 9.0767 0.56995 2.187 1.9755 5.7396 3.1241 7.8946l2.0884 3.9181 3.9531 3.7706 3.953 3.7705 8.8024 4.119 4.587 0.46293c2.5228 0.25433 6.441 0.24819 8.707-0.0161 2.2659-0.26212 5.7664-1.2099 7.7792-2.1056 2.0124-0.89545 5.0288-2.7761 6.703-4.1789 1.6741-1.4029 4.3331-4.2645 5.9083-6.3591 1.5755-2.0946 3.5031-5.6347 4.2837-7.8669l1.419-4.0586 0.37534-5.896 0.37443-5.8959-0.82407-4.2507c-0.45378-2.3378-1.7887-6.223-2.9676-8.6337l-2.1431-4.3832-3.7204-3.7647c-2.0463-2.0705-5.1388-4.5845-6.8723-5.5868-1.7335-1.0023-4.9175-2.2823-7.0756-2.8444-2.158-0.56202-6.0666-1.0055-8.6858-0.98556zm0.64997 3.4121 4.0585-0.0382 2.9438 1.336c1.6194 0.73488 4.1252 2.2713 5.5688 3.4146l2.6247 2.079 2.0015 4.1934c1.1005 2.3064 2.3214 6.1663 2.7123 8.5772 0.39171 2.4111 0.71344 7.0601 0.71642 10.331 0 3.271-0.47356 8.2936-1.0579 11.161l-1.0635 5.214-2.2054 4.0586-2.2052 4.0586-2.8364 2.1714c-1.56 1.1942-3.9699 2.4862-5.3559 2.8711-1.3858 0.38464-4.3674 0.70162-6.626 0.70327h-4.1066l-3.6724-1.8602-3.6724-1.8602-2.3678-3.1733c-1.3023-1.7454-2.8777-4.6372-3.5008-6.4263-0.6235-1.7891-1.503-5.1696-1.9545-7.5124l-0.82127-4.2597 0.3712-7.2398 0.37169-7.24 1.4897-4.7233c0.8192-2.5978 2.3814-6.0194 3.4713-7.6033 1.0899-1.5843 3.0311-3.7176 4.3133-4.7409 1.2827-1.0234 3.3248-2.2208 4.538-2.6608 1.2132-0.44032 4.0323-0.81649 6.2646-0.83661zm93.035-3.4485c-0.35836 0-9.8353 11.187-21.06 24.859-11.224 13.673-20.836 25.316-21.358 25.874l-0.95034 1.0147 0.19552-22.89 0.19552-22.89 3.1939-2.585h5.2616v-2.0293h-22.322v2.0293h5.8522l1.6399 1.7447 1.6399 1.7447 0.20703 25.192 0.20702 25.192-3.0102 2.7748-3.0104 2.7748-2.6075 0.7241c-1.434 0.39842-2.9878 0.72573-3.4529 0.72805-0.46528 0-0.84543 0.30769-0.84543 0.67986v0.67622l17.925-0.0764 19.278-23.72 19.279-23.72 0.19546 19.53c0.10814 10.741 0.0231 20.477-0.18164 21.636-0.20703 1.1579-0.96879 2.6398-1.6905 3.2929-0.72172 0.65293-2.6942 1.3434-4.3835 1.5338-1.6893 0.1909-3.0713 0.61105-3.0713 0.9347v0.58842h22.999v-0.67603c0-0.37217-0.77076-0.67687-1.7128-0.67687-0.94231 0-2.7577-0.43651-4.0349-0.97008l-2.3216-0.9701-0.40321-1.6064c-0.22077-0.88349-0.51402-2.1972-0.64881-2.9194-0.13339-0.72175-0.2691-14.022-0.29715-29.554l-0.0554-28.241zm-622.01 0.67605h-20.631v2.7058h6.8982l4.6608 2.2116 1.1539 2.1072 1.1541 2.1072v77.85l-1.2364 1.8868c-0.68003 1.0377-2.2683 2.318-3.5296 2.8449-1.2613 0.52727-3.825 0.95828-5.6972 0.95828h-3.4038v2.7056h71.702v-4.9041c0-2.6974 0.19918-7.4155 0.43883-10.485l0.43417-5.5808h-1.4531c-0.79921 0-1.4533 0.38082-1.4536 0.8456-3.3e-4 0.46526-0.86587 2.6747-1.9236 4.9104l-1.9229 4.0647-2.4645 2.1638c-1.3556 1.1902-3.6099 2.4585-5.01 2.8185-1.3999 0.35969-4.6762 0.73736-7.2805 0.83792-2.6042 0.10142-8.9205 0.12304-14.036 0.0464l-9.301-0.13294v-37.204l20.631 0.0322 5.7954 2.6304 1.3152 2.8978c0.72324 1.5936 1.3218 3.6739 1.33 4.6226 0 0.94864 0.37999 2.0901 0.82665 2.5366 0.44647 0.44666 1.2074 0.81184 1.6912 0.81184h0.87934v-32.469h-2.623l-0.45895 3.2131c-0.25265 1.7672-1.0371 4.1699-1.7432 5.3395-0.70627 1.1696-2.3143 2.6154-3.5738 3.2131l-2.2899 1.0866h-21.78v-37.542l0.83562-1.6258c0.45976-0.89429 1.6686-2.2444 2.6867-3.0002l1.8511-1.3742 4.0677-0.29472 4.0677-0.29389v-2.5431h-20.631zm89.317 0.0382-4.762 0.0382-3.8815 1.2407c-2.1348 0.68235-5.4078 2.2203-7.2734 3.4174-1.8655 1.1972-4.7472 3.684-6.4037 5.5263-1.6564 1.8423-3.7874 4.9356-4.7358 6.8736-0.94832 1.9384-2.1744 5.6495-2.7246 8.2473-0.55054 2.5978-1.0058 6.2655-1.0123 8.1504 0 1.8848 0.318 5.2333 0.72109 7.4409 0.40327 2.2074 1.6067 5.84 2.6744 8.0722 1.0677 2.2324 3.3157 5.6189 4.9956 7.526 1.6799 1.9069 4.5343 4.4169 6.343 5.5777 1.8089 1.1606 5.0905 2.7316 7.2928 3.4909l4.004 1.3808 11.499 0.00122 3.5424-1.064c1.9482-0.58545 5.4489-2.3631 7.779-3.9508l4.2367-2.8868 3.1457-4.142c1.7301-2.278 3.834-5.9148 4.6754-8.0817l1.5296-3.9397 0.30088-6.8159 0.30153-6.8159-0.77063-3.7128c-0.42404-2.0421-1.6258-5.5195-2.6709-7.7275-1.0452-2.2081-3.4379-5.6889-5.3172-7.7351-1.8793-2.0462-5.0476-4.6967-7.0406-5.8902-1.9931-1.1933-5.4379-2.6391-7.6554-3.213-2.2173-0.57382-6.1744-1.0269-8.7936-1.007zm0.37915 3.3523c2.0836 0 4.8232 0.3489 6.0878 0.78309 1.2646 0.43416 3.457 1.5136 4.8719 2.3986s3.5457 2.9861 4.7351 4.6689c1.1893 1.6828 2.7278 4.6367 3.4186 6.5641l1.256 3.5044 0.35424 8.9617 0.35438 8.9619-0.8258 4.198c-0.45445 2.3089-1.4096 5.7579-2.123 7.6647-0.71327 1.9066-2.4191 4.7775-3.7906 6.3797l-2.4937 2.9133-3.4197 1.5924-3.4198 1.5924h-9.5426l-7.147-3.5614-2.2994-3.1235c-1.2645-1.7179-2.9269-4.7715-3.694-6.786-0.76681-2.0145-1.7287-6.7326-2.1372-10.485l-0.74268-6.8222 1.0125-6.7642 1.0123-6.7644 1.8738-3.9598c1.0306-2.178 2.8238-5.042 3.9849-6.3643 1.1612-1.3225 3.6353-3.1142 5.4982-3.9818l3.3872-1.5773h3.7886zm200.66-3.2241-19.448-0.28757v2.1526h6.088l1.3356 1.3356c0.73507 0.73422 1.5078 2.0283 1.7183 2.8749 0.21022 0.84659 0.29455 13.174 0.18606 27.395l-0.19618 25.856-1.4462 1.4455-1.4463 1.4455-3.1197 0.35123c-1.7158 0.19388-3.1197 0.61636-3.1197 0.94017v0.58843l35.513-0.0465 5.3152-0.94731c2.9234-0.52113 6.9384-1.7416 8.9223-2.7121l3.6069-1.7648 3.4545-3.7798c1.9001-2.0788 4.0506-4.9479 4.7788-6.3756 0.72888-1.4277 1.7796-4.3431 2.3358-6.479l1.0115-3.883-0.0161-5.7768c0-3.1771-0.32397-7.1124-0.70079-8.7449-0.376-1.6327-1.4917-4.6766-2.4786-6.7644l-1.7942-3.7961-3.4802-3.4829c-1.9143-1.9156-4.9768-4.2408-6.8059-5.167-1.8292-0.92622-4.9998-2.2249-7.046-2.886l-3.7204-1.202-19.448-0.28757zm9.301 3.3034c2.2322-0.0382 5.5764 0.38913 7.4313 0.95182 1.8549 0.56284 4.5835 1.8243 6.0638 2.8039 1.4802 0.97957 3.7236 2.875 4.9854 4.2121 1.2618 1.3371 2.9172 3.6488 3.6786 5.1369 0.76146 1.4882 1.7911 4.2278 2.2879 6.088 0.49702 1.8602 0.90361 6.1218 0.90361 9.47 0 3.3484-0.4056 7.6099-0.90145 9.4702-0.49534 1.8602-1.4503 4.4475-2.1215 5.7497-0.67138 1.302-1.9634 3.3453-2.872 4.5406-0.90844 1.1952-3.2678 3.2457-5.2429 4.5567-1.9751 1.311-5.3599 2.8444-7.522 3.4074-2.1619 0.56301-5.2216 1.024-6.7993 1.024-1.5778 0-4.4054-0.32945-6.2841-0.73273l-3.4154-0.73272v-54.653l1.522-0.3248c0.83709-0.17917 2.1308-0.45362 2.8749-0.61106 0.74436-0.158 3.1794-0.3178 5.4114-0.35736zm42.277-3.468h-10.147v1.7906l2.53 0.6265 2.5298 0.62652 2.1227 3.2484c1.1674 1.7866 7.5559 16.017 14.197 31.623 6.6407 15.606 12.416 28.375 12.835 28.375s5.8667-12.252 12.107-27.227c6.2403-14.975 12.036-28.596 12.879-30.27 0.84336-1.6742 2.1546-3.6058 2.9145-4.2921 0.75987-0.68617 2.532-1.6438 3.9389-2.1275 1.4066-0.48373 2.6698-1.2156 2.8068-1.6267l0.24956-0.74734h-25.817v2.0293h1.5405c0.84731 0 2.2519 0.49851 3.1215 1.1074l1.581 1.1072-0.31717 2.7823c-0.17479 1.5301-1.4658 5.4522-2.8699 8.7155l-2.5527 5.9334-24.934-0.36753-2.3496-5.4045c-1.2922-2.9724-2.7045-6.5892-3.1382-8.0371l-0.78875-2.6325 1.8626-1.6021 1.8624-1.6021h3.9833v-2.0294zm21.62 25.028h10.797l-2.2404 5.2424c-1.2321 2.8833-3.691 8.6824-5.464 12.887-1.7726 4.2045-3.3046 7.5528-3.4039 7.4407-0.0989-0.11294-2.4996-5.635-5.3336-12.273-2.8338-6.6382-5.1525-12.346-5.1525-12.683v-0.6142zm62.596-25.028h-13.867v2.0293h2.7501c1.5127 0 3.3069 0.29771 3.9874 0.66207 0.68083 0.36454 1.5737 1.6273 1.9849 2.8069l0.74746 2.1445v52.56h-14.364l-2.6017-2.6014-2.6013-2.6016-0.44891-2.8099-0.44965-2.81h-1.8566v3.8895c0 2.1392 0.19783 5.4876 0.43266 7.4407l0.4264 3.5512h52.574v-2.8747c0-1.5813 0.20009-4.9296 0.43583-7.4409l0.43102-4.5659h-2.0744l-0.41556 2.1983c-0.23003 1.2091-1.0302 3.2062-1.7814 4.4376l-1.3657 2.2392-4.662 1.9478h-12.896l0.0231-25.535 0.0231-25.535 0.62332-2.6877c0.34266-1.4782 1.1546-3.0763 1.8043-3.5512 0.64973-0.47541 2.4927-0.86371 4.0958-0.86371h2.9147v-2.0293h-13.867zm48.027 0h-13.867v2.0293h5.938l1.5971 1.2926 1.5968 1.2926 0.1909 26.782 0.19089 26.782-0.75372 1.4078c-0.41374 0.77461-1.7845 1.8386-3.0447 2.365-1.2604 0.52644-3.0619 0.95745-4.0042 0.95745-0.942 0-1.7128 0.3047-1.7128 0.67605v0.67621h27.734v-0.58777c0-0.32331-1.2472-0.75434-2.7722-0.95913l-2.7721-0.37218-3.2494-3.0526v-54.457l1.7825-1.402 1.7822-1.4019h5.229v-2.0293zm-193.77 156.26c-0.30785 0-10.105 11.611-21.771 25.801l-21.211 25.801-0.1955-20.897c-0.1081-11.493-0.0233-21.878 0.19619-23.076l0.39161-2.1789 1.4762-1.0342 1.4764-1.0341h5.787v-2.0293h-22.999v2.0293h2.7502c1.5127 0 3.3259 0.30785 4.0291 0.68467 0.7033 0.37667 1.5948 1.8223 1.9811 3.213l0.70248 2.5286v47.517l-2.9731 2.7405-2.9731 2.7404-2.6076 0.72423c-1.434 0.39845-2.9879 0.72575-3.453 0.72808-0.46592 0-0.84609 0.30768-0.84609 0.67986v0.67603l17.926-0.0322 19.26-23.662c10.593-13.014 19.344-23.661 19.448-23.661 0.10304 0 0.18768 9.4194 0.18768 20.932v20.932l-1.5231 1.7706-1.523 1.7706-2.8739 0.38531c-1.5806 0.2116-2.8739 0.64979-2.8739 0.97277v0.58776h22.323v-0.67603c0-0.37218-0.53277-0.71262-1.1839-0.75682-0.65128-0.0465-1.4297-0.0382-1.7304 0.0161-0.30069 0.055-1.5707-0.39314-2.8225-0.98689-1.2517-0.59392-2.5195-1.5891-2.8172-2.2115-0.29771-0.62251-0.64579-14.601-0.77295-31.064l-0.2317-29.932h-0.55986zm207.33 0.71262-4.7619 0.0382-3.7204 1.2005c-2.0463 0.66057-4.7683 1.7475-6.0487 2.4157-1.2807 0.66839-3.9734 2.771-5.984 4.6724-2.0104 1.9014-4.3858 4.7035-5.2784 6.2266-0.89259 1.5231-2.2459 4.5714-3.0072 6.7739-0.76134 2.2025-1.5647 6.3085-1.7852 9.1243l-0.40066 5.1198 0.78982 4.6886c0.434 2.5788 1.699 6.5653 2.8106 8.8588 1.1115 2.2937 3.3602 5.6601 4.9976 7.4811 1.6371 1.821 4.2073 4.1636 5.7112 5.2058 1.504 1.0424 4.772 2.6347 7.2621 3.5386l4.5279 1.6435h11.625l3.5422-1.064c1.9483-0.5853 5.4254-2.3526 7.7267-3.9274l4.1846-2.8637 3.1983-4.1664c1.7592-2.2918 3.8867-5.9389 4.7278-8.105l1.5292-3.9386 0.30061-6.8159 0.3008-6.816-0.79255-3.8174c-0.43559-2.0994-1.7112-5.6562-2.8345-7.9037-1.123-2.2475-3.5058-5.6813-5.2954-7.6306-1.7894-1.9493-4.8842-4.5205-6.8771-5.714-1.9929-1.1933-5.4378-2.6392-7.6552-3.213-2.2174-0.57381-6.1747-1.0269-8.7937-1.007zm0.64997 3.4038c2.2321 0.0232 5.0277 0.40242 6.2124 0.83894 1.1845 0.43651 3.5272 1.7656 5.206 2.953l3.0525 2.1589 2.0492 3.588c1.1268 1.9733 2.513 5.6279 3.0801 8.1212l1.0311 4.5333-0.0231 7.3073-0.0231 7.3073-0.99933 4.7187c-0.54993 2.5954-1.823 6.3462-2.8292 8.335-1.0065 1.989-2.895 4.5516-4.197 5.6947-1.3018 1.143-3.7131 2.6737-5.358 3.4014l-2.9914 1.3232-10.427-0.47457-3.3067-2.0444c-1.8185-1.1244-4.1466-3.2552-5.1732-4.7349-1.0267-1.4801-2.4764-4.2836-3.2218-6.2304-0.74496-1.9467-1.721-6.2888-2.1684-9.6492l-0.81354-6.1096 0.78847-6.7192 0.78841-6.7192 1.7459-4.3611c0.96026-2.3986 2.851-5.6522 4.2014-7.2298l2.4554-2.8687 6.8396-3.1849 4.0587 0.0464zm-666.63-2.7638h-20.293v2.7058h7.2408l2.2886 1.5422c1.2587 0.84825 2.6691 2.2943 3.134 3.2131l0.84542 1.6707v80.158h-18.984l-2.2178-0.9267c-1.2198-0.50933-3.2919-2.1814-4.6048-3.7152-1.3128-1.5338-2.7402-3.9678-3.1721-5.409-0.43184-1.4412-0.78509-3.4219-0.78509-4.402v-1.7818h-3.1835l0.22815 3.2131c0.12466 1.7672 0.41473 6.7898 0.64346 11.161l0.41639 7.9482h78.333v-4.566c0-2.5112 0.19987-7.5338 0.44033-11.161l0.43651-6.5953h-2.9099v0.89197c0 0.49086-0.46976 2.4734-1.0436 4.4065l-1.0437 3.5143-2.1636 2.4643c-1.19 1.3552-3.3837 3.0185-4.875 3.696l-2.7116 1.2319-19.348 0.0322 0.20401-40.079 0.20378-40.079 1.0146-1.9608c0.55833-1.0786 2.0753-2.5245 3.3717-3.2131l2.3569-1.2522h6.4474v-2.7058h-20.293zm59.188 0h-13.867v2.0293h5.9381l1.5969 1.2927 1.5969 1.2926 0.19159 26.782 0.19158 26.782-0.75367 1.4078c-0.41389 0.77446-1.7844 1.8385-3.0446 2.3651-1.2603 0.52643-3.0622 0.95729-4.0042 0.95729-0.94216 0-1.7128 0.30467-1.7128 0.67685v0.67621h27.734v-0.5901c0-0.3248-1.2902-0.79638-2.8672-1.0484l-2.8672-0.45827-1.5296-1.437-1.5296-1.4368v-24.793h29.847l-0.2109 12.575-0.21068 12.575-1.5512 1.2547c-0.85305 0.69001-2.9078 1.4581-4.566 1.7068-1.6581 0.24884-3.0146 0.72175-3.0146 1.0517v0.59925h27.734v-0.59925c0-0.32961-1.3918-0.80835-3.0928-1.0633l-3.0926-0.46377-1.2485-1.2485-1.2485-1.2484-0.44962-3.6071c-0.24736-1.9837-0.34893-14.211-0.22494-27.172l0.22563-23.566 1.898-1.632 1.8979-1.6318h5.336v-2.0293h-27.734v2.0293h2.7502c1.5127 0 3.3069 0.29772 3.9874 0.66207 0.68069 0.36454 1.5736 1.6272 1.9849 2.8067l0.74735 2.1445v23.474h-29.763v-26.283l3.5645-2.8039h5.2291v-2.0294zm88.782 0h-24.859v2.0293h5.336l1.898 1.6322 1.898 1.632v25.933c0 14.263-0.23886 26.79-0.53125 27.838l-0.53175 1.9048-2.3217 0.96992c-1.2769 0.53343-3.0926 0.9701-4.0346 0.9701-0.942 0-1.7128 0.30784-1.7128 0.68467v0.68468l24.859-0.17779 24.859-0.17756 0.19388-6.9979 0.19389-6.9979-0.80369 0.26813c-0.44201 0.14788-1.1628 1.6814-1.6014 3.4089-0.43884 1.7276-1.2294 3.6618-1.7572 4.2982-0.52809 0.63665-1.9392 1.5667-3.1365 2.067l-2.1767 0.90991h-22.366v-25.028h19.721l3.8551 3.8551 0.46277 2.4693 0.46361 2.4693h1.8788v-22.323h-2.0133l-0.44516 2.783c-0.24502 1.5305-1.1343 3.5852-1.9771 4.5659l-1.5321 1.7831-20.413 0.43561v-25.544l0.96177-1.313 0.96161-1.313h21.414l2.9242 1.6742 2.9241 1.6742 3.0466 4.5828c1.6757 2.5205 3.4533 4.5829 3.9505 4.5829h0.90361l-2.8159-8.1113-2.8158-8.1114h-24.859zm96.054 0.17525-30.27-0.29007v2.8145h6.898l2.3514 1.1159c1.2932 0.61405 2.8611 1.8938 3.4843 2.845l1.1331 1.7291v78.586l-1.1837 1.8069c-0.65125 0.99369-1.8687 2.1907-2.7058 2.6598-0.83709 0.46894-3.3454 1.0123-5.5742 1.2075l-4.0521 0.35438-0.2342 1.2304-0.23405 1.2304 56.6-0.51629 4.0586-1.1622c2.2322-0.63881 5.5898-1.9034 7.4614-2.8097 1.8715-0.90609 4.6744-2.7361 6.2286-4.0664l2.826-2.4189 2.2267-4.5276 2.2268-4.5275v-10.843l-1.9013-3.872-1.9014-3.8722-2.6935-2.3055c-1.4814-1.268-4.1819-3.0122-6.0012-3.8759-1.8193-0.86371-3.1581-1.8127-2.9751-2.1087 0.18284-0.29621 0.84742-0.53891 1.4766-0.53891 0.62867-3.2e-4 2.9914-0.87467 5.2496-1.9428 2.2582-1.0683 5.2145-2.9158 6.5694-4.1055 1.3549-1.1897 3.0772-3.1559 3.8272-4.3694 0.74969-1.2136 1.8423-4.0745 2.427-6.3575l1.0635-4.1512-0.76298-4.2065c-0.41938-2.3135-1.5186-5.6982-2.4425-7.5214-0.92387-1.8232-3.0043-4.6394-4.6232-6.2582-1.6189-1.6189-4.4861-3.7253-6.3717-4.6807-1.8857-0.95547-5.3367-2.2381-7.6691-2.8501l-4.2407-1.1129zm16.404 5.0488c2.7904 0.19388 7.0287 0.95114 9.4186 1.6832l4.3453 1.3311 3.7984 3.8262 3.7982 3.826 0.81915 2.7841c0.45047 1.5314 0.81915 4.4451 0.81915 6.4748 0 2.0298-0.47922 5.0977-1.0655 6.8174-0.5861 1.72-2.271 4.4966-3.7446 6.1705l-2.6789 3.0436-3.5391 1.7316c-1.9465 0.9523-5.6644 2.1817-8.2622 2.7319l-4.7233 1.0005h-7.4408c-4.0925 1e-3 -8.1258-0.18055-8.9628-0.40542l-1.522-0.40776v-38.968l2.1458-0.4714c1.1802-0.259 4.3002-0.7078 6.9334-0.99704 2.6332-0.28921 7.0707-0.36751 9.861-0.17364zm-6.7644 46.303c2.4182-0.055 6.4947 0.20631 9.0589 0.57679 2.564 0.37068 6.0609 1.2927 7.7705 2.0491 1.7098 0.75599 3.8262 2.045 4.7033 2.8639 0.87716 0.81899 2.3745 2.8148 3.3276 4.4354l1.7329 2.9464 0.31167 4.8599 0.31169 4.8597-1.5055 3.4996-1.5054 3.4997-3.1746 2.9693-3.1746 2.9696-8.049 3.1874-9.1318 0.0315c-5.0226 0.0161-9.974-0.20769-11.003-0.49553l-1.871-0.52326 0.17986-18.417 0.17985-18.417 3.7203-0.39693c2.0462-0.21872 5.699-0.44051 8.1174-0.49403zm58.512-51.533h-13.867v2.0293h5.9379l1.5969 1.2931 1.5971 1.2931v54.769l-1.2791 1.4132-1.2789 1.4132-3.287 0.43569c-1.8079 0.23951-3.2869 0.72655-3.2869 1.0819v0.64579l18.433-0.22954 18.433-0.22931 3.3822-1.5517c1.86-0.8534 4.5368-2.6767 5.9482-4.0517l2.5658-2.5002 1.0524-3.6197 1.0524-3.6199-0.4257-2.8094c-0.23404-1.5454-1.1031-4.013-1.931-5.484-0.82813-1.4708-2.7643-3.6344-4.3026-4.8077-1.5384-1.1732-4.2065-2.5494-5.9291-3.0581l-3.132-0.92472 0.31252-0.81433c0.17226-0.44814 3.556-5.3261 7.5205-10.84 3.9645-5.5144 8.1678-11.053 9.3409-12.307 1.1731-1.2546 3.6548-3.0019 5.515-3.8828 1.8602-0.881 4.067-1.6048 4.9042-1.6082h1.522v-2.0294l-17.249 0.0322-10.485 14.581c-5.7667 8.0199-10.789 14.813-11.161 15.095-0.37201 0.28225-1.9701 0.37687-3.5512 0.21022l-2.8749-0.30302v-24.271l1.6604-1.6604 1.6602-1.6602h5.473v-2.0293h-13.867zm8.2419 33.145c1.7429 0 4.9947 0.51264 7.2266 1.1387l4.0577 1.1385 2.5379 2.5379 2.5379 2.538 0.71644 2.5807c0.39377 1.4192 0.7116 3.6458 0.70546 4.948 0 1.3022-0.57298 3.5852-1.2598 5.0734-0.68686 1.488-1.9779 3.376-2.8692 4.1954-0.89131 0.81932-2.748 1.9608-4.1262 2.5366-1.3782 0.57614-3.657 1.0436-5.0641 1.0396-1.4071 0-3.6998-0.19619-5.095-0.42653l-2.5366-0.41939v-26.881zm60.416-33.145h-13.528v2.0293h5.2615l3.1938 2.5851 0.19159 27.126 0.19158 27.126-3.3344 3.3345-2.7518 0.44049c-1.5136 0.24186-2.7519 0.70546-2.7519 1.0299v0.5901h27.057v-0.58695c0-0.3233-1.2932-0.76064-2.8739-0.9729l-2.8737-0.38531-1.5231-1.7706-1.523-1.7706v-53.213l1.2103-1.4949 1.2106-1.4949 3.1864-0.35904 3.1864-0.35886v-1.8534zm336.9 0.17985-3.756-0.22493-2.2335 1.1388c-1.2284 0.62651-2.6926 2.0264-3.2535 3.1114-0.56143 1.0851-0.926 2.7595-0.8105 3.7213l0.20927 1.7483 1.8588 1.3817 1.8591 1.3816 1.8614-0.65192 1.8616-0.65211 1.7418-3.2158c0.95789-1.7688 2.0688-3.5431 2.4685-3.9428 0.39999-0.39994 1.3202-0.53875 2.0452-0.30852 0.72495 0.2302 1.6688 1.1878 2.0976 2.1283l0.77898 1.7098v51.258l-0.67225 1.7678-0.67206 1.768-2.3501 0.98188c-1.2926 0.5404-3.121 0.9819-4.0629 0.9819-0.942 0-1.713 0.3047-1.713 0.67688v0.67602h27.734v-0.67602c0-0.37218-0.7707-0.67688-1.7128-0.67688-0.94231 0-2.7576-0.43651-4.0346-0.9701l-2.3218-0.97008-0.33414-1.5665c-0.18402-0.86156-0.46139-11.307-0.61638-23.213l-0.28157-21.646-1.1164-3.5215c-0.61389-1.9367-2.0978-4.8018-3.2975-6.3666-1.1994-1.5648-3.3828-3.4656-4.8513-4.2241l-2.67-1.3788zm65.917 0.0464-6.7644-0.21872-3.565 1.0015c-1.9607 0.55137-4.5479 1.5007-5.7496 2.1109-1.2017 0.6102-3.4842 2.1618-5.0724 3.4482-1.5881 1.2863-4.0817 4.0976-5.5415 6.2472-1.4598 2.1497-3.3214 5.8535-4.1369 8.2309l-1.4826 4.3224-0.0554 7.1025-0.0554 7.1027 1.2565 3.7205c0.69087 2.0462 2.0012 5.2067 2.9113 7.0233 0.90988 1.8165 3.0286 4.7718 4.7078 6.5674 1.6797 1.7956 4.5463 4.2225 6.3706 5.393 1.8243 1.1706 5.2131 2.7186 7.531 3.44l4.2138 1.3113h10.172l3.7204-1.1162c2.0462-0.61402 4.5904-1.5645 5.6535-2.1124l1.9331-0.99618 1.5325 0.38446 1.5327 0.38465 0.84409 2.0379c0.46437 1.1209 1.2247 2.0379 1.6898 2.0379h0.84568l0.44575-7.61c0.24493-4.1854 0.62398-9.208 0.84153-11.161l0.39537-3.5512h-1.0927c-0.60074 0-1.0925 0.41556-1.0925 0.92372 0 0.50783-1.0837 3.0901-2.4085 5.7379l-2.4083 4.8142-2.834 2.3059c-1.5587 1.2683-4.2906 2.7956-6.0708 3.394l-3.2367 1.0881h-8.6957l-3.6827-1.3778-3.6827-1.378-2.8291-3.0697c-1.5564-1.6882-3.5894-4.7293-4.5183-6.7577-0.92874-2.0286-2.1425-6.1912-2.6974-9.2505l-1.0089-5.5621 0.37461-5.7953c0.20471-3.1876 0.98533-7.7535 1.7321-10.147l1.3579-4.3513 2.5732-3.3822 2.5734-3.3822 4.6411-2.3676 4.6411-2.3675h12.313l7.1485 3.2191 4.2975 4.6418c2.3634 2.5536 4.6441 4.6425 5.0675 4.6425h0.7698l-1.1265-2.1789c-0.6196-1.1984-2.8163-3.9499-4.8812-6.1146l-3.7542-3.9361-4.4375-2.1195-4.4373-2.1196-6.7644-0.21873zm44.306-0.22401h-13.529v2.0293h5.473l1.6606 1.6602 1.6601 1.6604v53.562l-1.6449 1.645-1.645 1.6448-2.7519 0.44049c-1.5134 0.24186-2.7519 0.70546-2.7519 1.0299v0.5901h27.058v-0.58695c0-0.3233-1.2932-0.76064-2.8738-0.9729l-2.8738-0.38532-3.0461-3.5413v-53.213l1.2104-1.4949 1.2105-1.4949 3.1863-0.35904 3.1864-0.35886v-1.8534zm51.747 0.22401-6.7644-0.21872-3.5647 1.0015c-1.9607 0.55137-4.5479 1.5007-5.7496 2.1109-1.2017 0.6102-3.4844 2.1618-5.0726 3.4482-1.5878 1.2863-4.0817 4.0976-5.5413 6.2472-1.4597 2.1497-3.3214 5.8535-4.1369 8.2309l-1.4828 4.3224-0.0554 7.1025-0.0554 7.1027 1.2567 3.7205c0.69092 2.0462 2.0012 5.2067 2.9111 7.0233 0.91011 1.8165 3.0288 4.7718 4.708 6.5674 1.6797 1.7956 4.5463 4.2225 6.3704 5.393 1.8246 1.1706 5.2133 2.7186 7.531 3.44l4.214 1.3113h10.172l3.7204-1.1162c2.0462-0.61402 4.5903-1.5645 5.6535-2.1124l1.9331-0.99618 1.5325 0.38446 1.5327 0.38465 0.84409 2.0379c0.46437 1.1209 1.2247 2.0379 1.6898 2.0379h0.84549l0.44569-7.61c0.24518-4.1854 0.62423-9.208 0.8416-11.161l0.39536-3.5512h-1.0925c-0.60098 0-1.0927 0.41556-1.0927 0.92372 0 0.50783-1.0837 3.0901-2.4085 5.7379l-2.4083 4.8142-2.834 2.3059c-1.5586 1.2683-4.2903 2.7956-6.0705 3.394l-3.2368 1.0881h-8.6957l-3.683-1.3778-3.6825-1.378-2.8294-3.0697c-1.5562-1.6882-3.5894-4.7293-4.518-6.7577-0.92874-2.0286-2.1427-6.1912-2.6977-9.2505l-1.0088-5.5621 0.37449-5.7953c0.20465-3.1876 0.98552-7.7535 1.7321-10.147l1.3579-4.3513 2.5735-3.3822 2.5732-3.3822 9.2824-4.7351h12.313l3.5744 1.6096 3.5741 1.6096 4.2977 4.6418c2.3632 2.5536 4.6438 4.6425 5.0672 4.6425h0.76985l-1.1266-2.1789c-0.61961-1.1984-2.8163-3.9499-4.881-6.1146l-3.7542-3.9361-4.4375-2.1195-4.4374-2.1196-6.7644-0.21873zm40.586-0.22401h-13.867v2.0293h5.9378l1.5971 1.2926 1.5968 1.2926 0.19089 26.782 0.1909 26.782-0.75366 1.4078c-0.41399 0.7746-1.7846 1.8384-3.0449 2.365-1.2602 0.52644-3.0619 0.95745-4.004 0.95745s-1.713 0.3047-1.713 0.67605v0.67602h27.734v-0.59923c0-0.32963-1.3252-0.79854-2.9451-1.0412-1.6196-0.2427-3.5982-1.0504-4.3968-1.7944l-1.452-1.3526v-25.801l6.5954 6.0942c3.6274 3.3518 8.9349 8.5049 11.794 11.451l5.1989 5.3571 0.45512 1.8122c0.24956 0.99653 0.28613 2.2525 0.0782 2.7909-0.20696 0.53808-1.457 1.1817-2.7786 1.4297-1.3218 0.24801-2.4032 0.72108-2.4032 1.0519v0.60091h23.788l-0.2808-0.84309c-0.1541-0.4636-1.3213-1.017-2.593-1.2294-1.2716-0.21251-3.2252-0.86901-4.3411-1.459-1.1162-0.5901-4.1602-3.0045-6.7644-5.3658-2.6043-2.3612-8.0819-7.7308-12.172-11.932l-7.4369-7.6393 30.432-30.147 3.3399-1.5333c1.8371-0.84341 4.3484-1.6972 5.5807-1.8971l2.2406-0.36371v-1.8522h-30.44v2.0293h1.556c0.8556 0 1.9209 0.36521 2.3676 0.81168 0.44642 0.44665 0.81166 1.6343 0.81166 2.6395v1.8278l-24.69 23.975-0.1909-13.105-0.19089-13.105 1.7516-1.522 1.7514-1.522h5.3359v-2.0293h-13.867zm70.011 0h-13.529v2.0293h5.473l1.6603 1.6602 1.6603 1.6604v53.562l-1.6446 1.645-1.6452 1.6448-2.7517 0.44049c-1.5136 0.24186-2.7521 0.70546-2.7521 1.0299v0.5901h27.057v-0.58695c0-0.3233-1.293-0.76064-2.8736-0.9729l-2.8738-0.38532-3.046-3.5413v-53.213l1.2102-1.4949 1.2104-1.4949 3.1864-0.35904 3.1864-0.35886v-1.8534zm-446.29 0.80968-1.3411-0.2047-0.47471 1.2194c-0.26105 0.67077-6.9689 19.331-14.907 41.468-7.9374 22.137-15.069 41.942-15.848 44.013-0.7786 2.0706-2.305 4.6167-3.3918 5.658l-1.9759 1.8931-6.1907 0.69781v2.5298h35.175v-2.7058h-5.5154l-2.0491-2.0489-2.0487-2.0489 0.42255-2.517c0.23255-1.3843 5.2095-16.165 11.06-32.845l10.637-30.328 0.9255 2.2556c0.50922 1.2405 4.1112 11.35 8.0048 22.465l7.0797 20.21-2.8411 8.029c-1.5624 4.4159-3.7108 9.4006-4.774 11.077-1.063 1.6766-2.9285 3.655-4.1452 4.397-1.2169 0.74188-3.2018 1.3499-4.4108 1.3514h-2.1985v2.7058h37.204v-2.7058h-6.829l-1.7328-1.8602-1.7326-1.8602 0.39768-3.8479 0.39767-3.8478 5.8193-16.445c3.2004-9.045 7.842-22.192 10.314-29.216l4.4948-12.771 0.94365 2.2863c0.51932 1.2573 4.8998 13.701 9.7348 27.653 4.835 13.951 9.2084 26.888 9.7185 28.748 0.51014 1.8602 0.93106 4.2024 0.93544 5.2047v1.8225l-1.5341 1.7836-1.5343 1.7836-3.699 0.45279-3.6995 0.45279-0.22772 1.1837-0.22765 1.1837h29.186v-2.7056h-1.7128c-0.94207 0-2.6949-0.41024-3.8954-0.91207l-2.1826-0.91194-1.8082-2.6393c-0.99428-1.4516-3.9757-8.8794-6.625-16.506-2.6496-7.6269-9.4429-27.26-15.097-43.63l-10.28-29.763h-3.2105l-10.59 29.557c-5.8244 16.257-10.733 29.7-10.909 29.875-0.17479 0.17434-5.0792-13.126-10.898-29.558l-10.58-29.875-1.3409-0.20469z" stroke-width=".67644"/>
  </g>
 </g>
</svg>
