<?xml version="1.0" encoding="UTF-8"?>
<!-- Created with Inkscape (http://www.inkscape.org/) -->
<svg width="134.6mm" height="33.067mm" version="1.1" viewBox="0 0 134.6 33.067" xmlns="http://www.w3.org/2000/svg" xmlns:cc="http://creativecommons.org/ns#" xmlns:dc="http://purl.org/dc/elements/1.1/" xmlns:rdf="http://www.w3.org/1999/02/22-rdf-syntax-ns#">
 <metadata>
  <rdf:RDF>
   <cc:Work rdf:about="">
    <dc:format>image/svg+xml</dc:format>
    <dc:type rdf:resource="http://purl.org/dc/dcmitype/StillImage"/>
    <dc:title/>
   </cc:Work>
  </rdf:RDF>
 </metadata>
 <g transform="translate(-205.19 -147.66)">
  <path d="m266.19 180.7c-0.0525 0.0177-1.3285-1.4677-2.8355-3.3008l-2.74-3.3329-0.0265 0.64737c-0.0146 0.35605-0.0146 1.6815 0 2.9454l0.0265 2.298 0.41194 0.33332h0.76589v0.26174h-2.9664v-0.26174h0.35471c0.19509 0 0.42653-0.0384 0.5143-0.0854 0.0878-0.047 0.20297-0.20987 0.256-0.362l0.0964-0.2766v-6.2168l-0.24855-0.27212c-0.1367-0.14966-0.36245-0.32981-0.50165-0.40034-0.13923-0.0705-0.45773-0.1763-0.70779-0.23507l-0.45463-0.10684-0.62056 0.2048-0.12935 0.25014-0.12934 0.25014-2e-3 2.2509c-1e-3 1.238-0.0409 2.5215-0.0887 2.8522s-0.15981 0.76609-0.2489 0.9675c-0.0891 0.20141-0.31082 0.51503-0.49272 0.69693-0.18191 0.1819-0.55007 0.43332-0.81813 0.5587l-0.4874 0.22796-2.0939 0.00106-0.40123-0.11671c-0.22067-0.0642-0.59295-0.26161-0.82729-0.43871l-0.42605-0.32202-0.52658-1.0291-0.0481-2.8419-0.0481-2.8419-0.11661-0.23558-0.11661-0.23559-0.26274-0.0916c-0.1445-0.0504-0.35502-0.0916-0.46783-0.0916-0.1128 0-0.20509-0.0393-0.20509-0.0873v-0.0872h3.5771v0.0872c0 0.048-0.0994 0.0873-0.22092 0.0873-0.1215 0-0.35475 0.0559-0.51834 0.12427l-0.29741 0.12426-0.10091 0.37473-0.1009 0.37473 0.0402 2.5328 0.0402 2.5328 0.1078 0.34898c0.0593 0.19195 0.2077 0.48133 0.32981 0.64308l0.22203 0.29409 0.47671 0.21824 0.47671 0.21825 1.3578-0.0786 0.98058-0.47975 0.22475-0.29466c0.12361-0.16206 0.28032-0.47934 0.34826-0.70506l0.12351-0.41041-1e-3 -2.5817c-5.3e-4 -1.4199-0.0242-2.6674-0.0523-2.7722l-0.0511-0.19046-0.28809-0.13671c-0.15845-0.0752-0.39012-0.1367-0.51483-0.1367s-0.22674-0.0393-0.22674-0.0873v-0.0872l1.2869 0.0115c0.70778 6e-3 1.881 0.0358 2.6072 0.0654l1.3204 0.0539 2.4182 2.9664c1.33 1.6315 2.4535 3.0037 2.4966 3.0492l0.0785 0.0829v-5.4344l-0.19644-0.22837-0.19644-0.22838-0.37066-0.0497c-0.20386-0.0273-0.37066-0.0838-0.37066-0.12548v-0.0755h2.8791v0.0872c0 0.048-0.0923 0.0872-0.20509 0.0872-0.1128 0-0.32957 0.0434-0.4817 0.0964s-0.32484 0.18063-0.38381 0.28355l-0.10722 0.18712v7.6625zm35.259 0.0219-0.61419-5e-3 -0.49751-0.15907c-0.27362-0.0875-0.66679-0.25827-0.87368-0.37953-0.20691-0.12124-0.57776-0.43359-0.82414-0.69409-0.24637-0.26051-0.55036-0.67577-0.67555-0.9228-0.12518-0.24704-0.28564-0.6953-0.35656-0.99612-0.0709-0.30083-0.12954-0.84298-0.13025-1.2048-1e-3 -0.3618 0.0588-0.88862 0.1323-1.1707s0.2548-0.74029 0.40294-1.0182l0.26934-0.50535 1.0197-0.97266 1.1353-0.53127 0.59165-0.0597c0.3254-0.0328 0.83075-0.032 1.123 2e-3 0.29225 0.0338 0.74376 0.15606 1.0033 0.27156 0.25956 0.11551 0.64862 0.35806 0.86456 0.539 0.21594 0.18095 0.55885 0.55003 0.76205 0.82019 0.2032 0.27015 0.4518 0.72676 0.55249 1.0147l0.18303 0.52347 0.0484 0.76045 0.0483 0.76045-0.10629 0.54824c-0.0585 0.30154-0.23069 0.80264-0.38273 1.1136l-0.27643 0.56533-0.47984 0.48556c-0.26393 0.26705-0.6628 0.59132-0.8864 0.7206-0.22358 0.12927-0.63425 0.29436-0.9126 0.36686-0.27834 0.0725-0.78246 0.1297-1.1203 0.12712zm0.0838-0.4401 0.52347 5e-3 0.3797-0.1723c0.20884-0.0948 0.53203-0.29295 0.71825-0.44042l0.33854-0.26814 0.25813-0.54086c0.14197-0.29748 0.29941-0.79531 0.34986-1.1063 0.0505-0.31098 0.092-0.91059 0.0924-1.3325 0-0.42189-0.0611-1.0697-0.13649-1.4396l-0.13717-0.67248-0.56887-1.047-0.36583-0.28006c-0.20119-0.15403-0.51204-0.32067-0.69079-0.37031-0.17872-0.0496-0.5633-0.0905-0.8546-0.0907l-0.52965-6.6e-4 -0.47365 0.23993-0.47366 0.23993-0.30539 0.40928c-0.16796 0.22511-0.37116 0.59809-0.45156 0.82885-0.0804 0.23074-0.19382 0.66677-0.25207 0.96894l-0.10594 0.5494 0.0479 0.93378 0.0479 0.93379 0.19214 0.60921c0.1057 0.33507 0.30716 0.77638 0.44774 0.98068 0.14057 0.20432 0.39094 0.47948 0.55636 0.61147 0.16542 0.132 0.42881 0.28643 0.58529 0.34318 0.15648 0.0568 0.52008 0.10531 0.80799 0.10791zm12 0.44479c-0.0462 0-1.2685-1.4428-2.7162-3.2063-1.4477-1.7635-2.6873-3.2652-2.7548-3.3372l-0.12256-0.13087 0.0502 5.9047 0.41194 0.3334h0.67863v0.26173h-2.8791v-0.26173h0.75481l0.42302-0.45006 0.0266-3.2493 0.0266-3.2493-0.77654-0.71578-0.3363-0.0934c-0.18497-0.0514-0.38539-0.0936-0.44537-0.0939-0.06-2.6e-4 -0.10905-0.0397-0.10905-0.0877v-0.0872l2.312 0.01 4.973 6.1188 0.0253-2.519c0.0139-1.3854 3e-3 -2.6412-0.0235-2.7905-0.0268-0.14936-0.12496-0.34049-0.21804-0.42473-0.0931-0.0842-0.34751-0.17326-0.56539-0.19782-0.21788-0.0246-0.39615-0.0788-0.39615-0.12055v-0.0759h2.9664v0.0872c0 0.048-0.0994 0.0873-0.22092 0.0873-0.12151 0-0.35567 0.0563-0.52037 0.12512l-0.29945 0.12512-0.052 0.20719c-0.0286 0.11395-0.0663 0.28339-0.0837 0.37654-0.0174 0.0931-0.0347 1.8085-0.0383 3.8119l-7e-3 3.6425zm-80.226-0.0872h-2.661v-0.34898h0.88972l0.30058-0.14264 0.30058-0.14263 0.14883-0.27178 0.14885-0.27179v-10.041l-0.15948-0.24336c-0.0877-0.13384-0.29255-0.29897-0.45524-0.36694-0.16266-0.068-0.49334-0.12358-0.73481-0.12358h-0.43903v-0.34898h9.2481l5.3e-4 0.63253c2.6e-4 0.3479 0.0257 0.95644 0.0566 1.3523l0.056 0.71979h-0.18742c-0.10309 0-0.18746-0.0491-0.1875-0.10906-3e-5 -0.06-0.11167-0.34498-0.24809-0.63333l-0.24802-0.52427-0.31786-0.27908c-0.17483-0.1535-0.46561-0.31709-0.64618-0.36353-0.18058-0.0464-0.60314-0.0951-0.93904-0.10808-0.3359-0.013-1.1506-0.0159-1.8104-6e-3l-1.1996 0.0172v4.7985l2.661-4e-3 0.37374-0.16963 0.37375-0.16963 0.16962-0.37374c0.0933-0.20556 0.1705-0.47386 0.17155-0.59622 1e-3 -0.12236 0.049-0.26959 0.10661-0.32717 0.0576-0.0576 0.15574-0.1047 0.21812-0.1047h0.11342v4.1878h-0.3383l-0.0592-0.41442c-0.0326-0.22793-0.13377-0.53783-0.22484-0.68868-0.0911-0.15084-0.2985-0.33733-0.46095-0.41442l-0.29536-0.14015h-2.8091l2e-3 4.8422 0.10778 0.2097c0.0593 0.11534 0.21521 0.28947 0.34652 0.38696l0.23876 0.17725 0.52464 0.038 0.52465 0.0379v0.32801h-2.661zm11.52-5e-3 -0.6142-5e-3 -0.50063-0.16003c-0.27534-0.088-0.69748-0.28637-0.9381-0.44078-0.24062-0.1544-0.6123-0.47515-0.82594-0.71277s-0.48851-0.63658-0.6108-0.88656c-0.12232-0.24999-0.28046-0.72866-0.35142-1.0637-0.071-0.33506-0.12973-0.80811-0.13057-1.0512-1e-3 -0.24311 0.041-0.67498 0.093-0.9597 0.052-0.28474 0.20723-0.75326 0.34492-1.0412 0.13772-0.28792 0.42766-0.72472 0.64433-0.97069 0.21667-0.24596 0.58482-0.56969 0.81811-0.7194 0.2333-0.1497 0.65658-0.35232 0.94061-0.45026l0.51644-0.17809 1.4832-1.7e-4 0.45688 0.13723c0.25129 0.0755 0.7028 0.30478 1.0033 0.50957l0.54644 0.37234 0.40574 0.53423c0.22315 0.29382 0.4945 0.76289 0.60302 1.0424l0.1973 0.50814 0.0388 0.8791 0.0389 0.87912-0.0994 0.47888c-0.0547 0.26337-0.2097 0.71188-0.3445 0.99668-0.1348 0.28479-0.44341 0.73373-0.6858 0.99765s-0.65104 0.60579-0.90809 0.75971-0.70136 0.34041-0.98737 0.41443c-0.28599 0.074-0.79639 0.13244-1.1342 0.12986zm0.0489-0.43239c0.26875 2.7e-4 0.6221-0.045 0.78521-0.10099 0.16312-0.056 0.44588-0.19524 0.62837-0.30938 0.1825-0.11415 0.45732-0.38513 0.61072-0.60219 0.15341-0.21706 0.35183-0.59804 0.44092-0.84663l0.16201-0.45198 0.0914-2.3118-0.10652-0.54146c-0.0586-0.2978-0.1818-0.74265-0.2738-0.98857-0.092-0.24591-0.31203-0.6162-0.48892-0.82286l-0.32163-0.37574-0.88216-0.41079-1.2308-0.00196-0.46089 0.22968-0.46092 0.22967-0.29655 0.40286c-0.16312 0.22157-0.37753 0.61543-0.47647 0.87526-0.0989 0.25982-0.22298 0.86835-0.27564 1.3523l-0.0958 0.87993 0.13058 0.87245 0.13056 0.87246 0.24169 0.51072c0.13294 0.28091 0.36422 0.65029 0.51398 0.82086 0.14977 0.17056 0.46888 0.40166 0.70916 0.51355l0.43686 0.20344 0.48865 1e-3zm25.881 0.41584-2.5083 0.0371v-0.27764h0.78522l0.17227-0.17227c0.0948-0.0947 0.19448-0.26161 0.22162-0.3708 0.0271-0.10918 0.038-1.6992 0.024-3.5333l-0.0253-3.3348-0.18653-0.18645-0.18654-0.18644-0.40238-0.0453c-0.22131-0.025-0.40237-0.0795-0.40237-0.12126v-0.0759l4.5804 6e-3 0.68556 0.12218c0.37706 0.0672 0.89491 0.22461 1.1508 0.3498l0.46523 0.22762 0.44556 0.48752c0.24506 0.26813 0.52243 0.63817 0.61636 0.82231 0.094 0.18414 0.22952 0.56018 0.30127 0.83565l0.13045 0.50084-2e-3 0.74507c-1e-3 0.40979-0.0418 0.91736-0.0904 1.1279-0.0485 0.21057-0.1924 0.60318-0.31968 0.87246l-0.23142 0.48961-0.44888 0.44921c-0.24689 0.24708-0.64191 0.54697-0.87782 0.66643-0.23592 0.11947-0.64487 0.28697-0.90879 0.37224l-0.47986 0.15503-2.5083 0.0371zm1.1996-0.42605c0.2879 5e-3 0.71921-0.0502 0.95845-0.12277 0.23925-0.0726 0.59119-0.23531 0.7821-0.36165s0.48027-0.37081 0.64302-0.54327c0.16274-0.17246 0.37625-0.47061 0.47447-0.66255 0.0982-0.19194 0.23099-0.54528 0.29508-0.78521 0.0641-0.23993 0.11654-0.78958 0.11654-1.2214s-0.0523-0.98152-0.11625-1.2214c-0.0639-0.23993-0.18707-0.57365-0.27363-0.74159-0.0866-0.16795-0.25327-0.43149-0.37044-0.58566-0.11719-0.15415-0.42149-0.41863-0.67622-0.58772-0.25476-0.16909-0.69133-0.36686-0.97019-0.43949-0.27885-0.0726-0.67349-0.13206-0.87698-0.13206-0.20348 0-0.5682 0.0425-0.8105 0.0945l-0.44053 0.0945v7.0491l0.1963 0.0419c0.10798 0.0231 0.27483 0.0585 0.3708 0.0788 0.096 0.0203 0.41006 0.041 0.69798 0.0461zm5.4529 0.44729h-1.3087v-0.23096l0.6526-0.1616 0.27378-0.41897c0.15058-0.23043 0.97455-2.0659 1.8311-4.0788 0.85649-2.0129 1.6014-3.6598 1.6554-3.6598 0.054 0 0.75668 1.5802 1.5615 3.5116s1.5524 3.6883 1.6611 3.9043 0.2779 0.46505 0.37589 0.55358c0.098 0.0885 0.32659 0.21202 0.50803 0.2744 0.18146 0.0624 0.34435 0.15679 0.36203 0.20981l0.0322 0.0964h-3.3299v-0.26174h0.1987c0.10928 0 0.29047-0.0643 0.4026-0.14282l0.20392-0.14282-0.0409-0.35884c-0.0225-0.19737-0.18905-0.70323-0.37015-1.1241l-0.32926-0.76529-3.216 0.0474-0.30304 0.69707c-0.16668 0.38339-0.34883 0.84987-0.40477 1.0366l-0.10173 0.33955 0.24024 0.20663 0.24022 0.20664h0.51374v0.26174zm2.7886-3.2281h1.3926l-0.28897-0.67616c-0.15893-0.37189-0.47607-1.1198-0.70473-1.6622-0.22865-0.5423-0.42625-0.97416-0.43906-0.95971-0.0128 0.0145-0.32239 0.7268-0.68791 1.583-0.36551 0.85618-0.66458 1.5923-0.66458 1.6359v0.0792zm8.0736 3.2281h-1.7886v-0.26174h0.35473c0.19509 0 0.42653-0.0384 0.5143-0.0854 0.0878-0.047 0.20297-0.20988 0.256-0.36201l0.0964-0.2766v-6.7792h-1.8527l-0.33553 0.33554-0.33554 0.33554-0.0579 0.36243-0.058 0.36243h-0.23943l1e-3 -0.50166c0-0.27592 0.0255-0.70779 0.0558-0.95971l0.055-0.45804h6.7809l1e-3 0.37079c0 0.20394 0.0257 0.63581 0.0562 0.95971l0.0556 0.58891h-0.26755l-0.0536-0.28355c-0.0295-0.15595-0.13286-0.41351-0.22974-0.57235l-0.17615-0.2888-0.6013-0.25124h-1.6633l4e-3 6.5871 0.0804 0.34665c0.0442 0.19066 0.14891 0.39677 0.23272 0.45804 0.0838 0.0613 0.3215 0.11139 0.52826 0.11139h0.37594v0.26174h-1.7886zm6.1945 0h-1.7886v-0.26174h0.76589l0.41194-0.33343 0.0494-6.9086-0.0972-0.18156c-0.0534-0.0999-0.23017-0.23714-0.39272-0.30505-0.16254-0.0679-0.39494-0.12349-0.51645-0.12349-0.1215 0-0.22091-0.0393-0.22091-0.0872v-0.0872h3.5771v0.0758c0 0.0417-0.16089 0.0973-0.35756 0.12372l-0.35756 0.048-0.41907 0.3937v7.0238l0.45975 0.36165h0.67444v0.26174zm-24.992-20.154c-0.0397 0-1.3033-1.4975-2.808-3.3278l-2.7358-3.3278-0.0252 2.6953c-0.0139 1.4824-3e-3 2.8218 0.0253 2.9763l0.0505 0.28104 0.38084 0.26676h0.74639v0.26174h-2.9664v-0.26174h0.35472c0.1951 0 0.42895-0.0397 0.51967-0.0883 0.0907-0.0486 0.20569-0.23504 0.25551-0.41442l0.0906-0.32614 5.3e-4 -3.0643 5.3e-4 -3.0643-0.38348-0.35347-0.38347-0.35347-0.33631-0.0934c-0.18497-0.0514-0.38538-0.0936-0.44536-0.0939-0.0601-2.6e-4 -0.10913-0.0397-0.10913-0.0877v-0.0872l2.312 4e-3 2.4842 3.0518c1.3663 1.6785 2.495 3.0518 2.5083 3.0518 0.0133 0 0.0242-1.2149 0.0242-2.6998v-2.6998l-0.19644-0.22838-0.19644-0.22837-0.37066-0.0497c-0.20386-0.0273-0.37066-0.0838-0.37066-0.12547v-0.0758h2.8791v0.0872c0 0.048-0.0687 0.0919-0.15268 0.0976-0.084 6e-3 -0.1844 5e-3 -0.22318-2e-3 -0.0388-7e-3 -0.2026 0.0507-0.36405 0.12727-0.16145 0.0766-0.32496 0.20497-0.36335 0.28524-0.0384 0.0803-0.0833 1.8832-0.0997 4.0066l-0.0299 3.8606h-0.0722zm26.741-0.0919-0.61419-5e-3 -0.47987-0.15485c-0.26391-0.0852-0.61499-0.22538-0.78015-0.31158s-0.51246-0.35738-0.77179-0.60264c-0.25931-0.24525-0.56569-0.60664-0.68081-0.80309s-0.28966-0.58961-0.38786-0.87369c-0.0982-0.28407-0.20182-0.81365-0.23024-1.1768l-0.0517-0.66033 0.10187-0.60473c0.056-0.33261 0.21916-0.84678 0.3625-1.1426 0.14336-0.29583 0.43342-0.73003 0.64459-0.9649 0.21116-0.23487 0.54264-0.53702 0.73663-0.67145 0.19398-0.13443 0.61549-0.33981 0.93667-0.4564l0.58401-0.21197 1.4993 5.2e-4 0.45688 0.13722c0.2513 0.0755 0.69976 0.30344 0.99661 0.50657l0.53972 0.36935 0.41251 0.53739c0.22689 0.29557 0.50129 0.76599 0.60975 1.0454l0.19725 0.50798 0.0388 0.8791 0.0388 0.87911-0.10222 0.49236c-0.0562 0.27079-0.22073 0.72953-0.36559 1.0194-0.14486 0.28988-0.45221 0.73276-0.68301 0.98418-0.23079 0.25141-0.62995 0.58305-0.88701 0.73697-0.25705 0.15392-0.70136 0.34041-0.98735 0.41442-0.28601 0.074-0.79639 0.13245-1.1342 0.12987zm0.0838-0.43903c0.28792-3e-3 0.64848-0.0519 0.80128-0.10821 0.15278-0.0563 0.45494-0.22772 0.67147-0.38087l0.3937-0.27846 0.2643-0.46276c0.14535-0.25452 0.32412-0.72588 0.39727-1.0475l0.13299-0.5847-4e-3 -1.885-0.12892-0.60861c-0.0709-0.33474-0.23511-0.81851-0.36491-1.075-0.12979-0.25654-0.37337-0.58706-0.54129-0.73449-0.16791-0.14743-0.47891-0.34485-0.69109-0.43871l-0.38581-0.17066-1.3449 0.0612-0.42648 0.26368c-0.23457 0.14502-0.53483 0.41985-0.66725 0.61072-0.13242 0.19088-0.3194 0.55249-0.41553 0.80358-0.0961 0.25109-0.22198 0.81114-0.27968 1.2446l-0.10492 0.78802 0.20336 1.7332 0.22519 0.5625c0.12385 0.30938 0.3677 0.72901 0.54188 0.9325l0.31671 0.37 0.88216 0.41078 0.52348-6e-3zm-85.981 0.35648h-2.6174v-0.34899h0.93391l0.29518-0.19892c0.16235-0.10941 0.34425-0.2959 0.40422-0.41442l0.10904-0.2155 2e-3 -10.339h-2.4485l-0.28605 0.11952c-0.15732 0.0657-0.42458 0.28137-0.59391 0.47919s-0.35343 0.51176-0.40912 0.69763c-0.0557 0.18588-0.10126 0.44137-0.10126 0.56776v0.22981h-0.41061l0.0294-0.41442c0.0162-0.22793 0.0535-0.87573 0.083-1.4396l0.0537-1.0251h10.103l3.2e-4 0.58891c2.6e-4 0.3239 0.0258 0.9717 0.0568 1.4396l0.0563 0.85065h-0.3753v-0.11504c0-0.0633-0.0606-0.31901-0.13461-0.56833l-0.13461-0.45329-0.27906-0.31783c-0.15348-0.1748-0.43643-0.38932-0.62879-0.47671l-0.34973-0.15888-2.4954-4e-3 0.0526 10.339 0.13087 0.25291c0.072 0.13911 0.26767 0.32559 0.43487 0.41442l0.304 0.16151h0.83156v0.34898h-2.6174zm7.634 0h-1.7885v-0.26174h0.76588l0.41194-0.33344 0.0494-6.9086-0.0972-0.18156c-0.0534-0.0999-0.23016-0.23713-0.3927-0.30505-0.16255-0.0679-0.39495-0.12348-0.51646-0.12348-0.1215 0-0.22091-0.0393-0.22091-0.0873v-0.0872h3.5771v0.0761c0 0.0419-0.16642 0.10271-0.36982 0.13523l-0.36981 0.0591-0.39457 0.37067v3.1977h3.8496l-0.0544-3.2439-0.20006-0.16182c-0.11004-0.089-0.37505-0.18807-0.58892-0.22014-0.21386-0.0321-0.38884-0.0931-0.38884-0.13565v-0.0773h3.5771v0.0773c0 0.0425-0.1795 0.10425-0.39889 0.13715l-0.3989 0.0598-0.32206 0.32206-0.058 0.46522c-0.0319 0.25587-0.045 1.833-0.029 3.5046l0.0291 3.0394 0.48958 0.42096h0.68824v0.26174h-3.5771v-0.26174h0.35472c0.1951 0 0.42653-0.0384 0.5143-0.0854 0.0878-0.047 0.20297-0.20987 0.256-0.362l0.0964-0.2766v-3.0276h-3.8388v3.3899l0.22988 0.18082 0.22988 0.18083h0.67444v0.26174zm11.451-6.6e-4 -3.2063 6.6e-4v-0.26174h0.68824l0.48958-0.421v-3.3448c0-1.8396-0.0308-3.4553-0.0685-3.5905l-0.0686-0.24567-0.29945-0.12512c-0.1647-0.0688-0.39887-0.12512-0.52037-0.12512s-0.22092-0.0397-0.22092-0.0883v-0.0883l6.4126 0.0458 0.05 1.8052-0.10367-0.0346c-0.057-0.019-0.14996-0.21686-0.20653-0.43968-0.0566-0.22282-0.15857-0.47229-0.22665-0.55438-0.0681-0.0821-0.25012-0.20206-0.40453-0.2666l-0.28076-0.11736h-2.8847v3.2281h2.5436l0.49722-0.49722 0.0597-0.31849 0.0598-0.31849h0.24231v2.8791h-0.25968l-0.0574-0.35893c-0.0316-0.19741-0.14632-0.46242-0.255-0.58891l-0.19761-0.22998-2.6329-0.0562v3.2946l0.12404 0.16936 0.12404 0.16935h2.7619l0.7543-0.43188 0.39295-0.59109c0.21613-0.32509 0.44541-0.59108 0.50952-0.59108h0.11656l-0.36319 1.0462-0.36318 1.0462-3.2063 6.6e-4zm12.389-0.0226-3.9043 0.0374v-0.36301h0.88972l0.30326-0.14391c0.1668-0.0792 0.36903-0.24428 0.44941-0.36694l0.14615-0.22303v-10.136l-0.15268-0.23305c-0.084-0.12817-0.24102-0.28254-0.34898-0.34304s-0.43149-0.13058-0.71895-0.15575l-0.52264-0.0457-0.0604-0.3174 7.3002 0.0666 0.52348 0.14989c0.28791 0.0824 0.72097 0.24552 0.96236 0.3624 0.24139 0.11687 0.6029 0.35289 0.80337 0.52448l0.36448 0.31198 0.28721 0.58397 0.2872 0.58396v1.3985l-0.49048 0.99884-0.3474 0.29736c-0.19107 0.16355-0.53939 0.38851-0.77403 0.49992-0.23466 0.1114-0.40734 0.23379-0.38374 0.27198 0.0236 0.0382 0.10931 0.0695 0.19045 0.0695 0.0811 4e-5 0.38584 0.11281 0.67709 0.2506 0.29127 0.13779 0.67255 0.37607 0.84731 0.5295 0.17476 0.15344 0.39689 0.40705 0.49362 0.56357 0.0967 0.15652 0.23762 0.52551 0.31305 0.81998l0.13716 0.5354-0.0984 0.54254c-0.0541 0.29841-0.19588 0.73495-0.31503 0.9701-0.11916 0.23515-0.38749 0.59839-0.5963 0.80719-0.20879 0.2088-0.57862 0.48047-0.82183 0.60371s-0.68832 0.28866-0.98915 0.3676l-0.54696 0.14354zm2.1157-0.65118c0.35989-0.025 0.90655-0.12268 1.2148-0.21711l0.56046-0.17169 0.97982-0.98695 0.10564-0.35911c0.0581-0.19751 0.10564-0.5733 0.10564-0.83511 0-0.2618-0.0618-0.65749-0.13742-0.8793-0.0756-0.22183-0.29291-0.57996-0.48296-0.79586l-0.34553-0.39255-0.45645-0.22333c-0.25107-0.12283-0.73061-0.28139-1.0657-0.35236l-0.6092-0.12905-0.95971-3.2e-4c-0.52785-1.7e-4 -1.048 0.0233-1.156 0.0523l-0.19631 0.0526v5.0261l0.27677 0.0608c0.15222 0.0334 0.55464 0.0913 0.89426 0.1286 0.33963 0.0373 0.91196 0.0474 1.2719 0.0224zm-0.87245-5.9721c0.31189 7e-3 0.83767-0.0266 1.1684-0.0744 0.33071-0.0478 0.78173-0.16673 1.0022-0.26428 0.22052-0.0975 0.4935-0.26377 0.60664-0.36939 0.11312-0.10563 0.30626-0.36305 0.42919-0.57206l0.22351-0.38002 0.0804-1.2536-0.19418-0.45137-0.19417-0.45137-0.40946-0.38299-0.40945-0.383-1.0381-0.41112-1.1778-4e-3c-0.64781-2e-3 -1.2864 0.0268-1.4192 0.0639l-0.24132 0.0675 0.0464 4.7509 0.47985 0.0512c0.26392 0.0282 0.73505 0.0568 1.047 0.0637zm7.5468 6.6466h-1.7885v-0.26173h0.76588l0.20597-0.16679 0.20598-0.16678v-7.064l-0.16496-0.18228-0.16496-0.18227-0.42395-0.0562c-0.23318-0.0309-0.42396-0.0937-0.42396-0.13954v-0.0833l4.7549 0.0592 0.43622 0.20013c0.23993 0.11008 0.58516 0.34525 0.7672 0.5226l0.33094 0.32246 0.13574 0.46688 0.13572 0.46688-0.0549 0.36236c-0.0302 0.19931-0.14228 0.51759-0.24908 0.7073-0.10679 0.18971-0.35653 0.46875-0.55493 0.62009-0.19843 0.15133-0.54255 0.32883-0.76474 0.39443l-0.40395 0.11928 0.0403 0.10503c0.0222 0.0578 0.45866 0.68694 0.96999 1.3982 0.51133 0.71123 1.0535 1.4255 1.2048 1.5874 0.1513 0.16183 0.47139 0.38719 0.71132 0.50081s0.52456 0.20697 0.63253 0.20743l0.1963 9.8e-4v0.26174l-2.2248-4e-3 -1.3523-1.8807c-0.74379-1.0344-1.3916-1.9105-1.4396-1.9469-0.048-0.0364-0.2541-0.0486-0.45803-0.0271l-0.37079 0.0391v3.1305l0.42828 0.42829h0.7059v0.26174h-1.7885zm1.063-4.2751c0.22478 0 0.64421-0.0661 0.93207-0.14685l0.52338-0.14685 0.32733-0.32734 0.32733-0.32733 0.0924-0.33284c0.0508-0.18306 0.0918-0.47025 0.091-0.6382-5.3e-4 -0.16795-0.0739-0.4624-0.16249-0.65435-0.0886-0.19194-0.25511-0.43544-0.37007-0.54112s-0.35444-0.2529-0.53219-0.32717c-0.17775-0.0743-0.47167-0.1346-0.65315-0.13407-0.18148 6.6e-4 -0.4772 0.0253-0.65714 0.055l-0.32718 0.0541v3.467zm7.7924 4.2751h-1.7449v-0.26173h0.67863l0.20597-0.16672 0.20598-0.16672 0.0494-6.9974-0.43008-0.43008-0.35493-0.0568c-0.19522-0.0312-0.35493-0.091-0.35493-0.13285v-0.0761h3.4898v0.0757c0 0.0417-0.1668 0.0981-0.37066 0.12548l-0.37066 0.0497-0.19644 0.22838-0.19644 0.22837v6.8634l0.15612 0.19281 0.15613 0.1928 0.82195 0.0926v0.23904zm43.453-0.0232-0.48445 0.029-0.28807-0.14688c-0.15845-0.0808-0.3473-0.26137-0.41965-0.40131-0.0724-0.13995-0.11942-0.35592-0.10454-0.47995l0.027-0.22551 0.23974-0.17821 0.23975-0.17821 0.24011 0.0841 0.24009 0.0841 0.22466 0.41478c0.12355 0.22813 0.26683 0.45697 0.31839 0.50853 0.0516 0.0516 0.17026 0.0695 0.26377 0.0398 0.0935-0.0297 0.21525-0.15321 0.27053-0.27451l0.10048-0.22054v-6.6111l-0.0867-0.22801-0.0867-0.22802-0.30311-0.12664c-0.16671-0.0697-0.40251-0.12665-0.52403-0.12665-0.1215 0-0.22092-0.0393-0.22092-0.0873v-0.0872h3.5771v0.0872c0 0.048-0.0994 0.0873-0.2209 0.0873-0.12151 0-0.35569 0.0563-0.52038 0.12512l-0.29945 0.12512-0.0431 0.20205c-0.0237 0.11113-0.0595 1.4584-0.0795 2.9939l-0.0363 2.7919-0.144 0.45419c-0.0792 0.24981-0.27059 0.61933-0.42531 0.82116s-0.43629 0.447-0.62571 0.54482l-0.34439 0.17785zm8.5019-6e-3 -0.87247 0.0282-0.45978-0.12917c-0.25288-0.0711-0.58658-0.19356-0.74159-0.27225-0.155-0.0787-0.4494-0.27883-0.65423-0.44474s-0.52646-0.52851-0.71472-0.80576c-0.1883-0.27726-0.42839-0.75498-0.53357-1.0616l-0.19123-0.5575-7e-3 -0.91608-7e-3 -0.91609 0.16208-0.47985c0.0891-0.26392 0.25809-0.67156 0.37546-0.90586 0.11736-0.2343 0.39063-0.61548 0.60724-0.84706 0.21662-0.23159 0.58637-0.5446 0.82166-0.69559 0.2353-0.15098 0.6724-0.35064 0.97132-0.44368l0.5435-0.16915 1.3119 5.2e-4 0.47986 0.14397c0.26393 0.0792 0.59205 0.20178 0.72917 0.27245l0.24933 0.12849 0.39534-0.0992 0.10888-0.26285c0.0599-0.14457 0.15796-0.26285 0.21794-0.26285h0.10906l0.0575 0.98152c0.0316 0.53984 0.0805 1.1876 0.10853 1.4396l0.051 0.45804h-0.14092c-0.0775 0-0.14092-0.0536-0.14092-0.11914 0-0.0655-0.13979-0.39857-0.31063-0.74008l-0.31064-0.62092-0.36553-0.29742c-0.20103-0.16358-0.55337-0.36056-0.78297-0.43775l-0.41748-0.14033h-1.1216l-0.94997 0.35543-0.36494 0.39592c-0.20072 0.21775-0.46294 0.60998-0.58273 0.87162-0.11978 0.26164-0.27634 0.79854-0.34791 1.1931l-0.13013 0.7174 0.0483 0.74747c0.0265 0.41111 0.1271 1 0.22342 1.3087l0.17514 0.56122 0.66379 0.87246 1.1972 0.61072 1.5881-0.00132 0.461-0.2076 0.46101-0.2076 0.55431-0.59871c0.3048-0.32935 0.59895-0.59877 0.65357-0.59877h0.0993l-0.14531 0.28101c-0.0799 0.15456-0.36322 0.50946-0.62955 0.78867l-0.48422 0.50766-1.1447 0.54676-0.87246 0.0282zm5.7146 0.0289h-1.7449v-0.26172h0.7059l0.21416-0.21415 0.21414-0.21415v-6.9083l-0.21215-0.21217-0.21218-0.21216-0.35492-0.0568c-0.19522-0.0312-0.35495-0.091-0.35495-0.13285v-0.0761h3.4898v0.0757c0 0.0417-0.1668 0.0981-0.37065 0.12548l-0.37066 0.0497-0.19644 0.22838-0.19644 0.22837v6.8634l0.15612 0.19281 0.15612 0.1928 0.82195 0.0926v0.23904zm6.6743-0.0289-0.87247 0.0282-0.45978-0.12917c-0.25287-0.0711-0.58658-0.19356-0.74159-0.27225-0.15499-0.0787-0.4494-0.27883-0.65421-0.44474-0.20483-0.16591-0.52648-0.52851-0.71474-0.80576-0.1883-0.27726-0.42839-0.75498-0.53357-1.0616l-0.19123-0.5575-7e-3 -0.91608-7e-3 -0.91609 0.16208-0.47985c0.0891-0.26392 0.2581-0.67156 0.37546-0.90586 0.11737-0.2343 0.39063-0.61548 0.60724-0.84706 0.21663-0.23159 0.58637-0.5446 0.82166-0.69559 0.2353-0.15098 0.67239-0.35064 0.97132-0.44368l0.5435-0.16915 1.3119 5.2e-4 0.47985 0.14397c0.26392 0.0792 0.59205 0.20178 0.72918 0.27245l0.24932 0.12849 0.19767-0.0496 0.19768-0.0496 0.10887-0.26285c0.0599-0.14457 0.15796-0.26285 0.21794-0.26285h0.10906l0.0575 0.98152c0.0316 0.53984 0.0805 1.1876 0.10852 1.4396l0.051 0.45804h-0.14092c-0.0775 0-0.14092-0.0536-0.14092-0.11914 0-0.0655-0.13978-0.39857-0.31064-0.74008l-0.31063-0.62092-0.36552-0.29742c-0.20104-0.16358-0.55338-0.36056-0.78299-0.43775l-0.41747-0.14033h-1.1216l-0.94996 0.35543-0.36495 0.39592c-0.20072 0.21775-0.46294 0.60998-0.58272 0.87162-0.11979 0.26164-0.27635 0.79854-0.34792 1.1931l-0.13013 0.7174 0.0483 0.74747c0.0265 0.41111 0.1271 1 0.22342 1.3087l0.17514 0.56122 0.66379 0.87246 0.59862 0.30536 0.59861 0.30536 1.5881-0.00132 0.92199-0.4152 0.55432-0.59871c0.30481-0.32935 0.59895-0.59877 0.65357-0.59877h0.0993l-0.14532 0.28101c-0.0799 0.15456-0.36322 0.50946-0.62953 0.78867l-0.48423 0.50766-0.57233 0.27338-0.57234 0.27338-0.87246 0.0282zm5.2348 0.0289h-1.7886v-0.26172h0.76589l0.41194-0.33344 0.0494-6.9086-0.0972-0.18156c-0.0534-0.0999-0.23017-0.23713-0.39272-0.30505-0.16253-0.0679-0.39494-0.12348-0.51645-0.12348-0.1215 0-0.22092-0.0393-0.22092-0.0872v-0.0872h3.5771v0.0773c0 0.0425-0.17092 0.10298-0.37984 0.1343-0.20891 0.0313-0.4641 0.13547-0.5671 0.23143l-0.18726 0.17446v3.3277l0.85065-0.78602c0.46786-0.43232 1.1524-1.097 1.5212-1.477l0.67053-0.69095 0.0587-0.23373c0.0322-0.12854 0.0369-0.29053 0.0102-0.35997-0.0266-0.0694-0.18792-0.15242-0.35839-0.1844-0.17047-0.032-0.30995-0.093-0.30995-0.13568v-0.0775h3.0682l-0.0362 0.10874c-0.0199 0.0598-0.17044 0.13117-0.33444 0.15858-0.16402 0.0274-0.41598 0.11208-0.55994 0.18817-0.14395 0.0761-0.53656 0.38751-0.87246 0.69207-0.3359 0.30455-1.0424 0.99711-1.5699 1.539l-0.95921 0.98529 1.9625 1.9441 1.9625 1.9441 0.43078 0.19777c0.23694 0.10878 0.56084 0.21888 0.71978 0.24468l0.289 0.0469v0.23891h-3.9261v-0.26173h0.20067c0.11036 0 0.24778-0.0471 0.30536-0.1047 0.0576-0.0576 0.1047-0.21078 0.1047-0.34043v-0.23574l-1.5922-1.5461-1.5922-1.5461-0.0248 1.6902-0.0247 1.6902 0.22591 0.1963 0.22592 0.19631h0.68824v0.26173h-1.7885zm9.03 0h-1.7449v-0.26172h0.7059l0.21414-0.21415 0.21416-0.21415v-6.9083l-0.21217-0.21217-0.21218-0.21216-0.35492-0.0568c-0.19522-0.0312-0.35493-0.091-0.35493-0.13285v-0.0761h3.4898v0.0757c0 0.0417-0.16678 0.0981-0.37065 0.12548l-0.37067 0.0497-0.19643 0.22838-0.19643 0.22837v6.8634l0.15612 0.19281 0.15612 0.1928 0.41098 0.0463 0.41096 0.0463v0.23904zm-57.562-0.10444-0.17296 0.0264-0.0612-0.15729c-0.0337-0.0865-0.89886-2.4933-1.9226-5.3484s-1.9436-5.4096-2.044-5.6767-0.29731-0.59546-0.43749-0.72975l-0.25486-0.24417-0.79847-0.09v-0.32628h4.5368v0.34899h-0.71138l-0.26426 0.26426-0.26427 0.26426 0.0545 0.32465c0.03 0.17855 0.67192 2.0849 1.4265 4.2363l1.3719 3.9116 0.11936-0.29092c0.0657-0.16001 0.53027-1.4639 1.0325-2.8976l0.91313-2.6066-0.36644-1.0356c-0.20154-0.56956-0.47862-1.2125-0.61576-1.4287-0.13712-0.21622-0.37771-0.47141-0.53465-0.5671-0.15696-0.0957-0.41296-0.17413-0.56891-0.17431l-0.28356-3.2e-4v-0.34899h4.7986v0.34899h-0.88079l-0.2235 0.23992-0.22349 0.23993 0.1026 0.9926 0.75057 2.1211c0.4128 1.1666 1.0114 2.8623 1.3303 3.7683l0.57972 1.6472 0.12173-0.29488c0.067-0.16218 0.63196-1.7672 1.2556-3.5666 0.62361-1.7994 1.1877-3.468 1.2535-3.708 0.0658-0.23993 0.12008-0.54201 0.12065-0.6713l1e-3 -0.23506-0.19788-0.23004-0.19795-0.23005-0.95424-0.1168-0.0293-0.15268-0.0294-0.15268h3.7644v0.34899h-0.22093c-0.12151 0-0.34759 0.0529-0.50243 0.11762l-0.28152 0.11762-0.2332 0.34042c-0.12827 0.18723-0.5128 1.1453-0.85452 2.129s-1.2179 3.516-1.9472 5.6274l-1.3259 3.8388h-0.41411l-1.3659-3.8123c-0.75125-2.0968-1.3844-3.8307-1.407-3.8533-0.0226-0.0225-0.65515 1.693-1.4056 3.8123l-1.3645 3.8533-0.17298 0.0264z" fill="#fff" stroke-width=".087246"/>
 </g>
</svg>
