<?xml version="1.0" encoding="UTF-8"?>
<!-- Created with Inkscape (http://www.inkscape.org/) -->
<svg width="68.837mm" height="22.442mm" version="1.1" viewBox="0 0 68.837 22.442" xmlns="http://www.w3.org/2000/svg" xmlns:cc="http://creativecommons.org/ns#" xmlns:dc="http://purl.org/dc/elements/1.1/" xmlns:rdf="http://www.w3.org/1999/02/22-rdf-syntax-ns#">
 <metadata>
  <rdf:RDF>
   <cc:Work rdf:about="">
    <dc:format>image/svg+xml</dc:format>
    <dc:type rdf:resource="http://purl.org/dc/dcmitype/StillImage"/>
    <dc:title/>
   </cc:Work>
  </rdf:RDF>
 </metadata>
 <g transform="translate(-105.91 -61.672)">
  <path d="m114.78 71.998v-2.3778h7.9618c0.0813 0.41882 0.12855 0.91809 0.12855 1.458 0 1.7831-0.48848 3.9917-2.0593 5.5625-1.5285 1.5924-3.4824 2.4416-6.0725 2.4416-4.7986 8.29e-4 -8.8326-3.9062-8.8326-8.7049 0-4.7986 4.034-8.7049 8.8326-8.7049 2.6539 0 4.544 1.04 5.9664 2.3993l-1.677 1.677c-1.0193-0.95541-2.3993-1.6985-4.2886-1.6985-3.5032 0-6.2425 2.8239-6.2425 6.3271 0 3.5032 2.7393 6.3271 6.2425 6.3271 2.2716 0 3.567-0.91312 4.3947-1.7408 0.6751-0.67426 1.1188-1.6421 1.2913-2.9658zm20.223 1.4796c0 3.227-2.5262 5.6056-5.6263 5.6056s-5.6263-2.3778-5.6263-5.6056c0-3.2486 2.5262-5.6056 5.6263-5.6056s5.6263 2.357 5.6263 5.6056zm-2.4624 0c0-2.017-1.4646-3.397-3.1632-3.397s-3.164 1.38-3.164 3.397c0 1.9954 1.4646 3.397 3.164 3.397 1.6977 0 3.1632-1.4016 3.1632-3.397zm14.737 0c0 3.227-2.5262 5.6056-5.6263 5.6056s-5.6263-2.3778-5.6263-5.6056c0-3.2486 2.5262-5.6056 5.6263-5.6056s5.6263 2.357 5.6263 5.6056zm-2.4624 0c0-2.017-1.4646-3.397-3.1632-3.397s-3.164 1.38-3.164 3.397c0 1.9954 1.4646 3.397 3.164 3.397 1.6977 0 3.1632-1.4016 3.1632-3.397zm14.228-5.2656v10.064c0 4.1401-2.4416 5.8386-5.3294 5.8386-2.7178 0-4.3524-1.8262-4.9686-3.3124l2.1447-0.89155c0.38233 0.91312 1.3162 1.9963 2.824 1.9963 1.847 0 2.994-1.147 2.994-3.2909v-0.80696h-0.0846c-0.55235 0.67924-1.6139 1.2739-2.9517 1.2739-2.8024 0-5.3717-2.4416-5.3717-5.584 0-3.164 2.5693-5.6263 5.3717-5.6263 1.3378 0 2.3993 0.59464 2.9517 1.2532h0.0846v-0.91395zm-2.1654 5.2871c0-1.9747-1.3162-3.4186-2.994-3.4186-1.6985 0-3.1208 1.4439-3.1208 3.4186 0 1.9531 1.4223 3.3763 3.1208 3.3763 1.677-8.2e-4 2.994-1.4232 2.994-3.3763zm6.3371-11.177v16.421h-2.4632v-16.421zm9.511 13.003 1.9108 1.2739c-0.61621 0.91312-2.1024 2.4839-4.6709 2.4839-3.1847 0-5.5625-2.4632-5.5625-5.6056 0-3.334 2.3993-5.6056 5.2871-5.6056 2.9085 0 4.3317 2.3147 4.7986 3.567l0.25461 0.63694-7.4949 3.1001c0.57308 1.1254 1.4655 1.6985 2.7178 1.6985 1.2515 8.2e-4 2.1223-0.61455 2.7593-1.5492zm-5.8818-2.017 5.011-2.0808c-0.27618-0.7008-1.1039-1.1893-2.0808-1.1893-1.2523 8.2e-4 -2.9931 1.1047-2.9301 3.2701z" fill="#fff" stroke-width=".082935"/>
 </g>
</svg>
