<?xml version="1.0" encoding="UTF-8"?>
<!-- Created with Inkscape (http://www.inkscape.org/) -->
<svg width="1258.1" height="464.19" version="1.1" viewBox="0 0 332.87 122.82" xmlns="http://www.w3.org/2000/svg" xmlns:cc="http://creativecommons.org/ns#" xmlns:dc="http://purl.org/dc/elements/1.1/" xmlns:rdf="http://www.w3.org/1999/02/22-rdf-syntax-ns#">
 <metadata>
  <rdf:RDF>
   <cc:Work rdf:about="">
    <dc:format>image/svg+xml</dc:format>
    <dc:type rdf:resource="http://purl.org/dc/dcmitype/StillImage"/>
    <dc:title/>
   </cc:Work>
  </rdf:RDF>
 </metadata>
 <g transform="translate(-205.02 -347.97)">
  <g transform="matrix(.43479 0 0 -.43479 -348.65 285.58)">
   <g transform="matrix(.18903 0 0 .18903 1188.4 -511.04)">
    <g fill="#00a7e1">
     <path d="m1608.6 454.3h-51.07v315.03h177.77v-43.531h-126.7v-98.481h118.73v-43.738h-118.73v-129.28"/>
     <path d="m1839.1 612.25c0-38.789 7.83-68.211 23.49-88.25 15.65-20.039 38.85-30.059 69.6-30.059 30.6 0 53.69 9.918 69.27 29.739 15.59 19.832 23.38 49.351 23.38 88.57 0 38.641-7.71 67.941-23.16 87.91s-38.46 29.949-69.06 29.949c-30.88 0-54.19-9.98-69.93-29.949-15.72-19.969-23.59-49.269-23.59-87.91zm240.47 0c0-51.289-12.81-91.16-38.46-119.59-25.64-28.449-61.95-42.672-108.92-42.672-47.55 0-84.08 14.114-109.57 42.332-25.51 28.239-38.25 68.352-38.25 120.36 0 52 12.82 91.929 38.46 119.8 25.65 27.872 62.24 41.809 109.79 41.809 46.83 0 83.02-14.16 108.6-42.449 25.58-28.309 38.35-68.168 38.35-119.59"/>
     <path d="m2401.3 769.33v-203.84c0-23.269-4.99-43.636-14.97-61.097-10-17.45-24.43-30.879-43.32-40.289-18.89-9.411-41.49-14.114-67.77-14.114-39.07 0-69.46 10.344-91.15 31.032-21.69 20.679-32.54 49.128-32.54 85.332v202.98h51.72v-199.32c0-26.012 6.03-45.192 18.1-57.532 12.07-12.359 30.6-18.539 55.59-18.539 48.56 0 72.84 25.5 72.84 76.5v198.89h51.5"/>
     <path d="m2755.8 454.3h-63.14l-154.93 251.03h-1.72l1.08-14.004c2-26.726 3.01-51.137 3.01-73.269v-163.76h-46.76v315.03h62.49l154.5-249.74h1.29c-0.29 3.301-0.86 15.332-1.72 36.09-0.86 20.761-1.3 36.961-1.3 48.59v165.06h47.2v-315.03"/>
     <path d="m3054.5 613.11c0 75.411-35.26 113.12-105.8 113.12h-44.6v-228.62h36.63c75.85 0 113.77 38.493 113.77 115.5zm54.31 1.711c0-52-14.44-91.75-43.31-119.26-28.87-27.508-70.47-41.258-124.77-41.258h-88.12v315.03h97.39c50.13 0 89.13-13.512 117-40.512 27.87-27.011 41.81-65.011 41.81-114"/>
     <path d="m3334 586.17-29.52 85.758c-2.15 5.75-5.13 14.8-8.93 27.152-3.81 12.359-6.44 21.406-7.87 27.148-3.88-17.671-9.55-36.992-17.02-57.96l-28.45-82.098zm45.04-131.87-31.46 87.48h-120.45l-30.82-87.48h-54.3l117.87 316.31h56.02l117.87-316.31h-54.73"/>
     <path d="m3591.2 454.3h-51.49v270.86h-92.66v44.172h236.81v-44.172h-92.66v-270.86"/>
     <path d="m3739.2 454.3v315.03h51.5v-315.03h-51.5"/>
     <path d="m3922.3 612.25c0-38.789 7.84-68.211 23.5-88.25 15.64-20.039 38.85-30.059 69.59-30.059 30.61 0 53.69 9.918 69.28 29.739 15.58 19.832 23.38 49.351 23.38 88.57 0 38.641-7.72 67.941-23.17 87.91-15.44 19.969-38.46 29.949-69.05 29.949-30.89 0-54.19-9.98-69.93-29.949-15.73-19.969-23.6-49.269-23.6-87.91zm240.48 0c0-51.289-12.82-91.16-38.46-119.59-25.64-28.449-61.95-42.672-108.93-42.672-47.54 0-84.06 14.114-109.57 42.332-25.5 28.239-38.24 68.352-38.24 120.36 0 52 12.82 91.929 38.45 119.8 25.65 27.872 62.25 41.809 109.8 41.809 46.83 0 83.03-14.16 108.6-42.449 25.57-28.309 38.35-68.168 38.35-119.59"/>
     <path d="m4500 454.3h-63.13l-154.94 251.03h-1.72l1.08-14.004c2.01-26.726 3.01-51.137 3.01-73.269v-163.76h-46.76v315.03h62.5l154.49-249.74h1.29c-0.28 3.301-0.86 15.332-1.72 36.09-0.86 20.761-1.29 36.961-1.29 48.59v165.06h47.19v-315.03"/>
    </g>
    <g fill="#41007f">
     <path d="m2494.2 1044.3 377.88 810.36c5.41 11.61 15.92 12.86 20.18 12.86s14.77-1.25 20.18-12.86l377.88-810.36h84.72l-393.01 842.82c-16.45 35.27-50.85 57.18-89.77 57.18s-73.31-21.91-89.77-57.18l-393.01-842.82h84.72"/>
     <path d="m1656.7 1120.8c-12.8 0-23.21 10.41-23.21 23.2v800.26h-76.53v-800.26c0-54.99 44.74-99.73 99.74-99.73h606.73v76.53h-606.73"/>
     <path d="m1262 1044.3h97.12l-381.15 487.84 322.01 412.15h-97.12l-638.82-817.67c-8.313-10.64-19.098-8.37-23.352-6.91-4.25 1.46-14.141 6.33-14.141 19.82v804.76h-76.527v-804.76c0-42.25 25.813-78.43 65.754-92.19 10.726-3.69 21.644-5.47 32.383-5.47 29.25 0 57.16 13.29 76.187 37.63l305.07 390.49 332.58-425.69"/>
    </g>
    <path d="m3600 1944.3v-900h900v900h-900" fill="#00a7e1"/>
    <path d="m4432.5 1536.8h-340v340h-85v-340h-340v-85h340v-340h85v340h340v85" fill="#fff"/>
   </g>
  </g>
 </g>
</svg>
