<?xml version="1.0" encoding="UTF-8"?>
<!-- Created with Inkscape (http://www.inkscape.org/) -->
<svg width="2164.2" height="521.75" version="1.1" viewBox="0 0 572.62 138.05" xmlns="http://www.w3.org/2000/svg" xmlns:cc="http://creativecommons.org/ns#" xmlns:dc="http://purl.org/dc/elements/1.1/" xmlns:rdf="http://www.w3.org/1999/02/22-rdf-syntax-ns#">
 <metadata>
  <rdf:RDF>
   <cc:Work rdf:about="">
    <dc:format>image/svg+xml</dc:format>
    <dc:type rdf:resource="http://purl.org/dc/dcmitype/StillImage"/>
    <dc:title/>
   </cc:Work>
  </rdf:RDF>
 </metadata>
 <g transform="translate(-71.114 25.803)">
  <g transform="matrix(.43479 0 0 -.43479 -348.65 285.58)">
   <g transform="matrix(.36634 0 0 .36634 965.44 398.65)" fill="#003e69">
    <path d="m1784.6 424.41-46.3-98.215h-41.89l-4.45 98.215h-1.6l-20.38-98.215h-43.91l30.53 146.93h72.36l1.11-84.453h1.82l35.8 84.453h74.42l-30.46-146.93h-46.41l21.24 98.215h-1.88"/>
    <path d="m1944.9 473.12h66.97l10.32-146.93h-48.07l-0.62 26.008h-43.04l-11.72-26.008h-45.14zm29.07-90.273-2.78 55.644h-1.71l-27.06-55.644h31.55"/>
    <path d="m2314.2 438.47h-32.18l7.19 34.656h112.38l-7.19-34.656h-32.2l-23.35-112.28h-48.06l23.41 112.28"/>
    <path d="m2593.2 473.12h65.15l14.33-87.715h1.4l18.25 87.715h45.62l-30.56-146.93h-65.06l-12.27 89.836h-1.62l-18.7-89.836h-47.09l30.55 146.93"/>
    <path d="m2117.9 473.12h70.88c34.59 0 46.85-19.219 46.85-37.488 0-27.696-23.34-35.766-34.89-37.883v-2.059c14.05-1.769 20.39-11.75 20.39-24.074 0-9.629-2.14-19.582-2.14-32.324 0-5.027 0.95-11.199 1.26-13.106h-51.37c-0.11 0.801-0.75 5.664-0.75 8.516 0 12.332 3.38 20.977 3.38 34.445 0 6.192-2.47 12.129-12.25 12.129h-12.41l-11.35-55.09h-48.18zm47.64-61.211c13.59 0 19.38 6.738 19.38 15.645 0 7.238-4.2 10.91-14.02 10.91h-12.07l-5.53-26.555h12.24"/>
    <path d="m2462.5 473.12h48.04l-30.53-146.93h-48.08l30.57 146.93"/>
    <path d="m30.594 473.12h48.008l-23.32-112.27h47.008l-6.8632-34.668h-95.426l30.594 146.93"/>
    <path d="m586.38 473.12h48.019l-13.136-63.164h1.234l42.559 63.164h51.152l-53.078-69.336 26.551-77.598h-51.129l-19.93 65.274h-1.199l-13.555-65.274h-48.086l30.598 146.93"/>
    <path d="m835.5 381.29h-28.649l-11.46-55.098h-48.051l30.57 146.93h48.043l-11.477-55.117h28.68l11.465 55.117h48.031l-30.551-146.93h-48.066l11.465 55.098"/>
    <path d="m1173.3 473.12h100.96l-7.21-34.676h-52.95l-4.49-21.633h47.99l-7.25-34.687h-47.95l-4.41-21.27h55.35l-7.27-34.668h-103.36l30.59 146.93"/>
    <path d="m989.18 473.12h100.97l-7.2-34.676h-52.96l-4.49-21.633h47.99l-7.25-34.687h-47.95l-4.42-21.27h55.36l-7.27-34.668h-103.36l30.578 146.93"/>
    <path d="m248.66 475.12c35.77 0 55.028-20.168 55.028-51.863 0-38.574-19.934-99.113-82.922-99.113-34.77 0-55.035 19.211-55.035 51.613 0 42.664 22.05 99.363 82.929 99.363m-22.773-114.26c21.074 0 30.062 52.508 30.062 64.61 0 6.554-2.961 12.91-12.429 12.91-21.762 0-30.121-53.484-30.121-64.5 0-10.5 6.695-13.02 12.488-13.02"/>
    <path d="m1365.8 473.12h54.4c46.4 0 65.59-25.965 65.59-54.707 0-54.59-34.37-92.227-92.03-92.227h-58.6zm24.58-112.27h14.01c19.49 0 33.03 25.684 33.03 57.414 0 11.426-5.15 20.176-22.33 20.176h-8.57l-16.14-77.59"/>
    <path d="m486.95 381.29c-8.031-39.519-37.031-57.129-70.761-57.129-35.543 0-54.961 20-54.961 51.629 0 37.016 18.836 99.34 82.996 99.34 29.375 0 52.851-10.891 52.117-42.188-0.102-4.531-1.067-11.953-1.469-14.933h-44.73c0.172 0.898 0.976 5 0.976 9.277 0 8.301-6.094 11.074-11.762 11.074-21.917 0-30.292-52.812-30.292-64.668 0-8.867 5.125-12.832 12.261-12.832 7.344 0 14.207 5.696 20.043 20.43h45.582"/>
    <path d="m2890.5 370.19c-4.08-4.122-4.08-4.102 0 0"/>
    <path d="m3257.4 528.81 148.73-3.75-176.65-99.95c9.65 35.567 18.26 67.957 27.92 103.7m-0.82 174.81-25.74-134.85h-122.29zm338.44-134.85h-326.33c42.8 161.18 81.55 297.91 81.55 297.91s-146.92-157.09-277.37-297.91l-1293.5-2.704c0.07 0 0.54 0 1.34-0.019l-1.34 0.019 1261.4-31.796c-97.04-103.18-148.17-162.05-150.22-164.08l0.51 0.457c4.15 3.722 178.78 162.89 178.78 162.89l153.52-3.867-23.11-121.08-719.35-406.98c-1.76-0.96484-2.78-1.5312-2.87-1.6016 0 0 571.2 300.13 715.43 373.07 0 0-50.64-264.18-50.64-265.31 0 0.059 0.04 0.234 0.09 0.508l-0.09-0.508 0.64 2.59c4.61 17.226 34.99 121.05 76.21 274.83 187.73 95.754 375.33 183.59 375.33 183.59"/>
   </g>
  </g>
 </g>
</svg>
