<?xml version="1.0" encoding="UTF-8" standalone="no"?>
<!-- Created with Inkscape (http://www.inkscape.org/) -->

<svg
   xmlns:dc="http://purl.org/dc/elements/1.1/"
   xmlns:cc="http://creativecommons.org/ns#"
   xmlns:rdf="http://www.w3.org/1999/02/22-rdf-syntax-ns#"
   xmlns:svg="http://www.w3.org/2000/svg"
   xmlns="http://www.w3.org/2000/svg"
   xmlns:sodipodi="http://sodipodi.sourceforge.net/DTD/sodipodi-0.dtd"
   xmlns:inkscape="http://www.inkscape.org/namespaces/inkscape"
   width="158.89523mm"
   height="38.306564mm"
   viewBox="0 0 158.89523 38.306563"
   version="1.1"
   id="svg1194"
   sodipodi:docname="lockheed.svg"
   inkscape:version="0.92.4 (5da689c313, 2019-01-14)">
  <defs
     id="defs1188">
    <clipPath
       id="clipPath1936"
       clipPathUnits="userSpaceOnUse">
      <rect
         y="375.44376"
         x="189.97081"
         height="144.72708"
         width="123.825"
         id="rect1938"
         style="opacity:0.5;fill:#ff0000;stroke:none;stroke-width:1;stroke-linejoin:round" />
    </clipPath>
  </defs>
  <sodipodi:namedview
     id="base"
     pagecolor="#ffffff"
     bordercolor="#666666"
     borderopacity="1.0"
     inkscape:pageopacity="0.0"
     inkscape:pageshadow="2"
     inkscape:zoom="0.35"
     inkscape:cx="918.05446"
     inkscape:cy="4.9637284"
     inkscape:document-units="mm"
     inkscape:current-layer="layer1"
     showgrid="false"
     inkscape:window-width="1216"
     inkscape:window-height="640"
     inkscape:window-x="3483"
     inkscape:window-y="212"
     inkscape:window-maximized="0"
     fit-margin-top="0"
     fit-margin-left="0"
     fit-margin-right="0"
     fit-margin-bottom="0" />
  <metadata
     id="metadata1191">
    <rdf:RDF>
      <cc:Work
         rdf:about="">
        <dc:format>image/svg+xml</dc:format>
        <dc:type
           rdf:resource="http://purl.org/dc/dcmitype/StillImage" />
        <dc:title></dc:title>
      </cc:Work>
    </rdf:RDF>
  </metadata>
  <g
     inkscape:label="Layer 1"
     inkscape:groupmode="layer"
     id="layer1"
     transform="translate(142.46592,-13.745523)">
    <g
       id="g4828"
       transform="matrix(0.0441992,0,0,-0.0441992,-142.46592,52.052086)"
       style="display:inline;opacity:1;fill:#ffffff">
      <path
         d="m 1784.57,424.406 -46.3,-98.215 h -41.89 l -4.45,98.215 h -1.6 l -20.38,-98.215 h -43.91 l 30.53,146.934 h 72.36 l 1.11,-84.453 h 1.82 l 35.8,84.453 h 74.42 l -30.46,-146.934 h -46.41 l 21.24,98.215 h -1.88"
         style="fill:#ffffff;fill-opacity:1;fill-rule:nonzero;stroke:none"
         id="path4830"
         inkscape:connector-curvature="0" />
      <path
         d="m 1944.92,473.125 h 66.97 l 10.32,-146.934 h -48.07 l -0.62,26.008 h -43.04 l -11.72,-26.008 h -45.14 z m 29.07,-90.273 -2.78,55.644 h -1.71 l -27.06,-55.644 h 31.55"
         style="fill:#ffffff;fill-opacity:1;fill-rule:nonzero;stroke:none"
         id="path4832"
         inkscape:connector-curvature="0" />
      <path
         d="m 2314.17,438.469 h -32.18 l 7.19,34.656 h 112.38 l -7.19,-34.656 h -32.2 l -23.35,-112.278 h -48.06 l 23.41,112.278"
         style="fill:#ffffff;fill-opacity:1;fill-rule:nonzero;stroke:none"
         id="path4834"
         inkscape:connector-curvature="0" />
      <path
         d="m 2593.16,473.125 h 65.15 l 14.33,-87.715 h 1.4 l 18.25,87.715 h 45.62 l -30.56,-146.934 h -65.06 l -12.27,89.836 h -1.62 l -18.7,-89.836 h -47.09 l 30.55,146.934"
         style="fill:#ffffff;fill-opacity:1;fill-rule:nonzero;stroke:none"
         id="path4836"
         inkscape:connector-curvature="0" />
      <path
         d="m 2117.9,473.125 h 70.88 c 34.59,0 46.85,-19.219 46.85,-37.488 0,-27.696 -23.34,-35.766 -34.89,-37.883 v -2.059 c 14.05,-1.769 20.39,-11.75 20.39,-24.074 0,-9.629 -2.14,-19.582 -2.14,-32.324 0,-5.027 0.95,-11.199 1.26,-13.106 h -51.37 c -0.11,0.801 -0.75,5.664 -0.75,8.516 0,12.332 3.38,20.977 3.38,34.445 0,6.192 -2.47,12.129 -12.25,12.129 h -12.41 l -11.35,-55.09 h -48.18 z m 47.64,-61.211 c 13.59,0 19.38,6.738 19.38,15.645 0,7.238 -4.2,10.91 -14.02,10.91 h -12.07 l -5.53,-26.555 h 12.24"
         style="fill:#ffffff;fill-opacity:1;fill-rule:nonzero;stroke:none"
         id="path4838"
         inkscape:connector-curvature="0" />
      <path
         d="m 2462.48,473.125 h 48.04 l -30.53,-146.934 h -48.08 l 30.57,146.934"
         style="fill:#ffffff;fill-opacity:1;fill-rule:nonzero;stroke:none"
         id="path4840"
         inkscape:connector-curvature="0" />
      <path
         d="M 30.5938,473.125 H 78.6016 L 55.2813,360.859 H 102.289 L 95.4258,326.191 H 0 l 30.5938,146.934"
         style="fill:#ffffff;fill-opacity:1;fill-rule:nonzero;stroke:none"
         id="path4842"
         inkscape:connector-curvature="0" />
      <path
         d="m 586.379,473.125 h 48.019 l -13.136,-63.164 h 1.234 l 42.559,63.164 h 51.152 l -53.078,-69.336 26.551,-77.598 h -51.129 l -19.93,65.274 h -1.199 l -13.555,-65.274 h -48.086 l 30.598,146.934"
         style="fill:#ffffff;fill-opacity:1;fill-rule:nonzero;stroke:none"
         id="path4844"
         inkscape:connector-curvature="0" />
      <path
         d="m 835.504,381.289 h -28.649 l -11.46,-55.098 h -48.051 l 30.57,146.934 h 48.043 L 814.48,418.008 h 28.68 l 11.465,55.117 h 48.031 L 872.105,326.191 h -48.066 l 11.465,55.098"
         style="fill:#ffffff;fill-opacity:1;fill-rule:nonzero;stroke:none"
         id="path4846"
         inkscape:connector-curvature="0" />
      <path
         d="m 1173.3,473.125 h 100.96 l -7.21,-34.676 h -52.95 l -4.49,-21.633 h 47.99 l -7.25,-34.687 h -47.95 l -4.41,-21.27 h 55.35 l -7.27,-34.668 h -103.36 l 30.59,146.934"
         style="fill:#ffffff;fill-opacity:1;fill-rule:nonzero;stroke:none"
         id="path4848"
         inkscape:connector-curvature="0" />
      <path
         d="m 989.176,473.125 h 100.974 l -7.2,-34.676 h -52.96 l -4.49,-21.633 h 47.99 l -7.25,-34.687 h -47.95 l -4.42,-21.27 h 55.36 l -7.27,-34.668 H 958.598 l 30.578,146.934"
         style="fill:#ffffff;fill-opacity:1;fill-rule:nonzero;stroke:none"
         id="path4850"
         inkscape:connector-curvature="0" />
      <path
         d="m 248.656,475.117 c 35.77,0 55.028,-20.168 55.028,-51.863 0,-38.574 -19.934,-99.113 -82.922,-99.113 -34.77,0 -55.035,19.211 -55.035,51.613 0,42.664 22.05,99.363 82.929,99.363 M 225.883,360.859 c 21.074,0 30.062,52.508 30.062,64.61 0,6.554 -2.961,12.91 -12.429,12.91 -21.762,0 -30.121,-53.484 -30.121,-64.5 0,-10.5 6.695,-13.02 12.488,-13.02"
         style="fill:#ffffff;fill-opacity:1;fill-rule:nonzero;stroke:none"
         id="path4852"
         inkscape:connector-curvature="0" />
      <path
         d="m 1365.8,473.125 h 54.4 c 46.4,0 65.59,-25.965 65.59,-54.707 0,-54.59 -34.37,-92.227 -92.03,-92.227 h -58.6 z m 24.58,-112.266 h 14.01 c 19.49,0 33.03,25.684 33.03,57.414 0,11.426 -5.15,20.176 -22.33,20.176 h -8.57 l -16.14,-77.59"
         style="fill:#ffffff;fill-opacity:1;fill-rule:nonzero;stroke:none"
         id="path4854"
         inkscape:connector-curvature="0" />
      <path
         d="m 486.949,381.289 c -8.031,-39.519 -37.031,-57.129 -70.761,-57.129 -35.543,0 -54.961,20 -54.961,51.629 0,37.016 18.836,99.34 82.996,99.34 29.375,0 52.851,-10.891 52.117,-42.188 -0.102,-4.531 -1.067,-11.953 -1.469,-14.933 h -44.73 c 0.172,0.898 0.976,5 0.976,9.277 0,8.301 -6.094,11.074 -11.762,11.074 -21.917,0 -30.292,-52.812 -30.292,-64.668 0,-8.867 5.125,-12.832 12.261,-12.832 7.344,0 14.207,5.696 20.043,20.43 h 45.582"
         style="fill:#ffffff;fill-opacity:1;fill-rule:nonzero;stroke:none"
         id="path4856"
         inkscape:connector-curvature="0" />
      <path
         d="m 2890.53,370.188 c -4.08,-4.122 -4.08,-4.102 0,0"
         style="fill:#ffffff;fill-opacity:1;fill-rule:nonzero;stroke:none"
         id="path4858"
         inkscape:connector-curvature="0" />
      <path
         d="m 3257.36,528.809 148.73,-3.75 -176.65,-99.95 c 9.65,35.567 18.26,67.957 27.92,103.7 M 3256.54,703.621 3230.8,568.77 H 3108.51 Z M 3594.98,568.77 h -326.33 c 42.8,161.179 81.55,297.91 81.55,297.91 0,0 -146.92,-157.09 -277.37,-297.91 L 1779.3,566.066 c 0.07,0 0.54,0 1.34,-0.019 l -1.34,0.019 1261.45,-31.796 C 2943.71,431.086 2892.58,372.219 2890.53,370.188 l 0.51,0.457 c 4.15,3.722 178.78,162.89 178.78,162.89 L 3223.34,529.668 3200.23,408.586 2480.88,1.60156 C 2479.12,0.636719 2478.1,0.0703125 2478.01,0 c 0,0 571.2,300.129 715.43,373.066 0,0 -50.64,-264.179 -50.64,-265.312 0,0.059 0.04,0.234 0.09,0.508 l -0.09,-0.508 0.64,2.59 c 4.61,17.226 34.99,121.054 76.21,274.832 187.73,95.754 375.33,183.594 375.33,183.594"
         style="fill:#ffffff;fill-opacity:1;fill-rule:nonzero;stroke:none"
         id="path4860"
         inkscape:connector-curvature="0" />
    </g>
  </g>
</svg>
