<?xml version="1.0" encoding="UTF-8"?>
<!-- Created with Inkscape (http://www.inkscape.org/) -->
<svg width="608.03" height="317.15" version="1.1" viewBox="0 0 160.87 83.911" xmlns="http://www.w3.org/2000/svg" xmlns:cc="http://creativecommons.org/ns#" xmlns:dc="http://purl.org/dc/elements/1.1/" xmlns:rdf="http://www.w3.org/1999/02/22-rdf-syntax-ns#">
 <metadata>
  <rdf:RDF>
   <cc:Work rdf:about="">
    <dc:format>image/svg+xml</dc:format>
    <dc:type rdf:resource="http://purl.org/dc/dcmitype/StillImage"/>
    <dc:title/>
   </cc:Work>
  </rdf:RDF>
 </metadata>
 <g transform="translate(140.95 -141.95)">
  <g transform="matrix(1.0649 0 0 1.0649 -397.76 -1323.9)" stroke-width="1px">
   <path d="m257.08 1404.8h-15.919v-26.958h5.1596v22.598h10.759z"/>
   <path d="m278.45 1394.9q0 4.5596-2.6798 7.4794-2.6798 2.8798-7.1995 2.8798-4.3997 0-7.0395-2.7998-2.6398-2.8398-2.6398-7.2395 0-4.5996 2.6798-7.4394 2.7198-2.8798 7.3195-2.8798 4.3597 0 6.9595 2.7998t2.5998 7.1995zm-5.3596 0.12q0-2.4399-0.95993-4.1997-1.1999-2.1599-3.4398-2.1599-2.3198 0-3.5197 2.1599-0.99993 1.7198-0.99993 4.2796 0 2.4799 0.99993 4.2397 1.1999 2.1599 3.5197 2.1599 2.2398 0 3.4398-2.2399 0.95993-1.7998 0.95993-4.2396z"/>
   <path d="m295.04 1399q0 2.7998-2.0398 4.4396-2.1598 1.7199-5.9196 1.7199-3.5197 0-5.9196-1.3599l0.99993-3.7197q2.2798 1.3999 4.9196 1.3999 2.9598 0 2.9598-2.0399 0-0.9599-0.67995-1.5199-0.63996-0.5999-2.3598-1.1999-5.3596-1.9198-5.3596-5.7196 0-2.6798 2.0398-4.3996 2.0398-1.7599 5.3996-1.7599 3.0398 0 5.1596 1.1199l-0.99993 3.6397q-1.9598-1.1199-4.0397-1.1199-2.5998 0-2.5998 1.9599 0 0.8399 0.71994 1.3999 0.71995 0.5199 2.5598 1.1999 5.1196 1.8799 5.1596 5.9596z"/>
   <path d="m329.9 1404.8h-5.5596l-2.2798-7.3994h-8.1594l-2.1198 7.3994h-5.3596l8.3994-26.958h6.5995zm-8.6394-11.319-1.9598-6.3596q-0.19999-0.6399-1.3199-5.1596h-0.11999q-0.35997 1.7599-1.2399 5.1596l-1.8799 6.3596z"/>
   <path d="m338.3 1404.8h-5.1596v-28.358h5.1596z"/>
   <path d="m353.89 1389.1h-4.5597v8.3194q0 3.5197 2.4798 3.5197 1.0799 0 1.8399-0.2l0.08 3.9597q-1.3599 0.48-3.6397 0.48-2.7198 0-4.2797-1.5999-1.5599-1.6399-1.5599-5.5196v-8.9593h-2.6798v-3.8397h2.6798v-3.5998l5.0796-1.4399v5.0397h4.5597z"/>
   <path d="m375.63 1394.9q0 4.5596-2.6798 7.4794-2.6798 2.8798-7.1995 2.8798-4.3997 0-7.0395-2.7998-2.6398-2.8398-2.6398-7.2395 0-4.5996 2.6798-7.4394 2.7198-2.8798 7.3195-2.8798 4.3597 0 6.9595 2.7998 2.5998 2.7998 2.5998 7.1995zm-5.3596 0.12q0-2.4399-0.95993-4.1997-1.1999-2.1599-3.4398-2.1599-2.3198 0-3.5198 2.1599-0.99992 1.7198-0.99992 4.2796 0 2.4799 0.99992 4.2397 1.1999 2.1599 3.5198 2.1599 2.2398 0 3.4398-2.2399 0.95993-1.7998 0.95993-4.2396z"/>
   <path d="m392.22 1399q0 2.7998-2.0398 4.4396-2.1598 1.7199-5.9196 1.7199-3.5198 0-5.9196-1.3599l0.99993-3.7197q2.2798 1.3999 4.9196 1.3999 2.9598 0 2.9598-2.0399 0-0.9599-0.67995-1.5199-0.63995-0.5999-2.3598-1.1999-5.3596-1.9198-5.3596-5.7196 0-2.6798 2.0399-4.3996 2.0398-1.7599 5.3996-1.7599 3.0398 0 5.1596 1.1199l-0.99993 3.6397q-1.9599-1.1199-4.0397-1.1199-2.5998 0-2.5998 1.9599 0 0.8399 0.71995 1.3999 0.71995 0.5199 2.5598 1.1999 5.1196 1.8799 5.1596 5.9596z"/>
   <path d="m260.27 1454.8h-5.3196q-0.71995-1.3199-1.7999-6.3596-0.55996-2.5998-1.5999-3.5997-1.0399-0.9999-3.0398-0.9999h-2.2398v10.959h-5.1196v-26.598q3.1598-0.5599 7.4795-0.5599 5.7196 0 8.2794 2.1598 2.3598 1.9199 2.3598 5.4796 0 2.3998-1.4799 4.2797-1.3199 1.6799-3.3198 2.3998v0.12q2.6398 1.0399 3.6797 5.1996 1.0799 4.2797 1.1599 4.5997 0.59996 2.2398 0.95993 2.9198zm-6.1596-19.079q0-4.1597-4.9596-4.1597-1.9599 0-2.8798 0.2v8.2794h2.6798q2.3998 0 3.7597-1.16 1.3999-1.1999 1.3999-3.1597z"/>
   <path d="m282.05 1444.9q0 4.5597-2.6798 7.4795-2.6798 2.8797-7.1995 2.8797-4.3997 0-7.0395-2.7997-2.6398-2.8398-2.6398-7.2395 0-4.5997 2.6798-7.4395 2.7198-2.8798 7.3195-2.8798 4.3597 0 6.9595 2.7998t2.5998 7.1995zm-5.3596 0.12q0-2.4398-0.95993-4.1997-1.1999-2.1598-3.4398-2.1598-2.3198 0-3.5197 2.1598-0.99993 1.7199-0.99993 4.2797 0 2.4798 0.99993 4.2397 1.1999 2.1598 3.5197 2.1598 2.2398 0 3.4398-2.2398 0.95993-1.7999 0.95993-4.2397z"/>
   <path d="m305.11 1444.7q0 4.9597-2.7198 7.8794-2.4398 2.6398-5.9596 2.6398-3.9997 0-5.9196-3.2797h-0.08l-0.23998 2.8398h-4.3997q0.15999-2.4398 0.15999-5.5596v-22.798h5.1596v11.399h0.08q1.9199-2.9598 5.9996-2.9598 3.5197 0 5.7196 2.7198 2.1998 2.6798 2.1998 7.1195zm-5.2396 0.24q0-2.6398-1.1199-4.2797-1.2399-1.7599-3.4398-1.7599-1.8399 0-3.0398 1.3999-1.1599 1.3599-1.1599 3.1998v3.2398q0 1.7998 1.1599 3.0797 1.1999 1.2799 2.9998 1.2799 2.1598 0 3.3598-1.6398 1.2399-1.6399 1.2399-4.5197z"/>
   <path d="m327.51 1444.9q0 4.5597-2.6798 7.4795-2.6798 2.8797-7.1995 2.8797-4.3997 0-7.0395-2.7997-2.6398-2.8398-2.6398-7.2395 0-4.5997 2.6798-7.4395 2.7198-2.8798 7.3195-2.8798 4.3597 0 6.9595 2.7998t2.5998 7.1995zm-5.3596 0.12q0-2.4398-0.95993-4.1997-1.1999-2.1598-3.4398-2.1598-2.3198 0-3.5198 2.1598-0.99992 1.7199-0.99992 4.2797 0 2.4798 0.99992 4.2397 1.1999 2.1598 3.5198 2.1598 2.2398 0 3.4398-2.2398 0.95993-1.7999 0.95993-4.2397z"/>
   <path d="m341.86 1439.1h-4.5597v8.3194q0 3.5198 2.4798 3.5198 1.0799 0 1.8399-0.2l0.08 3.9597q-1.3599 0.4799-3.6397 0.4799-2.7198 0-4.2797-1.5998-1.5599-1.6399-1.5599-5.5196v-8.9594h-2.6798v-3.8397h2.6798v-3.5997l5.0796-1.4399v5.0396h4.5597v3.8397z"/>
   <path d="m351.08 1429.5q0 1.3199-0.87993 2.1199-0.83994 0.7999-2.1998 0.7999-1.2799 0-2.1198-0.7999-0.83994-0.84-0.83994-2.1199t0.83994-2.0798q0.87994-0.84 2.1998-0.84 1.2799 0 2.1198 0.84 0.87993 0.7999 0.87993 2.0798zm-0.43996 25.318h-5.1596v-19.519h5.1596z"/>
   <path d="m369.87 1435.7-0.83994 3.8797q-1.5199-0.68-3.5597-0.68-2.5998 0-4.1597 1.7199-1.5199 1.7199-1.5199 4.3997 0 2.7998 1.6799 4.4797 1.5599 1.5998 4.0397 1.5998 1.9599 0 3.6397-0.7199l0.67995 3.8397q-2.0398 0.9599-5.3596 0.9599-4.5197 0-7.2395-2.6798-2.7198-2.7198-2.7198-7.2794 0-4.4797 2.8798-7.3995 2.9198-2.9598 7.8794-2.9598 2.6398 0 4.5997 0.84z"/>
   <path d="m386.05 1449q0 2.7998-2.0398 4.4397-2.1598 1.7198-5.9196 1.7198-3.5197 0-5.9196-1.3599l0.99993-3.7197q2.2798 1.3999 4.9196 1.3999 2.9598 0 2.9598-2.0398 0-0.96-0.67995-1.5199-0.63996-0.6-2.3598-1.1999-5.3596-1.9199-5.3596-5.7196 0-2.6798 2.0398-4.3997 2.0398-1.7599 5.3996-1.7599 3.0398 0 5.1596 1.1199l-0.99993 3.6398q-1.9598-1.1199-4.0397-1.1199-2.5998 0-2.5998 1.9598 0 0.84 0.71994 1.3999 0.71995 0.52 2.5598 1.1999 5.1196 1.8799 5.1596 5.9596z"/>
  </g>
 </g>
</svg>
