<?xml version="1.0" encoding="utf-8"?>
<!-- Generator: Adobe Illustrator 19.2.1, SVG Export Plug-In . SVG Version: 6.00 Build 0)  -->
<svg version="1.1" id="Layer_1" xmlns="http://www.w3.org/2000/svg" xmlns:xlink="http://www.w3.org/1999/xlink" x="0px" y="0px"
	 viewBox="0 0 381.1 107.7" style="enable-background:new 0 0 381.1 107.7;" xml:space="preserve">
<style type="text/css">
	.st0{fill:#9A323C;}
</style>
<g>
	<path class="st0" d="M0,52.6V5h11.7c0,0,33.3,40.4,34.2,42.2C46.8,45.5,79.2,5,79.2,5h11.7v47.6h-9v-36l-29.7,36H39.6L9,15.8v36.9
		H0V52.6z"/>
	<path class="st0" d="M141.1,3.3c-24.3,0-44.9,10.8-44.9,25.2c0,13.4,19.7,25.1,44.9,25.1S186,42.8,186,28.3S165.4,3.3,141.1,3.3z
		 M141.1,48.1c-18,0-32.4-9-32.4-19.8s14.4-19.8,32.4-19.8s32.4,9,32.4,19.8S159.1,48.1,141.1,48.1z"/>
	<path class="st0" d="M238.2,3.3c-24.3,0-44.9,10.8-44.9,25.2c0,13.5,19.8,25.2,44.9,25.2s44.9-10.8,44.9-25.2S262.4,3.3,238.2,3.3z
		 M238.2,48.1c-18,0-32.4-9-32.4-19.8s14.4-19.8,32.4-19.8s32.4,9,32.4,19.8S256.2,48.1,238.2,48.1z"/>
	<path class="st0" d="M381.1,39.3c0,0.9-20.7,13.5-43.1,13.5c-25.2,0-44.9-11.7-44.9-25.2S312.9,2.3,338,2.3
		c20.7,0,37.8,8.1,43.1,18.9l-12.6,2.7c-2.7-9-16.2-15.3-31.5-15.3s-32.4,9-32.4,19.8s16.2,18.9,32.4,18.9s29.7-9,34.2-11.7v-1.8
		h-27.9v-5.4h37.8V39.3z"/>
</g>
<g>
	<path class="st0" d="M189.2,84c-0.7-0.5-1.5-0.8-2.5-0.8c-0.9,0-1.7,0.2-2.5,0.7c-0.7,0.5-1.4,1.2-1.9,2.3
		c-0.4,0.8-0.6,1.5-0.6,2.1c0,1,0.3,1.7,0.9,2.2s1.4,0.8,2.4,0.8c0.9,0,1.7-0.2,2.5-0.7c0.8-0.5,1.4-1.1,1.9-1.9s0.7-1.6,0.7-2.4
		C190.3,85.2,189.9,84.5,189.2,84z"/>
	<path class="st0" d="M242.5,83.8c-0.6-0.5-1.4-0.7-2.5-0.7s-2,0.3-2.8,0.8c-0.8,0.5-1.4,1.3-1.7,2.4h7.8c0-0.2,0-0.3,0-0.3
		C243.4,85,243.1,84.3,242.5,83.8z"/>
	<path class="st0" d="M262.3,83.8c-0.6-0.5-1.4-0.7-2.5-0.7c-1,0-2,0.3-2.8,0.8c-0.8,0.5-1.4,1.3-1.7,2.4h7.8c0-0.2,0-0.3,0-0.3
		C263.2,85,262.9,84.3,262.3,83.8z"/>
	<polygon class="st0" points="105,86.9 112.6,86.9 111.1,79.8 	"/>
	<path class="st0" d="M327.7,84c-0.7-0.5-1.5-0.8-2.5-0.8c-0.9,0-1.7,0.2-2.5,0.7c-0.7,0.5-1.4,1.2-1.9,2.3
		c-0.4,0.8-0.6,1.5-0.6,2.1c0,1,0.3,1.7,0.9,2.2c0.6,0.5,1.4,0.8,2.4,0.8c0.9,0,1.7-0.2,2.5-0.7c0.8-0.5,1.4-1.1,1.9-1.9
		s0.7-1.6,0.7-2.4C328.7,85.2,328.4,84.5,327.7,84z"/>
	<path class="st0" d="M0,67v40.7h381.1V67H0z M55.7,89.8c1,0.8,2.2,1.1,3.7,1.1c1.4,0,2.6-0.3,3.7-0.9c1.1-0.6,2-1.5,2.5-2.7
		l5.3,0.6c-1,2-2.6,3.5-4.6,4.5c-2.1,1-4.5,1.6-7.2,1.6c-3.1,0-5.6-0.6-7.3-1.9S49,88.9,49,86.4c0-2,0.6-3.8,1.8-5.5
		c1.2-1.7,2.8-2.9,4.9-3.8c2.1-0.9,4.4-1.3,6.8-1.3c2.8,0,5,0.5,6.7,1.5s2.7,2.4,3,4.2l-5,0.3c-0.3-1-0.8-1.8-1.6-2.2
		c-0.8-0.5-1.9-0.7-3.2-0.7c-1.4,0-2.8,0.3-4.1,0.9c-1.3,0.6-2.3,1.6-3,2.8c-0.8,1.3-1.1,2.6-1.1,3.9C54.2,88,54.7,89.1,55.7,89.8z
		 M91.1,92.3c-1.8,1.1-4.3,1.6-7.4,1.6c-2.2,0-4.1-0.3-5.7-0.8c-1.6-0.5-2.7-1.2-3.4-2.1c-0.7-0.9-1-1.9-0.9-3.1l5-0.2
		c0.1,1.1,0.3,1.8,0.8,2.2c0.8,0.6,2.2,0.9,4.2,0.9c1.7,0,3-0.2,3.7-0.6s1.1-0.9,1.1-1.5c0-0.5-0.3-1-0.9-1.3
		c-0.4-0.3-1.6-0.7-3.6-1.3c-2-0.6-3.4-1.1-4.3-1.5c-0.9-0.4-1.6-0.9-2.1-1.5c-0.5-0.6-0.8-1.4-0.8-2.2c0-1.5,0.8-2.7,2.3-3.7
		s3.8-1.5,6.7-1.5c3,0,5.3,0.5,6.9,1.4c1.6,1,2.5,2.3,2.7,3.9l-5,0.2c-0.1-0.8-0.6-1.5-1.3-1.9c-0.8-0.4-1.9-0.7-3.3-0.7
		c-1.4,0-2.5,0.2-3.1,0.5c-0.6,0.4-0.9,0.8-0.9,1.3c0,0.5,0.3,0.9,0.9,1.2c0.6,0.3,1.8,0.8,3.8,1.4c2.9,0.9,4.8,1.6,5.6,2.1
		c1.2,0.8,1.8,1.8,1.8,3.1C93.7,89.9,92.8,91.3,91.1,92.3z M114.1,93.7l-0.9-3.9h-10.1l-3.1,3.9h-5.4l14.4-17.5h5.8l4.1,17.5H114.1z
		 M152.5,83.1l-0.9,2.9h-13.2l-1.6,4.8h14.8l-0.9,2.9h-19.9l5.3-17.5h18.9l-0.9,2.9h-13.6l-1.2,4H152.5z M173.6,86.5l-2.2,7.2h-5
		l2.2-7.2c0.3-1.1,0.5-1.7,0.5-1.9c0-0.4-0.2-0.8-0.6-1c-0.4-0.3-0.9-0.4-1.6-0.4c-0.7,0-1.5,0.2-2.4,0.6c-0.9,0.4-1.6,1-2.1,1.7
		c-0.4,0.5-0.8,1.5-1.3,3l-1.6,5.2h-5l3.9-12.7h4.7l-0.5,1.7c1.2-0.7,2.3-1.2,3.3-1.5c1-0.3,2.1-0.4,3.2-0.4c1.5,0,2.7,0.3,3.6,0.9
		c0.9,0.6,1.3,1.4,1.3,2.4C174.2,84.4,174,85.3,173.6,86.5z M193.8,91.6c-0.5,1.7-1,2.9-1.3,3.6c-0.4,0.7-0.8,1.3-1.2,1.7
		c-0.5,0.4-1,0.8-1.8,1.1s-1.5,0.5-2.5,0.6c-1,0.1-2,0.2-3.1,0.2c-2.6,0-4.6-0.3-5.9-0.9s-2-1.6-2-3.1c0-0.2,0-0.3,0.1-0.5l5.3,0.5
		c0,0.4,0.1,0.6,0.3,0.8c0.2,0.2,0.5,0.3,0.8,0.5s0.9,0.2,1.6,0.2c1.1,0,1.9-0.1,2.5-0.4c0.5-0.2,0.9-0.6,1.2-1.1
		c0.2-0.3,0.4-1,0.7-2l0.2-0.6c-1.7,1-3.5,1.5-5.4,1.5c-1.8,0-3.3-0.4-4.4-1.3c-1.2-0.9-1.7-2.2-1.7-3.9c0-1.5,0.4-2.9,1.2-4.1
		c0.8-1.2,1.9-2.2,3.3-2.8c1.4-0.6,2.9-1,4.4-1c1.2,0,2.4,0.2,3.4,0.7c1,0.4,1.8,1.1,2.4,1.9l0.7-2.3h4.7L193.8,91.6z M203,93.7h-5
		l3.9-12.7h5L203,93.7z M202.4,79.3l0.9-3.1h5l-0.9,3.1H202.4z M227,86.5l-2.2,7.2h-5l2.2-7.2c0.3-1.1,0.5-1.7,0.5-1.9
		c0-0.4-0.2-0.8-0.6-1c-0.4-0.3-0.9-0.4-1.6-0.4c-0.7,0-1.5,0.2-2.4,0.6s-1.6,1-2.1,1.7c-0.4,0.5-0.8,1.5-1.3,3l-1.6,5.2h-5
		l3.9-12.7h4.7l-0.5,1.7c1.2-0.7,2.3-1.2,3.3-1.5c1-0.3,2.1-0.4,3.2-0.4c1.5,0,2.7,0.3,3.6,0.9s1.3,1.4,1.3,2.4
		C227.5,84.4,227.4,85.3,227,86.5z M247.6,88.4h-12.5c0,0.1,0,0.2,0,0.3c0,0.8,0.4,1.5,1.1,2c0.7,0.5,1.6,0.8,2.6,0.8
		c1.7,0,2.9-0.6,3.9-1.8l4.5,0.5c-0.9,1.2-2,2.2-3.5,2.8c-1.5,0.6-3.1,0.9-4.9,0.9c-2.5,0-4.5-0.5-6-1.6s-2.3-2.5-2.3-4.3
		c0-1.7,0.7-3.3,2.1-4.6c1.9-1.8,4.6-2.8,8.2-2.8c2.3,0,4.1,0.5,5.4,1.4c1.3,1,2,2.3,2,4C248,87,247.9,87.7,247.6,88.4z M267.4,88.4
		h-12.5c0,0.1,0,0.2,0,0.3c0,0.8,0.4,1.5,1.1,2s1.6,0.8,2.6,0.8c1.7,0,2.9-0.6,3.9-1.8l4.5,0.5c-0.9,1.2-2,2.2-3.5,2.8
		c-1.5,0.6-3.1,0.9-4.9,0.9c-2.5,0-4.5-0.5-6-1.6s-2.3-2.5-2.3-4.3c0-1.7,0.7-3.3,2.1-4.6c1.9-1.8,4.6-2.8,8.2-2.8
		c2.3,0,4.1,0.5,5.4,1.4c1.3,1,2,2.3,2,4C267.8,87,267.7,87.7,267.4,88.4z M281.4,83.7c-0.9,0-1.7,0.2-2.6,0.7
		c-0.9,0.4-1.6,1-2.1,1.8c-0.5,0.7-1,1.9-1.5,3.5l-1.2,4h-5l3.9-12.7h4.7l-0.7,2.5c1.7-1.8,3.6-2.8,5.6-2.8c0.7,0,1.5,0.1,2.3,0.4
		l-1.9,2.8C282.3,83.8,281.9,83.7,281.4,83.7z M288.1,93.7h-5L287,81h5L288.1,93.7z M287.5,79.3l0.9-3.1h5l-0.9,3.1H287.5z
		 M312,86.5l-2.2,7.2h-5l2.2-7.2c0.3-1.1,0.5-1.7,0.5-1.9c0-0.4-0.2-0.8-0.6-1c-0.4-0.3-0.9-0.4-1.6-0.4c-0.7,0-1.5,0.2-2.4,0.6
		s-1.6,1-2.1,1.7c-0.4,0.5-0.8,1.5-1.3,3l-1.6,5.2h-5l3.9-12.7h4.7l-0.5,1.7c1.2-0.7,2.3-1.2,3.3-1.5c1-0.3,2.1-0.4,3.2-0.4
		c1.5,0,2.7,0.3,3.6,0.9s1.3,1.4,1.3,2.4C312.6,84.4,312.4,85.3,312,86.5z M332.3,91.6c-0.5,1.7-1,2.9-1.3,3.6
		c-0.4,0.7-0.8,1.3-1.2,1.7c-0.5,0.4-1,0.8-1.8,1.1c-0.7,0.3-1.5,0.5-2.5,0.6c-1,0.1-2,0.2-3.1,0.2c-2.6,0-4.6-0.3-5.9-0.9
		c-1.3-0.6-2-1.6-2-3.1c0-0.2,0-0.3,0.1-0.5l5.3,0.5c0,0.4,0.1,0.6,0.3,0.8c0.2,0.2,0.5,0.3,0.8,0.5c0.4,0.1,0.9,0.2,1.6,0.2
		c1.1,0,1.9-0.1,2.5-0.4c0.5-0.2,0.9-0.6,1.2-1.1c0.2-0.3,0.4-1,0.7-2l0.2-0.6c-1.7,1-3.5,1.5-5.4,1.5c-1.8,0-3.3-0.4-4.4-1.3
		c-1.2-0.9-1.7-2.2-1.7-3.9c0-1.5,0.4-2.9,1.2-4.1c0.8-1.2,1.9-2.2,3.3-2.8c1.4-0.6,2.9-1,4.4-1c1.2,0,2.4,0.2,3.4,0.7
		c1,0.4,1.8,1.1,2.4,1.9l0.7-2.3h4.7L332.3,91.6z"/>
</g>
<image style="display:none;overflow:visible;opacity:0.3;" width="192" height="52" xlink:href="2C95BAFE.jpg"  transform="matrix(1.9849 0 0 1.9849 0 1.1927)">
</image>
</svg>
