<?xml version="1.0" encoding="UTF-8"?>
<!-- Created with Inkscape (http://www.inkscape.org/) -->
<svg width="767.78" height="792.14" version="1.1" viewBox="0 0 203.14 209.59" xmlns="http://www.w3.org/2000/svg" xmlns:cc="http://creativecommons.org/ns#" xmlns:dc="http://purl.org/dc/elements/1.1/" xmlns:rdf="http://www.w3.org/1999/02/22-rdf-syntax-ns#">
 <defs>
  <clipPath id="clipPath20">
   <path d="m0 612h792v-612h-792z"/>
  </clipPath>
 </defs>
 <metadata>
  <rdf:RDF>
   <cc:Work rdf:about="">
    <dc:format>image/svg+xml</dc:format>
    <dc:type rdf:resource="http://purl.org/dc/dcmitype/StillImage"/>
    <dc:title/>
   </cc:Work>
  </rdf:RDF>
 </metadata>
 <g transform="translate(278.05 -47.737)">
  <g transform="matrix(.43479 0 0 -.43479 -348.65 285.58)">
   <g clip-path="url(#clipPath20)">
    <g fill="#e5cc00">
     <g transform="translate(284.99 263.87)">
      <path d="m0 0c-0.693-0.268-10.465-4.21-20.13-16.018 0.036-0.679 0.207-1.401 0.492-2.169 1.91-3.694 7.267-12.262 17.444-16.479 0.141-0.071 0.316-0.126 0.45-0.2 0.015-7e-3 0.028-0.014 0.044-0.02v-0.012c0.178-0.1 0.302-0.231 0.467-0.338-1.121 1.561-5.587 8.247-6.076 15.704l-0.065-5e-3c1e-3 0.144 0.022 0.269 0.025 0.412-0.111 2.46 0.235 4.987 1.287 7.432 2.872 8.134 9.755 11.4 12.934 12.496 0.379 0.194 0.759 0.387 1.114 0.567-1.109 0.112-3.896 0.149-7.986-1.37" fill="#e5cc00"/>
     </g>
     <g transform="translate(285.58 227.61)">
      <path d="m0 0s3.277-9.196 9.253-15.804c23.12-1.662 36.204 0.574 40.73 1.615v10.135s-3.2-4.374-5.546-4.374c-2.347 0-5.034 4.16-5.034 4.16s-2.522-4.16-4.14-4.16c-1.333 0-2.73 1.056-3.727 2.02-0.69 0.667-1.771 0.577-2.423-0.129-1.317-1.428-4.243-3.235-10.598-3.171-10.453 0.107-18.515 9.708-18.515 9.708" fill="#e5cc00"/>
     </g>
     <g transform="translate(330.72 342.57)">
      <path d="m0 0c-1.597-0.599-3.293-1.027-4.981-1.257-1.508-0.206-3.482-0.655-4.145 1.262-0.548 1.582 0.568 3.06 1.779 4.047 3.352 2.731 6.814 5.325 10.513 8.192 2.91-4.068 1.114-10.64-3.166-12.244m111.18-37.123c-0.771 1.347-1.579 2.674-2.441 3.966-0.233 0.349-0.584 1.153-0.958 1.378-1.241 0.746-1.699 1.96-0.972 3.229 0.956 1.672 3.901 2.426 5.55 2.942 8.833 2.762 18.882 3.55 28.074 4.194 10.036 0.704 20.161 0.509 30.124-0.954 14.446-2.122 28.517-6.469 41.808-12.485 9.033-4.088 17.762-8.876 26.072-14.29 2.445-1.592 4.859-3.239 7.213-4.965 0.581-0.425 2.153-1.192 2.478-1.872-18.711 39.18-85.357 71.534-88.71 73.143-0.073 0.011-0.147 0.02-0.222 0.029-3.829-3.088-19.693-14.978-36.943-14.978-19.822 0-28.405 15.087-28.405 15.087-0.754 1.295-0.41 2.523 1.792 3.342 6.445 2.398 12.939 4.522 19.237 4.902 0.336 0.043 0.61 0.045 0.93 0.058 0.203 7e-3 0.406 0.018 0.609 0.021 10.355 0.377 15.394-0.582 17.78-1.579 1.381-0.576 1.927-2.289 1.077-3.52-7.732-11.189-20.549-12.941-23.664-13.205-0.098-0.049-0.195-0.082-0.293-0.123 21.497-5.498 44.244 14.271 48.125 17.841 1.272 1.363 2.484 2.795 3.57 4.369 2.021 2.928 5.078 5.044 2.554 10.05-8.427-4.351-18.984-3.317-27.162-1.528-10.569 2.312-20.157 3.649-30.725 2.377-11.286-1.358-23.279-2.585-34.354 0.671-4.393 1.291-8.519 3.448-13.026 4.361-4.276 0.867-8.964 0.544-13.168-0.563-5.111-1.345-10.58-1.623-15.817-2.557-5.689-1.015-11.334-2.279-16.911-3.796-11.133-3.031-22.002-7.074-32.348-12.191-10.17-5.029-17.178-10.702-22.407-21.548-0.434-0.901-2.457-2.352-3.778-2.49-7.145-0.745-9.917-6.183-14.938-9.701-9e-3 -2.775 5.495-3.864 3.778-8.5-0.413-0.221-0.846-0.292-1.288-0.288-3.301-0.243-5.864 3.71-8.647 3.331-0.276-1.18-0.547-2.342-0.94-4.024-7.523 3.615-11.625-0.692-15.205-6.224-0.424-0.655-1.115-1.129-1.64-1.725-6.006-6.835-11.53-14.041-16.751-21.493-1.35-1.927-2.01-3.932-0.256-5.493 1.857-1.651 4.045-1.192 5.873 0.717 1.789 1.871 3.485 4.075 5.695 5.226 1.576 0.82 2.405 3.998 4.062 3.682 0.029 0.026 0.163-0.012 0.163-0.012 0.08-0.022 4.538-1.269 4.538-1.269l-15.302-17.584c-2.39-9.118 2.409-16.407 3.385-17.767 0.836-0.935 1.761-1.814 2.888-2.555 5.226-3.441 7.577-9.091 11.641-13.383 1.094-1.156 1.89-2.833 3.659-2.533 1.595 0.27 2.632 1.534 2.999 3.273 0.326 1.547 1.399 2.747 2.166 4.096 2.825 4.964 6.762 8.971 11.264 12.033 2.967 2.282 5.847 3.914 8.633 5.095 0.402 0.19 0.806 0.367 1.222 0.514 14.71 5.566 26.406-2.172 32.675-8.094 0.146-0.134 0.289-0.271 0.432-0.409 2.969-2.878 4.606-5.229 4.606-5.229 4.306-5.135 8.534-10.338 12.527-15.723 0.045 0.021 0.174 0.082 0.174 0.082s21.636-25.904 4.949-32.192c-16.34-6.156-45.903-2.578-47.133-2.425-0.613-1.681 0.045-3.395 1.457-5.18 3.686-4.659 5.284-5.869 6.01-11.469 1.085-8.38-0.33-17.192 13.602-17.157 5.567 0.013 10.393 1.856 15.571 2.796 6.491 1.179 11.801 5.461 13.021 12.096 0.265 1.448 2.495 5.164 3.336 6.291 3.479 4.665 6.698 6.732 11.908 9.527 3.561 1.912 7.077 3.919 10.276 6.356 5.453 5.687 36.078 40.01 9.849 68.142-28.69 30.775-76.775 13.464-76.775 13.464 16.669 22.133 42.556 32.92 68.149 38.788 17.743 4.069 37.866 3.345 56.346 1.764 0 0 1.795-5.353-22.798-16.323 9e-3 -0.015 44.48-37.372 21.08-67.825 0 0 5.129 41.994-42.796 62.19 0 0 10.433 7.507 15.015 12.448-22.387-1.244-43.983-5.737-64.08-16.092l9.142-0.864c3.323-0.214 6.629-0.498 9.899-0.935 7.901-1.058 15.547-2.977 22.744-6.834 5.796-3.107 11.222-6.77 16.074-11.109 0.201-0.075 0.315-0.236 0.458-0.407 2.643-2.41 5.157-4.969 7.339-7.895 6.266-8.404 9.312-24.262 7.599-34.585-2.414-14.547-3.573-17.314-11.785-26.006-3.539-3.745-20.673-12.81-21.608-12.342 3.743-1.875 19.751-1.069 23.534-0.263 7.138 1.524 13.617 3.471 19.718 6.417 4.382 2.117 8.568 4.747 12.661 8.106 8.879 7.285 16.382 16.58 20.901 27.186 3.237 7.595 4.751 15.831 4.535 24.079-0.185 7.003-1.571 13.947-3.829 20.57-1.691 4.965-3.866 9.772-6.471 14.324" fill="#e5cc00"/>
     </g>
    </g>
    <g>
     <g transform="translate(198.19 378.48)">
      <path d="m0 0-2.16-5.891-7.575 2.78 2.15 5.866c0.743 2.022 1.599 3.315 2.567 3.877 0.97 0.561 2.007 0.638 3.112 0.233 1.191-0.437 1.988-1.194 2.395-2.269 0.404-1.075 0.244-2.606-0.489-4.596m-15.007 4.526-1.847-5.026-7.086 2.604 1.87 5.101c0.642 1.75 1.398 2.866 2.268 3.348 0.874 0.48 1.852 0.521 2.944 0.122 1.172-0.43 1.937-1.113 2.299-2.047 0.363-0.932 0.213-2.3-0.448-4.102m23.923-5.079c0.313 0.852 0.774 2.64 1.391 5.366 0.462 2.05 0.592 3.662 0.384 4.837-0.326 1.895-1.1 3.577-2.313 5.046-1.219 1.47-2.794 2.559-4.732 3.272-2.382 0.872-4.592 0.965-6.63 0.277-2.037-0.691-3.871-2.26-5.506-4.71 0.041 1.992-0.299 3.643-1.019 4.947-1.078 1.958-2.718 3.342-4.931 4.155-2.636 0.967-5.199 0.813-7.694-0.462-2.491-1.275-4.401-3.713-5.723-7.32l-7.939-21.627 37.39-13.726z"/>
     </g>
     <g transform="translate(214.13 399.32)">
      <path d="m0 0c2.454 0.542 4.465 2.113 6.036 4.719 1.183 1.954 1.825 3.813 1.939 5.574 0.108 1.764-0.258 3.799-1.105 6.111l3.998-2.416 5.334 8.839-24.701 14.91-5.715-9.466 11.887-7.176c2.25-1.356 3.591-2.658 4.025-3.903 0.431-1.245 0.308-2.434-0.376-3.566-0.629-1.04-1.439-1.648-2.435-1.83-1.001-0.181-2.274 0.197-3.827 1.133l-13.585 8.198-5.742-9.514 15.727-9.489c3.242-1.956 6.086-2.665 8.54-2.124"/>
     </g>
     <g transform="translate(234.17 426.56)">
      <path d="m0 0 6.901 8.645-22.555 17.997-6.897-8.642z"/>
     </g>
     <g transform="translate(215.82 455.35)">
      <path d="m0 0-5.882 4.693-6.901-8.642 5.883-4.696z"/>
     </g>
     <g transform="translate(253.11 448.27)">
      <path d="m0 0-28.85 27.464-7.643-8.028 28.849-27.465z"/>
     </g>
     <g transform="translate(254.67 478.15)">
      <path d="m0 0c1.141 0.921 2.437 1.252 3.885 0.989 1.445-0.264 2.881-1.277 4.303-3.038 1.571-1.943 2.335-3.643 2.299-5.092-0.041-1.451-0.606-2.622-1.707-3.509-1.028-0.831-2.232-1.103-3.623-0.813-1.385 0.287-2.816 1.349-4.297 3.181-1.58 1.958-2.368 3.625-2.364 5.004 5e-3 1.376 0.503 2.47 1.504 3.278m1.236-21.392c3.492-1.023 6.765-0.298 9.822 2.172 1.521 1.229 2.64 2.669 3.355 4.32 0.535 1.243 0.793 3.025 0.784 5.345l2.681-3.319 8.051 6.507-25.033 30.983-8.685-7.019 8.677-10.734c-1.576 0.217-3.093 0.111-4.547-0.32-1.458-0.432-2.853-1.189-4.194-2.269-2.748-2.22-4.215-5.037-4.405-8.449-0.185-3.412 1.223-6.978 4.225-10.698 2.689-3.324 5.778-5.498 9.269-6.519"/>
     </g>
     <g transform="translate(285.86 474.71)">
      <path d="m0 0 9.438 5.765-15.04 24.625-9.441-5.765z"/>
     </g>
     <g transform="translate(278.46 508.04)">
      <path d="m0 0-3.922 6.423-9.436-5.762 3.92-6.423z"/>
     </g>
     <g transform="translate(310.35 488.26)">
      <path d="m0 0-5.602 12.675c-1.059 2.402-1.418 4.234-1.064 5.499 0.354 1.266 1.142 2.169 2.368 2.71 1.11 0.491 2.124 0.528 3.039 0.111 0.919-0.416 1.743-1.453 2.477-3.108l6.412-14.513 10.166 4.492-7.417 16.775c-1.535 3.477-3.465 5.701-5.783 6.665-2.319 0.967-4.877 0.831-7.675-0.407-2.074-0.915-3.664-2.07-4.769-3.46-1.109-1.39-1.979-3.276-2.613-5.653l-1.897 4.299-9.418-4.164 11.664-26.39z"/>
     </g>
     <g transform="translate(338.71 519.7)">
      <path d="m0 0c0.575 1.193 1.549 1.958 2.921 2.296 1.372 0.335 2.667 0.079 3.881-0.77 1.218-0.851 2.074-2.296 2.572-4.336 0.503-2.042 0.421-3.679-0.235-4.911-0.661-1.234-1.658-2.015-2.993-2.343-1.409-0.344-2.664-0.134-3.764 0.631-1.1 0.766-1.902 2.161-2.396 4.184-0.565 2.306-0.556 4.053 0.014 5.249m-6.217-15.664c3.107-2.708 6.529-3.604 10.279-2.685 1.916 0.469 3.595 1.345 5.036 2.631 0.915 0.822 1.748 1.986 2.5 3.494l1.041-4.25c0.503-2.058 0.47-3.593-0.091-4.608-0.562-1.014-1.616-1.711-3.165-2.092-1.195-0.292-2.26-0.262-3.184 0.089-0.634 0.235-1.204 0.806-1.702 1.709l-10.719-1.365c0.114-0.607 0.213-1.087 0.299-1.438 0.694-2.832 2.296-4.836 4.814-6.011 2.513-1.173 6.588-1.071 12.217 0.308 2.463 0.602 4.596 1.358 6.399 2.264 1.798 0.908 3.201 2.006 4.197 3.294 1.001 1.291 1.681 2.822 2.038 4.596 0.358 1.778 0.321 3.544-0.108 5.303l-0.331 1.234-6.48 26.47-10.057-2.463 1.014-4.144c-1.648 1.406-3.274 2.305-4.868 2.697-1.599 0.392-3.487 0.321-5.67-0.213-3.414-0.835-5.895-2.656-7.444-5.459-1.553-2.805-1.793-6.389-0.725-10.752 0.934-3.818 2.505-6.686 4.71-8.609"/>
     </g>
     <g transform="translate(383.38 527.7)">
      <path d="m0 0 4.076 0.065 0.162-10.148c0.05-3.219 0.404-5.542 1.051-6.971 0.648-1.428 1.631-2.484 2.943-3.167 1.319-0.684 3.352-1.006 6.105-0.96 2.373 0.038 4.925 0.378 7.645 1.021l-0.936 7.619c-1.459-0.494-2.598-0.748-3.412-0.761-0.906-0.013-1.545 0.283-1.916 0.892-0.244 0.392-0.376 1.204-0.394 2.434l-0.168 10.221 6.089 0.099-0.132 8.094-6.088-0.097-0.176 10.974-10.991-5.857 0.086-5.298-4.075-0.066z"/>
     </g>
     <g transform="translate(421.71 519.51)">
      <path d="m0 0c0.362 2.602 1.023 4.347 1.987 5.237 0.965 0.892 2.111 1.245 3.438 1.062 1.204-0.168 2.083-0.668 2.644-1.506 0.562-0.835 0.72-2.15 0.471-3.944l-2.174-15.718 11.004-1.523 2.514 18.167c0.52 3.749 0.05 6.65-1.413 8.699s-3.686 3.278-6.661 3.691c-2.011 0.278-3.799 0.188-5.362-0.274-1.562-0.46-3.197-1.359-4.899-2.695l2.011 14.534-10.955 1.515-5.457-39.455 10.955-1.515z"/>
     </g>
     <g transform="translate(461.08 518.37)">
      <path d="m0 0c1.431 1 2.984 1.231 4.655 0.688 1.445-0.468 2.468-1.288 3.071-2.454 0.601-1.166 0.678-2.801 0.225-4.9l-10.365 3.365c0.707 1.58 1.508 2.68 2.414 3.301m-10.846-17.402c1.748-1.703 4.443-3.143 8.079-4.325 4.184-1.358 7.594-1.802 10.22-1.334 2.631 0.472 5.186 1.828 7.662 4.069l-10.048 4.32c-0.923-0.613-1.725-0.992-2.4-1.134-1.096-0.215-2.164-0.154-3.197 0.181-1.635 0.532-2.771 1.556-3.401 3.075-0.453 1.062-0.503 2.467-0.144 4.218l21.088-6.847 0.384 1.189c1.178 3.618 1.536 6.747 1.079 9.391-0.458 2.642-1.626 4.927-3.515 6.854-1.888 1.927-4.795 3.53-8.726 4.805-4.84 1.571-9.065 1.476-12.674-0.284-3.61-1.761-6.109-4.786-7.503-9.076-0.979-3.016-1.146-5.86-0.498-8.536 0.642-2.677 1.842-4.866 3.594-6.566"/>
     </g>
     <g transform="translate(522.03 502.08)">
      <path d="m0 0 2.921-1.936c1.915-1.27 2.984-2.5 3.197-3.684s-0.023-2.297-0.711-3.339c-0.711-1.073-1.694-1.687-2.953-1.843-1.254-0.159-2.871 0.419-4.85 1.73l-2.512 1.666zm-9.364-14.133 5.615-3.722c4.139-2.742 7.838-3.835 11.107-3.283 3.265 0.55 6.009 2.502 8.229 5.855 2.164 3.262 2.902 6.389 2.223 9.38-0.679 2.993-2.875 5.719-6.589 8.181l-17.058 11.3-21.998-33.206 10.306-6.826z"/>
     </g>
     <g transform="translate(533.68 453.05)">
      <path d="m0 0 6.507 7.157c3.106 3.419 5.647 5.368 7.626 5.846 1.389 0.349 2.626 0.036 3.699-0.938 0.562-0.511 1.142-1.408 1.744-2.687l7.829 3.53c-0.752 2.053-1.729 3.629-2.934 4.725-1.155 1.048-2.382 1.641-3.682 1.786-1.304 0.143-3.011-0.208-5.126-1.052l3.179 3.498-7.657 6.962-19.409-21.353z"/>
     </g>
     <g transform="translate(550.29 435.78)">
      <path d="m0 0 21.469 19.279-7.391 8.228-21.469-19.279z"/>
     </g>
     <g transform="translate(579.92 462.4)">
      <path d="m0 0-7.386 8.226-5.601-5.029 7.39-8.226z"/>
     </g>
     <g transform="translate(579.97 431.85)">
      <path d="m0 0c0.829-1.209 1.056-2.525 0.68-3.947s-1.499-2.773-3.365-4.053c-2.065-1.415-3.817-2.044-5.262-1.892-1.44 0.151-2.563 0.81-3.36 1.976-0.752 1.092-0.923 2.314-0.53 3.675 0.399 1.359 1.567 2.703 3.51 4.035 2.078 1.424 3.804 2.078 5.176 1.967 1.372-0.113 2.422-0.699 3.151-1.761m-14.196 9.176c-3.528-2.418-5.937-5.325-7.232-8.726-1.29-3.4-0.824-6.722 1.4-9.964 1.104-1.612 2.45-2.841 4.039-3.686 1.2-0.627 2.957-1.026 5.271-1.198l-3.518-2.411 5.85-8.538 32.853 22.521-6.313 9.211-11.383-7.805c0.338 1.553 0.352 3.07 0.036 4.558-0.313 1.485-0.96 2.937-1.93 4.356-2.001 2.914-4.691 4.599-8.078 5.054-3.388 0.457-7.055-0.668-10.995-3.372"/>
     </g>
     <g transform="translate(601.69 393.47)">
      <path d="m0 0c-0.458-1.229-1.617-2.387-3.474-3.464l-4.492 9.925c1.644 0.544 2.998 0.691 4.067 0.437 1.703-0.38 2.92-1.372 3.645-2.972 0.625-1.386 0.711-2.695 0.254-3.926m-3.229 16.225c-3.732 1.481-7.653 1.293-11.76-0.569-2.889-1.306-5.104-3.099-6.648-5.377-1.544-2.28-2.354-4.639-2.431-7.082-0.078-2.441 0.67-5.403 2.246-8.883 1.815-4.012 3.781-6.828 5.9-8.454 2.114-1.626 4.841-2.601 8.169-2.925l-3.577 10.34c-1.078 0.27-1.898 0.605-2.454 1.008-0.902 0.668-1.571 1.494-2.02 2.486-0.711 1.566-0.716 3.095-0.018 4.585 0.479 1.05 1.485 2.033 3.02 2.948l9.143-20.199 1.137 0.514c3.463 1.569 6.022 3.412 7.666 5.529 1.648 2.117 2.549 4.522 2.699 7.216 0.153 2.695-0.621 5.921-2.323 9.684-2.102 4.637-5.018 7.696-8.749 9.179"/>
     </g>
     <g transform="translate(626.19 380.41)">
      <path d="m0 0-8.69-2.622-16.809-7.399 2.11-6.996 18.114 3.081 8.689 2.62z"/>
     </g>
     <g transform="translate(588.18 368.51)">
      <path d="m0 0 3.188-10.56 9.337 2.817-3.187 10.56z"/>
     </g>
     <g transform="translate(217.69 182.24)">
      <path d="m0 0-1.722 2.477 7.305 5.063 1.997-2.881c1.309-1.888 1.843-3.423 1.603-4.604-0.24-1.183-0.874-2.129-1.898-2.84-1.059-0.734-2.2-0.938-3.423-0.62-1.222 0.321-2.513 1.453-3.862 3.405m14.399-12.43c3.215 2.228 5.063 4.859 5.543 7.888 0.476 3.034-0.557 6.381-3.092 10.039l-11.657 16.814-32.734-22.692 7.041-10.156 12.149 8.418 3.835-5.538c2.831-4.075 5.865-6.467 9.103-7.164 3.237-0.698 6.507 0.099 9.812 2.391"/>
     </g>
     <g transform="translate(243.64 147.01)">
      <path d="m0 0 8.083 2.912c-0.589 2.106-1.444 3.754-2.562 4.941-1.07 1.131-2.247 1.82-3.533 2.064s-3.015 0.027-5.189-0.652l3.441 3.242-7.095 7.535-21.002-19.788 7.616-8.088 7.042 6.634c3.359 3.165 6.045 4.913 8.055 5.235 1.417 0.239 2.623-0.168 3.614-1.222 0.525-0.553 1.032-1.491 1.53-2.813"/>
     </g>
     <g transform="translate(261.16 124.93)">
      <path d="m0 0c-1.661-2.102-3.27-3.315-4.827-3.632-1.553-0.317-2.957 0.018-4.206 1.005-1.241 0.974-1.884 2.269-1.939 3.881-0.054 1.612 0.716 3.428 2.31 5.447 1.571 1.988 3.151 3.148 4.745 3.469 1.595 0.321 3.025-0.014 4.289-1.014 1.195-0.942 1.82-2.215 1.87-3.813 0.054-1.599-0.693-3.378-2.242-5.343m4.959 15.229c-3.967 3.132-8.002 4.496-12.1 4.097-4.098-0.398-7.512-2.323-10.238-5.778-2.93-3.708-3.922-7.797-2.971-12.263 0.788-3.622 3.002-6.869 6.643-9.744 4.08-3.22 8.151-4.633 12.218-4.229 4.066 0.398 7.475 2.34 10.224 5.828 2.451 3.096 3.578 6.438 3.388 10.029-0.24 4.461-2.632 8.477-7.164 12.06"/>
     </g>
     <g transform="translate(297.28 105.52)">
      <path d="m0 0c-1.209 1.518-3.328 3.342-6.344 5.484-1.988 1.422-3.211 2.468-3.673 3.138-0.457 0.666-0.515 1.309-0.176 1.925 0.303 0.552 0.815 0.888 1.526 1 0.716 0.113 1.621-0.131 2.713-0.737 1.082-0.594 1.86-1.355 2.341-2.283 0.343-0.684 0.416-1.499 0.208-2.441l9.681-4.156c0.277 2.001 0.2 3.749-0.226 5.243-0.426 1.499-1.232 2.871-2.413 4.125-1.183 1.25-3.28 2.704-6.295 4.365-2.858 1.576-5.293 2.532-7.322 2.876-2.024 0.34-3.854 0.177-5.484-0.498-1.63-0.67-2.902-1.839-3.822-3.501-0.838-1.521-1.137-3.124-0.897-4.804 0.241-1.684 0.879-3.138 1.916-4.356 1.033-1.223 3.066-3.052 6.109-5.493 2.033-1.635 3.237-2.735 3.613-3.292 0.521-0.779 0.589-1.522 0.204-2.219-0.34-0.616-0.901-0.978-1.684-1.082-1.019-0.163-2.178 0.113-3.478 0.833-1.191 0.656-2.006 1.427-2.45 2.31-0.443 0.887-0.548 2.01-0.317 3.369l-10.112 4.392c-0.778-2.73-0.556-5.294 0.68-7.694 1.231-2.395 4.156-4.863 8.771-7.408 3.269-1.802 6.077-2.817 8.422-3.047 2.346-0.227 4.338 0.103 5.978 1.001 1.639 0.891 2.862 2.069 3.668 3.527 0.792 1.44 1.104 2.993 0.937 4.654-0.168 1.667-0.86 3.256-2.074 4.769"/>
     </g>
     <g transform="translate(326.71 91.011)">
      <path d="m0 0c-0.842-2.396-1.848-3.944-3.016-4.66-1.172-0.711-2.364-0.851-3.577-0.426-1.386 0.485-2.345 1.409-2.889 2.772-0.539 1.358-0.43 3.115 0.326 5.271 0.824 2.341 1.861 3.876 3.12 4.605 1.254 0.729 2.545 0.861 3.881 0.394 1.226-0.435 2.087-1.317 2.581-2.649 0.489-1.336 0.348-3.107-0.426-5.307m3.944 14.422c-1.842 0.648-3.668 0.838-5.47 0.571-1.34-0.204-2.98-0.915-4.927-2.129l1.418 4.022-9.768 3.432-13.205-37.58 10.538-3.7 4.565 12.996c0.665-1.444 1.561-2.671 2.694-3.681 1.132-1.014 2.499-1.802 4.107-2.369 3.315-1.163 6.48-0.932 9.487 0.689s5.306 4.696 6.896 9.224c1.44 4.103 1.658 7.893 0.643 11.379-1.01 3.483-3.337 5.865-6.978 7.146"/>
     </g>
     <g transform="translate(354.08 86.474)">
      <path d="m0 0c0.457 1.666 1.092 2.875 1.893 3.622 1.263 1.205 2.762 1.662 4.497 1.377 1.503-0.249 2.635-0.906 3.405-1.97 0.769-1.064 1.087-2.668 0.951-4.809zm16.348 8.087c-2.157 1.621-5.267 2.771-9.342 3.446-5.023 0.833-9.184 0.109-12.494-2.169-3.306-2.282-5.325-5.647-6.064-10.093-0.515-3.129-0.258-5.969 0.78-8.518 1.037-2.55 2.548-4.533 4.532-5.955 1.988-1.422 4.868-2.445 8.636-3.07 4.342-0.72 7.779-0.652 10.306 0.209 2.531 0.855 4.855 2.576 6.969 5.162l-10.582 2.775c-0.82-0.747-1.554-1.24-2.201-1.48-1.055-0.376-2.115-0.476-3.188-0.299-1.698 0.28-2.971 1.128-3.822 2.531-0.607 0.982-0.865 2.368-0.77 4.152l21.871-3.627 0.205 1.237c0.62 3.749 0.506 6.901-0.335 9.445-0.847 2.545-2.346 4.628-4.501 6.254"/>
     </g>
     <g transform="translate(401.62 73.567)">
      <path d="m0 0c-0.974-0.761-2.188-1.15-3.637-1.173-1.738-0.027-3.178 0.562-4.32 1.776-1.146 1.209-1.733 2.998-1.774 5.366-0.041 2.658 0.493 4.65 1.602 5.981 1.109 1.327 2.581 2.006 4.411 2.038 1.448 0.023 2.609-0.271 3.478-0.883 0.871-0.611 1.482-1.526 1.827-2.753l10.383 1.553c-1.05 3.224-2.825 5.66-5.321 7.304-2.5 1.644-6.104 2.428-10.815 2.354-3.369-0.058-6.123-0.542-8.265-1.466-1.349-0.584-2.658-1.458-3.925-2.626-1.268-1.173-2.26-2.487-2.98-3.945-0.982-1.992-1.449-4.469-1.399-7.435 0.045-2.844 0.498-5.117 1.358-6.82 0.86-1.708 2.038-3.183 3.523-4.438 1.49-1.249 3.256-2.146 5.302-2.681 2.047-0.538 4.602-0.783 7.662-0.733 3.172 0.055 5.777 0.539 7.819 1.458 2.038 0.924 3.709 2.196 5.004 3.817 1.295 1.626 2.218 3.537 2.761 5.738l-10.532 1.028c-0.467-1.549-1.186-2.703-2.162-3.46"/>
     </g>
     <g transform="translate(437.05 76.33)">
      <path d="m0 0c-0.897-0.132-1.572 0.077-2.021 0.629-0.289 0.362-0.529 1.145-0.71 2.364l-1.512 10.111 6.022 0.897-1.2 8.011-6.017-0.902-1.626 10.855-10.122-7.254 0.784-5.239-4.03-0.603 1.196-8.011 4.03 0.603 1.503-10.035c0.475-3.183 1.128-5.443 1.961-6.775 0.828-1.326 1.942-2.245 3.337-2.748 1.394-0.507 3.451-0.557 6.176-0.149 2.346 0.353 4.828 1.027 7.445 2.024l-1.938 7.426c-1.382-0.683-2.472-1.082-3.278-1.204"/>
     </g>
     <g transform="translate(480.95 107.11)">
      <path d="m0 0c-0.579-1.123-1.965-2.133-4.166-3.029l-2.789-1.137-3.352 8.228 3.244 1.322c2.132 0.869 3.744 1.055 4.844 0.566 1.101-0.494 1.889-1.318 2.36-2.472 0.484-1.192 0.439-2.351-0.141-3.478m4.61 15.445c-2.857 1.128-6.348 0.852-10.474-0.833l-18.947-7.716 15.021-36.887 11.452 4.664-5.574 13.689 6.24 2.54c4.596 1.87 7.585 4.312 8.97 7.323 1.386 3.006 1.322 6.376-0.194 10.098-1.477 3.622-3.641 5.999-6.494 7.122"/>
     </g>
     <g transform="translate(524.88 139.06)">
      <path d="m0 0-5.339 8.26-31.417-20.31 5.339-8.26 10.542 6.816 16.283-25.191 10.334 6.679-16.283 25.192z"/>
     </g>
     <g transform="translate(564.6 153.04)">
      <path d="m0 0c-1.499 1.576-3.233 2.636-5.212 3.179-1.979 0.548-4.221 0.448-6.725-0.294-2.503-0.743-6.108-2.545-10.809-5.407-1.888-1.168-3.224-1.762-4.003-1.78-0.783-0.041-1.395 0.167-1.829 0.625-0.598 0.634-0.847 1.417-0.738 2.355 0.108 0.937 0.683 1.901 1.72 2.884 1.259 1.2 2.528 1.843 3.809 1.929 1.276 0.091 2.644-0.412 4.102-1.499l7.948 8.478c-3.215 2.648-6.44 3.74-9.682 3.273-3.237-0.471-6.706-2.454-10.396-5.959-3.007-2.853-5.018-5.479-6.028-7.875-1.014-2.395-1.322-4.659-0.928-6.797 0.394-2.137 1.294-3.948 2.703-5.433 2.142-2.26 4.751-3.32 7.816-3.184 3.052 0.127 6.951 1.608 11.701 4.442 2.894 1.744 4.945 2.631 6.163 2.663 1.218 0.036 2.183-0.327 2.894-1.074 0.747-0.788 1.059-1.806 0.936-3.06-0.122-1.25-0.819-2.482-2.091-3.691-1.707-1.621-3.578-2.287-5.606-1.988-1.25 0.186-2.622 0.883-4.116 2.088l-7.988-8.595c3.015-2.68 6.367-4.066 10.057-4.166 3.686-0.095 7.988 2.187 12.901 6.851 2.798 2.658 4.732 5.263 5.805 7.816 1.074 2.554 1.381 5.099 0.919 7.635-0.457 2.535-1.566 4.731-3.323 6.584"/>
     </g>
     <g transform="translate(580.95 178.53)">
      <path d="m0 0-5.072-7.123-9.138 11.851zm-26.427 5.371 23.755-35.298 7.291 10.234-4.225 5.397 8.105 11.38 6.512-2.191 7.476 10.496-41.126 10.918z"/>
     </g>
    </g>
   </g>
  </g>
 </g>
</svg>
