<?xml version="1.0" encoding="UTF-8" standalone="no"?>
<!-- Created with Inkscape (http://www.inkscape.org/) -->

<svg
   xmlns:dc="http://purl.org/dc/elements/1.1/"
   xmlns:cc="http://creativecommons.org/ns#"
   xmlns:rdf="http://www.w3.org/1999/02/22-rdf-syntax-ns#"
   xmlns:svg="http://www.w3.org/2000/svg"
   xmlns="http://www.w3.org/2000/svg"
   xmlns:sodipodi="http://sodipodi.sourceforge.net/DTD/sodipodi-0.dtd"
   xmlns:inkscape="http://www.inkscape.org/namespaces/inkscape"
   width="46.17836mm"
   height="47.643398mm"
   viewBox="0 0 46.178359 47.643397"
   version="1.1"
   id="svg1194"
   sodipodi:docname="prospect-ptsa.svg"
   inkscape:version="0.92.4 (5da689c313, 2019-01-14)">
  <defs
     id="defs1188">
    <clipPath
       id="clipPath1936"
       clipPathUnits="userSpaceOnUse">
      <rect
         y="375.44376"
         x="189.97081"
         height="144.72708"
         width="123.825"
         id="rect1938"
         style="opacity:0.5;fill:#ff0000;stroke:none;stroke-width:1;stroke-linejoin:round" />
    </clipPath>
    <clipPath
       id="clipPath20"
       clipPathUnits="userSpaceOnUse">
      <path
         inkscape:connector-curvature="0"
         id="path18"
         d="M 0,612 H 792 V 0 H 0 Z" />
    </clipPath>
  </defs>
  <sodipodi:namedview
     id="base"
     pagecolor="#ffffff"
     bordercolor="#666666"
     borderopacity="1.0"
     inkscape:pageopacity="0.0"
     inkscape:pageshadow="2"
     inkscape:zoom="0.35"
     inkscape:cx="339.60636"
     inkscape:cy="100.71277"
     inkscape:document-units="mm"
     inkscape:current-layer="layer1"
     showgrid="false"
     inkscape:window-width="1216"
     inkscape:window-height="640"
     inkscape:window-x="3483"
     inkscape:window-y="212"
     inkscape:window-maximized="0"
     fit-margin-top="0"
     fit-margin-left="0"
     fit-margin-right="0"
     fit-margin-bottom="0" />
  <metadata
     id="metadata1191">
    <rdf:RDF>
      <cc:Work
         rdf:about="">
        <dc:format>image/svg+xml</dc:format>
        <dc:type
           rdf:resource="http://purl.org/dc/dcmitype/StillImage" />
        <dc:title></dc:title>
      </cc:Work>
    </rdf:RDF>
  </metadata>
  <g
     inkscape:label="Layer 1"
     inkscape:groupmode="layer"
     id="layer1"
     transform="translate(-10.581806,-29.742294)">
    <g
       style="display:inline;opacity:1"
       id="g14"
       transform="matrix(0.09883711,0,0,-0.09883711,-5.4685009,83.80813)">
      <g
         clip-path="url(#clipPath20)"
         id="g16"
         style="fill:#ffffff">
        <g
           transform="translate(284.9942,263.8672)"
           id="g22"
           style="fill:#ffffff">
          <path
             inkscape:connector-curvature="0"
             id="path24"
             style="fill:#ffffff;fill-opacity:1;fill-rule:nonzero;stroke:none"
             d="m 0,0 c -0.693,-0.268 -10.465,-4.21 -20.13,-16.018 0.036,-0.679 0.207,-1.401 0.492,-2.169 1.91,-3.694 7.267,-12.262 17.444,-16.479 0.141,-0.071 0.316,-0.126 0.45,-0.2 0.015,-0.007 0.028,-0.014 0.044,-0.02 v -0.012 c 0.178,-0.1 0.302,-0.231 0.467,-0.338 -1.121,1.561 -5.587,8.247 -6.076,15.704 l -0.065,-0.005 c 10e-4,0.144 0.022,0.269 0.025,0.412 -0.111,2.46 0.235,4.987 1.287,7.432 2.872,8.134 9.755,11.4 12.934,12.496 C 7.251,0.997 7.631,1.19 7.986,1.37 6.877,1.482 4.09,1.519 0,0" />
        </g>
        <g
           transform="translate(285.5752,227.6113)"
           id="g26"
           style="fill:#ffffff">
          <path
             inkscape:connector-curvature="0"
             id="path28"
             style="fill:#ffffff;fill-opacity:1;fill-rule:nonzero;stroke:none"
             d="m 0,0 c 0,0 3.277,-9.196 9.253,-15.804 23.12,-1.662 36.204,0.574 40.73,1.615 v 10.135 c 0,0 -3.2,-4.374 -5.546,-4.374 -2.347,0 -5.034,4.16 -5.034,4.16 0,0 -2.522,-4.16 -4.14,-4.16 -1.333,0 -2.73,1.056 -3.727,2.02 -0.69,0.667 -1.771,0.577 -2.423,-0.129 C 27.796,-7.965 24.87,-9.772 18.515,-9.708 8.062,-9.601 0,0 0,0" />
        </g>
        <g
           transform="translate(330.7227,342.5654)"
           id="g30"
           style="fill:#ffffff">
          <path
             inkscape:connector-curvature="0"
             id="path32"
             style="fill:#ffffff;fill-opacity:1;fill-rule:nonzero;stroke:none"
             d="m 0,0 c -1.597,-0.599 -3.293,-1.027 -4.981,-1.257 -1.508,-0.206 -3.482,-0.655 -4.145,1.262 -0.548,1.582 0.568,3.06 1.779,4.047 3.352,2.731 6.814,5.325 10.513,8.192 C 6.076,8.176 4.28,1.604 0,0 m 111.177,-37.123 c -0.771,1.347 -1.579,2.674 -2.441,3.966 -0.233,0.349 -0.584,1.153 -0.958,1.378 -1.241,0.746 -1.699,1.96 -0.972,3.229 0.956,1.672 3.901,2.426 5.55,2.942 8.833,2.762 18.882,3.55 28.074,4.194 10.036,0.704 20.161,0.509 30.124,-0.954 14.446,-2.122 28.517,-6.469 41.808,-12.485 9.033,-4.088 17.762,-8.876 26.072,-14.29 2.445,-1.592 4.859,-3.239 7.213,-4.965 0.581,-0.425 2.153,-1.192 2.478,-1.872 -18.711,39.18 -85.357,71.534 -88.71,73.143 -0.073,0.011 -0.147,0.02 -0.222,0.029 C 155.364,14.104 139.5,2.214 122.25,2.214 c -19.822,0 -28.405,15.087 -28.405,15.087 -0.754,1.295 -0.41,2.523 1.792,3.342 6.445,2.398 12.939,4.522 19.237,4.902 0.336,0.043 0.61,0.045 0.93,0.058 0.203,0.007 0.406,0.018 0.609,0.021 10.355,0.377 15.394,-0.582 17.78,-1.579 1.381,-0.576 1.927,-2.289 1.077,-3.52 C 127.538,9.336 114.721,7.584 111.606,7.32 c -0.098,-0.049 -0.195,-0.082 -0.293,-0.123 21.497,-5.498 44.244,14.271 48.125,17.841 1.272,1.363 2.484,2.795 3.57,4.369 2.021,2.928 5.078,5.044 2.554,10.05 -8.427,-4.351 -18.984,-3.317 -27.162,-1.528 -10.569,2.312 -20.157,3.649 -30.725,2.377 -11.286,-1.358 -23.279,-2.585 -34.354,0.671 -4.393,1.291 -8.519,3.448 -13.026,4.361 -4.276,0.867 -8.964,0.544 -13.168,-0.563 C 42.016,43.43 36.547,43.152 31.31,42.218 25.621,41.203 19.976,39.939 14.399,38.422 3.266,35.391 -7.603,31.348 -17.949,26.231 -28.119,21.202 -35.127,15.529 -40.356,4.683 c -0.434,-0.901 -2.457,-2.352 -3.778,-2.49 -7.145,-0.745 -9.917,-6.183 -14.938,-9.701 -0.009,-2.775 5.495,-3.864 3.778,-8.5 -0.413,-0.221 -0.846,-0.292 -1.288,-0.288 -3.301,-0.243 -5.864,3.71 -8.647,3.331 -0.276,-1.18 -0.547,-2.342 -0.94,-4.024 -7.523,3.615 -11.625,-0.692 -15.205,-6.224 -0.424,-0.655 -1.115,-1.129 -1.64,-1.725 -6.006,-6.835 -11.53,-14.041 -16.751,-21.493 -1.35,-1.927 -2.01,-3.932 -0.256,-5.493 1.857,-1.651 4.045,-1.192 5.873,0.717 1.789,1.871 3.485,4.075 5.695,5.226 1.576,0.82 2.405,3.998 4.062,3.682 0.029,0.026 0.163,-0.012 0.163,-0.012 0.08,-0.022 4.538,-1.269 4.538,-1.269 l -15.302,-17.584 c -2.39,-9.118 2.409,-16.407 3.385,-17.767 0.836,-0.935 1.761,-1.814 2.888,-2.555 5.226,-3.441 7.577,-9.091 11.641,-13.383 1.094,-1.156 1.89,-2.833 3.659,-2.533 1.595,0.27 2.632,1.534 2.999,3.273 0.326,1.547 1.399,2.747 2.166,4.096 2.825,4.964 6.762,8.971 11.264,12.033 2.967,2.282 5.847,3.914 8.633,5.095 0.402,0.19 0.806,0.367 1.222,0.514 14.71,5.566 26.406,-2.172 32.675,-8.094 0.146,-0.134 0.289,-0.271 0.432,-0.409 2.969,-2.878 4.606,-5.229 4.606,-5.229 4.306,-5.135 8.534,-10.338 12.527,-15.723 0.045,0.021 0.174,0.082 0.174,0.082 0,0 21.636,-25.904 4.949,-32.192 -16.34,-6.156 -45.903,-2.578 -47.133,-2.425 -0.613,-1.681 0.045,-3.395 1.457,-5.18 3.686,-4.659 5.284,-5.869 6.01,-11.469 1.085,-8.38 -0.33,-17.192 13.602,-17.157 5.567,0.013 10.393,1.856 15.571,2.796 6.491,1.179 11.801,5.461 13.021,12.096 0.265,1.448 2.495,5.164 3.336,6.291 3.479,4.665 6.698,6.732 11.908,9.527 3.561,1.912 7.077,3.919 10.276,6.356 5.453,5.687 36.078,40.01 9.849,68.142 -28.69,30.775 -76.775,13.464 -76.775,13.464 16.669,22.133 42.556,32.92 68.149,38.788 17.743,4.069 37.866,3.345 56.346,1.764 0,0 1.795,-5.353 -22.798,-16.323 0.009,-0.015 44.48,-37.372 21.08,-67.825 0,0 5.129,41.994 -42.796,62.19 0,0 10.433,7.507 15.015,12.448 -22.387,-1.244 -43.983,-5.737 -64.08,-16.092 l 9.142,-0.864 c 3.323,-0.214 6.629,-0.498 9.899,-0.935 7.901,-1.058 15.547,-2.977 22.744,-6.834 5.796,-3.107 11.222,-6.77 16.074,-11.109 0.201,-0.075 0.315,-0.236 0.458,-0.407 2.643,-2.41 5.157,-4.969 7.339,-7.895 6.266,-8.404 9.312,-24.262 7.599,-34.585 -2.414,-14.547 -3.573,-17.314 -11.785,-26.006 -3.539,-3.745 -20.673,-12.81 -21.608,-12.342 3.743,-1.875 19.751,-1.069 23.534,-0.263 7.138,1.524 13.617,3.471 19.718,6.417 4.382,2.117 8.568,4.747 12.661,8.106 8.879,7.285 16.382,16.58 20.901,27.186 3.237,7.595 4.751,15.831 4.535,24.079 -0.185,7.003 -1.571,13.947 -3.829,20.57 -1.691,4.965 -3.866,9.772 -6.471,14.324" />
        </g>
        <g
           transform="translate(198.1875,378.4795)"
           id="g34"
           style="fill:#ffffff">
          <path
             inkscape:connector-curvature="0"
             id="path36"
             style="fill:#ffffff;fill-opacity:1;fill-rule:nonzero;stroke:none"
             d="m 0,0 -2.16,-5.891 -7.575,2.78 2.15,5.866 c 0.743,2.022 1.599,3.315 2.567,3.877 0.97,0.561 2.007,0.638 3.112,0.233 C -0.715,6.428 0.082,5.671 0.489,4.596 0.893,3.521 0.733,1.99 0,0 m -15.007,4.526 -1.847,-5.026 -7.086,2.604 1.87,5.101 c 0.642,1.75 1.398,2.866 2.268,3.348 0.874,0.48 1.852,0.521 2.944,0.122 1.172,-0.43 1.937,-1.113 2.299,-2.047 0.363,-0.932 0.213,-2.3 -0.448,-4.102 M 8.916,-0.553 c 0.313,0.852 0.774,2.64 1.391,5.366 0.462,2.05 0.592,3.662 0.384,4.837 -0.326,1.895 -1.1,3.577 -2.313,5.046 -1.219,1.47 -2.794,2.559 -4.732,3.272 -2.382,0.872 -4.592,0.965 -6.63,0.277 -2.037,-0.691 -3.871,-2.26 -5.506,-4.71 0.041,1.992 -0.299,3.643 -1.019,4.947 -1.078,1.958 -2.718,3.342 -4.931,4.155 -2.636,0.967 -5.199,0.813 -7.694,-0.462 -2.491,-1.275 -4.401,-3.713 -5.723,-7.32 l -7.939,-21.627 37.39,-13.726 z" />
        </g>
        <g
           transform="translate(214.127,399.3184)"
           id="g38"
           style="fill:#ffffff">
          <path
             inkscape:connector-curvature="0"
             id="path40"
             style="fill:#ffffff;fill-opacity:1;fill-rule:nonzero;stroke:none"
             d="m 0,0 c 2.454,0.542 4.465,2.113 6.036,4.719 1.183,1.954 1.825,3.813 1.939,5.574 0.108,1.764 -0.258,3.799 -1.105,6.111 l 3.998,-2.416 5.334,8.839 -24.701,14.91 -5.715,-9.466 11.887,-7.176 c 2.25,-1.356 3.591,-2.658 4.025,-3.903 0.431,-1.245 0.308,-2.434 -0.376,-3.566 -0.629,-1.04 -1.439,-1.648 -2.435,-1.83 -1.001,-0.181 -2.274,0.197 -3.827,1.133 L -18.525,21.127 -24.267,11.613 -8.54,2.124 C -5.298,0.168 -2.454,-0.541 0,0" />
        </g>
        <g
           transform="translate(234.169,426.5562)"
           id="g42"
           style="fill:#ffffff">
          <path
             inkscape:connector-curvature="0"
             id="path44"
             style="fill:#ffffff;fill-opacity:1;fill-rule:nonzero;stroke:none"
             d="M 0,0 6.901,8.645 -15.654,26.642 -22.551,18 Z" />
        </g>
        <g
           transform="translate(215.8203,455.3516)"
           id="g46"
           style="fill:#ffffff">
          <path
             inkscape:connector-curvature="0"
             id="path48"
             style="fill:#ffffff;fill-opacity:1;fill-rule:nonzero;stroke:none"
             d="M 0,0 -5.882,4.693 -12.783,-3.949 -6.9,-8.645 Z" />
        </g>
        <g
           transform="translate(253.1065,448.2671)"
           id="g50"
           style="fill:#ffffff">
          <path
             inkscape:connector-curvature="0"
             id="path52"
             style="fill:#ffffff;fill-opacity:1;fill-rule:nonzero;stroke:none"
             d="M 0,0 -28.85,27.464 -36.493,19.436 -7.644,-8.029 Z" />
        </g>
        <g
           transform="translate(254.669,478.147)"
           id="g54"
           style="fill:#ffffff">
          <path
             inkscape:connector-curvature="0"
             id="path56"
             style="fill:#ffffff;fill-opacity:1;fill-rule:nonzero;stroke:none"
             d="M 0,0 C 1.141,0.921 2.437,1.252 3.885,0.989 5.33,0.725 6.766,-0.288 8.188,-2.049 9.759,-3.992 10.523,-5.692 10.487,-7.141 10.446,-8.592 9.881,-9.763 8.78,-10.65 7.752,-11.481 6.548,-11.753 5.157,-11.463 3.772,-11.176 2.341,-10.114 0.86,-8.282 -0.72,-6.324 -1.508,-4.657 -1.504,-3.278 -1.499,-1.902 -1.001,-0.808 0,0 m 1.236,-21.392 c 3.492,-1.023 6.765,-0.298 9.822,2.172 1.521,1.229 2.64,2.669 3.355,4.32 0.535,1.243 0.793,3.025 0.784,5.345 l 2.681,-3.319 8.051,6.507 L 0.896,24.616 -7.789,17.597 0.888,6.863 C -0.688,7.08 -2.205,6.974 -3.659,6.543 -5.117,6.111 -6.512,5.354 -7.853,4.274 c -2.748,-2.22 -4.215,-5.037 -4.405,-8.449 -0.185,-3.412 1.223,-6.978 4.225,-10.698 2.689,-3.324 5.778,-5.498 9.269,-6.519" />
        </g>
        <g
           transform="translate(285.8594,474.7075)"
           id="g58"
           style="fill:#ffffff">
          <path
             inkscape:connector-curvature="0"
             id="path60"
             style="fill:#ffffff;fill-opacity:1;fill-rule:nonzero;stroke:none"
             d="M 0,0 9.438,5.765 -5.602,30.39 -15.043,24.625 Z" />
        </g>
        <g
           transform="translate(278.4561,508.0405)"
           id="g62"
           style="fill:#ffffff">
          <path
             inkscape:connector-curvature="0"
             id="path64"
             style="fill:#ffffff;fill-opacity:1;fill-rule:nonzero;stroke:none"
             d="m 0,0 -3.922,6.423 -9.436,-5.762 3.92,-6.423 z" />
        </g>
        <g
           transform="translate(310.3535,488.2563)"
           id="g66"
           style="fill:#ffffff">
          <path
             inkscape:connector-curvature="0"
             id="path68"
             style="fill:#ffffff;fill-opacity:1;fill-rule:nonzero;stroke:none"
             d="m 0,0 -5.602,12.675 c -1.059,2.402 -1.418,4.234 -1.064,5.499 0.354,1.266 1.142,2.169 2.368,2.71 1.11,0.491 2.124,0.528 3.039,0.111 0.919,-0.416 1.743,-1.453 2.477,-3.108 L 7.63,3.374 17.796,7.866 10.379,24.641 c -1.535,3.477 -3.465,5.701 -5.783,6.665 -2.319,0.967 -4.877,0.831 -7.675,-0.407 -2.074,-0.915 -3.664,-2.07 -4.769,-3.46 -1.109,-1.39 -1.979,-3.276 -2.613,-5.653 l -1.897,4.299 -9.418,-4.164 11.664,-26.39 z" />
        </g>
        <g
           transform="translate(338.709,519.6963)"
           id="g70"
           style="fill:#ffffff">
          <path
             inkscape:connector-curvature="0"
             id="path72"
             style="fill:#ffffff;fill-opacity:1;fill-rule:nonzero;stroke:none"
             d="M 0,0 C 0.575,1.193 1.549,1.958 2.921,2.296 4.293,2.631 5.588,2.375 6.802,1.526 8.02,0.675 8.876,-0.77 9.374,-2.81 9.877,-4.852 9.795,-6.489 9.139,-7.721 8.478,-8.955 7.481,-9.736 6.146,-10.064 4.737,-10.408 3.482,-10.198 2.382,-9.433 1.282,-8.667 0.48,-7.272 -0.014,-5.249 -0.579,-2.943 -0.57,-1.196 0,0 m -6.217,-15.664 c 3.107,-2.708 6.529,-3.604 10.279,-2.685 1.916,0.469 3.595,1.345 5.036,2.631 0.915,0.822 1.748,1.986 2.5,3.494 l 1.041,-4.25 c 0.503,-2.058 0.47,-3.593 -0.091,-4.608 -0.562,-1.014 -1.616,-1.711 -3.165,-2.092 -1.195,-0.292 -2.26,-0.262 -3.184,0.089 -0.634,0.235 -1.204,0.806 -1.702,1.709 l -10.719,-1.365 c 0.114,-0.607 0.213,-1.087 0.299,-1.438 0.694,-2.832 2.296,-4.836 4.814,-6.011 2.513,-1.173 6.588,-1.071 12.217,0.308 2.463,0.602 4.596,1.358 6.399,2.264 1.798,0.908 3.201,2.006 4.197,3.294 1.001,1.291 1.681,2.822 2.038,4.596 0.358,1.778 0.321,3.544 -0.108,5.303 l -0.331,1.234 -6.48,26.47 L 6.766,10.816 7.78,6.672 C 6.132,8.078 4.506,8.977 2.912,9.369 1.313,9.761 -0.575,9.69 -2.758,9.156 -6.172,8.321 -8.653,6.5 -10.202,3.697 c -1.553,-2.805 -1.793,-6.389 -0.725,-10.752 0.934,-3.818 2.505,-6.686 4.71,-8.609" />
        </g>
        <g
           transform="translate(383.376,527.7046)"
           id="g74"
           style="fill:#ffffff">
          <path
             inkscape:connector-curvature="0"
             id="path76"
             style="fill:#ffffff;fill-opacity:1;fill-rule:nonzero;stroke:none"
             d="m 0,0 4.076,0.065 0.162,-10.148 c 0.05,-3.219 0.404,-5.542 1.051,-6.971 0.648,-1.428 1.631,-2.484 2.943,-3.167 1.319,-0.684 3.352,-1.006 6.105,-0.96 2.373,0.038 4.925,0.378 7.645,1.021 l -0.936,7.619 c -1.459,-0.494 -2.598,-0.748 -3.412,-0.761 -0.906,-0.013 -1.545,0.283 -1.916,0.892 -0.244,0.392 -0.376,1.204 -0.394,2.434 L 15.156,0.245 21.245,0.344 21.113,8.438 15.025,8.341 14.849,19.315 3.858,13.458 3.944,8.16 -0.131,8.094 Z" />
        </g>
        <g
           transform="translate(421.7061,519.5059)"
           id="g78"
           style="fill:#ffffff">
          <path
             inkscape:connector-curvature="0"
             id="path80"
             style="fill:#ffffff;fill-opacity:1;fill-rule:nonzero;stroke:none"
             d="M 0,0 C 0.362,2.602 1.023,4.347 1.987,5.237 2.952,6.129 4.098,6.482 5.425,6.299 6.629,6.131 7.508,5.631 8.069,4.793 8.631,3.958 8.789,2.643 8.54,0.849 L 6.366,-14.869 17.37,-16.392 19.884,1.775 c 0.52,3.749 0.05,6.65 -1.413,8.699 -1.463,2.049 -3.686,3.278 -6.661,3.691 C 9.799,14.443 8.011,14.353 6.448,13.891 4.886,13.431 3.251,12.532 1.549,11.196 L 3.56,25.73 -7.395,27.245 -12.852,-12.21 -1.897,-13.725 Z" />
        </g>
        <g
           transform="translate(461.084,518.374)"
           id="g82"
           style="fill:#ffffff">
          <path
             inkscape:connector-curvature="0"
             id="path84"
             style="fill:#ffffff;fill-opacity:1;fill-rule:nonzero;stroke:none"
             d="M 0,0 C 1.431,1 2.984,1.231 4.655,0.688 6.1,0.22 7.123,-0.6 7.726,-1.766 8.327,-2.932 8.404,-4.567 7.951,-6.666 L -2.414,-3.301 C -1.707,-1.721 -0.906,-0.621 0,0 m -10.846,-17.402 c 1.748,-1.703 4.443,-3.143 8.079,-4.325 4.184,-1.358 7.594,-1.802 10.22,-1.334 2.631,0.472 5.186,1.828 7.662,4.069 l -10.048,4.32 c -0.923,-0.613 -1.725,-0.992 -2.4,-1.134 -1.096,-0.215 -2.164,-0.154 -3.197,0.181 -1.635,0.532 -2.771,1.556 -3.401,3.075 -0.453,1.062 -0.503,2.467 -0.144,4.218 l 21.088,-6.847 0.384,1.189 c 1.178,3.618 1.536,6.747 1.079,9.391 C 18.018,-1.957 16.85,0.328 14.961,2.255 13.073,4.182 10.166,5.785 6.235,7.06 1.395,8.631 -2.83,8.536 -6.439,6.776 -10.049,5.015 -12.548,1.99 -13.942,-2.3 c -0.979,-3.016 -1.146,-5.86 -0.498,-8.536 0.642,-2.677 1.842,-4.866 3.594,-6.566" />
        </g>
        <g
           transform="translate(522.0254,502.0767)"
           id="g86"
           style="fill:#ffffff">
          <path
             inkscape:connector-curvature="0"
             id="path88"
             style="fill:#ffffff;fill-opacity:1;fill-rule:nonzero;stroke:none"
             d="m 0,0 2.921,-1.936 c 1.915,-1.27 2.984,-2.5 3.197,-3.684 0.213,-1.184 -0.023,-2.297 -0.711,-3.339 -0.711,-1.073 -1.694,-1.687 -2.953,-1.843 -1.254,-0.159 -2.871,0.419 -4.85,1.73 l -2.512,1.666 z m -9.364,-14.133 5.615,-3.722 c 4.139,-2.742 7.838,-3.835 11.107,-3.283 3.265,0.55 6.009,2.502 8.229,5.855 2.164,3.262 2.902,6.389 2.223,9.38 -0.679,2.993 -2.875,5.719 -6.589,8.181 l -17.058,11.3 -21.998,-33.206 10.306,-6.826 z" />
        </g>
        <g
           transform="translate(533.6768,453.0513)"
           id="g90"
           style="fill:#ffffff">
          <path
             inkscape:connector-curvature="0"
             id="path92"
             style="fill:#ffffff;fill-opacity:1;fill-rule:nonzero;stroke:none"
             d="m 0,0 6.507,7.157 c 3.106,3.419 5.647,5.368 7.626,5.846 1.389,0.349 2.626,0.036 3.699,-0.938 0.562,-0.511 1.142,-1.408 1.744,-2.687 l 7.829,3.53 c -0.752,2.053 -1.729,3.629 -2.934,4.725 -1.155,1.048 -2.382,1.641 -3.682,1.786 -1.304,0.143 -3.011,-0.208 -5.126,-1.052 l 3.179,3.498 -7.657,6.962 L -8.224,7.474 Z" />
        </g>
        <g
           transform="translate(550.291,435.7847)"
           id="g94"
           style="fill:#ffffff">
          <path
             inkscape:connector-curvature="0"
             id="path96"
             style="fill:#ffffff;fill-opacity:1;fill-rule:nonzero;stroke:none"
             d="M 0,0 21.469,19.279 14.078,27.507 -7.391,8.228 Z" />
        </g>
        <g
           transform="translate(579.9238,462.3999)"
           id="g98"
           style="fill:#ffffff">
          <path
             inkscape:connector-curvature="0"
             id="path100"
             style="fill:#ffffff;fill-opacity:1;fill-rule:nonzero;stroke:none"
             d="m 0,0 -7.386,8.226 -5.601,-5.029 7.39,-8.226 z" />
        </g>
        <g
           transform="translate(579.9736,431.8545)"
           id="g102"
           style="fill:#ffffff">
          <path
             inkscape:connector-curvature="0"
             id="path104"
             style="fill:#ffffff;fill-opacity:1;fill-rule:nonzero;stroke:none"
             d="M 0,0 C 0.829,-1.209 1.056,-2.525 0.68,-3.947 0.304,-5.369 -0.819,-6.72 -2.685,-8 c -2.065,-1.415 -3.817,-2.044 -5.262,-1.892 -1.44,0.151 -2.563,0.81 -3.36,1.976 -0.752,1.092 -0.923,2.314 -0.53,3.675 0.399,1.359 1.567,2.703 3.51,4.035 2.078,1.424 3.804,2.078 5.176,1.967 C -1.779,1.648 -0.729,1.062 0,0 m -14.196,9.176 c -3.528,-2.418 -5.937,-5.325 -7.232,-8.726 -1.29,-3.4 -0.824,-6.722 1.4,-9.964 1.104,-1.612 2.45,-2.841 4.039,-3.686 1.2,-0.627 2.957,-1.026 5.271,-1.198 l -3.518,-2.411 5.85,-8.538 L 24.467,-2.826 18.154,6.385 6.771,-1.42 c 0.338,1.553 0.352,3.07 0.036,4.558 -0.313,1.485 -0.96,2.937 -1.93,4.356 -2.001,2.914 -4.691,4.599 -8.078,5.054 -3.388,0.457 -7.055,-0.668 -10.995,-3.372" />
        </g>
        <g
           transform="translate(601.6875,393.4683)"
           id="g106"
           style="fill:#ffffff">
          <path
             inkscape:connector-curvature="0"
             id="path108"
             style="fill:#ffffff;fill-opacity:1;fill-rule:nonzero;stroke:none"
             d="m 0,0 c -0.458,-1.229 -1.617,-2.387 -3.474,-3.464 l -4.492,9.925 c 1.644,0.544 2.998,0.691 4.067,0.437 1.703,-0.38 2.92,-1.372 3.645,-2.972 C 0.371,2.54 0.457,1.231 0,0 m -3.229,16.225 c -3.732,1.481 -7.653,1.293 -11.76,-0.569 -2.889,-1.306 -5.104,-3.099 -6.648,-5.377 -1.544,-2.28 -2.354,-4.639 -2.431,-7.082 -0.078,-2.441 0.67,-5.403 2.246,-8.883 1.815,-4.012 3.781,-6.828 5.9,-8.454 2.114,-1.626 4.841,-2.601 8.169,-2.925 l -3.577,10.34 c -1.078,0.27 -1.898,0.605 -2.454,1.008 -0.902,0.668 -1.571,1.494 -2.02,2.486 -0.711,1.566 -0.716,3.095 -0.018,4.585 0.479,1.05 1.485,2.033 3.02,2.948 l 9.143,-20.199 1.137,0.514 c 3.463,1.569 6.022,3.412 7.666,5.529 1.648,2.117 2.549,4.522 2.699,7.216 0.153,2.695 -0.621,5.921 -2.323,9.684 -2.102,4.637 -5.018,7.696 -8.749,9.179" />
        </g>
        <g
           transform="translate(626.1943,380.4062)"
           id="g110"
           style="fill:#ffffff">
          <path
             inkscape:connector-curvature="0"
             id="path112"
             style="fill:#ffffff;fill-opacity:1;fill-rule:nonzero;stroke:none"
             d="m 0,0 -8.69,-2.622 -16.809,-7.399 2.11,-6.996 18.114,3.081 8.689,2.62 z" />
        </g>
        <g
           transform="translate(588.1787,368.5103)"
           id="g114"
           style="fill:#ffffff">
          <path
             inkscape:connector-curvature="0"
             id="path116"
             style="fill:#ffffff;fill-opacity:1;fill-rule:nonzero;stroke:none"
             d="m 0,0 3.188,-10.56 9.337,2.817 -3.187,10.56 z" />
        </g>
        <g
           transform="translate(217.6914,182.2373)"
           id="g118"
           style="fill:#ffffff">
          <path
             inkscape:connector-curvature="0"
             id="path120"
             style="fill:#ffffff;fill-opacity:1;fill-rule:nonzero;stroke:none"
             d="M 0,0 -1.722,2.477 5.583,7.54 7.58,4.659 C 8.889,2.771 9.423,1.236 9.183,0.055 8.943,-1.128 8.309,-2.074 7.285,-2.785 6.226,-3.519 5.085,-3.723 3.862,-3.405 2.64,-3.084 1.349,-1.952 0,0 m 14.399,-12.43 c 3.215,2.228 5.063,4.859 5.543,7.888 0.476,3.034 -0.557,6.381 -3.092,10.039 L 5.193,22.311 -27.541,-0.381 l 7.041,-10.156 12.149,8.418 3.835,-5.538 c 2.831,-4.075 5.865,-6.467 9.103,-7.164 3.237,-0.698 6.507,0.099 9.812,2.391" />
        </g>
        <g
           transform="translate(243.6377,147.0117)"
           id="g122"
           style="fill:#ffffff">
          <path
             inkscape:connector-curvature="0"
             id="path124"
             style="fill:#ffffff;fill-opacity:1;fill-rule:nonzero;stroke:none"
             d="M 0,0 8.083,2.912 C 7.494,5.018 6.639,6.666 5.521,7.853 4.451,8.984 3.274,9.673 1.988,9.917 0.702,10.161 -1.027,9.944 -3.201,9.265 l 3.441,3.242 -7.095,7.535 -21.002,-19.788 7.616,-8.088 7.042,6.634 C -9.84,1.965 -7.154,3.713 -5.144,4.035 -3.727,4.274 -2.521,3.867 -1.53,2.813 -1.005,2.26 -0.498,1.322 0,0" />
        </g>
        <g
           transform="translate(261.1621,124.9277)"
           id="g126"
           style="fill:#ffffff">
          <path
             inkscape:connector-curvature="0"
             id="path128"
             style="fill:#ffffff;fill-opacity:1;fill-rule:nonzero;stroke:none"
             d="m 0,0 c -1.661,-2.102 -3.27,-3.315 -4.827,-3.632 -1.553,-0.317 -2.957,0.018 -4.206,1.005 -1.241,0.974 -1.884,2.269 -1.939,3.881 -0.054,1.612 0.716,3.428 2.31,5.447 1.571,1.988 3.151,3.148 4.745,3.469 1.595,0.321 3.025,-0.014 4.289,-1.014 C 1.567,8.214 2.192,6.941 2.242,5.343 2.296,3.744 1.549,1.965 0,0 m 4.959,15.229 c -3.967,3.132 -8.002,4.496 -12.1,4.097 -4.098,-0.398 -7.512,-2.323 -10.238,-5.778 -2.93,-3.708 -3.922,-7.797 -2.971,-12.263 0.788,-3.622 3.002,-6.869 6.643,-9.744 4.08,-3.22 8.151,-4.633 12.218,-4.229 4.066,0.398 7.475,2.34 10.224,5.828 2.451,3.096 3.578,6.438 3.388,10.029 -0.24,4.461 -2.632,8.477 -7.164,12.06" />
        </g>
        <g
           transform="translate(297.2754,105.5234)"
           id="g130"
           style="fill:#ffffff">
          <path
             inkscape:connector-curvature="0"
             id="path132"
             style="fill:#ffffff;fill-opacity:1;fill-rule:nonzero;stroke:none"
             d="m 0,0 c -1.209,1.518 -3.328,3.342 -6.344,5.484 -1.988,1.422 -3.211,2.468 -3.673,3.138 -0.457,0.666 -0.515,1.309 -0.176,1.925 0.303,0.552 0.815,0.888 1.526,1 0.716,0.113 1.621,-0.131 2.713,-0.737 1.082,-0.594 1.86,-1.355 2.341,-2.283 0.343,-0.684 0.416,-1.499 0.208,-2.441 L 6.276,1.93 c 0.277,2.001 0.2,3.749 -0.226,5.243 -0.426,1.499 -1.232,2.871 -2.413,4.125 -1.183,1.25 -3.28,2.704 -6.295,4.365 -2.858,1.576 -5.293,2.532 -7.322,2.876 -2.024,0.34 -3.854,0.177 -5.484,-0.498 -1.63,-0.67 -2.902,-1.839 -3.822,-3.501 -0.838,-1.521 -1.137,-3.124 -0.897,-4.804 0.241,-1.684 0.879,-3.138 1.916,-4.356 1.033,-1.223 3.066,-3.052 6.109,-5.493 2.033,-1.635 3.237,-2.735 3.613,-3.292 0.521,-0.779 0.589,-1.522 0.204,-2.219 -0.34,-0.616 -0.901,-0.978 -1.684,-1.082 -1.019,-0.163 -2.178,0.113 -3.478,0.833 -1.191,0.656 -2.006,1.427 -2.45,2.31 -0.443,0.887 -0.548,2.01 -0.317,3.369 l -10.112,4.392 c -0.778,-2.73 -0.556,-5.294 0.68,-7.694 1.231,-2.395 4.156,-4.863 8.771,-7.408 3.269,-1.802 6.077,-2.817 8.422,-3.047 2.346,-0.227 4.338,0.103 5.978,1.001 1.639,0.891 2.862,2.069 3.668,3.527 0.792,1.44 1.104,2.993 0.937,4.654 C 1.906,-3.102 1.214,-1.513 0,0" />
        </g>
        <g
           transform="translate(326.7139,91.0107)"
           id="g134"
           style="fill:#ffffff">
          <path
             inkscape:connector-curvature="0"
             id="path136"
             style="fill:#ffffff;fill-opacity:1;fill-rule:nonzero;stroke:none"
             d="m 0,0 c -0.842,-2.396 -1.848,-3.944 -3.016,-4.66 -1.172,-0.711 -2.364,-0.851 -3.577,-0.426 -1.386,0.485 -2.345,1.409 -2.889,2.772 -0.539,1.358 -0.43,3.115 0.326,5.271 0.824,2.341 1.861,3.876 3.12,4.605 1.254,0.729 2.545,0.861 3.881,0.394 C -0.929,7.521 -0.068,6.639 0.426,5.307 0.915,3.971 0.774,2.2 0,0 m 3.944,14.422 c -1.842,0.648 -3.668,0.838 -5.47,0.571 -1.34,-0.204 -2.98,-0.915 -4.927,-2.129 l 1.418,4.022 -9.768,3.432 -13.205,-37.58 10.538,-3.7 4.565,12.996 c 0.665,-1.444 1.561,-2.671 2.694,-3.681 1.132,-1.014 2.499,-1.802 4.107,-2.369 3.315,-1.163 6.48,-0.932 9.487,0.689 3.007,1.621 5.306,4.696 6.896,9.224 1.44,4.103 1.658,7.893 0.643,11.379 -1.01,3.483 -3.337,5.865 -6.978,7.146" />
        </g>
        <g
           transform="translate(354.0782,86.4736)"
           id="g138"
           style="fill:#ffffff">
          <path
             inkscape:connector-curvature="0"
             id="path140"
             style="fill:#ffffff;fill-opacity:1;fill-rule:nonzero;stroke:none"
             d="M 0,0 C 0.457,1.666 1.092,2.875 1.893,3.622 3.156,4.827 4.655,5.284 6.39,4.999 7.893,4.75 9.025,4.093 9.795,3.029 10.564,1.965 10.882,0.361 10.746,-1.78 Z m 16.348,8.087 c -2.157,1.621 -5.267,2.771 -9.342,3.446 -5.023,0.833 -9.184,0.109 -12.494,-2.169 -3.306,-2.282 -5.325,-5.647 -6.064,-10.093 -0.515,-3.129 -0.258,-5.969 0.78,-8.518 1.037,-2.55 2.548,-4.533 4.532,-5.955 1.988,-1.422 4.868,-2.445 8.636,-3.07 4.342,-0.72 7.779,-0.652 10.306,0.209 2.531,0.855 4.855,2.576 6.969,5.162 l -10.582,2.775 c -0.82,-0.747 -1.554,-1.24 -2.201,-1.48 -1.055,-0.376 -2.115,-0.476 -3.188,-0.299 -1.698,0.28 -2.971,1.128 -3.822,2.531 -0.607,0.982 -0.865,2.368 -0.77,4.152 l 21.871,-3.627 0.205,1.237 c 0.62,3.749 0.506,6.901 -0.335,9.445 -0.847,2.545 -2.346,4.628 -4.501,6.254" />
        </g>
        <g
           transform="translate(401.6211,73.5674)"
           id="g142"
           style="fill:#ffffff">
          <path
             inkscape:connector-curvature="0"
             id="path144"
             style="fill:#ffffff;fill-opacity:1;fill-rule:nonzero;stroke:none"
             d="m 0,0 c -0.974,-0.761 -2.188,-1.15 -3.637,-1.173 -1.738,-0.027 -3.178,0.562 -4.32,1.776 -1.146,1.209 -1.733,2.998 -1.774,5.366 -0.041,2.658 0.493,4.65 1.602,5.981 1.109,1.327 2.581,2.006 4.411,2.038 1.448,0.023 2.609,-0.271 3.478,-0.883 0.871,-0.611 1.482,-1.526 1.827,-2.753 l 10.383,1.553 c -1.05,3.224 -2.825,5.66 -5.321,7.304 -2.5,1.644 -6.104,2.428 -10.815,2.354 -3.369,-0.058 -6.123,-0.542 -8.265,-1.466 -1.349,-0.584 -2.658,-1.458 -3.925,-2.626 -1.268,-1.173 -2.26,-2.487 -2.98,-3.945 -0.982,-1.992 -1.449,-4.469 -1.399,-7.435 0.045,-2.844 0.498,-5.117 1.358,-6.82 0.86,-1.708 2.038,-3.183 3.523,-4.438 1.49,-1.249 3.256,-2.146 5.302,-2.681 2.047,-0.538 4.602,-0.783 7.662,-0.733 3.172,0.055 5.777,0.539 7.819,1.458 2.038,0.924 3.709,2.196 5.004,3.817 1.295,1.626 2.218,3.537 2.761,5.738 L 2.162,3.46 C 1.695,1.911 0.976,0.757 0,0" />
        </g>
        <g
           transform="translate(437.0528,76.3301)"
           id="g146"
           style="fill:#ffffff">
          <path
             inkscape:connector-curvature="0"
             id="path148"
             style="fill:#ffffff;fill-opacity:1;fill-rule:nonzero;stroke:none"
             d="M 0,0 C -0.897,-0.132 -1.572,0.077 -2.021,0.629 -2.31,0.991 -2.55,1.774 -2.731,2.993 l -1.512,10.111 6.022,0.897 -1.2,8.011 -6.017,-0.902 -1.626,10.855 -10.122,-7.254 0.784,-5.239 -4.03,-0.603 1.196,-8.011 4.03,0.603 1.503,-10.035 c 0.475,-3.183 1.128,-5.443 1.961,-6.775 0.828,-1.326 1.942,-2.245 3.337,-2.748 1.394,-0.507 3.451,-0.557 6.176,-0.149 2.346,0.353 4.828,1.027 7.445,2.024 L 3.278,1.204 C 1.896,0.521 0.806,0.122 0,0" />
        </g>
        <g
           transform="translate(480.9492,107.1133)"
           id="g150"
           style="fill:#ffffff">
          <path
             inkscape:connector-curvature="0"
             id="path152"
             style="fill:#ffffff;fill-opacity:1;fill-rule:nonzero;stroke:none"
             d="m 0,0 c -0.579,-1.123 -1.965,-2.133 -4.166,-3.029 l -2.789,-1.137 -3.352,8.228 3.244,1.322 C -4.931,6.253 -3.319,6.439 -2.219,5.95 -1.118,5.456 -0.33,4.632 0.141,3.478 0.625,2.286 0.58,1.127 0,0 m 4.61,15.445 c -2.857,1.128 -6.348,0.852 -10.474,-0.833 l -18.947,-7.716 15.021,-36.887 11.452,4.664 -5.574,13.689 6.24,2.54 c 4.596,1.87 7.585,4.312 8.97,7.323 1.386,3.006 1.322,6.376 -0.194,10.098 -1.477,3.622 -3.641,5.999 -6.494,7.122" />
        </g>
        <g
           transform="translate(524.8779,139.0645)"
           id="g154"
           style="fill:#ffffff">
          <path
             inkscape:connector-curvature="0"
             id="path156"
             style="fill:#ffffff;fill-opacity:1;fill-rule:nonzero;stroke:none"
             d="m 0,0 -5.339,8.26 -31.417,-20.31 5.339,-8.26 10.542,6.816 16.283,-25.191 10.334,6.679 -16.283,25.192 z" />
        </g>
        <g
           transform="translate(564.6006,153.0391)"
           id="g158"
           style="fill:#ffffff">
          <path
             inkscape:connector-curvature="0"
             id="path160"
             style="fill:#ffffff;fill-opacity:1;fill-rule:nonzero;stroke:none"
             d="m 0,0 c -1.499,1.576 -3.233,2.636 -5.212,3.179 -1.979,0.548 -4.221,0.448 -6.725,-0.294 -2.503,-0.743 -6.108,-2.545 -10.809,-5.407 -1.888,-1.168 -3.224,-1.762 -4.003,-1.78 -0.783,-0.041 -1.395,0.167 -1.829,0.625 -0.598,0.634 -0.847,1.417 -0.738,2.355 0.108,0.937 0.683,1.901 1.72,2.884 1.259,1.2 2.528,1.843 3.809,1.929 1.276,0.091 2.644,-0.412 4.102,-1.499 l 7.948,8.478 c -3.215,2.648 -6.44,3.74 -9.682,3.273 -3.237,-0.471 -6.706,-2.454 -10.396,-5.959 -3.007,-2.853 -5.018,-5.479 -6.028,-7.875 -1.014,-2.395 -1.322,-4.659 -0.928,-6.797 0.394,-2.137 1.294,-3.948 2.703,-5.433 2.142,-2.26 4.751,-3.32 7.816,-3.184 3.052,0.127 6.951,1.608 11.701,4.442 2.894,1.744 4.945,2.631 6.163,2.663 1.218,0.036 2.183,-0.327 2.894,-1.074 0.747,-0.788 1.059,-1.806 0.936,-3.06 -0.122,-1.25 -0.819,-2.482 -2.091,-3.691 -1.707,-1.621 -3.578,-2.287 -5.606,-1.988 -1.25,0.186 -2.622,0.883 -4.116,2.088 l -7.988,-8.595 c 3.015,-2.68 6.367,-4.066 10.057,-4.166 3.686,-0.095 7.988,2.187 12.901,6.851 2.798,2.658 4.732,5.263 5.805,7.816 1.074,2.554 1.381,5.099 0.919,7.635 C 2.866,-4.049 1.757,-1.853 0,0" />
        </g>
        <g
           transform="translate(580.9521,178.5283)"
           id="g162"
           style="fill:#ffffff">
          <path
             inkscape:connector-curvature="0"
             id="path164"
             style="fill:#ffffff;fill-opacity:1;fill-rule:nonzero;stroke:none"
             d="M 0,0 -5.072,-7.123 -14.21,4.728 Z m -26.427,5.371 23.755,-35.298 7.291,10.234 -4.225,5.397 8.105,11.38 6.512,-2.191 7.476,10.496 -41.126,10.918 z" />
        </g>
      </g>
    </g>
  </g>
</svg>
