<?xml version="1.0" encoding="UTF-8"?>
<!-- Created with Inkscape (http://www.inkscape.org/) -->
<svg width="1011.7" height="207.94" version="1.1" viewBox="0 0 267.67 55.018" xmlns="http://www.w3.org/2000/svg" xmlns:cc="http://creativecommons.org/ns#" xmlns:dc="http://purl.org/dc/elements/1.1/" xmlns:rdf="http://www.w3.org/1999/02/22-rdf-syntax-ns#">
 <metadata>
  <rdf:RDF>
   <cc:Work rdf:about="">
    <dc:format>image/svg+xml</dc:format>
    <dc:type rdf:resource="http://purl.org/dc/dcmitype/StillImage"/>
    <dc:title/>
   </cc:Work>
  </rdf:RDF>
 </metadata>
 <g transform="translate(233.62 -36.658)">
  <path d="m-43.235 64.149c9e-3 -0.2279-0.09473-0.52093-0.29368-0.67821-0.20263-0.16236-0.42468-0.19337-0.63758-0.19616h-1.1078l-8.5309 19.333-2.2204-10.357c-0.13094-0.90868-0.85965-1.5284-1.725-1.4805h-1.4341l-6.7335 11.726 0.06609-18.291c0.0052-0.24474-0.09007-0.5453-0.30578-0.71491-0.20983-0.17199-0.44521-0.21286-0.68032-0.21547h-1.4368v21.976h1.8319 0.04085c0.53626 0.01058 1.0242-0.12879 1.4239-0.41934 0.36155-0.2595 0.67384-0.61964 0.94707-1.0535l5.8952-10.519 2.4573 11.992h1.5279 0.04543c1.0028 0 1.842-0.5845 2.2817-1.5793l8.4743-19.064c0.0626-0.15553 0.1106-0.25924 0.11422-0.45783zm77.277-0.87167h-9.07c-4.2344 0.01058-4.6824 3.4863-4.7009 5.1284 0 1.7245 1.2528 3.1004 1.8764 3.6548l6.1759 6.0484c0.73232 0.7199 1.0892 1.5695 1.0892 2.3616 0 1.3371-1.0233 2.4324-2.6748 2.4252-0.0065 0.01058-7.9947 0.01284-8.0681 0.03349-0.26033 0.04814-0.5353 0.3921-0.53072 0.6662h-0.02388l0.02388 0.01059v1.6501h8.9752c4.2353-0.01516 4.6842-3.4881 4.7046-5.1255v-0.01516c0.0065-2.2716-2.0856-4.028-2.0986-4.0334l-5.8552-5.7616c-0.73142-0.71963-1.1831-1.4613-1.1868-2.2581 0-1.344 1.0261-2.4313 2.6729-2.4313 0.01091-0.01058 8.0905-0.01284 8.1602-0.03162l0.01936 0.06137-0.01484-0.06137c0.26291-0.04814 0.54272-0.39289 0.53439-0.66469v-0.01058-1.6468zm-64.72 2.2012c-4.0308-0.22024-8.6378 2.151-10.221 8.5599-1.5587 6.2789 1.356 9.3285 5.3059 9.8368l0.41173 0.01929c4.0754 0.21603 8.4138-2.1601 9.9408-8.5667 1.4899-6.2837-1.4313-9.4392-5.4379-9.8487zm7.792 10.04c-1.4824 6.2444-5.9817 11.174-13.169 10.621-6.6861-0.77265-8.6015-6.654-7.1889-12.29 1.5558-6.2414 6.0411-11.171 13.122-10.621v0.01058c6.5978 0.76999 8.5709 6.6582 7.2353 12.29zm40.015-12.033c-0.18676-0.14035-0.39313-0.16731-0.60409-0.16966h-1.0725l-11.309 9.6723 1.5057-8.5462c0.093056-0.47447-0.13571-0.79686-0.32996-0.93225-0.20004-0.15554-0.44708-0.23236-0.68967-0.23236h-1.0883l-4.0847 21.973h2.4183l1.7881-9.725 8.9547 9.7297h1.0735c0.21288-0.01058 0.41733-0.0344 0.59847-0.17223 0.18876-0.13072 0.28627-0.38958 0.28079-0.60018 0-0.39463-0.32248-0.79214-0.32248-0.79214l-8.4725-9.2068 11.312-9.6077s0.31782-0.2712 0.31782-0.79401c0-0.20837-0.09009-0.46068-0.276-0.59611zm-22.706 3.1257c-0.44333-0.42907-1.1153-0.63235-2.158-0.82846-0.2733-0.05111-0.71941-0.09197-1.2287-0.11613-1.2575-0.06976-4.9946-0.01516-6.1396 0l-1.448 7.9936c0.85873 0.01284 1.8476 0.02381 2.5401 0.02839 1.9545 0 3.8458-0.06337 5.186-0.42834 3.4397-0.93488 5.1451-4.8376 3.2482-6.6467zm2.2213-1.3258c0.97773 1.1098 1.0502 3.1766 0.77316 4.4455-0.34009 1.5528-1.8169 5.4736-7.3543 5.9703l4.6628 7.9888s0.31975 0.47921 0.31975 0.79214c0.00652 0.21048-0.090081 0.46943-0.27884 0.6002-0.18676 0.13773-0.38752 0.17217-0.59667 0.17217h-1.2323l-5.4686-9.4247-4.4063-0.01929-1.7092 9.4439h-2.4183l4.0885-21.977h5.6452c3.3365 0 6.2651 0.04814 7.9752 2.0081zm-162.51 2.6847c-0.2767 1.7681 0.26756 3.8465 2.2389 5.2243l7.0246 4.9029c0.737 0.50828 1.1013 0.8576 1.0121 1.453-0.13199 0.81869-0.56136 1.1526-2.0177 1.1526h-8.1697c-0.87279 0-1.3487 0.42664-1.5074 1.4123v3.0452h9.5711c4.1944 0 6.2697-2.4734 6.687-5.1037 0.39219-2.4706-0.43867-4.2368-2.0345-5.375l-7.4649-5.2993c-0.59948-0.43131-0.7491-0.65454-0.70821-0.97661 0.068-0.54025 0.55765-0.76237 1.408-0.76237h8.53c1.0437 0 1.6376-1.0638 1.804-2.122v-2.3391h-11.281c-2.5013 0-4.6872 2.2374-5.0924 4.7878zm85.024-4.79h-11.827l-0.06227 0.35366c-0.27419 1.4921-0.15145 3.2202 2.2073 3.2202h8.7614c3.4723 0 4.7985 2.5093 3.9397 7.221-0.78907 4.3137-3.1135 7.6102-6.6471 7.6102h-4.7501l2.2557-12.362h-4.0411c-0.5418 0-0.9173 0.39462-0.98235 0.74788l-2.7705 15.187h9.2642c6.8422 0 11.609-3.2191 13.089-11.342 1.1404-6.24-1.4582-10.635-8.4371-10.635zm-28.083 18.407h-9.3367l3.2259-17.659c0.0614-0.35326-0.20149-0.746-0.64125-0.746h-4.1108l-4.0113 21.975h15.469l0.40059-2.1964c0.17842-0.98386-0.15145-1.3741-0.99542-1.3741zm11.638-18.407h-4.1107l-4.0122 21.977h4.8868l3.8774-21.231c0.06402-0.35367-0.19979-0.74614-0.64125-0.74614zm-38.004 3.7681c-4.4574 0-6.793 2.5903-7.6285 7.6912-0.83924 5.1063 0.64593 7.693 5.1043 7.693 4.4565 0 6.7892-2.5867 7.6285-7.693 0.83831-5.1009-0.64591-7.6912-5.1043-7.6912zm9.9557 7.6912c-1.0251 6.2397-5.2474 11.462-13.099 11.462-7.8544 0-10.362-5.2224-9.3386-11.462 1.0242-6.239 5.2502-11.457 13.102-11.457 7.8525 0 10.361 5.218 9.3358 11.457zm-57.093-19.113c-4.6677-0.76563-13.018-1.0634-15.872 3.311-2.2051 3.3811 1.9622 8.0092 5.7565 12.495 3.0404 3.5924 6.3508 7.024 4.9992 9.0298-1.1026 1.6373-8.1747 1.6347-10.611 1.7636-2.9607 0.15705-7.22 0.16709-7.9642 0.57176-0.66758 0.35839-1.0408 1.4748 1.4646 1.9231 2.0094 0.3605 6.7981 1.0945 11.852 1.0902 5.2725 0 10.814-0.86506 12.016-4.9494 0.9646-3.279-2.382-6.7933-5.3267-10.359-3.222-3.9017-6.4862-6.6859-6.2117-9.4494 0.2113-2.1488 4.4277-2.2724 11.424-2.3958 1.4562-0.02704 4.354-0.09714 3.7953-1.2452-0.49767-1.0147-2.6644-1.3516-5.3226-1.7847zm-21.524 9.7343c-2.9944-2.0538-8.3327-2.7417-12.727-2.5141-3.9118 0.20837-10.642 1.4512-10.387 2.6895 0.23632 1.3378 4.4974 0.92282 6.4484 0.92282 4.2902 0 11.102 0.26433 12.174 3.0279 2.3136 5.9586-13.373 16.655-16.72 15.628-1.512-0.46292 3.0732-8.2387 4.7382-11.036 0.98998-1.6689 2.497-4.2919 1.2104-4.4691-1.4373-0.19851-3.0206 2.2702-4.0484 3.694-2.7914 3.8682-5.6518 8.0897-7.9426 12.428-0.70976 1.3397-3.0612 5.372-2.2538 5.893 0.75288 0.4847 4.3409-0.20346 8.904-2.0131 14.348-5.6817 20.807-13.081 22.536-19.198 0.60662-2.1529-0.4411-4.0324-1.9325-5.0536zm-10.651-26.12c-0.29519-0.96313 4.4895-2.2189 9.738-2.4513 5.2866-0.23263 11.543 0.8198 12.708 4.3089 1.9104 5.7162-7.7706 14.051-16.206 18.145-2.0704 1.0023-3.3233 1.2787-3.8465 1.2086-0.49694-0.06504-0.57463-0.53079-0.41163-0.85034 0.2991-0.60075 1.6609-1.8265 3.4812-3.156 9.4965-6.9374 12.585-12.024 10.79-14.086-1.1505-1.3215-5.9638-2.2393-10.963-2.2393-1.3581 0-4.9243 0.29592-5.2907-0.87892" fill="#f02d29"/>
 </g>
</svg>
