<?xml version="1.0" encoding="UTF-8" standalone="no"?>
<!-- Created with Inkscape (http://www.inkscape.org/) -->

<svg
   xmlns:dc="http://purl.org/dc/elements/1.1/"
   xmlns:cc="http://creativecommons.org/ns#"
   xmlns:rdf="http://www.w3.org/1999/02/22-rdf-syntax-ns#"
   xmlns:svg="http://www.w3.org/2000/svg"
   xmlns="http://www.w3.org/2000/svg"
   xmlns:sodipodi="http://sodipodi.sourceforge.net/DTD/sodipodi-0.dtd"
   xmlns:inkscape="http://www.inkscape.org/namespaces/inkscape"
   width="125.12133mm"
   height="25.717815mm"
   viewBox="0 0 125.12133 25.717815"
   version="1.1"
   id="svg1194"
   sodipodi:docname="solidworks.svg"
   inkscape:version="0.92.4 (5da689c313, 2019-01-14)">
  <defs
     id="defs1188" />
  <sodipodi:namedview
     id="base"
     pagecolor="#ffffff"
     bordercolor="#666666"
     borderopacity="1.0"
     inkscape:pageopacity="0.0"
     inkscape:pageshadow="2"
     inkscape:zoom="0.35"
     inkscape:cx="412.34983"
     inkscape:cy="254.32368"
     inkscape:document-units="mm"
     inkscape:current-layer="layer1"
     showgrid="false"
     inkscape:window-width="1216"
     inkscape:window-height="640"
     inkscape:window-x="3179"
     inkscape:window-y="279"
     inkscape:window-maximized="0"
     fit-margin-top="0"
     fit-margin-left="0"
     fit-margin-right="0"
     fit-margin-bottom="0" />
  <metadata
     id="metadata1191">
    <rdf:RDF>
      <cc:Work
         rdf:about="">
        <dc:format>image/svg+xml</dc:format>
        <dc:type
           rdf:resource="http://purl.org/dc/dcmitype/StillImage" />
        <dc:title></dc:title>
      </cc:Work>
    </rdf:RDF>
  </metadata>
  <g
     inkscape:label="Layer 1"
     inkscape:groupmode="layer"
     id="layer1"
     transform="translate(8.6649048,-92.310759)">
    <path
       inkscape:connector-curvature="0"
       id="path5116"
       style="display:inline;opacity:1;fill:#ffffff;fill-opacity:1;fill-rule:nonzero;stroke:none;stroke-width:0.0434442"
       d="m 80.330086,105.16123 c 0.004,-0.10652 -0.0443,-0.2435 -0.13729,-0.31701 -0.0947,-0.0759 -0.19853,-0.0904 -0.29802,-0.0917 h -0.51786 l -3.98775,9.03693 -1.03789,-4.84118 c -0.0612,-0.42475 -0.40184,-0.71444 -0.80631,-0.69206 h -0.67035 l -3.14755,5.48111 0.0309,-8.54984 c 0.002,-0.1144 -0.0421,-0.25489 -0.14293,-0.33418 -0.0981,-0.0804 -0.20811,-0.0995 -0.31802,-0.10073 h -0.67163 v 10.27235 h 0.85628 v 0 c 0.005,0 0.0123,0 0.0191,0 0.25067,0.005 0.47875,-0.0602 0.66556,-0.19602 0.169,-0.1213 0.31497,-0.28964 0.4427,-0.49243 l 2.75567,-4.9172 1.14866,5.60565 c 0,0 0.69729,0 0.71422,0 0.007,0 0.0156,0 0.0213,0 0.46876,0 0.86106,-0.27322 1.06656,-0.73821 l 3.96124,-8.91133 c 0.0291,-0.0727 0.0517,-0.12118 0.0534,-0.21401 z m 36.122634,-0.40746 h -4.23973 c -1.97933,0.005 -2.18873,1.62968 -2.19741,2.39726 -2.6e-4,0.80611 0.58562,1.44926 0.87714,1.7084 l 2.88686,2.82727 c 0.34234,0.33652 0.50917,0.73365 0.50917,1.10392 0,0.62503 -0.47832,1.13702 -1.25033,1.13364 -0.002,0.005 -3.73707,0.006 -3.77139,0.0156 -0.12168,0.0225 -0.25024,0.18328 -0.24808,0.31141 h -0.0111 l 0.0111,0.005 c 0,0.005 7.9e-4,0.624 7.9e-4,0.77132 h 4.19541 c 1.97975,-0.007 2.18959,-1.63051 2.19914,-2.39587 0,-0.005 -10e-4,-0.005 -10e-4,-0.007 0.002,-1.06182 -0.97488,-1.88288 -0.98097,-1.88539 l -2.73685,-2.6932 c -0.34191,-0.3364 -0.55305,-0.68307 -0.55478,-1.05557 10e-4,-0.62825 0.47963,-1.1365 1.24946,-1.1365 0.005,-0.005 3.78182,-0.006 3.81441,-0.0148 l 0.009,0.0287 -0.007,-0.0287 c 0.1229,-0.0225 0.25371,-0.18364 0.24978,-0.3107 0,0 -10e-4,0 0,-0.005 0,-0.006 -10e-4,-0.62381 -10e-4,-0.76979 z m -30.252874,1.02894 c -1.88419,-0.10296 -4.03771,1.00547 -4.77757,4.00126 -0.72857,2.93505 0.63386,4.36054 2.48023,4.59814 l 0.19246,0.009 c 1.90504,0.10099 3.93301,-1.00972 4.6468,-4.00447 0.69642,-2.93727 -0.66903,-4.41233 -2.54192,-4.60375 z m 3.64237,4.69315 c -0.69294,2.91894 -2.79608,5.22317 -6.15563,4.96473 v 0 c -3.12537,-0.36116 -4.02075,-3.11035 -3.36042,-5.74503 0.72726,-2.91755 2.82389,-5.22178 6.13392,-4.96485 v 0.005 c 3.08411,0.35993 4.00642,3.11235 3.38213,5.74481 z m 18.704944,-5.62481 c -0.0873,-0.0656 -0.18378,-0.0782 -0.2824,-0.0793 h -0.50134 l -5.2863,4.52128 0.7038,-3.99487 c 0.0435,-0.22179 -0.0634,-0.37249 -0.15423,-0.43579 -0.0935,-0.0727 -0.20897,-0.10861 -0.32236,-0.10861 h -0.50873 l -1.90937,10.27101 h 1.13041 l 0.83587,-4.54588 4.18585,4.54809 h 0.50179 c 0.0995,-0.005 0.19507,-0.0161 0.27978,-0.0805 0.0882,-0.0611 0.1338,-0.18211 0.1312,-0.28056 0,-0.18446 -0.15074,-0.37027 -0.15074,-0.37027 l -3.9604,-4.30368 5.28761,-4.49105 c 0,0 0.14858,-0.12677 0.14858,-0.37115 0.001,-0.0974 -0.0421,-0.21535 -0.12902,-0.27865 z m -10.613884,1.46111 c -0.20723,-0.20058 -0.52133,-0.29559 -1.00878,-0.38726 -0.12773,-0.0239 -0.33626,-0.043 -0.57433,-0.0543 -0.5878,-0.0326 -2.3347,-0.007 -2.86993,0 l -0.67686,3.73655 c 0.40142,0.006 0.86366,0.0111 1.18733,0.0134 0.91363,0 1.79773,-0.0296 2.42419,-0.20022 1.60787,-0.43701 2.40507,-2.26132 1.51838,-3.10697 z m 1.03832,-0.61973 c 0.45704,0.51876 0.49092,1.48488 0.36145,2.07803 -0.15901,0.72583 -0.84933,2.55861 -3.43774,2.79077 l 2.1796,3.73435 c 0,0 0.14945,0.22399 0.14945,0.37027 0.002,0.0984 -0.0421,0.21944 -0.13034,0.28056 -0.0873,0.0644 -0.18116,0.0805 -0.27891,0.0805 h -0.57606 l -2.55627,-4.40552 -2.0597,-0.009 -0.79894,4.41451 h -1.13041 l 1.9111,-10.27323 h 2.63882 c 1.55965,0 2.92857,0.0225 3.72795,0.93866 z m -75.962225,1.25494 c -0.129341,0.82647 0.125071,1.79802 1.046573,2.44204 l 3.283611,2.29186 c 0.344509,0.23759 0.514813,0.40086 0.473102,0.67917 -0.0617,0.38269 -0.262406,0.53879 -0.943176,0.53879 h -3.81888 c -0.407979,0 -0.630462,0.19941 -0.704622,0.66017 v 1.42346 h 4.473972 c 1.960647,0 2.930755,-1.15619 3.125822,-2.38569 0.183332,-1.15485 -0.205055,-1.98046 -0.950995,-2.51248 l -3.489444,-2.47715 c -0.280225,-0.20163 -0.350163,-0.30597 -0.331049,-0.45651 0.03177,-0.25254 0.26067,-0.35637 0.658182,-0.35637 h 3.987324 c 0.487868,0 0.765482,-0.49726 0.843251,-0.99193 v -1.0934 h -5.273273 c -1.169215,0 -2.19102,1.04588 -2.380398,2.23804 z m 39.744065,-2.23908 h -5.52826 l -0.0291,0.16531 c -0.12815,0.69749 -0.0708,1.50525 1.0318,1.50525 h 4.09547 c 1.62308,0 2.24301,1.17299 1.84158,3.37544 -0.36882,2.01643 -1.45537,3.55735 -3.10711,3.55735 h -2.22043 l 1.05441,-5.77877 h -1.88897 c -0.25326,0 -0.42879,0.18445 -0.45919,0.34959 l -1.29507,7.09906 h 4.33051 c 3.19835,0 5.42658,-1.50479 6.11821,-5.30191 0.53305,-2.91688 -0.68163,-4.97132 -3.94385,-4.97132 z m -13.127053,8.60418 h -4.364376 l 1.507942,-8.25441 c 0.0287,-0.16513 -0.0942,-0.34873 -0.299757,-0.34873 h -1.921541 l -1.875039,10.27219 h 7.230819 l 0.187251,-1.02672 c 0.0834,-0.4599 -0.0708,-0.64233 -0.465299,-0.64233 z m 5.440073,-8.60418 h -1.921533 l -1.875477,10.27323 h 2.28429 l 1.81248,-9.92446 c 0.0299,-0.16531 -0.0934,-0.34877 -0.29976,-0.34877 z m -17.764703,1.76136 c -2.083583,0 -3.175336,1.21083 -3.565906,3.59519 -0.392303,2.38691 0.301937,3.59605 2.385967,3.59605 2.083142,0 3.173587,-1.20914 3.565883,-3.59605 0.391861,-2.38436 -0.301927,-3.59519 -2.385944,-3.59519 z m 4.653722,3.59519 c -0.479187,2.91671 -2.452844,5.3579 -6.123001,5.3579 -3.671483,0 -4.843603,-2.44119 -4.365281,-5.3579 0.478755,-2.91637 2.454166,-5.35551 6.124337,-5.35551 3.670588,0 4.843132,2.43914 4.363945,5.35551 z m -26.688011,-8.93423 c -2.181894,-0.35789 -6.0851066,-0.49709 -7.4191566,1.5477 -1.030759,1.58046 0.917239,3.74385 2.6908576,5.84051 1.421239,1.67926 2.968634,3.28331 2.336829,4.22093 -0.515429,0.76536 -3.8212316,0.76414 -4.9599546,0.8244 -1.383963,0.0734 -3.374928,0.0781 -3.722824,0.26727 -0.31206,0.16752 -0.486538,0.68937 0.684598,0.89895 0.939308,0.16851 3.177729,0.51163 5.5401846,0.50959 2.464598,0 5.054954,-0.40437 5.616698,-2.31358 0.450899,-1.53275 -1.113441,-3.17547 -2.489928,-4.84247 -1.506127,-1.82384 -3.031933,-3.12529 -2.903636,-4.41707 0.09877,-1.00447 2.06972,-1.06222 5.340252,-1.1199 0.680683,-0.0126 2.035273,-0.0454 1.774087,-0.58208 -0.232641,-0.47432 -1.245457,-0.6318 -2.488007,-0.83425 z m -10.0612606,4.55027 c -1.399726,-0.96004 -3.895085,-1.28162 -5.949348,-1.17522 -1.828568,0.0974 -4.974364,0.67835 -4.855377,1.2572 0.110465,0.62533 2.102267,0.43135 3.014248,0.43135 2.005435,0 5.189604,0.12356 5.690907,1.41538 1.081496,2.78534 -6.251248,7.78517 -7.815587,7.30542 -0.70679,-0.2164 1.436572,-3.85113 2.214837,-5.15867 0.462758,-0.78013 1.167208,-2.00626 0.565772,-2.08907 -0.671865,-0.0928 -1.411942,1.06118 -1.892396,1.72675 -1.304839,1.80819 -2.641931,3.78152 -3.71275,5.80945 -0.331776,0.62625 -1.430956,2.51112 -1.053516,2.75467 0.351935,0.22656 2.029153,-0.0951 4.162133,-0.941 6.706888,-2.65588 9.725914,-6.11479 10.534413,-8.97398 0.283563,-1.00635 -0.206189,-1.88492 -0.903336,-2.36228 z m -4.97897,-12.209885 c -0.137988,-0.45022 2.098573,-1.03723 4.551999,-1.14585 2.471198,-0.10874 5.3955586,0.38323 5.9403086,2.01422 0.893005,2.67199 -3.6323326,6.567895 -7.5755936,8.481655 -0.967804,0.46854 -1.553477,0.59772 -1.798027,0.56496 -0.232296,-0.0304 -0.268613,-0.24812 -0.19242,-0.39748 0.139811,-0.28083 0.776394,-0.85377 1.627293,-1.47524 4.439096,-3.242845 5.882798,-5.620425 5.04393,-6.584665 -0.537804,-0.61773 -2.787739,-1.04675 -5.124384,-1.04675 -0.634858,0 -2.301854,0.13833 -2.473106,-0.41085" />
  </g>
</svg>
