<?xml version="1.0" encoding="UTF-8"?>
<!-- Created with Inkscape (http://www.inkscape.org/) -->
<svg width="430.97" height="543.37" version="1.1" viewBox="0 0 114.03 143.77" xmlns="http://www.w3.org/2000/svg" xmlns:cc="http://creativecommons.org/ns#" xmlns:dc="http://purl.org/dc/elements/1.1/" xmlns:rdf="http://www.w3.org/1999/02/22-rdf-syntax-ns#">
 <metadata>
  <rdf:RDF>
   <cc:Work rdf:about="">
    <dc:format>image/svg+xml</dc:format>
    <dc:type rdf:resource="http://purl.org/dc/dcmitype/StillImage"/>
    <dc:title/>
   </cc:Work>
  </rdf:RDF>
 </metadata>
 <g transform="translate(-460.29 -191.48)">
  <g transform="matrix(.43479 0 0 -.43479 -348.65 285.58)">
   <g transform="matrix(10.118 0 0 -10.118 -1100.6 3163.8)">
    <path d="m298.55 323.96c-0.78978-0.16157-1.0849-1.3185-0.5046-1.9778 0.21966-0.24955 0.4843-0.3399 0.91464-0.31228 0.4456 0.0286 0.66994 0.17039 0.86176 0.54462 0.13571 0.26485 0.14125 0.29406 0.12513 0.66079-0.0186 0.42088-0.0984 0.63267-0.31653 0.83975-0.23351 0.2216-0.68938 0.32497-1.0804 0.24497zm0.53432-0.51757c0.16405-0.0747 0.27571-0.32541 0.27564-0.61874-5e-5 -0.32342-0.0998-0.5212-0.31612-0.62678-0.15167-0.074-0.18289-0.076-0.34106-0.0213-0.29828 0.10313-0.4398 0.51735-0.32183 0.94209 0.0856 0.30819 0.41048 0.45819 0.70337 0.32475zm4.4538 0.51757c-0.78978-0.16157-1.0849-1.3185-0.5046-1.9778 0.21966-0.24955 0.48429-0.3399 0.91464-0.31228 0.4456 0.0286 0.66995 0.17039 0.86176 0.54462 0.13571 0.26485 0.14125 0.29406 0.12513 0.66079-0.0186 0.42088-0.0984 0.63267-0.31654 0.83975-0.2335 0.2216-0.68937 0.32497-1.0804 0.24497zm0.53432-0.51757c0.16405-0.0747 0.27571-0.32541 0.27564-0.61874-5e-5 -0.32342-0.0998-0.5212-0.31612-0.62678-0.15167-0.074-0.1829-0.076-0.34106-0.0213-0.29829 0.10313-0.4398 0.51735-0.32182 0.94209 0.0856 0.30819 0.41047 0.45819 0.70336 0.32475zm4.4677 0.51968c-0.35689-0.0737-0.50656-0.19459-0.66139-0.53415-0.13047-0.28615-0.13272-0.88367-4e-3 -1.1712 0.19706-0.44154 0.63937-0.6529 1.1705-0.55934 0.14017 0.0247 0.31927 0.0847 0.39801 0.13336 0.1565 0.0967 0.31972 0.38652 0.31972 0.56767 0 0.11249-5e-3 0.11444-0.27846 0.11444-0.22674 0-0.28335-0.0139-0.30478-0.0746-0.0553-0.15663-0.19692-0.26646-0.3436-0.26646-0.31549 0-0.45384 0.20144-0.45384 0.66081 0 0.4598 0.1383 0.66082 0.45466 0.66082 0.15778 0 0.25369-0.0786 0.32513-0.26654 0.0424-0.1116 0.058-0.11716 0.3283-0.11716h0.28373l-0.0258 0.1592c-0.0785 0.48355-0.64592 0.80921-1.2078 0.69314zm-7.3042-0.0476c-0.0586-0.0234-0.14973-0.083-0.20252-0.13263l-0.0959-0.0901v0.11401c0 0.1119-5e-3 0.11402-0.27711 0.11402h-0.27713v-2.9417h0.55424v0.98814l0.12984-0.10925c0.18933-0.15931 0.42428-0.21168 0.69631-0.15521 0.47084 0.0978 0.70864 0.47009 0.70864 1.1095 0 0.55027-0.2174 0.9738-0.56768 1.1058-0.14835 0.0559-0.52547 0.0545-0.66866-3e-3zm0.38005-0.48314c0.16346-0.0845 0.25942-0.306 0.25942-0.59874 0-0.31042-0.0983-0.52017-0.28557-0.60948-0.12868-0.0614-0.16322-0.0621-0.31934-7e-3 -0.22949 0.0813-0.33301 0.2699-0.33301 0.60663 0 0.51707 0.31276 0.7975 0.6785 0.60837zm4.2883 0.49734c-0.20694-0.02-0.348-0.0926-0.39948-0.20567-0.0297-0.0653-0.0482-0.3821-0.0482-0.82846v-0.72276h-0.29843v-0.42633h0.29843v-0.59687h0.55424v0.59687h0.38837l-0.0131 0.2025-0.013 0.20251-0.36238 0.0262v0.6072c0 0.66788 0.0143 0.70953 0.243 0.70953 0.14002 0 0.1407 9.5e-4 0.1407 0.20887v0.20887l-0.1812 0.015c-0.0997 8e-3 -0.23875 9e-3 -0.30909 3e-3zm4.5618-0.0469c-0.26618-0.12285-0.44765-0.36782-0.44765-0.60433 0-0.0734 0.0317-0.0825 0.28909-0.0825 0.28185 0 0.29029 3e-3 0.3372 0.12749 0.0275 0.0727 0.0968 0.14598 0.16133 0.17053 0.28432 0.10809 0.63792 2e-3 0.61104-0.18331-0.0147-0.1013-0.1177-0.14599-0.66593-0.28891-0.48405-0.12618-0.64746-0.27502-0.64746-0.58969 0-0.51164 0.39317-0.80961 1.0019-0.75925 0.49135 0.0407 0.76384 0.22832 0.81823 0.56349l0.0243 0.14962h-0.28375c-0.26188 0-0.2868-8e-3 -0.32347-0.10443-0.0578-0.15195-0.32813-0.2187-0.53524-0.13216-0.1208 0.0505-0.1509 0.0848-0.14012 0.15951 0.0155 0.10702 0.11061 0.14898 0.66659 0.29391 0.42055 0.10964 0.6225 0.2675 0.67067 0.52432 0.0631 0.33641-0.16008 0.70213-0.48328 0.79189-0.26645 0.074-0.85874 0.0537-1.0534-0.0362zm-15.455-1.4329v-1.4708h0.87537c0.9119 0 1.0728 0.0259 1.2699 0.20413 0.14215 0.12855 0.24216 0.37865 0.24216 0.60557 0 0.27191-0.0787 0.46297-0.2502 0.60727-0.12412 0.10443-0.12844 0.11678-0.0591 0.16854 0.17023 0.12708 0.19863 0.21252 0.22621 0.68022 0.0152 0.258 0.0495 0.48888 0.0766 0.51601 0.12163 0.12161 0.0528 0.15995-0.28697 0.15995-0.38954 0-0.38693 3e-3 -0.38833-0.46897 0-0.344-0.0645-0.58254-0.16994-0.63899-0.0443-0.0237-0.2737-0.0431-0.50972-0.0431h-0.42914v1.1511h-0.59688zm1.6712-0.32172c0.11222-0.11222 0.12646-0.15135 0.10476-0.28778-0.015-0.0942-0.0697-0.19659-0.13555-0.25382-0.10001-0.0869-0.15425-0.0959-0.57698-0.0959h-0.46658v0.76739h0.47223c0.46948 0 0.47301-7.3e-4 0.60212-0.12987zm10.053 0.70542v-1.0871h0.59686v2.1743h-0.59686zm0.0284-1.3714c-0.0157-0.0156-0.0284-0.14033-0.0284-0.27711v-0.24869h0.59686v0.55423h-0.27001c-0.1485 0-0.28281-0.0128-0.29842-0.0284zm-4.4404-3.13c-0.68594-0.16923-0.88991-1.0287-0.35815-1.5092 0.0937-0.0846 0.21471-0.1741 0.26894-0.19882l0.0986-0.0449-0.14354-0.23838c-0.16825-0.2794-0.18759-0.51171-0.06-0.72094 0.11626-0.19068 0.29067-0.26853 0.60149-0.26853 0.24859 0 0.27197 9e-3 0.42847 0.16552 0.147 0.14701 0.16549 0.18872 0.16534 0.37304-1.8e-4 0.2589-0.10584 0.4409-0.35984 0.61994-0.21821 0.1538-0.23752 0.096 0.20929 0.62635 0.33379 0.3962 0.37195 0.39665 0.42392 5e-3 0.0256-0.19319 0.0382-0.21239 0.13919-0.21239 0.10954 0 0.11073 3e-3 0.0885 0.24888-0.0123 0.13689-0.0546 0.31095-0.0939 0.3868-0.079 0.1528-0.094 0.12217 0.2781 0.56871l0.13322 0.15987h-0.17226c-0.14792 0-0.19198-0.0235-0.31169-0.16606l-0.13942-0.16606-0.16109 0.1379c-0.25069 0.21458-0.7003 0.3159-1.0352 0.23329zm0.63896-0.29018c0.0938-0.0433 0.2164-0.12854 0.27249-0.18943l0.10195-0.11073-0.41587-0.49289-0.41589-0.49289-0.13373 0.0836c-0.37115 0.23191-0.5221 0.68788-0.33038 0.99808 0.17026 0.27546 0.57353 0.36487 0.92143 0.20431zm-0.17656-1.7057c0.15355-0.10124 0.2825-0.2942 0.28286-0.42331 0-0.13563-0.22048-0.34844-0.36163-0.34844-0.21777 0-0.4017 0.15353-0.40415 0.33733-2e-3 0.1183 0.23919 0.51547 0.31218 0.51505 0.0269-1.8e-4 0.10369-0.0364 0.17074-0.0806zm-5.1282 1.9247c-0.22091-0.11264-0.31786-0.27192-0.31786-0.52219 0-0.39787 0.22879-0.57509 0.85973-0.66591 0.56526-0.0814 0.60618-0.10239 0.60618-0.31136 0-0.11631-0.0315-0.20566-0.10084-0.2863-0.0864-0.10041-0.13992-0.11965-0.37304-0.13402-0.23213-0.0143-0.29417-2e-3 -0.4214 0.0838-0.0885 0.0596-0.16583 0.15662-0.19002 0.23822-0.0333 0.11251-0.0625 0.13764-0.15987 0.13764-0.0966 0-0.11908-0.0189-0.11908-0.10028 0-0.12364 0.15135-0.35214 0.31218-0.47135 0.16054-0.11899 0.74535-0.15074 0.97891-0.0532 0.2925 0.12222 0.32864 0.24294 0.32881 1.0992 1.8e-4 0.78417 0.023 0.88486 0.18661 0.82208 0.0531-0.0204 0.0693-4.8e-4 0.0693 0.0845 0 0.11506-0.0428 0.13428-0.25528 0.11458-0.13586-0.0126-0.21369-0.0779-0.21369-0.17918 0-0.10319-0.0201-0.10093-0.18403 0.0206-0.27921 0.20717-0.73293 0.26264-1.0066 0.12306zm0.83686-0.25199c0.21519-0.10212 0.31085-0.28166 0.31104-0.58385 1.2e-4 -0.22097-8e-3 -0.24622-0.0744-0.2194-0.041 0.0167-0.21627 0.0469-0.38938 0.0671-0.57459 0.0671-0.72976 0.16682-0.72976 0.46886 0 0.33959 0.44572 0.4746 0.88254 0.26732zm12.867 0.27522c-0.39776-0.13904-0.58206-0.43636-0.60978-0.98375-0.0285-0.56207 0.13296-0.90759 0.51511-1.1026 0.26104-0.13316 0.7585-0.10231 1.0075 0.0625 0.27095 0.17932 0.40891 0.49897 0.40804 0.94548 0 0.18759-0.0264 0.41466-0.0578 0.5046-0.0766 0.21947-0.28673 0.45089-0.49537 0.54567-0.18944 0.0861-0.56282 0.0997-0.76776 0.0281zm0.59219-0.22097c0.3052-0.12752 0.45812-0.41006 0.45916-0.84829 0-0.50548-0.22776-0.82774-0.61945-0.87189-0.4615-0.052-0.79382 0.31808-0.79382 0.88413 0 0.6434 0.45693 1.0438 0.95411 0.83605zm-18.349-1.1345v-1.3643h-0.93794v-0.21317h2.1743v0.21317h-0.93794v2.7285h-0.29843zm1.5774 0.29843v-1.0658h0.12789c0.11913 0 0.128 0.0109 0.12926 0.15988l2e-3 0.15987 0.0883-0.11844c0.11041-0.14802 0.29171-0.24394 0.46107-0.24394 0.11604 0 0.13001 0.0137 0.13001 0.1279 0 0.10051-0.0186 0.1279-0.0874 0.1279-0.20812 0-0.46326 0.21705-0.54621 0.46467-0.0279 0.0833-0.0485 0.42326-0.0485 0.79937v0.65445h-0.25579zm1.4069 0v-1.0658h0.25579v2.1317h-0.25579zm3.1975-0.40501v-1.4708h0.25579v2.9417h-0.25579zm5.926 0v-1.4708h1.9611v0.21136l-0.84201 0.0116-0.84199 0.0115-0.0121 0.52226-0.0121 0.52225h1.5374v0.2558h-1.5348v1.1511h1.748v0.2558h-2.0038zm2.4301 0.40501v-1.0658h0.12791c0.11913 0 0.12798 0.0109 0.12923 0.15988l2e-3 0.15987 0.0883-0.11844c0.1104-0.14802 0.2917-0.24394 0.46106-0.24394 0.11604 0 0.13004 0.0137 0.13004 0.1279 0 0.10051-0.0186 0.1279-0.0874 0.1279-0.20813 0-0.46327 0.21705-0.54619 0.46467-0.0279 0.0833-0.0486 0.42326-0.0486 0.79937v0.65445h-0.25579zm1.3642 0v-1.0658h0.12791c0.11913 0 0.128 0.0109 0.12926 0.15988l2e-3 0.15987 0.0883-0.11844c0.11041-0.14802 0.29171-0.24394 0.46107-0.24394 0.11604 0 0.13001 0.0137 0.13001 0.1279 0 0.10051-0.0186 0.1279-0.0874 0.1279-0.20812 0-0.46326 0.21705-0.54621 0.46467-0.0279 0.0833-0.0485 0.42326-0.0485 0.79937v0.65445h-0.25579zm3.6238 0v-1.0658h0.12791c0.11913 0 0.12798 0.0109 0.12923 0.15988l2e-3 0.15987 0.0884-0.11844c0.1104-0.14802 0.2917-0.24394 0.46106-0.24394 0.11604 0 0.13004 0.0137 0.13004 0.1279 0 0.10051-0.0186 0.1279-0.0874 0.1279-0.20813 0-0.46327 0.21705-0.5462 0.46467-0.0279 0.0833-0.0486 0.42326-0.0486 0.79937v0.65445h-0.2558zm-16.584-1.7053c0-0.16647 4e-3 -0.17053 0.14923-0.17053 0.14565 0 0.1492 4e-3 0.1492 0.17053 0 0.16648-4e-3 0.17054-0.1492 0.17054-0.14567 0-0.14923-4e-3 -0.14923-0.17054zm5.3958-1.9718c0.0309-0.14655 0.87271-4.1111 1.8706-8.8101 0.99795-4.699 1.8145-8.56 1.8145-8.5799 0-0.0199 2.9161-0.0363 6.4802-0.0363 5.8426 0 6.4802 7e-3 6.4802 0.0665 0 0.0366-0.14388 0.73317-0.31974 1.548-0.17587 0.8148-0.31975 1.4947-0.31975 1.5109 0 0.0162-2.1069 0.0295-4.6819 0.0295h-4.6819l-0.38793 1.843c-0.21335 1.0136-0.37877 1.8578-0.36758 1.8759 0.0111 0.0181 1.9377 0.0329 4.2811 0.0329 2.3434 0 4.2608 9e-3 4.2608 0.0208 0 0.0114-0.14391 0.68759-0.31977 1.5026s-0.31974 1.4964-0.31974 1.514c0 0.0177-1.9377 0.0322-4.306 0.0322-2.3683 0-4.3059 0.0152-4.3059 0.0338 0 0.0356-0.87461 4.1961-0.92061 4.3793l-0.0266 0.10591h4.8861c2.6874 0 4.8869 0.0144 4.8878 0.032 0 0.0176-0.14654 0.73702-0.32767 1.5987l-0.32937 1.5668h-13.403zm-5.14-4.5801c0-0.0368 3.0247-14.334 3.0538-14.434 0.0203-0.0705-0.12467-0.0746-2.6246-0.0746-2.3121 0-2.6461-8e-3 -2.6461-0.0633 0-0.0348 0.14388-0.73536 0.31976-1.5567 0.17587-0.82137 0.31975-1.5027 0.31975-1.5141 0-0.0114 3.2231-0.0207 7.1624-0.0207 5.7028 0 7.1619 0.0108 7.16 0.0533-2e-3 0.0293-0.15 0.73435-0.3304 1.5668l-0.32801 1.5135-2.6539 0.011c-1.4751 6e-3 -2.6539 0.0275-2.6539 0.0482 0 0.0445-3.0208 14.318-3.053 14.425-0.0208 0.0696-0.14744 0.0746-1.874 0.0746-1.0184 0-1.8517-0.0131-1.8517-0.029z" stroke-width=".042633"/>
   </g>
  </g>
 </g>
</svg>
